G04*
G04 #@! TF.GenerationSoftware,Altium Limited,CircuitStudio,1.5.2 (30)*
G04*
G04 Layer_Color=2752767*
%FSLAX25Y25*%
%MOIN*%
G70*
G01*
G75*
%ADD38C,0.01000*%
%ADD44C,0.01500*%
%ADD45C,0.00800*%
%ADD46C,0.00600*%
%ADD115C,0.00333*%
%ADD116C,0.01600*%
D38*
X308937Y1537126D02*
Y1546000D01*
X702638Y1541063D02*
Y1546000D01*
X308937Y1545000D02*
X486592D01*
X521782D02*
X702638D01*
X308937D02*
X314937Y1543000D01*
X308937Y1545000D02*
X314937Y1547000D01*
X696638D02*
X702638Y1545000D01*
X696638Y1543000D02*
X702638Y1545000D01*
X293189Y1527701D02*
Y1529701D01*
X289252Y1135000D02*
X294189D01*
X293189Y1347845D02*
Y1528701D01*
Y1135000D02*
Y1312656D01*
X291189Y1522701D02*
X293189Y1528701D01*
X295189Y1522701D01*
X293189Y1135000D02*
X295189Y1141000D01*
X291189D02*
X293189Y1135000D01*
X409000Y1137000D02*
X670000D01*
X409000D02*
Y1167500D01*
X350000Y1135000D02*
X401000D01*
Y1137000D02*
Y1167500D01*
X409000D01*
X302500Y1135000D02*
X349700D01*
X308937Y1133563D02*
Y1167500D01*
X345700Y1139000D02*
X349700Y1135000D01*
X670300D02*
X674300Y1139000D01*
X345700D02*
Y1167500D01*
X308937D02*
X345700D01*
X674300Y1139000D02*
Y1167500D01*
X702500D01*
X308937D02*
Y1528701D01*
X702500D01*
Y1167500D02*
Y1528701D01*
X401000Y1135000D02*
Y1167500D01*
X409000Y1135000D02*
Y1167500D01*
X349700Y1135000D02*
X401000D01*
X409000D02*
X670300D01*
X401000Y1167500D02*
X409000D01*
X1227064Y1267998D02*
X1231063D01*
Y1266998D01*
X1227064Y1263000D01*
Y1262000D01*
X1233062Y1266998D02*
X1234062Y1267998D01*
X1236061D01*
X1237061Y1266998D01*
Y1265999D01*
X1236061Y1264999D01*
X1237061Y1263999D01*
Y1263000D01*
X1236061Y1262000D01*
X1234062D01*
X1233062Y1263000D01*
Y1263999D01*
X1234062Y1264999D01*
X1233062Y1265999D01*
Y1266998D01*
X1234062Y1264999D02*
X1236061D01*
X1239060Y1262000D02*
Y1263000D01*
X1240060D01*
Y1262000D01*
X1239060D01*
X1244059Y1267998D02*
X1248057D01*
Y1266998D01*
X1244059Y1263000D01*
Y1262000D01*
X1253056D02*
Y1267998D01*
X1250057Y1264999D01*
X1254055D01*
X1256055Y1262000D02*
Y1265999D01*
X1257054D01*
X1258054Y1264999D01*
Y1262000D01*
Y1264999D01*
X1259054Y1265999D01*
X1260053Y1264999D01*
Y1262000D01*
X1262053D02*
X1264052D01*
X1263052D01*
Y1265999D01*
X1262053D01*
X1267051Y1262000D02*
X1269051D01*
X1268051D01*
Y1267998D01*
X1267051D01*
X1280047Y1262000D02*
X1278048Y1263999D01*
Y1265999D01*
X1280047Y1267998D01*
X1287045Y1262000D02*
X1283046D01*
X1287045Y1265999D01*
Y1266998D01*
X1286045Y1267998D01*
X1284046D01*
X1283046Y1266998D01*
X1289044Y1262000D02*
Y1263000D01*
X1290044D01*
Y1262000D01*
X1289044D01*
X1294042Y1266998D02*
X1295042Y1267998D01*
X1297042D01*
X1298041Y1266998D01*
Y1263000D01*
X1297042Y1262000D01*
X1295042D01*
X1294042Y1263000D01*
Y1266998D01*
X1300041D02*
X1301040Y1267998D01*
X1303039D01*
X1304039Y1266998D01*
Y1263000D01*
X1303039Y1262000D01*
X1301040D01*
X1300041Y1263000D01*
Y1266998D01*
X1306039D02*
X1307038Y1267998D01*
X1309038D01*
X1310037Y1266998D01*
Y1263000D01*
X1309038Y1262000D01*
X1307038D01*
X1306039Y1263000D01*
Y1266998D01*
X1312037Y1262000D02*
Y1265999D01*
X1313036D01*
X1314036Y1264999D01*
Y1262000D01*
Y1264999D01*
X1315036Y1265999D01*
X1316035Y1264999D01*
Y1262000D01*
X1318035D02*
Y1265999D01*
X1319034D01*
X1320034Y1264999D01*
Y1262000D01*
Y1264999D01*
X1321034Y1265999D01*
X1322033Y1264999D01*
Y1262000D01*
X1324033D02*
X1326032Y1263999D01*
Y1265999D01*
X1324033Y1267998D01*
X1112897Y1262000D02*
X1114896D01*
X1113897D01*
Y1267998D01*
X1112897Y1266998D01*
X1117896Y1262000D02*
X1119895D01*
X1118895D01*
Y1267998D01*
X1117896Y1266998D01*
X1122894D02*
X1123894Y1267998D01*
X1125893D01*
X1126893Y1266998D01*
Y1265999D01*
X1125893Y1264999D01*
X1126893Y1263999D01*
Y1263000D01*
X1125893Y1262000D01*
X1123894D01*
X1122894Y1263000D01*
Y1263999D01*
X1123894Y1264999D01*
X1122894Y1265999D01*
Y1266998D01*
X1123894Y1264999D02*
X1125893D01*
X1128892Y1262000D02*
Y1263000D01*
X1129892D01*
Y1262000D01*
X1128892D01*
X1133890D02*
X1135890D01*
X1134890D01*
Y1267998D01*
X1133890Y1266998D01*
X1138889Y1262000D02*
X1140888D01*
X1139888D01*
Y1267998D01*
X1138889Y1266998D01*
X1143887Y1262000D02*
Y1265999D01*
X1144887D01*
X1145886Y1264999D01*
Y1262000D01*
Y1264999D01*
X1146886Y1265999D01*
X1147886Y1264999D01*
Y1262000D01*
X1149885D02*
X1151884D01*
X1150885D01*
Y1265999D01*
X1149885D01*
X1154883Y1262000D02*
X1156883D01*
X1155883D01*
Y1267998D01*
X1154883D01*
X1167879Y1262000D02*
X1165880Y1263999D01*
Y1265999D01*
X1167879Y1267998D01*
X1170878Y1266998D02*
X1171878Y1267998D01*
X1173877D01*
X1174877Y1266998D01*
Y1265999D01*
X1173877Y1264999D01*
X1172878D01*
X1173877D01*
X1174877Y1263999D01*
Y1263000D01*
X1173877Y1262000D01*
X1171878D01*
X1170878Y1263000D01*
X1176876Y1262000D02*
Y1263000D01*
X1177876D01*
Y1262000D01*
X1176876D01*
X1181875Y1266998D02*
X1182874Y1267998D01*
X1184874D01*
X1185874Y1266998D01*
Y1263000D01*
X1184874Y1262000D01*
X1182874D01*
X1181875Y1263000D01*
Y1266998D01*
X1187873D02*
X1188873Y1267998D01*
X1190872D01*
X1191871Y1266998D01*
Y1263000D01*
X1190872Y1262000D01*
X1188873D01*
X1187873Y1263000D01*
Y1266998D01*
X1193871D02*
X1194871Y1267998D01*
X1196870D01*
X1197870Y1266998D01*
Y1263000D01*
X1196870Y1262000D01*
X1194871D01*
X1193871Y1263000D01*
Y1266998D01*
X1199869Y1262000D02*
Y1265999D01*
X1200869D01*
X1201868Y1264999D01*
Y1262000D01*
Y1264999D01*
X1202868Y1265999D01*
X1203868Y1264999D01*
Y1262000D01*
X1205867D02*
Y1265999D01*
X1206867D01*
X1207866Y1264999D01*
Y1262000D01*
Y1264999D01*
X1208866Y1265999D01*
X1209866Y1264999D01*
Y1262000D01*
X1211865D02*
X1213864Y1263999D01*
Y1265999D01*
X1211865Y1267998D01*
X1043516Y1266998D02*
X1042516Y1267998D01*
X1040517D01*
X1039517Y1266998D01*
Y1265999D01*
X1040517Y1264999D01*
X1042516D01*
X1043516Y1263999D01*
Y1263000D01*
X1042516Y1262000D01*
X1040517D01*
X1039517Y1263000D01*
X1045515Y1262000D02*
X1047514D01*
X1046515D01*
Y1267998D01*
X1045515D01*
X1051513Y1262000D02*
X1053512D01*
X1054512Y1263000D01*
Y1264999D01*
X1053512Y1265999D01*
X1051513D01*
X1050513Y1264999D01*
Y1263000D01*
X1051513Y1262000D01*
X1057511Y1266998D02*
Y1265999D01*
X1056511D01*
X1058511D01*
X1057511D01*
Y1263000D01*
X1058511Y1262000D01*
X1039517Y1247000D02*
Y1252998D01*
X1042516D01*
X1043516Y1251998D01*
Y1249999D01*
X1042516Y1248999D01*
X1039517D01*
X1041516D02*
X1043516Y1247000D01*
X1046515D02*
X1048514D01*
X1049514Y1248000D01*
Y1249999D01*
X1048514Y1250999D01*
X1046515D01*
X1045515Y1249999D01*
Y1248000D01*
X1046515Y1247000D01*
X1051513Y1250999D02*
Y1248000D01*
X1052513Y1247000D01*
X1055512D01*
Y1250999D01*
X1057511Y1247000D02*
Y1250999D01*
X1060510D01*
X1061510Y1249999D01*
Y1247000D01*
X1067508Y1252998D02*
Y1247000D01*
X1064509D01*
X1063509Y1248000D01*
Y1249999D01*
X1064509Y1250999D01*
X1067508D01*
X1039517Y1232000D02*
Y1237998D01*
X1042516D01*
X1043516Y1236998D01*
Y1234999D01*
X1042516Y1233999D01*
X1039517D01*
X1041516D02*
X1043516Y1232000D01*
X1046515D02*
X1048514D01*
X1049514Y1233000D01*
Y1234999D01*
X1048514Y1235999D01*
X1046515D01*
X1045515Y1234999D01*
Y1233000D01*
X1046515Y1232000D01*
X1051513Y1235999D02*
Y1233000D01*
X1052513Y1232000D01*
X1055512D01*
Y1235999D01*
X1057511Y1232000D02*
Y1235999D01*
X1060510D01*
X1061510Y1234999D01*
Y1232000D01*
X1067508Y1237998D02*
Y1232000D01*
X1064509D01*
X1063509Y1233000D01*
Y1234999D01*
X1064509Y1235999D01*
X1067508D01*
X1039517Y1217000D02*
Y1222998D01*
X1042516D01*
X1043516Y1221998D01*
Y1219999D01*
X1042516Y1218999D01*
X1039517D01*
X1041516D02*
X1043516Y1217000D01*
X1046515D02*
X1048514D01*
X1049514Y1218000D01*
Y1219999D01*
X1048514Y1220999D01*
X1046515D01*
X1045515Y1219999D01*
Y1218000D01*
X1046515Y1217000D01*
X1051513Y1220999D02*
Y1218000D01*
X1052513Y1217000D01*
X1055512D01*
Y1220999D01*
X1057511Y1217000D02*
Y1220999D01*
X1060510D01*
X1061510Y1219999D01*
Y1217000D01*
X1067508Y1222998D02*
Y1217000D01*
X1064509D01*
X1063509Y1218000D01*
Y1219999D01*
X1064509Y1220999D01*
X1067508D01*
X1039517Y1202000D02*
Y1207998D01*
X1042516D01*
X1043516Y1206998D01*
Y1204999D01*
X1042516Y1203999D01*
X1039517D01*
X1041516D02*
X1043516Y1202000D01*
X1046515D02*
X1048514D01*
X1049514Y1203000D01*
Y1204999D01*
X1048514Y1205999D01*
X1046515D01*
X1045515Y1204999D01*
Y1203000D01*
X1046515Y1202000D01*
X1051513Y1205999D02*
Y1203000D01*
X1052513Y1202000D01*
X1055512D01*
Y1205999D01*
X1057511Y1202000D02*
Y1205999D01*
X1060510D01*
X1061510Y1204999D01*
Y1202000D01*
X1067508Y1207998D02*
Y1202000D01*
X1064509D01*
X1063509Y1203000D01*
Y1204999D01*
X1064509Y1205999D01*
X1067508D01*
X1039517Y1187000D02*
Y1192998D01*
X1042516D01*
X1043516Y1191998D01*
Y1189999D01*
X1042516Y1188999D01*
X1039517D01*
X1041516D02*
X1043516Y1187000D01*
X1046515D02*
X1048514D01*
X1049514Y1188000D01*
Y1189999D01*
X1048514Y1190999D01*
X1046515D01*
X1045515Y1189999D01*
Y1188000D01*
X1046515Y1187000D01*
X1051513Y1190999D02*
Y1188000D01*
X1052513Y1187000D01*
X1055512D01*
Y1190999D01*
X1057511Y1187000D02*
Y1190999D01*
X1060510D01*
X1061510Y1189999D01*
Y1187000D01*
X1067508Y1192998D02*
Y1187000D01*
X1064509D01*
X1063509Y1188000D01*
Y1189999D01*
X1064509Y1190999D01*
X1067508D01*
X988929Y1262000D02*
Y1267998D01*
X991928D01*
X992928Y1266998D01*
Y1264999D01*
X991928Y1263999D01*
X988929D01*
X994927Y1267998D02*
X998926D01*
X996927D01*
Y1262000D01*
X1000925Y1267998D02*
Y1262000D01*
Y1264999D01*
X1004924D01*
Y1267998D01*
Y1262000D01*
X988929Y1247000D02*
Y1252998D01*
X991928D01*
X992928Y1251998D01*
Y1249999D01*
X991928Y1248999D01*
X988929D01*
X994927Y1252998D02*
X998926D01*
X996927D01*
Y1247000D01*
X1000925Y1252998D02*
Y1247000D01*
Y1249999D01*
X1004924D01*
Y1252998D01*
Y1247000D01*
X988929Y1232000D02*
Y1237998D01*
X991928D01*
X992928Y1236998D01*
Y1234999D01*
X991928Y1233999D01*
X988929D01*
X994927Y1237998D02*
X998926D01*
X996927D01*
Y1232000D01*
X1000925Y1237998D02*
Y1232000D01*
Y1234999D01*
X1004924D01*
Y1237998D01*
Y1232000D01*
X988929Y1217000D02*
Y1222998D01*
X991928D01*
X992928Y1221998D01*
Y1219999D01*
X991928Y1218999D01*
X988929D01*
X994927Y1222998D02*
X998926D01*
X996927D01*
Y1217000D01*
X1000925Y1222998D02*
Y1217000D01*
Y1219999D01*
X1004924D01*
Y1222998D01*
Y1217000D01*
X988929Y1202000D02*
Y1207998D01*
X991928D01*
X992928Y1206998D01*
Y1204999D01*
X991928Y1203999D01*
X988929D01*
X994927Y1207998D02*
X998926D01*
X996927D01*
Y1202000D01*
X1000925Y1207998D02*
Y1202000D01*
Y1204999D01*
X1004924D01*
Y1207998D01*
Y1202000D01*
X988929Y1187000D02*
Y1192998D01*
X991928D01*
X992928Y1191998D01*
Y1189999D01*
X991928Y1188999D01*
X988929D01*
X994927Y1192998D02*
X998926D01*
X996927D01*
Y1187000D01*
X1000925Y1192998D02*
Y1187000D01*
Y1189999D01*
X1004924D01*
Y1192998D01*
Y1187000D01*
X854369Y1266998D02*
X855369Y1267998D01*
X857368D01*
X858368Y1266998D01*
Y1265999D01*
X857368Y1264999D01*
X856368D01*
X857368D01*
X858368Y1263999D01*
Y1263000D01*
X857368Y1262000D01*
X855369D01*
X854369Y1263000D01*
X860367D02*
X861367Y1262000D01*
X863366D01*
X864366Y1263000D01*
Y1266998D01*
X863366Y1267998D01*
X861367D01*
X860367Y1266998D01*
Y1265999D01*
X861367Y1264999D01*
X864366D01*
X866365Y1262000D02*
Y1263000D01*
X867365D01*
Y1262000D01*
X866365D01*
X871363Y1266998D02*
X872363Y1267998D01*
X874362D01*
X875362Y1266998D01*
Y1265999D01*
X874362Y1264999D01*
X873363D01*
X874362D01*
X875362Y1263999D01*
Y1263000D01*
X874362Y1262000D01*
X872363D01*
X871363Y1263000D01*
X877361Y1267998D02*
X881360D01*
Y1266998D01*
X877361Y1263000D01*
Y1262000D01*
X883360D02*
Y1265999D01*
X884359D01*
X885359Y1264999D01*
Y1262000D01*
Y1264999D01*
X886359Y1265999D01*
X887358Y1264999D01*
Y1262000D01*
X889358D02*
X891357D01*
X890357D01*
Y1265999D01*
X889358D01*
X894356Y1262000D02*
X896355D01*
X895356D01*
Y1267998D01*
X894356D01*
X907352Y1262000D02*
X905352Y1263999D01*
Y1265999D01*
X907352Y1267998D01*
X910351Y1262000D02*
X912350D01*
X911351D01*
Y1267998D01*
X910351Y1266998D01*
X915349Y1262000D02*
Y1263000D01*
X916349D01*
Y1262000D01*
X915349D01*
X920348Y1266998D02*
X921347Y1267998D01*
X923347D01*
X924346Y1266998D01*
Y1263000D01*
X923347Y1262000D01*
X921347D01*
X920348Y1263000D01*
Y1266998D01*
X926346D02*
X927345Y1267998D01*
X929345D01*
X930344Y1266998D01*
Y1263000D01*
X929345Y1262000D01*
X927345D01*
X926346Y1263000D01*
Y1266998D01*
X932344D02*
X933343Y1267998D01*
X935343D01*
X936342Y1266998D01*
Y1263000D01*
X935343Y1262000D01*
X933343D01*
X932344Y1263000D01*
Y1266998D01*
X938342Y1262000D02*
Y1265999D01*
X939341D01*
X940341Y1264999D01*
Y1262000D01*
Y1264999D01*
X941341Y1265999D01*
X942340Y1264999D01*
Y1262000D01*
X944340D02*
Y1265999D01*
X945339D01*
X946339Y1264999D01*
Y1262000D01*
Y1264999D01*
X947339Y1265999D01*
X948339Y1264999D01*
Y1262000D01*
X950338D02*
X952337Y1263999D01*
Y1265999D01*
X950338Y1267998D01*
X854369Y1247000D02*
X856368D01*
X855369D01*
Y1252998D01*
X854369Y1251998D01*
X859367Y1247000D02*
X861367D01*
X860367D01*
Y1252998D01*
X859367Y1251998D01*
X864366D02*
X865365Y1252998D01*
X867365D01*
X868364Y1251998D01*
Y1250999D01*
X867365Y1249999D01*
X868364Y1248999D01*
Y1248000D01*
X867365Y1247000D01*
X865365D01*
X864366Y1248000D01*
Y1248999D01*
X865365Y1249999D01*
X864366Y1250999D01*
Y1251998D01*
X865365Y1249999D02*
X867365D01*
X870364Y1247000D02*
Y1248000D01*
X871363D01*
Y1247000D01*
X870364D01*
X875362Y1251998D02*
X876362Y1252998D01*
X878361D01*
X879361Y1251998D01*
Y1250999D01*
X878361Y1249999D01*
X877361D01*
X878361D01*
X879361Y1248999D01*
Y1248000D01*
X878361Y1247000D01*
X876362D01*
X875362Y1248000D01*
X881360Y1251998D02*
X882360Y1252998D01*
X884359D01*
X885359Y1251998D01*
Y1250999D01*
X884359Y1249999D01*
X883360D01*
X884359D01*
X885359Y1248999D01*
Y1248000D01*
X884359Y1247000D01*
X882360D01*
X881360Y1248000D01*
X887358Y1247000D02*
Y1250999D01*
X888358D01*
X889358Y1249999D01*
Y1247000D01*
Y1249999D01*
X890357Y1250999D01*
X891357Y1249999D01*
Y1247000D01*
X893356D02*
X895356D01*
X894356D01*
Y1250999D01*
X893356D01*
X898355Y1247000D02*
X900354D01*
X899354D01*
Y1252998D01*
X898355D01*
X911351Y1247000D02*
X909351Y1248999D01*
Y1250999D01*
X911351Y1252998D01*
X914349Y1251998D02*
X915349Y1252998D01*
X917348D01*
X918348Y1251998D01*
Y1250999D01*
X917348Y1249999D01*
X916349D01*
X917348D01*
X918348Y1248999D01*
Y1248000D01*
X917348Y1247000D01*
X915349D01*
X914349Y1248000D01*
X920348Y1247000D02*
Y1248000D01*
X921347D01*
Y1247000D01*
X920348D01*
X925346Y1251998D02*
X926346Y1252998D01*
X928345D01*
X929345Y1251998D01*
Y1248000D01*
X928345Y1247000D01*
X926346D01*
X925346Y1248000D01*
Y1251998D01*
X931344D02*
X932344Y1252998D01*
X934343D01*
X935343Y1251998D01*
Y1248000D01*
X934343Y1247000D01*
X932344D01*
X931344Y1248000D01*
Y1251998D01*
X941341Y1252998D02*
X939341Y1251998D01*
X937342Y1249999D01*
Y1248000D01*
X938342Y1247000D01*
X940341D01*
X941341Y1248000D01*
Y1248999D01*
X940341Y1249999D01*
X937342D01*
X943340Y1247000D02*
Y1250999D01*
X944340D01*
X945339Y1249999D01*
Y1247000D01*
Y1249999D01*
X946339Y1250999D01*
X947339Y1249999D01*
Y1247000D01*
X949338D02*
Y1250999D01*
X950338D01*
X951338Y1249999D01*
Y1247000D01*
Y1249999D01*
X952337Y1250999D01*
X953337Y1249999D01*
Y1247000D01*
X955336D02*
X957336Y1248999D01*
Y1250999D01*
X955336Y1252998D01*
X854369Y1236998D02*
X855369Y1237998D01*
X857368D01*
X858368Y1236998D01*
Y1235999D01*
X857368Y1234999D01*
X856368D01*
X857368D01*
X858368Y1233999D01*
Y1233000D01*
X857368Y1232000D01*
X855369D01*
X854369Y1233000D01*
X860367Y1236998D02*
X861367Y1237998D01*
X863366D01*
X864366Y1236998D01*
Y1235999D01*
X863366Y1234999D01*
X864366Y1233999D01*
Y1233000D01*
X863366Y1232000D01*
X861367D01*
X860367Y1233000D01*
Y1233999D01*
X861367Y1234999D01*
X860367Y1235999D01*
Y1236998D01*
X861367Y1234999D02*
X863366D01*
X866365Y1232000D02*
Y1233000D01*
X867365D01*
Y1232000D01*
X866365D01*
X871363Y1236998D02*
X872363Y1237998D01*
X874362D01*
X875362Y1236998D01*
Y1233000D01*
X874362Y1232000D01*
X872363D01*
X871363Y1233000D01*
Y1236998D01*
X877361D02*
X878361Y1237998D01*
X880361D01*
X881360Y1236998D01*
Y1233000D01*
X880361Y1232000D01*
X878361D01*
X877361Y1233000D01*
Y1236998D01*
X883360Y1232000D02*
Y1235999D01*
X884359D01*
X885359Y1234999D01*
Y1232000D01*
Y1234999D01*
X886359Y1235999D01*
X887358Y1234999D01*
Y1232000D01*
X889358D02*
X891357D01*
X890357D01*
Y1235999D01*
X889358D01*
X894356Y1232000D02*
X896355D01*
X895356D01*
Y1237998D01*
X894356D01*
X907352Y1232000D02*
X905352Y1233999D01*
Y1235999D01*
X907352Y1237998D01*
X910351Y1236998D02*
X911351Y1237998D01*
X913350D01*
X914349Y1236998D01*
Y1233000D01*
X913350Y1232000D01*
X911351D01*
X910351Y1233000D01*
Y1236998D01*
X916349Y1232000D02*
Y1233000D01*
X917349D01*
Y1232000D01*
X916349D01*
X921347Y1233000D02*
X922347Y1232000D01*
X924346D01*
X925346Y1233000D01*
Y1236998D01*
X924346Y1237998D01*
X922347D01*
X921347Y1236998D01*
Y1235999D01*
X922347Y1234999D01*
X925346D01*
X931344Y1237998D02*
X929345Y1236998D01*
X927345Y1234999D01*
Y1233000D01*
X928345Y1232000D01*
X930344D01*
X931344Y1233000D01*
Y1233999D01*
X930344Y1234999D01*
X927345D01*
X937342Y1237998D02*
X933343D01*
Y1234999D01*
X935343Y1235999D01*
X936342D01*
X937342Y1234999D01*
Y1233000D01*
X936342Y1232000D01*
X934343D01*
X933343Y1233000D01*
X939341Y1232000D02*
Y1235999D01*
X940341D01*
X941341Y1234999D01*
Y1232000D01*
Y1234999D01*
X942340Y1235999D01*
X943340Y1234999D01*
Y1232000D01*
X945339D02*
Y1235999D01*
X946339D01*
X947339Y1234999D01*
Y1232000D01*
Y1234999D01*
X948339Y1235999D01*
X949338Y1234999D01*
Y1232000D01*
X951338D02*
X953337Y1233999D01*
Y1235999D01*
X951338Y1237998D01*
X857368Y1217000D02*
Y1222998D01*
X854369Y1219999D01*
X858368D01*
X860367Y1221998D02*
X861367Y1222998D01*
X863366D01*
X864366Y1221998D01*
Y1218000D01*
X863366Y1217000D01*
X861367D01*
X860367Y1218000D01*
Y1221998D01*
X866365Y1217000D02*
Y1218000D01*
X867365D01*
Y1217000D01*
X866365D01*
X871363Y1221998D02*
X872363Y1222998D01*
X874362D01*
X875362Y1221998D01*
Y1218000D01*
X874362Y1217000D01*
X872363D01*
X871363Y1218000D01*
Y1221998D01*
X877361D02*
X878361Y1222998D01*
X880361D01*
X881360Y1221998D01*
Y1218000D01*
X880361Y1217000D01*
X878361D01*
X877361Y1218000D01*
Y1221998D01*
X883360Y1217000D02*
Y1220999D01*
X884359D01*
X885359Y1219999D01*
Y1217000D01*
Y1219999D01*
X886359Y1220999D01*
X887358Y1219999D01*
Y1217000D01*
X889358D02*
X891357D01*
X890357D01*
Y1220999D01*
X889358D01*
X894356Y1217000D02*
X896355D01*
X895356D01*
Y1222998D01*
X894356D01*
X907352Y1217000D02*
X905352Y1218999D01*
Y1220999D01*
X907352Y1222998D01*
X910351Y1217000D02*
X912350D01*
X911351D01*
Y1222998D01*
X910351Y1221998D01*
X915349Y1217000D02*
Y1218000D01*
X916349D01*
Y1217000D01*
X915349D01*
X920348Y1221998D02*
X921347Y1222998D01*
X923347D01*
X924346Y1221998D01*
Y1218000D01*
X923347Y1217000D01*
X921347D01*
X920348Y1218000D01*
Y1221998D01*
X926346Y1217000D02*
X928345D01*
X927345D01*
Y1222998D01*
X926346Y1221998D01*
X935343Y1222998D02*
X933343Y1221998D01*
X931344Y1219999D01*
Y1218000D01*
X932344Y1217000D01*
X934343D01*
X935343Y1218000D01*
Y1218999D01*
X934343Y1219999D01*
X931344D01*
X937342Y1217000D02*
Y1220999D01*
X938342D01*
X939341Y1219999D01*
Y1217000D01*
Y1219999D01*
X940341Y1220999D01*
X941341Y1219999D01*
Y1217000D01*
X943340D02*
Y1220999D01*
X944340D01*
X945339Y1219999D01*
Y1217000D01*
Y1219999D01*
X946339Y1220999D01*
X947339Y1219999D01*
Y1217000D01*
X949338D02*
X951338Y1218999D01*
Y1220999D01*
X949338Y1222998D01*
X858368Y1202000D02*
X854369D01*
X858368Y1205999D01*
Y1206998D01*
X857368Y1207998D01*
X855369D01*
X854369Y1206998D01*
X860367D02*
X861367Y1207998D01*
X863366D01*
X864366Y1206998D01*
Y1203000D01*
X863366Y1202000D01*
X861367D01*
X860367Y1203000D01*
Y1206998D01*
X866365Y1202000D02*
Y1203000D01*
X867365D01*
Y1202000D01*
X866365D01*
X871363Y1206998D02*
X872363Y1207998D01*
X874362D01*
X875362Y1206998D01*
Y1203000D01*
X874362Y1202000D01*
X872363D01*
X871363Y1203000D01*
Y1206998D01*
X877361D02*
X878361Y1207998D01*
X880361D01*
X881360Y1206998D01*
Y1203000D01*
X880361Y1202000D01*
X878361D01*
X877361Y1203000D01*
Y1206998D01*
X883360Y1202000D02*
Y1205999D01*
X884359D01*
X885359Y1204999D01*
Y1202000D01*
Y1204999D01*
X886359Y1205999D01*
X887358Y1204999D01*
Y1202000D01*
X889358D02*
X891357D01*
X890357D01*
Y1205999D01*
X889358D01*
X894356Y1202000D02*
X896355D01*
X895356D01*
Y1207998D01*
X894356D01*
X907352Y1202000D02*
X905352Y1203999D01*
Y1205999D01*
X907352Y1207998D01*
X910351Y1206998D02*
X911351Y1207998D01*
X913350D01*
X914349Y1206998D01*
Y1203000D01*
X913350Y1202000D01*
X911351D01*
X910351Y1203000D01*
Y1206998D01*
X916349Y1202000D02*
Y1203000D01*
X917349D01*
Y1202000D01*
X916349D01*
X925346Y1207998D02*
X921347D01*
Y1204999D01*
X923347Y1205999D01*
X924346D01*
X925346Y1204999D01*
Y1203000D01*
X924346Y1202000D01*
X922347D01*
X921347Y1203000D01*
X927345Y1206998D02*
X928345Y1207998D01*
X930344D01*
X931344Y1206998D01*
Y1203000D01*
X930344Y1202000D01*
X928345D01*
X927345Y1203000D01*
Y1206998D01*
X933343D02*
X934343Y1207998D01*
X936342D01*
X937342Y1206998D01*
Y1205999D01*
X936342Y1204999D01*
X937342Y1203999D01*
Y1203000D01*
X936342Y1202000D01*
X934343D01*
X933343Y1203000D01*
Y1203999D01*
X934343Y1204999D01*
X933343Y1205999D01*
Y1206998D01*
X934343Y1204999D02*
X936342D01*
X939341Y1202000D02*
Y1205999D01*
X940341D01*
X941341Y1204999D01*
Y1202000D01*
Y1204999D01*
X942340Y1205999D01*
X943340Y1204999D01*
Y1202000D01*
X945339D02*
Y1205999D01*
X946339D01*
X947339Y1204999D01*
Y1202000D01*
Y1204999D01*
X948339Y1205999D01*
X949338Y1204999D01*
Y1202000D01*
X951338D02*
X953337Y1203999D01*
Y1205999D01*
X951338Y1207998D01*
X854369Y1187000D02*
X856368D01*
X855369D01*
Y1192998D01*
X854369Y1191998D01*
X863366Y1187000D02*
X859367D01*
X863366Y1190999D01*
Y1191998D01*
X862366Y1192998D01*
X860367D01*
X859367Y1191998D01*
X865365Y1187000D02*
Y1188000D01*
X866365D01*
Y1187000D01*
X865365D01*
X870364Y1191998D02*
X871363Y1192998D01*
X873363D01*
X874362Y1191998D01*
Y1188000D01*
X873363Y1187000D01*
X871363D01*
X870364Y1188000D01*
Y1191998D01*
X876362D02*
X877361Y1192998D01*
X879361D01*
X880361Y1191998D01*
Y1188000D01*
X879361Y1187000D01*
X877361D01*
X876362Y1188000D01*
Y1191998D01*
X882360Y1187000D02*
Y1190999D01*
X883360D01*
X884359Y1189999D01*
Y1187000D01*
Y1189999D01*
X885359Y1190999D01*
X886359Y1189999D01*
Y1187000D01*
X888358D02*
X890357D01*
X889358D01*
Y1190999D01*
X888358D01*
X893356Y1187000D02*
X895356D01*
X894356D01*
Y1192998D01*
X893356D01*
X906352Y1187000D02*
X904353Y1188999D01*
Y1190999D01*
X906352Y1192998D01*
X909351Y1191998D02*
X910351Y1192998D01*
X912350D01*
X913350Y1191998D01*
Y1188000D01*
X912350Y1187000D01*
X910351D01*
X909351Y1188000D01*
Y1191998D01*
X915349Y1187000D02*
Y1188000D01*
X916349D01*
Y1187000D01*
X915349D01*
X920348Y1191998D02*
X921347Y1192998D01*
X923347D01*
X924346Y1191998D01*
Y1190999D01*
X923347Y1189999D01*
X922347D01*
X923347D01*
X924346Y1188999D01*
Y1188000D01*
X923347Y1187000D01*
X921347D01*
X920348Y1188000D01*
X926346Y1191998D02*
X927345Y1192998D01*
X929345D01*
X930344Y1191998D01*
Y1188000D01*
X929345Y1187000D01*
X927345D01*
X926346Y1188000D01*
Y1191998D01*
X936342Y1192998D02*
X932344D01*
Y1189999D01*
X934343Y1190999D01*
X935343D01*
X936342Y1189999D01*
Y1188000D01*
X935343Y1187000D01*
X933343D01*
X932344Y1188000D01*
X938342Y1187000D02*
Y1190999D01*
X939341D01*
X940341Y1189999D01*
Y1187000D01*
Y1189999D01*
X941341Y1190999D01*
X942340Y1189999D01*
Y1187000D01*
X944340D02*
Y1190999D01*
X945339D01*
X946339Y1189999D01*
Y1187000D01*
Y1189999D01*
X947339Y1190999D01*
X948339Y1189999D01*
Y1187000D01*
X950338D02*
X952337Y1188999D01*
Y1190999D01*
X950338Y1192998D01*
X784588Y1176998D02*
X785587Y1177998D01*
X787587D01*
X788586Y1176998D01*
Y1175999D01*
X787587Y1174999D01*
X786587D01*
X787587D01*
X788586Y1173999D01*
Y1173000D01*
X787587Y1172000D01*
X785587D01*
X784588Y1173000D01*
X794584Y1177998D02*
X792585Y1176998D01*
X790586Y1174999D01*
Y1173000D01*
X791585Y1172000D01*
X793585D01*
X794584Y1173000D01*
Y1173999D01*
X793585Y1174999D01*
X790586D01*
X796584Y1177998D02*
X800582D01*
Y1176998D01*
X796584Y1173000D01*
Y1172000D01*
X808580Y1177998D02*
X812578D01*
X810579D01*
Y1172000D01*
X815578D02*
X817577D01*
X818577Y1173000D01*
Y1174999D01*
X817577Y1175999D01*
X815578D01*
X814578Y1174999D01*
Y1173000D01*
X815578Y1172000D01*
X821576Y1176998D02*
Y1175999D01*
X820576D01*
X822575D01*
X821576D01*
Y1173000D01*
X822575Y1172000D01*
X826574Y1175999D02*
X828573D01*
X829573Y1174999D01*
Y1172000D01*
X826574D01*
X825574Y1173000D01*
X826574Y1173999D01*
X829573D01*
X831572Y1172000D02*
X833572D01*
X832572D01*
Y1177998D01*
X831572D01*
X788586Y1262000D02*
X784588D01*
X788586Y1265999D01*
Y1266998D01*
X787587Y1267998D01*
X785587D01*
X784588Y1266998D01*
X788586Y1247000D02*
X784588D01*
X788586Y1250999D01*
Y1251998D01*
X787587Y1252998D01*
X785587D01*
X784588Y1251998D01*
X788586Y1237998D02*
X784588D01*
Y1234999D01*
X786587Y1235999D01*
X787587D01*
X788586Y1234999D01*
Y1233000D01*
X787587Y1232000D01*
X785587D01*
X784588Y1233000D01*
Y1218000D02*
X785587Y1217000D01*
X787587D01*
X788586Y1218000D01*
Y1221998D01*
X787587Y1222998D01*
X785587D01*
X784588Y1221998D01*
Y1220999D01*
X785587Y1219999D01*
X788586D01*
X790586Y1221998D02*
X791585Y1222998D01*
X793585D01*
X794584Y1221998D01*
Y1220999D01*
X793585Y1219999D01*
X792585D01*
X793585D01*
X794584Y1218999D01*
Y1218000D01*
X793585Y1217000D01*
X791585D01*
X790586Y1218000D01*
X784588Y1202000D02*
X786587D01*
X785587D01*
Y1207998D01*
X784588Y1206998D01*
X789586D02*
X790586Y1207998D01*
X792585D01*
X793585Y1206998D01*
Y1203000D01*
X792585Y1202000D01*
X790586D01*
X789586Y1203000D01*
Y1206998D01*
X799583Y1202000D02*
X795584D01*
X799583Y1205999D01*
Y1206998D01*
X798583Y1207998D01*
X796584D01*
X795584Y1206998D01*
X784588Y1187000D02*
X786587D01*
X785587D01*
Y1192998D01*
X784588Y1191998D01*
X793585Y1192998D02*
X791585Y1191998D01*
X789586Y1189999D01*
Y1188000D01*
X790586Y1187000D01*
X792585D01*
X793585Y1188000D01*
Y1188999D01*
X792585Y1189999D01*
X789586D01*
X795584Y1191998D02*
X796584Y1192998D01*
X798583D01*
X799583Y1191998D01*
Y1190999D01*
X798583Y1189999D01*
X797583D01*
X798583D01*
X799583Y1188999D01*
Y1188000D01*
X798583Y1187000D01*
X796584D01*
X795584Y1188000D01*
D44*
X725000Y1272500D02*
X1348429D01*
X725000Y1182500D02*
X1348429D01*
X725000Y1167500D02*
X1348429D01*
Y1287500D01*
X725000D02*
X1348429D01*
X725000Y1167500D02*
Y1287500D01*
X1222564Y1167500D02*
Y1287500D01*
X1108397Y1167500D02*
Y1287500D01*
X1035017Y1167500D02*
Y1287500D01*
X984429Y1167500D02*
Y1287500D01*
X849869Y1167500D02*
Y1287500D01*
X780088Y1167500D02*
Y1287500D01*
D45*
X402500Y1160500D02*
X406499D01*
X402500Y1157834D01*
X406499D01*
X402500Y1155835D02*
Y1154502D01*
X403166Y1153835D01*
X404499D01*
X405166Y1154502D01*
Y1155835D01*
X404499Y1156501D01*
X403166D01*
X402500Y1155835D01*
X405832Y1151836D02*
X405166D01*
Y1152503D01*
Y1151170D01*
Y1151836D01*
X403166D01*
X402500Y1151170D01*
X405166Y1146504D02*
Y1148504D01*
X404499Y1149170D01*
X403166D01*
X402500Y1148504D01*
Y1146504D01*
X406499Y1145172D02*
X402500D01*
X404499D01*
X405166Y1144505D01*
Y1143172D01*
X404499Y1142506D01*
X402500D01*
X635000Y1112498D02*
Y1105000D01*
X638749D01*
X639998Y1106250D01*
Y1111248D01*
X638749Y1112498D01*
X635000D01*
X642498Y1109998D02*
Y1105000D01*
Y1107499D01*
X643747Y1108749D01*
X644997Y1109998D01*
X646246D01*
X649995Y1105000D02*
X652494D01*
X651245D01*
Y1109998D01*
X649995D01*
X656243Y1105000D02*
X658742D01*
X657493D01*
Y1112498D01*
X656243D01*
X662491Y1105000D02*
X664990D01*
X663741D01*
Y1112498D01*
X662491D01*
X676237D02*
Y1105000D01*
X679986D01*
X681235Y1106250D01*
Y1111248D01*
X679986Y1112498D01*
X676237D01*
X683734Y1109998D02*
Y1105000D01*
Y1107499D01*
X684984Y1108749D01*
X686233Y1109998D01*
X687483D01*
X692481D02*
X694981D01*
X696230Y1108749D01*
Y1105000D01*
X692481D01*
X691232Y1106250D01*
X692481Y1107499D01*
X696230D01*
X698729Y1109998D02*
Y1106250D01*
X699979Y1105000D01*
X701229Y1106250D01*
X702478Y1105000D01*
X703728Y1106250D01*
Y1109998D01*
X706227Y1105000D02*
X708726D01*
X707477D01*
Y1109998D01*
X706227D01*
X712475Y1105000D02*
Y1109998D01*
X716224D01*
X717473Y1108749D01*
Y1105000D01*
X722472Y1102501D02*
X723721D01*
X724971Y1103750D01*
Y1109998D01*
X721222D01*
X719973Y1108749D01*
Y1106250D01*
X721222Y1105000D01*
X724971D01*
D46*
X488193Y1541401D02*
X490192D01*
X489192D01*
Y1547399D01*
X488193Y1546399D01*
X493191D02*
X494191Y1547399D01*
X496190D01*
X497190Y1546399D01*
Y1542401D01*
X496190Y1541401D01*
X494191D01*
X493191Y1542401D01*
Y1546399D01*
X499189D02*
X500189Y1547399D01*
X502188D01*
X503188Y1546399D01*
Y1542401D01*
X502188Y1541401D01*
X500189D01*
X499189Y1542401D01*
Y1546399D01*
X505187Y1541401D02*
Y1542401D01*
X506187D01*
Y1541401D01*
X505187D01*
X510185Y1546399D02*
X511185Y1547399D01*
X513184D01*
X514184Y1546399D01*
Y1542401D01*
X513184Y1541401D01*
X511185D01*
X510185Y1542401D01*
Y1546399D01*
X516184D02*
X517183Y1547399D01*
X519182D01*
X520182Y1546399D01*
Y1542401D01*
X519182Y1541401D01*
X517183D01*
X516184Y1542401D01*
Y1546399D01*
X296788Y1314256D02*
Y1316255D01*
Y1315255D01*
X290790D01*
X291790Y1314256D01*
Y1319254D02*
X290790Y1320254D01*
Y1322253D01*
X291790Y1323253D01*
X295788D01*
X296788Y1322253D01*
Y1320254D01*
X295788Y1319254D01*
X291790D01*
Y1325252D02*
X290790Y1326252D01*
Y1328251D01*
X291790Y1329251D01*
X295788D01*
X296788Y1328251D01*
Y1326252D01*
X295788Y1325252D01*
X291790D01*
X296788Y1331250D02*
X295788D01*
Y1332250D01*
X296788D01*
Y1331250D01*
X291790Y1336248D02*
X290790Y1337248D01*
Y1339247D01*
X291790Y1340247D01*
X295788D01*
X296788Y1339247D01*
Y1337248D01*
X295788Y1336248D01*
X291790D01*
Y1342247D02*
X290790Y1343246D01*
Y1345245D01*
X291790Y1346245D01*
X295788D01*
X296788Y1345245D01*
Y1343246D01*
X295788Y1342247D01*
X291790D01*
D115*
X735813Y1249500D02*
G03*
X735813Y1249500I-1500J0D01*
G01*
X736812D02*
G03*
X736812Y1249500I-2500J0D01*
G01*
Y1189500D02*
G03*
X736812Y1189500I-2500J0D01*
G01*
X459167Y1458500D02*
G03*
X459167Y1458500I-1667J0D01*
G01*
X475167Y1438500D02*
G03*
X475167Y1438500I-1667J0D01*
G01*
Y1444500D02*
G03*
X475167Y1444500I-1667J0D01*
G01*
X527167Y1386500D02*
G03*
X527167Y1386500I-1667J0D01*
G01*
X541167Y1426500D02*
G03*
X541167Y1426500I-1667J0D01*
G01*
Y1444500D02*
G03*
X541167Y1444500I-1667J0D01*
G01*
X561167Y1454500D02*
G03*
X561167Y1454500I-1667J0D01*
G01*
X522667Y1453000D02*
G03*
X522667Y1453000I-1667J0D01*
G01*
X493167Y1452500D02*
G03*
X493167Y1452500I-1667J0D01*
G01*
X509344Y1453677D02*
G03*
X509344Y1453677I-1667J0D01*
G01*
X518667Y1453000D02*
G03*
X518667Y1453000I-1667J0D01*
G01*
X344667Y1430996D02*
G03*
X344667Y1430996I-1667J0D01*
G01*
X554167Y1375531D02*
G03*
X554167Y1375531I-1667J0D01*
G01*
X534167Y1357500D02*
G03*
X534167Y1357500I-1667J0D01*
G01*
X501667Y1387500D02*
G03*
X501667Y1387500I-1667J0D01*
G01*
X487690Y1386476D02*
G03*
X487690Y1386476I-1667J0D01*
G01*
X511667Y1430000D02*
G03*
X511667Y1430000I-1667J0D01*
G01*
X529167Y1437500D02*
G03*
X529167Y1437500I-1667J0D01*
G01*
X494167Y1422500D02*
G03*
X494167Y1422500I-1667J0D01*
G01*
X508667Y1472500D02*
G03*
X508667Y1472500I-1667J0D01*
G01*
X471167Y1369000D02*
G03*
X471167Y1369000I-1667J0D01*
G01*
X462198Y1472500D02*
G03*
X462198Y1472500I-1667J0D01*
G01*
X437198Y1412500D02*
G03*
X437198Y1412500I-1667J0D01*
G01*
X504167Y1392500D02*
G03*
X504167Y1392500I-1667J0D01*
G01*
X526167Y1404500D02*
G03*
X526167Y1404500I-1667J0D01*
G01*
X504167Y1437500D02*
G03*
X504167Y1437500I-1667J0D01*
G01*
X491667Y1412500D02*
G03*
X491667Y1412500I-1667J0D01*
G01*
X504167Y1417500D02*
G03*
X504167Y1417500I-1667J0D01*
G01*
X431667Y1397500D02*
G03*
X431667Y1397500I-1667J0D01*
G01*
X333104Y1387500D02*
G03*
X333104Y1387500I-1667J0D01*
G01*
X351982Y1405000D02*
G03*
X351982Y1405000I-1667J0D01*
G01*
X404167Y1432500D02*
G03*
X404167Y1432500I-1667J0D01*
G01*
X579167Y1414000D02*
G03*
X579167Y1414000I-1667J0D01*
G01*
X531667Y1447500D02*
G03*
X531667Y1447500I-1667J0D01*
G01*
X514167Y1407500D02*
G03*
X514167Y1407500I-1667J0D01*
G01*
X481667Y1392500D02*
G03*
X481667Y1392500I-1667J0D01*
G01*
X524167Y1430000D02*
G03*
X524167Y1430000I-1667J0D01*
G01*
X499167Y1407500D02*
G03*
X499167Y1407500I-1667J0D01*
G01*
X413667Y1465000D02*
G03*
X413667Y1465000I-1667J0D01*
G01*
X554167Y1367500D02*
G03*
X554167Y1367500I-1667J0D01*
G01*
X406135Y1447500D02*
G03*
X406135Y1447500I-1667J0D01*
G01*
X401667Y1457618D02*
G03*
X401667Y1457618I-1667J0D01*
G01*
X439167Y1457500D02*
G03*
X439167Y1457500I-1667J0D01*
G01*
X436667Y1447500D02*
G03*
X436667Y1447500I-1667J0D01*
G01*
X437041Y1510504D02*
G03*
X437041Y1510504I-1667J0D01*
G01*
X579167Y1355000D02*
G03*
X579167Y1355000I-1667J0D01*
G01*
X593167Y1376500D02*
G03*
X593167Y1376500I-1667J0D01*
G01*
X458167Y1369500D02*
G03*
X458167Y1369500I-1667J0D01*
G01*
X409167Y1415000D02*
G03*
X409167Y1415000I-1667J0D01*
G01*
X325104Y1390000D02*
G03*
X325104Y1390000I-1667J0D01*
G01*
Y1397500D02*
G03*
X325104Y1397500I-1667J0D01*
G01*
X387104Y1400000D02*
G03*
X387104Y1400000I-1667J0D01*
G01*
X373604Y1402500D02*
G03*
X373604Y1402500I-1667J0D01*
G01*
Y1397500D02*
G03*
X373604Y1397500I-1667J0D01*
G01*
X341604Y1407500D02*
G03*
X341604Y1407500I-1667J0D01*
G01*
X431667Y1462500D02*
G03*
X431667Y1462500I-1667J0D01*
G01*
X392076Y1497000D02*
G03*
X392076Y1497000I-1667J0D01*
G01*
X541667Y1452500D02*
G03*
X541667Y1452500I-1667J0D01*
G01*
X563667Y1421500D02*
G03*
X563667Y1421500I-1667J0D01*
G01*
X561167Y1429500D02*
G03*
X561167Y1429500I-1667J0D01*
G01*
X564167Y1414000D02*
G03*
X564167Y1414000I-1667J0D01*
G01*
X454167Y1412500D02*
G03*
X454167Y1412500I-1667J0D01*
G01*
X519667Y1473000D02*
G03*
X519667Y1473000I-1667J0D01*
G01*
X454667Y1431000D02*
G03*
X454667Y1431000I-1667J0D01*
G01*
X584698Y1389468D02*
G03*
X584698Y1389468I-1667J0D01*
G01*
X578667Y1395500D02*
G03*
X578667Y1395500I-1667J0D01*
G01*
X565167Y1370500D02*
G03*
X565167Y1370500I-1667J0D01*
G01*
X350167Y1476819D02*
G03*
X350167Y1476819I-1667J0D01*
G01*
Y1510681D02*
G03*
X350167Y1510681I-1667J0D01*
G01*
X466135Y1472500D02*
G03*
X466135Y1472500I-1667J0D01*
G01*
X579167Y1421500D02*
G03*
X579167Y1421500I-1667J0D01*
G01*
X441135Y1412500D02*
G03*
X441135Y1412500I-1667J0D01*
G01*
X429167Y1440000D02*
G03*
X429167Y1440000I-1667J0D01*
G01*
X404167Y1502500D02*
G03*
X404167Y1502500I-1667J0D01*
G01*
X427848Y1415000D02*
G03*
X427848Y1415000I-1667J0D01*
G01*
X344167Y1437000D02*
G03*
X344167Y1437000I-1667J0D01*
G01*
X477167Y1402000D02*
G03*
X477167Y1402000I-1667J0D01*
G01*
X364600Y1412496D02*
G03*
X364600Y1412496I-1667J0D01*
G01*
X344757Y1395031D02*
G03*
X344757Y1395031I-1667J0D01*
G01*
X559167Y1367500D02*
G03*
X559167Y1367500I-1667J0D01*
G01*
X419167Y1432500D02*
G03*
X419167Y1432500I-1667J0D01*
G01*
X483517Y1450000D02*
G03*
X483517Y1450000I-1667J0D01*
G01*
X539265Y1385098D02*
G03*
X539265Y1385098I-1667J0D01*
G01*
X350604Y1495000D02*
G03*
X350604Y1495000I-1667J0D01*
G01*
Y1505000D02*
G03*
X350604Y1505000I-1667J0D01*
G01*
X497667Y1472000D02*
G03*
X497667Y1472000I-1667J0D01*
G01*
X471167Y1474500D02*
G03*
X471167Y1474500I-1667J0D01*
G01*
X626667Y1335000D02*
G03*
X626667Y1335000I-1667J0D01*
G01*
Y1345000D02*
G03*
X626667Y1345000I-1667J0D01*
G01*
Y1355000D02*
G03*
X626667Y1355000I-1667J0D01*
G01*
Y1365000D02*
G03*
X626667Y1365000I-1667J0D01*
G01*
Y1375000D02*
G03*
X626667Y1375000I-1667J0D01*
G01*
Y1385000D02*
G03*
X626667Y1385000I-1667J0D01*
G01*
Y1395000D02*
G03*
X626667Y1395000I-1667J0D01*
G01*
Y1405000D02*
G03*
X626667Y1405000I-1667J0D01*
G01*
Y1415000D02*
G03*
X626667Y1415000I-1667J0D01*
G01*
Y1425000D02*
G03*
X626667Y1425000I-1667J0D01*
G01*
Y1435000D02*
G03*
X626667Y1435000I-1667J0D01*
G01*
X395604Y1393000D02*
G03*
X395604Y1393000I-1667J0D01*
G01*
X436167Y1375500D02*
G03*
X436167Y1375500I-1667J0D01*
G01*
X446667D02*
G03*
X446667Y1375500I-1667J0D01*
G01*
X373167Y1465000D02*
G03*
X373167Y1465000I-1667J0D01*
G01*
X367167Y1453000D02*
G03*
X367167Y1453000I-1667J0D01*
G01*
X324167Y1437000D02*
G03*
X324167Y1437000I-1667J0D01*
G01*
X446167Y1369000D02*
G03*
X446167Y1369000I-1667J0D01*
G01*
X436167D02*
G03*
X436167Y1369000I-1667J0D01*
G01*
X320167Y1427000D02*
G03*
X320167Y1427000I-1667J0D01*
G01*
X328167D02*
G03*
X328167Y1427000I-1667J0D01*
G01*
X374167Y1425000D02*
G03*
X374167Y1425000I-1667J0D01*
G01*
Y1315000D02*
G03*
X374167Y1315000I-1667J0D01*
G01*
X379167D02*
G03*
X379167Y1315000I-1667J0D01*
G01*
X393167Y1324000D02*
G03*
X393167Y1324000I-1667J0D01*
G01*
X401667Y1327500D02*
G03*
X401667Y1327500I-1667J0D01*
G01*
X394167Y1315000D02*
G03*
X394167Y1315000I-1667J0D01*
G01*
X399167D02*
G03*
X399167Y1315000I-1667J0D01*
G01*
X404167D02*
G03*
X404167Y1315000I-1667J0D01*
G01*
X409167D02*
G03*
X409167Y1315000I-1667J0D01*
G01*
X601667Y1454000D02*
G03*
X601667Y1454000I-1667J0D01*
G01*
X606667D02*
G03*
X606667Y1454000I-1667J0D01*
G01*
X611667D02*
G03*
X611667Y1454000I-1667J0D01*
G01*
X616667D02*
G03*
X616667Y1454000I-1667J0D01*
G01*
X621667D02*
G03*
X621667Y1454000I-1667J0D01*
G01*
X626667D02*
G03*
X626667Y1454000I-1667J0D01*
G01*
X676667D02*
G03*
X676667Y1454000I-1667J0D01*
G01*
X601667Y1524882D02*
G03*
X601667Y1524882I-1667J0D01*
G01*
X606667D02*
G03*
X606667Y1524882I-1667J0D01*
G01*
X611667D02*
G03*
X611667Y1524882I-1667J0D01*
G01*
X616667D02*
G03*
X616667Y1524882I-1667J0D01*
G01*
X364667Y1435000D02*
G03*
X364667Y1435000I-1667J0D01*
G01*
X384667Y1431000D02*
G03*
X384667Y1431000I-1667J0D01*
G01*
X320604Y1447500D02*
G03*
X320604Y1447500I-1667J0D01*
G01*
X328104D02*
G03*
X328104Y1447500I-1667J0D01*
G01*
X385604Y1470000D02*
G03*
X385604Y1470000I-1667J0D01*
G01*
X400604D02*
G03*
X400604Y1470000I-1667J0D01*
G01*
X502104Y1491000D02*
G03*
X502104Y1491000I-1667J0D01*
G01*
X492104Y1479500D02*
G03*
X492104Y1479500I-1667J0D01*
G01*
X489104Y1484000D02*
G03*
X489104Y1484000I-1667J0D01*
G01*
Y1488500D02*
G03*
X489104Y1488500I-1667J0D01*
G01*
X504604Y1521000D02*
G03*
X504604Y1521000I-1667J0D01*
G01*
X456604Y1505000D02*
G03*
X456604Y1505000I-1667J0D01*
G01*
X504604Y1516000D02*
G03*
X504604Y1516000I-1667J0D01*
G01*
X456604Y1510000D02*
G03*
X456604Y1510000I-1667J0D01*
G01*
X475604Y1495000D02*
G03*
X475604Y1495000I-1667J0D01*
G01*
X455604D02*
G03*
X455604Y1495000I-1667J0D01*
G01*
X505604Y1507500D02*
G03*
X505604Y1507500I-1667J0D01*
G01*
X413104Y1457500D02*
G03*
X413104Y1457500I-1667J0D01*
G01*
X504167Y1430000D02*
G03*
X504167Y1430000I-1667J0D01*
G01*
X496667Y1450000D02*
G03*
X496667Y1450000I-1667J0D01*
G01*
X513667D02*
G03*
X513667Y1450000I-1667J0D01*
G01*
X528635Y1396968D02*
G03*
X528635Y1396968I-1667J0D01*
G01*
X519167Y1417500D02*
G03*
X519167Y1417500I-1667J0D01*
G01*
X431667Y1392500D02*
G03*
X431667Y1392500I-1667J0D01*
G01*
X475041Y1430374D02*
G03*
X475041Y1430374I-1667J0D01*
G01*
X475009Y1412658D02*
G03*
X475009Y1412658I-1667J0D01*
G01*
X495167Y1387750D02*
G03*
X495167Y1387750I-1667J0D01*
G01*
X513281Y1385886D02*
G03*
X513281Y1385886I-1667J0D01*
G01*
X543167Y1408500D02*
G03*
X543167Y1408500I-1667J0D01*
G01*
X542167Y1431500D02*
G03*
X542167Y1431500I-1667J0D01*
G01*
X506209Y1451260D02*
G03*
X506209Y1451260I-1667J0D01*
G01*
X406667Y1495000D02*
G03*
X406667Y1495000I-1667J0D01*
G01*
X343104Y1492500D02*
G03*
X343104Y1492500I-1667J0D01*
G01*
X370604Y1475000D02*
G03*
X370604Y1475000I-1667J0D01*
G01*
X362667Y1500500D02*
G03*
X362667Y1500500I-1667J0D01*
G01*
X661000Y1336333D02*
G03*
X661000Y1336333I-1000J0D01*
G01*
X661667D02*
G03*
X661667Y1336333I-1667J0D01*
G01*
X661000Y1434667D02*
G03*
X661000Y1434667I-1000J0D01*
G01*
X661667D02*
G03*
X661667Y1434667I-1667J0D01*
G01*
X733063Y1263250D02*
X734312Y1262000D01*
X731812Y1263250D02*
X733063D01*
X731812D02*
X733063Y1264500D01*
X731812Y1265750D02*
X733063Y1264500D01*
X731812Y1265750D02*
X733063D01*
X734312Y1267000D01*
X735563Y1265750D01*
X736812D01*
X735563Y1264500D02*
X736812Y1265750D01*
X735563Y1264500D02*
X736812Y1263250D01*
X735563D02*
X736812D01*
X734312Y1262000D02*
X735563Y1263250D01*
X733563Y1233750D02*
X734312Y1233000D01*
X732812Y1233750D02*
X733563D01*
X732812D02*
X733563Y1234500D01*
X732812Y1235250D02*
X733563Y1234500D01*
X732812Y1235250D02*
X733563D01*
X734312Y1236000D01*
X735063Y1235250D01*
X735813D01*
X735063Y1234500D02*
X735813Y1235250D01*
X735063Y1234500D02*
X735813Y1233750D01*
X735063D02*
X735813D01*
X734312Y1233000D02*
X735063Y1233750D01*
X733063Y1233250D02*
X734312Y1232000D01*
X731812Y1233250D02*
X733063D01*
X731812D02*
X733063Y1234500D01*
X731812Y1235750D02*
X733063Y1234500D01*
X731812Y1235750D02*
X733063D01*
X734312Y1237000D01*
X735563Y1235750D01*
X736812D01*
X735563Y1234500D02*
X736812Y1235750D01*
X735563Y1234500D02*
X736812Y1233250D01*
X735563D02*
X736812D01*
X734312Y1232000D02*
X735563Y1233250D01*
X734312Y1217000D02*
X736812Y1222000D01*
X731812D02*
X736812D01*
X731812D02*
X734312Y1217000D01*
X731812Y1202000D02*
X736812D01*
Y1207000D01*
X731812D02*
X736812D01*
X731812Y1202000D02*
Y1207000D01*
X463333Y1218333D02*
X466667D01*
Y1221667D01*
X463333D02*
X466667D01*
X463333Y1218333D02*
Y1221667D01*
X495833Y1228333D02*
X499167D01*
Y1231667D01*
X495833D02*
X499167D01*
X495833Y1228333D02*
Y1231667D01*
X660833Y1200833D02*
X664167D01*
Y1204167D01*
X660833D02*
X664167D01*
X660833Y1200833D02*
Y1204167D01*
X480833Y1235833D02*
X484167D01*
Y1239167D01*
X480833D02*
X484167D01*
X480833Y1235833D02*
Y1239167D01*
X490833Y1235833D02*
X494167D01*
Y1239167D01*
X490833D02*
X494167D01*
X490833Y1235833D02*
Y1239167D01*
X322388Y1313451D02*
X325722D01*
Y1316785D01*
X322388D02*
X325722D01*
X322388Y1313451D02*
Y1316785D01*
X314770Y1313333D02*
X318104D01*
Y1316667D01*
X314770D02*
X318104D01*
X314770Y1313333D02*
Y1316667D01*
X322270Y1258333D02*
X325604D01*
Y1261667D01*
X322270D02*
X325604D01*
X322270Y1258333D02*
Y1261667D01*
X339770Y1240833D02*
X343104D01*
Y1244167D01*
X339770D02*
X343104D01*
X339770Y1240833D02*
Y1244167D01*
X372074Y1326073D02*
X375407D01*
Y1329407D01*
X372074D02*
X375407D01*
X372074Y1326073D02*
Y1329407D01*
Y1331953D02*
X375407D01*
Y1335287D01*
X372074D02*
X375407D01*
X372074Y1331953D02*
Y1335287D01*
X435833Y1266633D02*
X439167D01*
Y1269966D01*
X435833D02*
X439167D01*
X435833Y1266633D02*
Y1269966D01*
X606133Y1240583D02*
X609466D01*
Y1243917D01*
X606133D02*
X609466D01*
X606133Y1240583D02*
Y1243917D01*
X691633Y1240833D02*
X694966D01*
Y1244167D01*
X691633D02*
X694966D01*
X691633Y1240833D02*
Y1244167D01*
X615833Y1268583D02*
X619167D01*
Y1271917D01*
X615833D02*
X619167D01*
X615833Y1268583D02*
Y1271917D01*
X685833Y1275833D02*
X689167D01*
Y1279167D01*
X685833D02*
X689167D01*
X685833Y1275833D02*
Y1279167D01*
X693333Y1308333D02*
X696667D01*
Y1311667D01*
X693333D02*
X696667D01*
X693333Y1308333D02*
Y1311667D01*
X533333Y1285833D02*
X536667D01*
Y1289167D01*
X533333D02*
X536667D01*
X533333Y1285833D02*
Y1289167D01*
X530833Y1268333D02*
X534167D01*
Y1271667D01*
X530833D02*
X534167D01*
X530833Y1268333D02*
Y1271667D01*
X448333Y1285833D02*
X451667D01*
Y1289167D01*
X448333D02*
X451667D01*
X448333Y1285833D02*
Y1289167D01*
X445833Y1268333D02*
X449167D01*
Y1271667D01*
X445833D02*
X449167D01*
X445833Y1268333D02*
Y1271667D01*
X523184Y1308333D02*
X526517D01*
Y1311667D01*
X523184D02*
X526517D01*
X523184Y1308333D02*
Y1311667D01*
X521633Y1240583D02*
X524966D01*
Y1243917D01*
X521633D02*
X524966D01*
X521633Y1240583D02*
Y1243917D01*
X579333Y1220833D02*
X582667D01*
Y1224167D01*
X579333D02*
X582667D01*
X579333Y1220833D02*
Y1224167D01*
X436633Y1308333D02*
X439966D01*
Y1311667D01*
X436633D02*
X439966D01*
X436633Y1308333D02*
Y1311667D01*
X363333Y1285833D02*
X366667D01*
Y1289167D01*
X363333D02*
X366667D01*
X363333Y1285833D02*
Y1289167D01*
X360833Y1248333D02*
X364167D01*
Y1251667D01*
X360833D02*
X364167D01*
X360833Y1248333D02*
Y1251667D01*
X600833Y1275833D02*
X604167D01*
Y1279167D01*
X600833D02*
X604167D01*
X600833Y1275833D02*
Y1279167D01*
X435833Y1240583D02*
X439167D01*
Y1243917D01*
X435833D02*
X439167D01*
X435833Y1240583D02*
Y1243917D01*
X515833Y1275833D02*
X519167D01*
Y1279167D01*
X515833D02*
X519167D01*
X515833Y1275833D02*
Y1279167D01*
X618333Y1286083D02*
X621667D01*
Y1289417D01*
X618333D02*
X621667D01*
X618333Y1286083D02*
Y1289417D01*
X603333Y1308333D02*
X606667D01*
Y1311667D01*
X603333D02*
X606667D01*
X603333Y1308333D02*
Y1311667D01*
X438333Y1277684D02*
X441667D01*
Y1281017D01*
X438333D02*
X441667D01*
X438333Y1277684D02*
Y1281017D01*
X354770Y1240833D02*
X358104D01*
Y1244167D01*
X354770D02*
X358104D01*
X354770Y1240833D02*
Y1244167D01*
X332448Y1256011D02*
X335781D01*
Y1259344D01*
X332448D02*
X335781D01*
X332448Y1256011D02*
Y1259344D01*
X620833Y1246083D02*
X624167D01*
Y1249417D01*
X620833D02*
X624167D01*
X620833Y1246083D02*
Y1249417D01*
X625833Y1246083D02*
X629167D01*
Y1249417D01*
X625833D02*
X629167D01*
X625833Y1246083D02*
Y1249417D01*
X630833Y1246083D02*
X634167D01*
Y1249417D01*
X630833D02*
X634167D01*
X630833Y1246083D02*
Y1249417D01*
X635833Y1246083D02*
X639167D01*
Y1249417D01*
X635833D02*
X639167D01*
X635833Y1246083D02*
Y1249417D01*
X640833Y1246083D02*
X644167D01*
Y1249417D01*
X640833D02*
X644167D01*
X640833Y1246083D02*
Y1249417D01*
X645833Y1246083D02*
X649167D01*
Y1249417D01*
X645833D02*
X649167D01*
X645833Y1246083D02*
Y1249417D01*
X650833Y1246083D02*
X654167D01*
Y1249417D01*
X650833D02*
X654167D01*
X650833Y1246083D02*
Y1249417D01*
X655833Y1246083D02*
X659167D01*
Y1249417D01*
X655833D02*
X659167D01*
X655833Y1246083D02*
Y1249417D01*
X570833Y1245833D02*
X574167D01*
Y1249167D01*
X570833D02*
X574167D01*
X570833Y1245833D02*
Y1249167D01*
X565833Y1245833D02*
X569167D01*
Y1249167D01*
X565833D02*
X569167D01*
X565833Y1245833D02*
Y1249167D01*
X560833Y1245833D02*
X564167D01*
Y1249167D01*
X560833D02*
X564167D01*
X560833Y1245833D02*
Y1249167D01*
X555833Y1245833D02*
X559167D01*
Y1249167D01*
X555833D02*
X559167D01*
X555833Y1245833D02*
Y1249167D01*
X550833Y1245833D02*
X554167D01*
Y1249167D01*
X550833D02*
X554167D01*
X550833Y1245833D02*
Y1249167D01*
X545833Y1245833D02*
X549167D01*
Y1249167D01*
X545833D02*
X549167D01*
X545833Y1245833D02*
Y1249167D01*
X540833Y1245833D02*
X544167D01*
Y1249167D01*
X540833D02*
X544167D01*
X540833Y1245833D02*
Y1249167D01*
X535833Y1245833D02*
X539167D01*
Y1249167D01*
X535833D02*
X539167D01*
X535833Y1245833D02*
Y1249167D01*
X485833Y1240833D02*
X489167D01*
Y1244167D01*
X485833D02*
X489167D01*
X485833Y1240833D02*
Y1244167D01*
X608333Y1220833D02*
X611667D01*
Y1224167D01*
X608333D02*
X611667D01*
X608333Y1220833D02*
Y1224167D01*
X685833Y1253583D02*
X689167D01*
Y1256917D01*
X685833D02*
X689167D01*
X685833Y1253583D02*
Y1256917D01*
X600833Y1252534D02*
X604167D01*
Y1255867D01*
X600833D02*
X604167D01*
X600833Y1252534D02*
Y1255867D01*
X515833Y1253333D02*
X519167D01*
Y1256667D01*
X515833D02*
X519167D01*
X515833Y1253333D02*
Y1256667D01*
X668333Y1246083D02*
X671667D01*
Y1249417D01*
X668333D02*
X671667D01*
X668333Y1246083D02*
Y1249417D01*
X583333Y1245833D02*
X586667D01*
Y1249167D01*
X583333D02*
X586667D01*
X583333Y1245833D02*
Y1249167D01*
X498333Y1245833D02*
X501667D01*
Y1249167D01*
X498333D02*
X501667D01*
X498333Y1245833D02*
Y1249167D01*
X428333Y1250833D02*
X431667D01*
Y1254167D01*
X428333D02*
X431667D01*
X428333Y1250833D02*
Y1254167D01*
X413333Y1245833D02*
X416667D01*
Y1249167D01*
X413333D02*
X416667D01*
X413333Y1245833D02*
Y1249167D01*
X565849Y1459333D02*
X569182D01*
Y1462667D01*
X565849D02*
X569182D01*
X565849Y1459333D02*
Y1462667D01*
X549849Y1459333D02*
X553182D01*
Y1462667D01*
X549849D02*
X553182D01*
X549849Y1459333D02*
Y1462667D01*
X359833Y1483833D02*
X363167D01*
Y1487167D01*
X359833D02*
X363167D01*
X359833Y1483833D02*
Y1487167D01*
X522333Y1364833D02*
X525667D01*
Y1368167D01*
X522333D02*
X525667D01*
X522333Y1364833D02*
Y1368167D01*
X319770Y1368333D02*
X323104D01*
Y1371667D01*
X319770D02*
X323104D01*
X319770Y1368333D02*
Y1371667D01*
X334770Y1368333D02*
X338104D01*
Y1371667D01*
X334770D02*
X338104D01*
X334770Y1368333D02*
Y1371667D01*
X497833Y1363333D02*
X501167D01*
Y1366667D01*
X497833D02*
X501167D01*
X497833Y1363333D02*
Y1366667D01*
X437270Y1221896D02*
X440604D01*
Y1225230D01*
X437270D02*
X440604D01*
X437270Y1221896D02*
Y1225230D01*
X460833Y1245833D02*
X464167D01*
Y1249167D01*
X460833D02*
X464167D01*
X460833Y1245833D02*
Y1249167D01*
X455833Y1240833D02*
X459167D01*
Y1244167D01*
X455833D02*
X459167D01*
X455833Y1240833D02*
Y1244167D01*
X600833Y1298333D02*
X604167D01*
Y1301667D01*
X600833D02*
X604167D01*
X600833Y1298333D02*
Y1301667D01*
X515833Y1298333D02*
X519167D01*
Y1301667D01*
X515833D02*
X519167D01*
X515833Y1298333D02*
Y1301667D01*
X685833Y1298583D02*
X689167D01*
Y1301917D01*
X685833D02*
X689167D01*
X685833Y1298583D02*
Y1301917D01*
X585833Y1285833D02*
X589167D01*
Y1289167D01*
X585833D02*
X589167D01*
X585833Y1285833D02*
Y1289167D01*
X678333Y1296083D02*
X681667D01*
Y1299417D01*
X678333D02*
X681667D01*
X678333Y1296083D02*
Y1299417D01*
X475833Y1240833D02*
X479167D01*
Y1244167D01*
X475833D02*
X479167D01*
X475833Y1240833D02*
Y1244167D01*
X470833Y1245833D02*
X474167D01*
Y1249167D01*
X470833D02*
X474167D01*
X470833Y1245833D02*
Y1249167D01*
X423333Y1295833D02*
X426667D01*
Y1299167D01*
X423333D02*
X426667D01*
X423333Y1295833D02*
Y1299167D01*
X465833Y1240833D02*
X469167D01*
Y1244167D01*
X465833D02*
X469167D01*
X465833Y1240833D02*
Y1244167D01*
X665833Y1308333D02*
X669167D01*
Y1311667D01*
X665833D02*
X669167D01*
X665833Y1308333D02*
Y1311667D01*
X685770Y1473770D02*
X689104D01*
Y1477104D01*
X685770D02*
X689104D01*
X685770Y1473770D02*
Y1477104D01*
Y1503770D02*
X689104D01*
Y1507104D01*
X685770D02*
X689104D01*
X685770Y1503770D02*
Y1507104D01*
X438333Y1288483D02*
X441667D01*
Y1291816D01*
X438333D02*
X441667D01*
X438333Y1288483D02*
Y1291816D01*
X693333Y1319333D02*
X696667D01*
Y1322667D01*
X693333D02*
X696667D01*
X693333Y1319333D02*
Y1322667D01*
X445833Y1245833D02*
X449167D01*
Y1249167D01*
X445833D02*
X449167D01*
X445833Y1245833D02*
Y1249167D01*
X358333Y1353333D02*
X361667D01*
Y1356667D01*
X358333D02*
X361667D01*
X358333Y1353333D02*
Y1356667D01*
X368333Y1353333D02*
X371667D01*
Y1356667D01*
X368333D02*
X371667D01*
X368333Y1353333D02*
Y1356667D01*
X378333Y1353333D02*
X381667D01*
Y1356667D01*
X378333D02*
X381667D01*
X378333Y1353333D02*
Y1356667D01*
X411270Y1221896D02*
X414604D01*
Y1225230D01*
X411270D02*
X414604D01*
X411270Y1221896D02*
Y1225230D01*
X559770Y1510833D02*
X563104D01*
Y1514167D01*
X559770D02*
X563104D01*
X559770Y1510833D02*
Y1514167D01*
X530770Y1510833D02*
X534104D01*
Y1514167D01*
X530770D02*
X534104D01*
X530770Y1510833D02*
Y1514167D01*
X342270Y1368333D02*
X345604D01*
Y1371667D01*
X342270D02*
X345604D01*
X342270Y1368333D02*
Y1371667D01*
X327270Y1368333D02*
X330604D01*
Y1371667D01*
X327270D02*
X330604D01*
X327270Y1368333D02*
Y1371667D01*
X688333Y1215833D02*
X691667D01*
Y1219167D01*
X688333D02*
X691667D01*
X688333Y1215833D02*
Y1219167D01*
X668353Y1208353D02*
X671686D01*
Y1211686D01*
X668353D02*
X671686D01*
X668353Y1208353D02*
Y1211686D01*
X673333Y1220833D02*
X676667D01*
Y1224167D01*
X673333D02*
X676667D01*
X673333Y1220833D02*
Y1224167D01*
X317270Y1223333D02*
X320604D01*
Y1226667D01*
X317270D02*
X320604D01*
X317270Y1223333D02*
Y1226667D01*
Y1215833D02*
X320604D01*
Y1219167D01*
X317270D02*
X320604D01*
X317270Y1215833D02*
Y1219167D01*
Y1208333D02*
X320604D01*
Y1211667D01*
X317270D02*
X320604D01*
X317270Y1208333D02*
Y1211667D01*
X314770Y1303333D02*
X318104D01*
Y1306667D01*
X314770D02*
X318104D01*
X314770Y1303333D02*
Y1306667D01*
X315420Y1290184D02*
X318753D01*
Y1293517D01*
X315420D02*
X318753D01*
X315420Y1290184D02*
Y1293517D01*
X355000Y1175833D02*
X356667Y1179167D01*
X353333D02*
X356667D01*
X353333D02*
X355000Y1175833D01*
Y1185833D02*
X356667Y1189167D01*
X353333D02*
X356667D01*
X353333D02*
X355000Y1185833D01*
X365000Y1175833D02*
X366667Y1179167D01*
X363333D02*
X366667D01*
X363333D02*
X365000Y1175833D01*
Y1185833D02*
X366667Y1189167D01*
X363333D02*
X366667D01*
X363333D02*
X365000Y1185833D01*
X375000Y1175833D02*
X376667Y1179167D01*
X373333D02*
X376667D01*
X373333D02*
X375000Y1175833D01*
Y1185833D02*
X376667Y1189167D01*
X373333D02*
X376667D01*
X373333D02*
X375000Y1185833D01*
X385000Y1175833D02*
X386667Y1179167D01*
X383333D02*
X386667D01*
X383333D02*
X385000Y1175833D01*
Y1185833D02*
X386667Y1189167D01*
X383333D02*
X386667D01*
X383333D02*
X385000Y1185833D01*
X395000Y1175833D02*
X396667Y1179167D01*
X393333D02*
X396667D01*
X393333D02*
X395000Y1175833D01*
Y1185833D02*
X396667Y1189167D01*
X393333D02*
X396667D01*
X393333D02*
X395000Y1185833D01*
X405000Y1175833D02*
X406667Y1179167D01*
X403333D02*
X406667D01*
X403333D02*
X405000Y1175833D01*
Y1185833D02*
X406667Y1189167D01*
X403333D02*
X406667D01*
X403333D02*
X405000Y1185833D01*
X415000Y1175833D02*
X416667Y1179167D01*
X413333D02*
X416667D01*
X413333D02*
X415000Y1175833D01*
Y1185833D02*
X416667Y1189167D01*
X413333D02*
X416667D01*
X413333D02*
X415000Y1185833D01*
X425000Y1175833D02*
X426667Y1179167D01*
X423333D02*
X426667D01*
X423333D02*
X425000Y1175833D01*
Y1185833D02*
X426667Y1189167D01*
X423333D02*
X426667D01*
X423333D02*
X425000Y1185833D01*
X435000Y1175833D02*
X436667Y1179167D01*
X433333D02*
X436667D01*
X433333D02*
X435000Y1175833D01*
Y1185833D02*
X436667Y1189167D01*
X433333D02*
X436667D01*
X433333D02*
X435000Y1185833D01*
X445000Y1175833D02*
X446667Y1179167D01*
X443333D02*
X446667D01*
X443333D02*
X445000Y1175833D01*
Y1185833D02*
X446667Y1189167D01*
X443333D02*
X446667D01*
X443333D02*
X445000Y1185833D01*
X455000Y1175833D02*
X456667Y1179167D01*
X453333D02*
X456667D01*
X453333D02*
X455000Y1175833D01*
Y1185833D02*
X456667Y1189167D01*
X453333D02*
X456667D01*
X453333D02*
X455000Y1185833D01*
X465000Y1175833D02*
X466667Y1179167D01*
X463333D02*
X466667D01*
X463333D02*
X465000Y1175833D01*
Y1185833D02*
X466667Y1189167D01*
X463333D02*
X466667D01*
X463333D02*
X465000Y1185833D01*
X475000Y1175833D02*
X476667Y1179167D01*
X473333D02*
X476667D01*
X473333D02*
X475000Y1175833D01*
Y1185833D02*
X476667Y1189167D01*
X473333D02*
X476667D01*
X473333D02*
X475000Y1185833D01*
X485000Y1175833D02*
X486667Y1179167D01*
X483333D02*
X486667D01*
X483333D02*
X485000Y1175833D01*
Y1185833D02*
X486667Y1189167D01*
X483333D02*
X486667D01*
X483333D02*
X485000Y1185833D01*
X495000Y1175833D02*
X496667Y1179167D01*
X493333D02*
X496667D01*
X493333D02*
X495000Y1175833D01*
Y1185833D02*
X496667Y1189167D01*
X493333D02*
X496667D01*
X493333D02*
X495000Y1185833D01*
X505000Y1175833D02*
X506667Y1179167D01*
X503333D02*
X506667D01*
X503333D02*
X505000Y1175833D01*
Y1185833D02*
X506667Y1189167D01*
X503333D02*
X506667D01*
X503333D02*
X505000Y1185833D01*
X515000Y1175833D02*
X516667Y1179167D01*
X513333D02*
X516667D01*
X513333D02*
X515000Y1175833D01*
Y1185833D02*
X516667Y1189167D01*
X513333D02*
X516667D01*
X513333D02*
X515000Y1185833D01*
X525000Y1175833D02*
X526667Y1179167D01*
X523333D02*
X526667D01*
X523333D02*
X525000Y1175833D01*
Y1185833D02*
X526667Y1189167D01*
X523333D02*
X526667D01*
X523333D02*
X525000Y1185833D01*
X535000Y1175833D02*
X536667Y1179167D01*
X533333D02*
X536667D01*
X533333D02*
X535000Y1175833D01*
Y1185833D02*
X536667Y1189167D01*
X533333D02*
X536667D01*
X533333D02*
X535000Y1185833D01*
X545000Y1175833D02*
X546667Y1179167D01*
X543333D02*
X546667D01*
X543333D02*
X545000Y1175833D01*
Y1185833D02*
X546667Y1189167D01*
X543333D02*
X546667D01*
X543333D02*
X545000Y1185833D01*
X555000Y1175833D02*
X556667Y1179167D01*
X553333D02*
X556667D01*
X553333D02*
X555000Y1175833D01*
Y1185833D02*
X556667Y1189167D01*
X553333D02*
X556667D01*
X553333D02*
X555000Y1185833D01*
X565000Y1175833D02*
X566667Y1179167D01*
X563333D02*
X566667D01*
X563333D02*
X565000Y1175833D01*
Y1185833D02*
X566667Y1189167D01*
X563333D02*
X566667D01*
X563333D02*
X565000Y1185833D01*
X575000Y1175833D02*
X576667Y1179167D01*
X573333D02*
X576667D01*
X573333D02*
X575000Y1175833D01*
Y1185833D02*
X576667Y1189167D01*
X573333D02*
X576667D01*
X573333D02*
X575000Y1185833D01*
X585000Y1175833D02*
X586667Y1179167D01*
X583333D02*
X586667D01*
X583333D02*
X585000Y1175833D01*
Y1185833D02*
X586667Y1189167D01*
X583333D02*
X586667D01*
X583333D02*
X585000Y1185833D01*
X595000Y1175833D02*
X596667Y1179167D01*
X593333D02*
X596667D01*
X593333D02*
X595000Y1175833D01*
Y1185833D02*
X596667Y1189167D01*
X593333D02*
X596667D01*
X593333D02*
X595000Y1185833D01*
X605000Y1175833D02*
X606667Y1179167D01*
X603333D02*
X606667D01*
X603333D02*
X605000Y1175833D01*
Y1185833D02*
X606667Y1189167D01*
X603333D02*
X606667D01*
X603333D02*
X605000Y1185833D01*
X615000Y1175833D02*
X616667Y1179167D01*
X613333D02*
X616667D01*
X613333D02*
X615000Y1175833D01*
Y1185833D02*
X616667Y1189167D01*
X613333D02*
X616667D01*
X613333D02*
X615000Y1185833D01*
X625000Y1175833D02*
X626667Y1179167D01*
X623333D02*
X626667D01*
X623333D02*
X625000Y1175833D01*
Y1185833D02*
X626667Y1189167D01*
X623333D02*
X626667D01*
X623333D02*
X625000Y1185833D01*
X635000Y1175833D02*
X636667Y1179167D01*
X633333D02*
X636667D01*
X633333D02*
X635000Y1175833D01*
Y1185833D02*
X636667Y1189167D01*
X633333D02*
X636667D01*
X633333D02*
X635000Y1185833D01*
X645000Y1175833D02*
X646667Y1179167D01*
X643333D02*
X646667D01*
X643333D02*
X645000Y1175833D01*
Y1185833D02*
X646667Y1189167D01*
X643333D02*
X646667D01*
X643333D02*
X645000Y1185833D01*
X655000Y1175833D02*
X656667Y1179167D01*
X653333D02*
X656667D01*
X653333D02*
X655000Y1175833D01*
Y1185833D02*
X656667Y1189167D01*
X653333D02*
X656667D01*
X653333D02*
X655000Y1185833D01*
X665000Y1175833D02*
X666667Y1179167D01*
X663333D02*
X666667D01*
X663333D02*
X665000Y1175833D01*
Y1185833D02*
X666667Y1189167D01*
X663333D02*
X666667D01*
X663333D02*
X665000Y1185833D01*
X412000Y1504500D02*
X412500Y1504000D01*
X411500Y1504500D02*
X412000D01*
X411500D02*
X412000Y1505000D01*
X411500Y1505500D02*
X412000Y1505000D01*
X411500Y1505500D02*
X412000D01*
X412500Y1506000D01*
X413000Y1505500D01*
X413500D01*
X413000Y1505000D02*
X413500Y1505500D01*
X413000Y1505000D02*
X413500Y1504500D01*
X413000D02*
X413500D01*
X412500Y1504000D02*
X413000Y1504500D01*
X411667Y1504167D02*
X412500Y1503333D01*
X410833Y1504167D02*
X411667D01*
X410833D02*
X411667Y1505000D01*
X410833Y1505833D02*
X411667Y1505000D01*
X410833Y1505833D02*
X411667D01*
X412500Y1506667D01*
X413333Y1505833D01*
X414167D01*
X413333Y1505000D02*
X414167Y1505833D01*
X413333Y1505000D02*
X414167Y1504167D01*
X413333D02*
X414167D01*
X412500Y1503333D02*
X413333Y1504167D01*
X412000Y1494500D02*
X412500Y1494000D01*
X411500Y1494500D02*
X412000D01*
X411500D02*
X412000Y1495000D01*
X411500Y1495500D02*
X412000Y1495000D01*
X411500Y1495500D02*
X412000D01*
X412500Y1496000D01*
X413000Y1495500D01*
X413500D01*
X413000Y1495000D02*
X413500Y1495500D01*
X413000Y1495000D02*
X413500Y1494500D01*
X413000D02*
X413500D01*
X412500Y1494000D02*
X413000Y1494500D01*
X411667Y1494167D02*
X412500Y1493333D01*
X410833Y1494167D02*
X411667D01*
X410833D02*
X411667Y1495000D01*
X410833Y1495833D02*
X411667Y1495000D01*
X410833Y1495833D02*
X411667D01*
X412500Y1496667D01*
X413333Y1495833D01*
X414167D01*
X413333Y1495000D02*
X414167Y1495833D01*
X413333Y1495000D02*
X414167Y1494167D01*
X413333D02*
X414167D01*
X412500Y1493333D02*
X413333Y1494167D01*
X409500Y1352000D02*
X410000Y1351500D01*
X409000Y1352000D02*
X409500D01*
X409000D02*
X409500Y1352500D01*
X409000Y1353000D02*
X409500Y1352500D01*
X409000Y1353000D02*
X409500D01*
X410000Y1353500D01*
X410500Y1353000D01*
X411000D01*
X410500Y1352500D02*
X411000Y1353000D01*
X410500Y1352500D02*
X411000Y1352000D01*
X410500D02*
X411000D01*
X410000Y1351500D02*
X410500Y1352000D01*
X409167Y1351667D02*
X410000Y1350833D01*
X408333Y1351667D02*
X409167D01*
X408333D02*
X409167Y1352500D01*
X408333Y1353333D02*
X409167Y1352500D01*
X408333Y1353333D02*
X409167D01*
X410000Y1354167D01*
X410833Y1353333D01*
X411667D01*
X410833Y1352500D02*
X411667Y1353333D01*
X410833Y1352500D02*
X411667Y1351667D01*
X410833D02*
X411667D01*
X410000Y1350833D02*
X410833Y1351667D01*
X670000Y1364833D02*
X671667Y1368167D01*
X668333D02*
X671667D01*
X668333D02*
X670000Y1364833D01*
Y1373833D02*
X671667Y1377167D01*
X668333D02*
X671667D01*
X668333D02*
X670000Y1373833D01*
Y1382833D02*
X671667Y1386167D01*
X668333D02*
X671667D01*
X668333D02*
X670000Y1382833D01*
Y1391833D02*
X671667Y1395167D01*
X668333D02*
X671667D01*
X668333D02*
X670000Y1391833D01*
Y1400833D02*
X671667Y1404167D01*
X668333D02*
X671667D01*
X668333D02*
X670000Y1400833D01*
X660000Y1369333D02*
X661667Y1372667D01*
X658333D02*
X661667D01*
X658333D02*
X660000Y1369333D01*
Y1378333D02*
X661667Y1381667D01*
X658333D02*
X661667D01*
X658333D02*
X660000Y1378333D01*
Y1387333D02*
X661667Y1390667D01*
X658333D02*
X661667D01*
X658333D02*
X660000Y1387333D01*
Y1396333D02*
X661667Y1399667D01*
X658333D02*
X661667D01*
X658333D02*
X660000Y1396333D01*
Y1405333D02*
X661667Y1408667D01*
X658333D02*
X661667D01*
X658333D02*
X660000Y1405333D01*
X650000Y1364833D02*
X651667Y1368167D01*
X648333D02*
X651667D01*
X648333D02*
X650000Y1364833D01*
Y1382833D02*
X651667Y1386167D01*
X648333D02*
X651667D01*
X648333D02*
X650000Y1382833D01*
Y1391833D02*
X651667Y1395167D01*
X648333D02*
X651667D01*
X648333D02*
X650000Y1391833D01*
Y1400833D02*
X651667Y1404167D01*
X648333D02*
X651667D01*
X648333D02*
X650000Y1400833D01*
Y1373833D02*
X651667Y1377167D01*
X648333D02*
X651667D01*
X648333D02*
X650000Y1373833D01*
X319000Y1248333D02*
X320667Y1251667D01*
X317333D02*
X320667D01*
X317333D02*
X319000Y1248333D01*
Y1238333D02*
X320667Y1241667D01*
X317333D02*
X320667D01*
X317333D02*
X319000Y1238333D01*
X610937Y1232000D02*
X611437Y1231500D01*
X610437Y1232000D02*
X610937D01*
X610437D02*
X610937Y1232500D01*
X610437Y1233000D02*
X610937Y1232500D01*
X610437Y1233000D02*
X610937D01*
X611437Y1233500D01*
X611937Y1233000D01*
X612437D01*
X611937Y1232500D02*
X612437Y1233000D01*
X611937Y1232500D02*
X612437Y1232000D01*
X611937D02*
X612437D01*
X611437Y1231500D02*
X611937Y1232000D01*
X610604Y1231667D02*
X611437Y1230833D01*
X609770Y1231667D02*
X610604D01*
X609770D02*
X610604Y1232500D01*
X609770Y1233333D02*
X610604Y1232500D01*
X609770Y1233333D02*
X610604D01*
X611437Y1234167D01*
X612270Y1233333D01*
X613104D01*
X612270Y1232500D02*
X613104Y1233333D01*
X612270Y1232500D02*
X613104Y1231667D01*
X612270D02*
X613104D01*
X611437Y1230833D02*
X612270Y1231667D01*
X409500Y1362000D02*
X410000Y1361500D01*
X409000Y1362000D02*
X409500D01*
X409000D02*
X409500Y1362500D01*
X409000Y1363000D02*
X409500Y1362500D01*
X409000Y1363000D02*
X409500D01*
X410000Y1363500D01*
X410500Y1363000D01*
X411000D01*
X410500Y1362500D02*
X411000Y1363000D01*
X410500Y1362500D02*
X411000Y1362000D01*
X410500D02*
X411000D01*
X410000Y1361500D02*
X410500Y1362000D01*
X409167Y1361667D02*
X410000Y1360833D01*
X408333Y1361667D02*
X409167D01*
X408333D02*
X409167Y1362500D01*
X408333Y1363333D02*
X409167Y1362500D01*
X408333Y1363333D02*
X409167D01*
X410000Y1364167D01*
X410833Y1363333D01*
X411667D01*
X410833Y1362500D02*
X411667Y1363333D01*
X410833Y1362500D02*
X411667Y1361667D01*
X410833D02*
X411667D01*
X410000Y1360833D02*
X410833Y1361667D01*
X326437Y1175833D02*
X328104Y1179167D01*
X324770D02*
X328104D01*
X324770D02*
X326437Y1175833D01*
Y1185833D02*
X328104Y1189167D01*
X324770D02*
X328104D01*
X324770D02*
X326437Y1185833D01*
X336982Y1214167D02*
X337815Y1213333D01*
X336148Y1214167D02*
X336982D01*
X336148D02*
X336982Y1215000D01*
X336148Y1215833D02*
X336982Y1215000D01*
X336148Y1215833D02*
X336982D01*
X337815Y1216667D01*
X338648Y1215833D01*
X339482D01*
X338648Y1215000D02*
X339482Y1215833D01*
X338648Y1215000D02*
X339482Y1214167D01*
X338648D02*
X339482D01*
X337815Y1213333D02*
X338648Y1214167D01*
X360604D02*
X361437Y1213333D01*
X359770Y1214167D02*
X360604D01*
X359770D02*
X360604Y1215000D01*
X359770Y1215833D02*
X360604Y1215000D01*
X359770Y1215833D02*
X360604D01*
X361437Y1216667D01*
X362270Y1215833D01*
X363104D01*
X362270Y1215000D02*
X363104Y1215833D01*
X362270Y1215000D02*
X363104Y1214167D01*
X362270D02*
X363104D01*
X361437Y1213333D02*
X362270Y1214167D01*
X321437Y1513333D02*
X323104Y1516667D01*
X319770D02*
X323104D01*
X319770D02*
X321437Y1513333D01*
X331437D02*
X333104Y1516667D01*
X329770D02*
X333104D01*
X329770D02*
X331437Y1513333D01*
X321437Y1503333D02*
X323104Y1506667D01*
X319770D02*
X323104D01*
X319770D02*
X321437Y1503333D01*
X331437D02*
X333104Y1506667D01*
X329770D02*
X333104D01*
X329770D02*
X331437Y1503333D01*
X321437Y1493333D02*
X323104Y1496667D01*
X319770D02*
X323104D01*
X319770D02*
X321437Y1493333D01*
X331437D02*
X333104Y1496667D01*
X329770D02*
X333104D01*
X329770D02*
X331437Y1493333D01*
X321437Y1483333D02*
X323104Y1486667D01*
X319770D02*
X323104D01*
X319770D02*
X321437Y1483333D01*
X331437D02*
X333104Y1486667D01*
X329770D02*
X333104D01*
X329770D02*
X331437Y1483333D01*
X321437Y1473333D02*
X323104Y1476667D01*
X319770D02*
X323104D01*
X319770D02*
X321437Y1473333D01*
X331437D02*
X333104Y1476667D01*
X329770D02*
X333104D01*
X329770D02*
X331437Y1473333D01*
D116*
X1227064Y1277000D02*
Y1284198D01*
X1230663D01*
X1231863Y1282998D01*
Y1280599D01*
X1230663Y1279399D01*
X1227064D01*
X1229463D02*
X1231863Y1277000D01*
X1235461D02*
X1237861D01*
X1239060Y1278200D01*
Y1280599D01*
X1237861Y1281798D01*
X1235461D01*
X1234262Y1280599D01*
Y1278200D01*
X1235461Y1277000D01*
X1241459Y1281798D02*
Y1278200D01*
X1242659Y1277000D01*
X1246258D01*
Y1281798D01*
X1249857Y1282998D02*
Y1281798D01*
X1248657D01*
X1251056D01*
X1249857D01*
Y1278200D01*
X1251056Y1277000D01*
X1261853D02*
Y1284198D01*
X1265452D01*
X1266651Y1282998D01*
Y1280599D01*
X1265452Y1279399D01*
X1261853D01*
X1270250Y1281798D02*
X1272649D01*
X1273849Y1280599D01*
Y1277000D01*
X1270250D01*
X1269051Y1278200D01*
X1270250Y1279399D01*
X1273849D01*
X1277448Y1282998D02*
Y1281798D01*
X1276248D01*
X1278647D01*
X1277448D01*
Y1278200D01*
X1278647Y1277000D01*
X1282246Y1284198D02*
Y1277000D01*
Y1280599D01*
X1283446Y1281798D01*
X1285845D01*
X1287045Y1280599D01*
Y1277000D01*
X1296642Y1284198D02*
Y1277000D01*
X1301440D01*
X1307438D02*
X1305039D01*
X1303839Y1278200D01*
Y1280599D01*
X1305039Y1281798D01*
X1307438D01*
X1308638Y1280599D01*
Y1279399D01*
X1303839D01*
X1311037Y1277000D02*
Y1281798D01*
X1314636D01*
X1315835Y1280599D01*
Y1277000D01*
X1320634Y1274601D02*
X1321833D01*
X1323033Y1275800D01*
Y1281798D01*
X1319434D01*
X1318235Y1280599D01*
Y1278200D01*
X1319434Y1277000D01*
X1323033D01*
X1326632Y1282998D02*
Y1281798D01*
X1325432D01*
X1327831D01*
X1326632D01*
Y1278200D01*
X1327831Y1277000D01*
X1331430Y1284198D02*
Y1277000D01*
Y1280599D01*
X1332630Y1281798D01*
X1335029D01*
X1336229Y1280599D01*
Y1277000D01*
X1112897D02*
Y1284198D01*
X1116496D01*
X1117696Y1282998D01*
Y1280599D01*
X1116496Y1279399D01*
X1112897D01*
X1120095Y1284198D02*
Y1277000D01*
Y1280599D01*
X1121294Y1281798D01*
X1123694D01*
X1124893Y1280599D01*
Y1277000D01*
X1127292Y1281798D02*
Y1278200D01*
X1128492Y1277000D01*
X1132091D01*
Y1275800D01*
X1130891Y1274601D01*
X1129692D01*
X1132091Y1277000D02*
Y1281798D01*
X1134490Y1277000D02*
X1138089D01*
X1139289Y1278200D01*
X1138089Y1279399D01*
X1135690D01*
X1134490Y1280599D01*
X1135690Y1281798D01*
X1139289D01*
X1141688Y1277000D02*
X1144087D01*
X1142887D01*
Y1281798D01*
X1141688D01*
X1152484D02*
X1148886D01*
X1147686Y1280599D01*
Y1278200D01*
X1148886Y1277000D01*
X1152484D01*
X1156083Y1281798D02*
X1158482D01*
X1159682Y1280599D01*
Y1277000D01*
X1156083D01*
X1154883Y1278200D01*
X1156083Y1279399D01*
X1159682D01*
X1162081Y1277000D02*
X1164480D01*
X1163281D01*
Y1284198D01*
X1162081D01*
X1175277D02*
Y1277000D01*
X1180075D01*
X1186073D02*
X1183674D01*
X1182475Y1278200D01*
Y1280599D01*
X1183674Y1281798D01*
X1186073D01*
X1187273Y1280599D01*
Y1279399D01*
X1182475D01*
X1189672Y1277000D02*
Y1281798D01*
X1193271D01*
X1194471Y1280599D01*
Y1277000D01*
X1199269Y1274601D02*
X1200469D01*
X1201668Y1275800D01*
Y1281798D01*
X1198069D01*
X1196870Y1280599D01*
Y1278200D01*
X1198069Y1277000D01*
X1201668D01*
X1205267Y1282998D02*
Y1281798D01*
X1204068D01*
X1206467D01*
X1205267D01*
Y1278200D01*
X1206467Y1277000D01*
X1210066Y1284198D02*
Y1277000D01*
Y1280599D01*
X1211265Y1281798D01*
X1213665D01*
X1214864Y1280599D01*
Y1277000D01*
X1039517Y1284198D02*
Y1277000D01*
Y1280599D01*
X1044315D01*
Y1284198D01*
Y1277000D01*
X1047914D02*
X1050313D01*
X1051513Y1278200D01*
Y1280599D01*
X1050313Y1281798D01*
X1047914D01*
X1046715Y1280599D01*
Y1278200D01*
X1047914Y1277000D01*
X1053912D02*
X1056312D01*
X1055112D01*
Y1284198D01*
X1053912D01*
X1063509Y1277000D02*
X1061110D01*
X1059910Y1278200D01*
Y1280599D01*
X1061110Y1281798D01*
X1063509D01*
X1064709Y1280599D01*
Y1279399D01*
X1059910D01*
X1074306Y1284198D02*
X1079104D01*
X1076705D01*
Y1277000D01*
X1081503Y1281798D02*
Y1278200D01*
X1082703Y1277000D01*
X1086302D01*
Y1275800D01*
X1085102Y1274601D01*
X1083902D01*
X1086302Y1277000D02*
Y1281798D01*
X1088701Y1274601D02*
Y1281798D01*
X1092300D01*
X1093499Y1280599D01*
Y1278200D01*
X1092300Y1277000D01*
X1088701D01*
X1099498D02*
X1097098D01*
X1095899Y1278200D01*
Y1280599D01*
X1097098Y1281798D01*
X1099498D01*
X1100697Y1280599D01*
Y1279399D01*
X1095899D01*
X988929Y1277000D02*
Y1284198D01*
X992528D01*
X993728Y1282998D01*
Y1280599D01*
X992528Y1279399D01*
X988929D01*
X996127Y1277000D02*
X998526D01*
X997327D01*
Y1284198D01*
X996127D01*
X1003325Y1281798D02*
X1005724D01*
X1006923Y1280599D01*
Y1277000D01*
X1003325D01*
X1002125Y1278200D01*
X1003325Y1279399D01*
X1006923D01*
X1010522Y1282998D02*
Y1281798D01*
X1009323D01*
X1011722D01*
X1010522D01*
Y1278200D01*
X1011722Y1277000D01*
X1018920D02*
X1016520D01*
X1015321Y1278200D01*
Y1280599D01*
X1016520Y1281798D01*
X1018920D01*
X1020119Y1280599D01*
Y1279399D01*
X1015321D01*
X1027317Y1284198D02*
Y1277000D01*
X1023718D01*
X1022519Y1278200D01*
Y1280599D01*
X1023718Y1281798D01*
X1027317D01*
X859167Y1284198D02*
X854369D01*
Y1280599D01*
X856768D01*
X854369D01*
Y1277000D01*
X861567D02*
X863966D01*
X862766D01*
Y1281798D01*
X861567D01*
X867565Y1277000D02*
Y1281798D01*
X871163D01*
X872363Y1280599D01*
Y1277000D01*
X874762D02*
X877162D01*
X875962D01*
Y1281798D01*
X874762D01*
X880760Y1277000D02*
X884359D01*
X885559Y1278200D01*
X884359Y1279399D01*
X881960D01*
X880760Y1280599D01*
X881960Y1281798D01*
X885559D01*
X887958Y1284198D02*
Y1277000D01*
Y1280599D01*
X889158Y1281798D01*
X891557D01*
X892756Y1280599D01*
Y1277000D01*
X898755D02*
X896355D01*
X895156Y1278200D01*
Y1280599D01*
X896355Y1281798D01*
X898755D01*
X899954Y1280599D01*
Y1279399D01*
X895156D01*
X907152Y1284198D02*
Y1277000D01*
X903553D01*
X902353Y1278200D01*
Y1280599D01*
X903553Y1281798D01*
X907152D01*
X916749Y1284198D02*
Y1277000D01*
Y1280599D01*
X921547D01*
Y1284198D01*
Y1277000D01*
X925146D02*
X927545D01*
X928745Y1278200D01*
Y1280599D01*
X927545Y1281798D01*
X925146D01*
X923946Y1280599D01*
Y1278200D01*
X925146Y1277000D01*
X931144D02*
X933543D01*
X932344D01*
Y1284198D01*
X931144D01*
X940741Y1277000D02*
X938342D01*
X937142Y1278200D01*
Y1280599D01*
X938342Y1281798D01*
X940741D01*
X941941Y1280599D01*
Y1279399D01*
X937142D01*
X956336Y1282998D02*
X955136Y1284198D01*
X952737D01*
X951538Y1282998D01*
Y1281798D01*
X952737Y1280599D01*
X955136D01*
X956336Y1279399D01*
Y1278200D01*
X955136Y1277000D01*
X952737D01*
X951538Y1278200D01*
X958735Y1277000D02*
X961134D01*
X959935D01*
Y1281798D01*
X958735D01*
X964733D02*
X969532D01*
X964733Y1277000D01*
X969532D01*
X975530D02*
X973131D01*
X971931Y1278200D01*
Y1280599D01*
X973131Y1281798D01*
X975530D01*
X976729Y1280599D01*
Y1279399D01*
X971931D01*
X784588Y1284198D02*
Y1277000D01*
Y1280599D01*
X789386D01*
Y1284198D01*
Y1277000D01*
X791785D02*
X794184D01*
X792985D01*
Y1281798D01*
X791785D01*
X798983Y1282998D02*
Y1281798D01*
X797783D01*
X800183D01*
X798983D01*
Y1278200D01*
X800183Y1277000D01*
X815777Y1282998D02*
X814578Y1284198D01*
X812179D01*
X810979Y1282998D01*
Y1278200D01*
X812179Y1277000D01*
X814578D01*
X815777Y1278200D01*
X819376Y1277000D02*
X821776D01*
X822975Y1278200D01*
Y1280599D01*
X821776Y1281798D01*
X819376D01*
X818177Y1280599D01*
Y1278200D01*
X819376Y1277000D01*
X825374Y1281798D02*
Y1278200D01*
X826574Y1277000D01*
X830173D01*
Y1281798D01*
X832572Y1277000D02*
Y1281798D01*
X836171D01*
X837370Y1280599D01*
Y1277000D01*
X840969Y1282998D02*
Y1281798D01*
X839770D01*
X842169D01*
X840969D01*
Y1278200D01*
X842169Y1277000D01*
X738798Y1282998D02*
X737599Y1284198D01*
X735200D01*
X734000Y1282998D01*
Y1281798D01*
X735200Y1280599D01*
X737599D01*
X738798Y1279399D01*
Y1278200D01*
X737599Y1277000D01*
X735200D01*
X734000Y1278200D01*
X741198Y1281798D02*
Y1278200D01*
X742397Y1277000D01*
X745996D01*
Y1275800D01*
X744797Y1274601D01*
X743597D01*
X745996Y1277000D02*
Y1281798D01*
X748395Y1277000D02*
Y1281798D01*
X749595D01*
X750795Y1280599D01*
Y1277000D01*
Y1280599D01*
X751994Y1281798D01*
X753194Y1280599D01*
Y1277000D01*
X755593Y1284198D02*
Y1277000D01*
X759192D01*
X760392Y1278200D01*
Y1279399D01*
Y1280599D01*
X759192Y1281798D01*
X755593D01*
X763990Y1277000D02*
X766390D01*
X767589Y1278200D01*
Y1280599D01*
X766390Y1281798D01*
X763990D01*
X762791Y1280599D01*
Y1278200D01*
X763990Y1277000D01*
X769988D02*
X772388D01*
X771188D01*
Y1284198D01*
X769988D01*
M02*
