G04*
G04 #@! TF.GenerationSoftware,Altium Limited,CircuitStudio,1.5.2 (30)*
G04*
G04 Layer_Color=12632256*
%FSLAX25Y25*%
%MOIN*%
G70*
G01*
G75*
%ADD38C,0.01000*%
%ADD40C,0.01200*%
%ADD45C,0.00800*%
%ADD46C,0.00600*%
%ADD71C,0.00787*%
%ADD72C,0.00050*%
G36*
X555101Y1327522D02*
X555107Y1327536D01*
X555107Y1327536D01*
X555316Y1327397D01*
X555327Y1327409D01*
X555367Y1327393D01*
X555409Y1327292D01*
X555404Y1327288D01*
X555462Y1327201D01*
X555472Y1327150D01*
X555474Y1327151D01*
X555509Y1326975D01*
X555510Y1326975D01*
X555550Y1326774D01*
X555549Y1326766D01*
X555549Y1326766D01*
X555550Y1326756D01*
X555509Y1326546D01*
X555508Y1326546D01*
X555472Y1326365D01*
X555465Y1326368D01*
X555405Y1326223D01*
X555402Y1326225D01*
X555373Y1326155D01*
X555301Y1326125D01*
X555296Y1326132D01*
X555128Y1326021D01*
X555070Y1326009D01*
X555070Y1326011D01*
X554833Y1325964D01*
X554833Y1325963D01*
X554830Y1325962D01*
X554526Y1326023D01*
X554531Y1326035D01*
X554383Y1326097D01*
X554394Y1326111D01*
X554303Y1326172D01*
X554268Y1326225D01*
X554497Y1326421D01*
X554470Y1326394D01*
X554475Y1326383D01*
X554657Y1326308D01*
X554657Y1326308D01*
X554836Y1326234D01*
X554838Y1326235D01*
X554838Y1326238D01*
X554844Y1326235D01*
X554986Y1326294D01*
X554985Y1326294D01*
X555119Y1326350D01*
X555117Y1326352D01*
X555128Y1326357D01*
X555182Y1326486D01*
X555183Y1326486D01*
X555248Y1326644D01*
X555244Y1326655D01*
X554242Y1326654D01*
Y1326911D01*
X554230Y1326910D01*
X554227Y1326922D01*
X554279Y1327184D01*
X554289Y1327180D01*
X554382Y1327404D01*
X554408Y1327415D01*
X554427Y1327395D01*
X554630Y1327531D01*
X554636Y1327532D01*
X554637Y1327531D01*
X554875Y1327578D01*
X554880Y1327577D01*
X554880Y1327614D01*
X555101Y1327522D01*
D02*
G37*
G36*
X563902Y1327580D02*
X563902Y1327576D01*
X563920Y1327580D01*
X564060Y1327552D01*
X564062Y1327567D01*
X564197Y1327511D01*
X564197Y1327511D01*
X564390Y1327431D01*
X564424Y1327348D01*
X564173Y1327151D01*
X564148Y1327213D01*
X564066Y1327247D01*
X564067Y1327248D01*
X563987Y1327281D01*
X563986Y1327267D01*
X563891Y1327286D01*
X563887Y1327285D01*
X563887Y1327280D01*
X563867Y1327284D01*
X563751Y1327261D01*
X563750Y1327267D01*
X563652Y1327227D01*
X563653Y1327226D01*
X563616Y1327211D01*
X563595Y1327161D01*
X563596Y1327161D01*
X563561Y1327077D01*
X563563Y1327070D01*
X563577Y1326906D01*
X563997D01*
X563997Y1326918D01*
X564002Y1326919D01*
X564212Y1326877D01*
X564210Y1326872D01*
X564379Y1326802D01*
X564384Y1326791D01*
X564386Y1326794D01*
X564456Y1326625D01*
X564457Y1326625D01*
X564528Y1326451D01*
X564526Y1326445D01*
X564523Y1326446D01*
X564526Y1326440D01*
X564451Y1326260D01*
X564451Y1326260D01*
X564385Y1326099D01*
X564362Y1326090D01*
X564367Y1326086D01*
X564181Y1326009D01*
X564183Y1326004D01*
X563956Y1325959D01*
X563956Y1325957D01*
X563949Y1325955D01*
X563820Y1325981D01*
X563818Y1325968D01*
X563713Y1326011D01*
Y1326011D01*
X563613Y1326053D01*
X563583Y1326127D01*
X563577Y1326127D01*
Y1325990D01*
X563275D01*
Y1327053D01*
X563261Y1327053D01*
X563287Y1327184D01*
X563275Y1327186D01*
X563320Y1327294D01*
Y1327294D01*
X563378Y1327435D01*
X563442Y1327461D01*
X563447Y1327454D01*
X563543Y1327517D01*
X563647Y1327538D01*
X563647Y1327538D01*
X563880Y1327585D01*
X563902Y1327580D01*
D02*
G37*
G36*
X556094Y1327520D02*
X556094Y1327520D01*
X556256Y1327453D01*
X556273Y1327411D01*
Y1327382D01*
X556281Y1327392D01*
X556273Y1327411D01*
Y1327547D01*
X556585D01*
Y1325996D01*
X556273D01*
Y1326929D01*
X556304Y1326928D01*
X556308Y1326938D01*
X556250Y1327076D01*
X556250Y1327076D01*
X556209Y1327176D01*
X556187Y1327185D01*
X556191Y1327189D01*
X555971Y1327280D01*
X555971Y1327280D01*
X555971Y1327277D01*
X555867Y1327234D01*
X555867D01*
X555756Y1327188D01*
X555540Y1327446D01*
X555525Y1327464D01*
X555697Y1327536D01*
X555697Y1327536D01*
X555864Y1327605D01*
X555864Y1327605D01*
X555863Y1327606D01*
X555874Y1327611D01*
X556094Y1327520D01*
D02*
G37*
G36*
X557783Y1328985D02*
X557796Y1328985D01*
X557797Y1328982D01*
X557773Y1328861D01*
X557785Y1328859D01*
X557741Y1328753D01*
X557741D01*
X557673Y1328589D01*
X557627Y1328570D01*
X557617Y1328581D01*
X557455Y1328473D01*
X557447Y1328471D01*
X557443Y1328481D01*
X557263Y1328407D01*
X557264Y1328407D01*
X557253Y1328402D01*
X557035Y1328493D01*
X557035Y1328493D01*
X556874Y1328559D01*
X556856Y1328601D01*
Y1328465D01*
X556544D01*
Y1330017D01*
X556856D01*
Y1329091D01*
X556825Y1329092D01*
X556822Y1329084D01*
X556877Y1328950D01*
X556878Y1328951D01*
X556928Y1328829D01*
X556927Y1328829D01*
X556928Y1328827D01*
X557042Y1328780D01*
X557042Y1328780D01*
X557158Y1328732D01*
X557162Y1328733D01*
X557162Y1328732D01*
X557166Y1328731D01*
X557284Y1328780D01*
X557284Y1328780D01*
X557399Y1328827D01*
X557400Y1328829D01*
X557399Y1328829D01*
X557449Y1328951D01*
X557450Y1328950D01*
X557506Y1329084D01*
X557502Y1329092D01*
X557471Y1330017D01*
X557783D01*
Y1328985D01*
D02*
G37*
G36*
X562421Y1327520D02*
X562422Y1327520D01*
X562584Y1327453D01*
X562601Y1327411D01*
Y1327382D01*
X562609Y1327392D01*
X562601Y1327411D01*
Y1327547D01*
X562913D01*
Y1325996D01*
X562601D01*
Y1326929D01*
X562631Y1326928D01*
X562635Y1326938D01*
X562578Y1327076D01*
X562578Y1327076D01*
X562536Y1327176D01*
X562514Y1327185D01*
X562518Y1327189D01*
X562299Y1327280D01*
X562299Y1327280D01*
X562299Y1327277D01*
X562195Y1327234D01*
X562083Y1327188D01*
X561867Y1327446D01*
X561852Y1327464D01*
X562025Y1327536D01*
X562025Y1327536D01*
X562191Y1327605D01*
X562191Y1327605D01*
X562191Y1327606D01*
X562201Y1327611D01*
X562421Y1327520D01*
D02*
G37*
G36*
X557580Y1327580D02*
X557579Y1327576D01*
X557597Y1327580D01*
X557737Y1327552D01*
X557739Y1327567D01*
X557874Y1327511D01*
X557874Y1327511D01*
X558067Y1327431D01*
X558101Y1327348D01*
X557851Y1327151D01*
X557825Y1327213D01*
X557743Y1327247D01*
X557744Y1327248D01*
X557665Y1327281D01*
X557663Y1327267D01*
X557568Y1327286D01*
X557564Y1327285D01*
X557564Y1327280D01*
X557544Y1327284D01*
X557428Y1327261D01*
X557427Y1327267D01*
X557329Y1327227D01*
X557330Y1327226D01*
X557293Y1327211D01*
X557273Y1327161D01*
X557273Y1327161D01*
X557238Y1327077D01*
X557241Y1327070D01*
X557254Y1326906D01*
X557675D01*
X557675Y1326918D01*
X557679Y1326919D01*
X557889Y1326877D01*
X557887Y1326872D01*
X558056Y1326802D01*
X558061Y1326791D01*
X558063Y1326794D01*
X558134Y1326625D01*
X558134Y1326625D01*
X558206Y1326451D01*
X558203Y1326445D01*
X558201Y1326446D01*
X558203Y1326440D01*
X558129Y1326260D01*
X558129Y1326260D01*
X558062Y1326099D01*
X558039Y1326090D01*
X558044Y1326086D01*
X557859Y1326009D01*
X557860Y1326004D01*
X557633Y1325959D01*
X557633Y1325957D01*
X557627Y1325955D01*
X557497Y1325981D01*
X557495Y1325968D01*
X557390Y1326011D01*
Y1326011D01*
X557291Y1326052D01*
X557260Y1326127D01*
X557254Y1326127D01*
Y1325990D01*
X556952D01*
Y1327053D01*
X556938Y1327053D01*
X556964Y1327184D01*
X556952Y1327186D01*
X556997Y1327294D01*
X557055Y1327435D01*
X557119Y1327461D01*
X557124Y1327454D01*
X557220Y1327517D01*
X557324Y1327538D01*
X557324Y1327538D01*
X557557Y1327585D01*
X557580Y1327580D01*
D02*
G37*
G36*
X560920Y1327397D02*
X561102Y1327518D01*
X561104Y1327516D01*
X561315Y1327603D01*
X561322Y1327601D01*
X561321Y1327612D01*
X561326Y1327614D01*
X561457Y1327560D01*
X561456Y1327557D01*
X561569Y1327510D01*
X561569Y1327511D01*
X561721Y1327448D01*
X561751Y1327375D01*
X561750Y1327374D01*
X561834Y1327171D01*
X561825Y1327169D01*
X561856Y1327015D01*
X561885Y1326793D01*
X561883Y1326773D01*
X561883Y1326774D01*
X561886Y1326754D01*
X561856Y1326529D01*
X561856Y1326529D01*
X561825Y1326373D01*
X561835Y1326372D01*
X561750Y1326167D01*
X561750Y1326169D01*
X561719Y1326094D01*
X561569Y1326032D01*
X561569Y1326032D01*
X561456Y1325985D01*
X561457Y1325983D01*
X561326Y1325928D01*
X561321Y1325930D01*
X561322Y1325937D01*
X561316Y1325935D01*
X561102Y1326023D01*
X561102Y1326023D01*
X560910Y1326102D01*
X560896Y1326136D01*
X560920Y1325996D01*
X560608D01*
Y1328174D01*
X560920D01*
Y1327397D01*
D02*
G37*
G36*
X559925Y1325996D02*
X559650D01*
X559325Y1327081D01*
X559319D01*
X558995Y1325996D01*
X558720D01*
X558224Y1327547D01*
X558554D01*
X558851Y1326461D01*
X558858D01*
X559208Y1327547D01*
X559436D01*
X559787Y1326461D01*
X559793D01*
X560091Y1327547D01*
X560421D01*
X559925Y1325996D01*
D02*
G37*
G36*
X561856Y1327015D02*
X561856Y1327015D01*
X561856Y1327015D01*
X561856Y1327015D01*
D02*
G37*
G36*
X564174Y1327151D02*
X564172Y1327150D01*
X564173Y1327151D01*
X564174Y1327151D01*
D02*
G37*
G36*
X557851Y1327151D02*
X557850Y1327150D01*
X557851Y1327151D01*
X557851Y1327151D01*
D02*
G37*
G36*
X553403Y1329991D02*
X553409Y1330005D01*
X553409Y1330005D01*
X553618Y1329866D01*
X553629Y1329879D01*
X553668Y1329862D01*
X553711Y1329761D01*
X553705Y1329757D01*
X553763Y1329671D01*
X553773Y1329619D01*
X553776Y1329620D01*
X553811Y1329444D01*
X553812Y1329445D01*
X553852Y1329243D01*
X553850Y1329235D01*
X553850Y1329235D01*
X553852Y1329226D01*
X553810Y1329016D01*
X553809Y1329016D01*
X553773Y1328835D01*
X553766Y1328837D01*
X553706Y1328692D01*
X553703Y1328694D01*
X553674Y1328624D01*
X553603Y1328594D01*
X553597Y1328602D01*
X553430Y1328490D01*
X553372Y1328478D01*
X553371Y1328480D01*
X553134Y1328433D01*
X553134Y1328432D01*
X553132Y1328432D01*
X552828Y1328492D01*
X552833Y1328505D01*
X552685Y1328566D01*
X552695Y1328581D01*
X552605Y1328641D01*
X552570Y1328694D01*
X552799Y1328890D01*
X552772Y1328864D01*
X552776Y1328852D01*
X552958Y1328777D01*
X552958Y1328777D01*
X553137Y1328703D01*
X553140Y1328704D01*
X553140Y1328707D01*
X553145Y1328704D01*
X553287Y1328763D01*
X553287Y1328764D01*
X553421Y1328819D01*
X553419Y1328821D01*
X553430Y1328826D01*
X553484Y1328955D01*
X553484Y1328955D01*
X553550Y1329113D01*
X553546Y1329124D01*
X552543Y1329123D01*
Y1329380D01*
X552531Y1329380D01*
X552529Y1329391D01*
X552581Y1329653D01*
X552591Y1329650D01*
X552684Y1329874D01*
X552710Y1329884D01*
X552728Y1329864D01*
X552932Y1330000D01*
X552938Y1330001D01*
X552939Y1330000D01*
X553177Y1330047D01*
X553182Y1330046D01*
X553182Y1330083D01*
X553403Y1329991D01*
D02*
G37*
G36*
X564099D02*
X564105Y1330005D01*
X564105Y1330005D01*
X564314Y1329866D01*
X564325Y1329879D01*
X564365Y1329862D01*
X564407Y1329761D01*
X564401Y1329757D01*
X564460Y1329670D01*
X564470Y1329619D01*
X564472Y1329620D01*
X564507Y1329444D01*
X564508Y1329445D01*
X564548Y1329243D01*
X564547Y1329235D01*
X564547Y1329235D01*
X564548Y1329226D01*
X564507Y1329016D01*
X564505Y1329016D01*
X564469Y1328835D01*
X564463Y1328837D01*
X564402Y1328692D01*
X564400Y1328694D01*
X564371Y1328624D01*
X564299Y1328594D01*
X564294Y1328602D01*
X564126Y1328490D01*
X564068Y1328478D01*
X564068Y1328480D01*
X563830Y1328433D01*
X563831Y1328432D01*
X563828Y1328432D01*
X563524Y1328492D01*
X563529Y1328505D01*
X563381Y1328566D01*
X563391Y1328581D01*
X563301Y1328641D01*
X563266Y1328694D01*
X563495Y1328890D01*
X563468Y1328864D01*
X563473Y1328852D01*
X563654Y1328777D01*
X563655Y1328777D01*
X563834Y1328703D01*
X563836Y1328704D01*
X563836Y1328707D01*
X563841Y1328704D01*
X563983Y1328763D01*
X563983Y1328764D01*
X564117Y1328819D01*
X564115Y1328821D01*
X564126Y1328826D01*
X564180Y1328955D01*
X564181Y1328955D01*
X564246Y1329113D01*
X564242Y1329124D01*
X563239Y1329123D01*
Y1329380D01*
X563228Y1329380D01*
X563225Y1329391D01*
X563277Y1329653D01*
X563287Y1329650D01*
X563380Y1329874D01*
X563406Y1329884D01*
X563424Y1329864D01*
X563628Y1330000D01*
X563634Y1330001D01*
X563635Y1330000D01*
X563873Y1330047D01*
X563878Y1330046D01*
X563878Y1330083D01*
X564099Y1329991D01*
D02*
G37*
G36*
X560184Y1330056D02*
X560184Y1330049D01*
X560192Y1330050D01*
X560411Y1330007D01*
X560412Y1330008D01*
X560606Y1329927D01*
X560603Y1329922D01*
X560667Y1329895D01*
X560721Y1329764D01*
X560721Y1329764D01*
X560802Y1329567D01*
X560798Y1329556D01*
X560797Y1329557D01*
X560801Y1329548D01*
X560731Y1329378D01*
X560730Y1329378D01*
X560673Y1329239D01*
X560648Y1329229D01*
X560654Y1329223D01*
X560492Y1329156D01*
X560492Y1329156D01*
X560317Y1329084D01*
X560041Y1329091D01*
X560039Y1329111D01*
X559957Y1329077D01*
X559957Y1329077D01*
X559894Y1329050D01*
X559895Y1329049D01*
X559880Y1329043D01*
X559862Y1329000D01*
X559862Y1329000D01*
X559838Y1328942D01*
X559840Y1328939D01*
X559838Y1328940D01*
X559836Y1328936D01*
X559871Y1328852D01*
X559870Y1328852D01*
X559888Y1328810D01*
X559937Y1328789D01*
X559936Y1328788D01*
X560034Y1328747D01*
X560034Y1328744D01*
X560152Y1328695D01*
X560157Y1328697D01*
X560157Y1328728D01*
X560163Y1328726D01*
X560426Y1328779D01*
X560427Y1328777D01*
X560655Y1328930D01*
X560864Y1328724D01*
X560875Y1328712D01*
X560554Y1328498D01*
X560553Y1328498D01*
X560552Y1328501D01*
X560187Y1328428D01*
X560181Y1328430D01*
X560181Y1328430D01*
X560173Y1328429D01*
X559932Y1328477D01*
X559932Y1328477D01*
X559839Y1328496D01*
X559725Y1328571D01*
X559722Y1328566D01*
X559632Y1328603D01*
X559583Y1328721D01*
X559584Y1328721D01*
X559503Y1328916D01*
X559507Y1328925D01*
X559496Y1328924D01*
X559494Y1328929D01*
X559563Y1329096D01*
X559563Y1329095D01*
X559628Y1329252D01*
X559631Y1329249D01*
X559648Y1329288D01*
X559781Y1329344D01*
Y1329344D01*
X559874Y1329382D01*
X559876Y1329374D01*
X559988Y1329396D01*
X560245Y1329407D01*
X560246Y1329381D01*
X560345Y1329422D01*
X560345Y1329423D01*
X560414Y1329452D01*
X560415Y1329451D01*
X560418Y1329452D01*
X560439Y1329504D01*
X560439Y1329504D01*
X560460Y1329553D01*
X560463Y1329553D01*
X560464Y1329558D01*
X560409Y1329690D01*
X560398Y1329695D01*
X560397Y1329694D01*
X560311Y1329730D01*
X560312Y1329734D01*
X560194Y1329783D01*
X560183Y1329779D01*
X560185Y1329784D01*
X560174Y1329789D01*
X559960Y1329700D01*
X559952Y1329719D01*
X559952Y1329719D01*
X559769Y1329597D01*
X559576Y1329824D01*
X559572Y1329828D01*
X559811Y1329987D01*
X559831Y1329991D01*
X559831Y1329988D01*
X559995Y1330021D01*
X559995Y1330021D01*
X560178Y1330057D01*
X560184Y1330056D01*
D02*
G37*
G36*
X562475Y1329989D02*
X562475Y1329989D01*
X562638Y1329922D01*
X562655Y1329881D01*
Y1329851D01*
X562662Y1329862D01*
X562655Y1329881D01*
Y1330017D01*
X562967D01*
Y1328465D01*
X562655D01*
Y1329389D01*
X562686Y1329389D01*
X562689Y1329396D01*
X562634Y1329529D01*
X562633Y1329529D01*
X562583Y1329650D01*
X562583Y1329650D01*
X562582Y1329653D01*
X562468Y1329701D01*
X562468Y1329701D01*
X562350Y1329750D01*
X562345Y1329748D01*
X562346Y1329747D01*
X562342Y1329749D01*
X562226Y1329701D01*
X562226Y1329701D01*
X562113Y1329654D01*
X562111Y1329650D01*
X562111Y1329650D01*
X562061Y1329529D01*
X562061Y1329529D01*
X562006Y1329396D01*
X562009Y1329389D01*
X562040Y1328465D01*
X561728D01*
Y1329497D01*
X561715Y1329497D01*
X561714Y1329500D01*
X561738Y1329620D01*
X561726Y1329623D01*
X561770Y1329729D01*
X561770D01*
X561838Y1329892D01*
X561884Y1329912D01*
X561894Y1329900D01*
X562059Y1330010D01*
X562063Y1330011D01*
X562067Y1330000D01*
X562245Y1330074D01*
X562244Y1330076D01*
X562255Y1330080D01*
X562475Y1329989D01*
D02*
G37*
G36*
X554731Y1329998D02*
X554731Y1330000D01*
X554750Y1329996D01*
X554961Y1329855D01*
X554974Y1329870D01*
X555017Y1329852D01*
X555060Y1329748D01*
X555053Y1329743D01*
X555119Y1329643D01*
X555126Y1329607D01*
X555128Y1329608D01*
X555162Y1329437D01*
X555163Y1329437D01*
X555201Y1329246D01*
X555200Y1329239D01*
X555200Y1329239D01*
X555201Y1329232D01*
X555163Y1329041D01*
X555162Y1329041D01*
X555129Y1328871D01*
X555126Y1328872D01*
X555119Y1328837D01*
X555052Y1328737D01*
X555060Y1328732D01*
X555018Y1328630D01*
X554974Y1328611D01*
X554961Y1328626D01*
X554752Y1328487D01*
X554731Y1328482D01*
X554730Y1328484D01*
X554474Y1328433D01*
X554471Y1328434D01*
X554471Y1328434D01*
X554467Y1328433D01*
X554304Y1328466D01*
Y1328466D01*
X554206Y1328485D01*
X554153Y1328520D01*
X554153Y1328519D01*
X553941Y1328661D01*
X553908Y1328710D01*
X554131Y1328911D01*
X554131Y1328912D01*
X554143Y1328922D01*
X554131Y1328911D01*
X554156Y1328851D01*
X554286Y1328797D01*
X554287Y1328798D01*
X554456Y1328728D01*
X554459Y1328729D01*
X554458Y1328723D01*
X554469Y1328718D01*
X554636Y1328788D01*
X554635Y1328788D01*
X554762Y1328840D01*
X554773Y1328868D01*
X554775Y1328868D01*
X554841Y1329028D01*
X554839Y1329028D01*
X554878Y1329227D01*
X554876Y1329239D01*
X554876Y1329239D01*
X554878Y1329252D01*
X554839Y1329451D01*
X554841Y1329452D01*
X554775Y1329612D01*
X554773Y1329611D01*
X554761Y1329640D01*
X554635Y1329692D01*
X554636Y1329693D01*
X554469Y1329762D01*
X554458Y1329757D01*
X554459Y1329752D01*
X554456Y1329753D01*
X554288Y1329683D01*
X554287Y1329684D01*
X554153Y1329629D01*
X554129Y1329571D01*
X553913Y1329766D01*
X553907Y1329770D01*
X553941Y1329821D01*
X554153Y1329962D01*
X554153Y1329961D01*
X554207Y1329997D01*
X554304Y1330016D01*
X554304Y1330016D01*
X554467Y1330049D01*
X554471Y1330048D01*
X554471Y1330048D01*
X554474Y1330049D01*
X554731Y1329998D01*
D02*
G37*
G36*
X555698Y1329989D02*
X555699Y1329989D01*
X555861Y1329922D01*
X555878Y1329881D01*
Y1329851D01*
X555886Y1329862D01*
X555878Y1329881D01*
Y1330017D01*
X556190D01*
Y1328465D01*
X555878D01*
Y1329398D01*
X555908Y1329397D01*
X555912Y1329407D01*
X555855Y1329545D01*
X555855Y1329545D01*
X555813Y1329645D01*
X555792Y1329654D01*
X555795Y1329658D01*
X555576Y1329749D01*
X555576Y1329749D01*
X555576Y1329747D01*
X555472Y1329704D01*
X555361Y1329657D01*
X555144Y1329915D01*
X555129Y1329933D01*
X555302Y1330005D01*
X555302Y1330005D01*
X555468Y1330074D01*
X555468Y1330074D01*
X555468Y1330076D01*
X555478Y1330080D01*
X555698Y1329989D01*
D02*
G37*
G36*
X560829Y1341720D02*
X560847Y1341677D01*
X561114Y1340283D01*
X561112Y1340283D01*
X561130Y1340240D01*
X561159Y1340228D01*
X562326Y1339745D01*
Y1339745D01*
X562355Y1339733D01*
X562397Y1339750D01*
X563572Y1340547D01*
X563571Y1340548D01*
X563614Y1340566D01*
X563671Y1340542D01*
X563671D01*
X564671Y1339534D01*
X564676Y1339538D01*
Y1339538D01*
X564699Y1339481D01*
X564682Y1339438D01*
X563885Y1338263D01*
X563884Y1338264D01*
X563866Y1338221D01*
X563878Y1338192D01*
X564361Y1337025D01*
X564373Y1336997D01*
X564416Y1336979D01*
X565810Y1336712D01*
X565810Y1336713D01*
X565853Y1336695D01*
X565877Y1336638D01*
X565871Y1335218D01*
X565877D01*
X565853Y1335160D01*
X565810Y1335143D01*
X564417Y1334875D01*
X564416Y1334877D01*
X564373Y1334859D01*
X564361Y1334830D01*
X563878Y1333663D01*
X563866Y1333634D01*
X563884Y1333591D01*
X564680Y1332417D01*
X564682Y1332418D01*
X564699Y1332375D01*
X564676Y1332318D01*
Y1332318D01*
X563667Y1331318D01*
X563671Y1331313D01*
X563614Y1331290D01*
X563571Y1331307D01*
X562397Y1332104D01*
X562397Y1332105D01*
X562355Y1332123D01*
X562326Y1332111D01*
X561791Y1331890D01*
X561763Y1331878D01*
X561705Y1331901D01*
X561693Y1331931D01*
X560709Y1334340D01*
X560698Y1334369D01*
X560721Y1334426D01*
X560747Y1334437D01*
X560756Y1334418D01*
X561244Y1334744D01*
X561607Y1335287D01*
X561735Y1335928D01*
X561607Y1336568D01*
X561244Y1337111D01*
X560702Y1337474D01*
X560061Y1337601D01*
X559421Y1337474D01*
X558878Y1337111D01*
X558515Y1336568D01*
X558388Y1335928D01*
X558515Y1335287D01*
X558878Y1334744D01*
X559366Y1334418D01*
X559375Y1334437D01*
X559401Y1334426D01*
X559425Y1334369D01*
X559413Y1334340D01*
X558429Y1331931D01*
X558429D01*
X558417Y1331901D01*
X558360Y1331878D01*
X558331Y1331890D01*
X557796Y1332111D01*
X557768Y1332123D01*
X557725Y1332105D01*
X556550Y1331309D01*
X556551Y1331307D01*
X556508Y1331290D01*
X556451Y1331313D01*
X555451Y1332322D01*
X555447Y1332318D01*
X555423Y1332375D01*
X555441Y1332418D01*
X556237Y1333592D01*
X556239Y1333591D01*
X556256Y1333634D01*
X556244Y1333663D01*
X555761Y1334830D01*
X555761D01*
X555749Y1334859D01*
X555706Y1334877D01*
X554313Y1335144D01*
X554312Y1335143D01*
X554269Y1335160D01*
X554246Y1335218D01*
X554252Y1336638D01*
X554246D01*
X554269Y1336695D01*
X554312Y1336713D01*
X555706Y1336980D01*
X555706Y1336979D01*
X555749Y1336997D01*
X555761Y1337025D01*
X556244Y1338192D01*
X556256Y1338221D01*
X556239Y1338264D01*
X555442Y1339439D01*
X555441Y1339438D01*
X555423Y1339481D01*
X555447Y1339538D01*
X556455Y1340538D01*
X556451Y1340542D01*
X556451D01*
X556508Y1340566D01*
X556551Y1340548D01*
X557726Y1339752D01*
X557725Y1339750D01*
X557768Y1339733D01*
X557796Y1339745D01*
X558964Y1340228D01*
X558992Y1340240D01*
X559010Y1340283D01*
X559277Y1341677D01*
X559276Y1341677D01*
X559294Y1341720D01*
X559351Y1341743D01*
X560771Y1341737D01*
Y1341743D01*
X560829Y1341720D01*
D02*
G37*
G36*
X558870Y1330019D02*
X558872Y1330027D01*
X559002Y1329973D01*
X559002Y1329973D01*
X559102Y1329906D01*
X559112Y1329919D01*
X559194Y1329885D01*
X559204Y1329861D01*
X559206Y1329862D01*
X559308Y1329615D01*
X559309Y1329616D01*
X559340Y1329461D01*
X559346Y1329462D01*
X559387Y1329257D01*
X559384Y1329243D01*
X559345Y1329243D01*
X559384Y1329243D01*
X559384Y1329243D01*
D01*
D01*
D01*
D01*
X559385Y1329243D01*
X559388Y1329228D01*
X559347Y1329020D01*
X559340Y1329021D01*
X559309Y1328865D01*
X559308Y1328865D01*
X559206Y1328619D01*
X559202Y1328623D01*
X559190Y1328594D01*
X559112Y1328561D01*
X559102Y1328574D01*
X559002Y1328507D01*
X559002Y1328508D01*
X558872Y1328454D01*
X558870Y1328463D01*
X558713Y1328432D01*
X558705Y1328433D01*
X558706Y1328434D01*
X558698Y1328432D01*
X558542Y1328463D01*
X558541Y1328454D01*
X558411Y1328508D01*
X558411Y1328507D01*
X558310Y1328574D01*
X558301Y1328561D01*
X558220Y1328595D01*
X558209Y1328621D01*
X558206Y1328619D01*
X558104Y1328865D01*
X558103Y1328865D01*
X558072Y1329021D01*
X558065Y1329020D01*
X558024Y1329228D01*
X558027Y1329243D01*
X558028Y1329243D01*
X558025Y1329257D01*
X558066Y1329462D01*
X558072Y1329461D01*
X558103Y1329616D01*
X558104Y1329615D01*
X558206Y1329862D01*
X558206Y1329862D01*
X558215Y1329884D01*
X558300Y1329919D01*
X558310Y1329906D01*
X558411Y1329973D01*
X558411Y1329973D01*
X558541Y1330027D01*
X558542Y1330019D01*
X558698Y1330050D01*
X558706Y1330048D01*
X558705Y1330048D01*
X558713Y1330050D01*
X558870Y1330019D01*
D02*
G37*
G36*
X567080Y1330019D02*
X567082Y1330027D01*
X567212Y1329973D01*
X567212Y1329973D01*
X567312Y1329906D01*
X567322Y1329919D01*
X567404Y1329885D01*
X567414Y1329861D01*
X567416Y1329862D01*
X567518Y1329615D01*
X567519Y1329616D01*
X567550Y1329461D01*
X567556Y1329462D01*
X567597Y1329257D01*
X567594Y1329243D01*
D01*
D01*
X567595Y1329243D01*
X567598Y1329228D01*
X567557Y1329020D01*
X567550Y1329021D01*
X567519Y1328865D01*
X567518Y1328865D01*
X567416Y1328619D01*
X567412Y1328623D01*
X567400Y1328594D01*
X567321Y1328561D01*
X567312Y1328574D01*
X567212Y1328507D01*
X567212Y1328508D01*
X567082Y1328454D01*
X567080Y1328463D01*
X566923Y1328432D01*
X566915Y1328433D01*
X566916Y1328434D01*
X566908Y1328432D01*
X566752Y1328463D01*
X566751Y1328454D01*
X566621Y1328508D01*
X566621Y1328507D01*
X566520Y1328574D01*
X566511Y1328561D01*
X566430Y1328595D01*
X566419Y1328621D01*
X566416Y1328619D01*
X566314Y1328865D01*
X566313Y1328865D01*
X566282Y1329021D01*
X566275Y1329020D01*
X566234Y1329228D01*
X566237Y1329243D01*
X566238Y1329243D01*
X566235Y1329257D01*
X566276Y1329462D01*
X566282Y1329461D01*
X566313Y1329616D01*
X566314Y1329615D01*
X566416Y1329862D01*
X566416Y1329862D01*
X566425Y1329884D01*
X566510Y1329919D01*
X566520Y1329906D01*
X566621Y1329973D01*
X566621Y1329973D01*
X566751Y1330027D01*
X566752Y1330019D01*
X566908Y1330050D01*
X566916Y1330048D01*
X566915Y1330048D01*
X566923Y1330050D01*
X567080Y1330019D01*
D02*
G37*
G36*
X565278Y1330081D02*
X565277Y1330076D01*
X565283Y1330078D01*
X565497Y1329990D01*
X565497Y1329990D01*
X565686Y1329912D01*
X565702Y1329874D01*
X565678Y1330017D01*
X565990D01*
Y1325996D01*
X565678D01*
Y1326920D01*
X565710Y1326919D01*
X565713Y1326927D01*
X565657Y1327060D01*
X565657Y1327060D01*
X565607Y1327181D01*
X565607Y1327181D01*
X565606Y1327184D01*
X565492Y1327231D01*
X565492Y1327232D01*
X565373Y1327281D01*
X565369Y1327279D01*
X565370Y1327278D01*
X565366Y1327280D01*
X565249Y1327232D01*
X565249Y1327231D01*
X565137Y1327185D01*
X565135Y1327181D01*
X565135Y1327181D01*
X565085Y1327060D01*
X565085Y1327060D01*
X565029Y1326927D01*
X565032Y1326919D01*
X565064Y1325996D01*
X564752D01*
Y1327028D01*
X564739Y1327028D01*
X564738Y1327031D01*
X564762Y1327151D01*
X564750Y1327153D01*
X564794Y1327259D01*
X564794D01*
X564862Y1327423D01*
X564908Y1327442D01*
X564918Y1327431D01*
X565083Y1327541D01*
X565087Y1327542D01*
X565091Y1327531D01*
X565269Y1327605D01*
X565268Y1327606D01*
X565279Y1327611D01*
X565499Y1327520D01*
X565499Y1327520D01*
X565661Y1327453D01*
X565678Y1327411D01*
X565678Y1328613D01*
D01*
D01*
X565497Y1328492D01*
X565496Y1328496D01*
X565285Y1328408D01*
X565277Y1328412D01*
X565278Y1328400D01*
X565273Y1328398D01*
X565143Y1328452D01*
X565144Y1328455D01*
X565031Y1328501D01*
X565031Y1328501D01*
X564877Y1328565D01*
X564847Y1328636D01*
X564849Y1328637D01*
X564765Y1328840D01*
X564775Y1328842D01*
X564744Y1328997D01*
X564744Y1328996D01*
X564715Y1329220D01*
X564717Y1329239D01*
X564717Y1329239D01*
X564714Y1329259D01*
X564744Y1329483D01*
X564744Y1329483D01*
X564775Y1329638D01*
X564765Y1329640D01*
X564849Y1329843D01*
X564845Y1329846D01*
X564874Y1329915D01*
X565031Y1329980D01*
X565031Y1329980D01*
X565144Y1330026D01*
X565143Y1330029D01*
X565273Y1330082D01*
X565278Y1330081D01*
D02*
G37*
%LPC*%
G36*
X558714Y1329752D02*
X558705Y1329749D01*
X558706Y1329748D01*
X558705Y1329748D01*
X558705Y1329749D01*
X558697Y1329752D01*
X558558Y1329694D01*
X558558Y1329694D01*
X558467Y1329657D01*
X558449Y1329612D01*
X558447Y1329614D01*
X558391Y1329478D01*
X558386Y1329479D01*
X558347Y1329385D01*
X558364Y1329385D01*
X558337Y1329250D01*
X558340Y1329239D01*
X558340D01*
X558340Y1329239D01*
X558378Y1329239D01*
X558340Y1329239D01*
X558338Y1329228D01*
X558364Y1329094D01*
X558347Y1329094D01*
X558386Y1329000D01*
X558391Y1329001D01*
X558446Y1328866D01*
X558449Y1328868D01*
X558467Y1328824D01*
X558558Y1328786D01*
X558558Y1328786D01*
X558697Y1328729D01*
X558705Y1328732D01*
X558705Y1328732D01*
X558706Y1328732D01*
X558705Y1328732D01*
X558714Y1328728D01*
X558854Y1328786D01*
X558854Y1328786D01*
X558942Y1328823D01*
X558961Y1328869D01*
X558965Y1328866D01*
X559022Y1329001D01*
X559017Y1329002D01*
X559035Y1329097D01*
X559050Y1329096D01*
X559077Y1329232D01*
X559075Y1329243D01*
X559072Y1329243D01*
X559075Y1329253D01*
X559049Y1329385D01*
X559035Y1329385D01*
X559017Y1329477D01*
X559021Y1329478D01*
X558965Y1329615D01*
X558961Y1329612D01*
X558942Y1329658D01*
X558854Y1329694D01*
X558854Y1329694D01*
X558714Y1329752D01*
D02*
G37*
G36*
X565367Y1329762D02*
X565271Y1329722D01*
X565272Y1329718D01*
X565195Y1329686D01*
X565195Y1329686D01*
X565145Y1329665D01*
X565106Y1329571D01*
X565104Y1329572D01*
X565040Y1329250D01*
X565043Y1329239D01*
X565043Y1329239D01*
X565041Y1329228D01*
X565104Y1328908D01*
X565106Y1328909D01*
X565145Y1328815D01*
X565195Y1328794D01*
X565195Y1328794D01*
X565272Y1328762D01*
X565271Y1328759D01*
X565367Y1328719D01*
X565373Y1328721D01*
X565373Y1328722D01*
X565372Y1328722D01*
X565372Y1328758D01*
X565373Y1328722D01*
X565377Y1328720D01*
X565473Y1328760D01*
X565472Y1328763D01*
X565549Y1328795D01*
X565549Y1328795D01*
X565596Y1328815D01*
X565637Y1328914D01*
X565638Y1328913D01*
X565702Y1329235D01*
X565701Y1329239D01*
X565701Y1329239D01*
X565702Y1329243D01*
X565638Y1329566D01*
X565637Y1329566D01*
X565596Y1329665D01*
X565549Y1329685D01*
X565549Y1329685D01*
X565472Y1329717D01*
X565473Y1329720D01*
X565377Y1329760D01*
X565372Y1329758D01*
X565373Y1329759D01*
X565367Y1329762D01*
D02*
G37*
G36*
X567594Y1329243D02*
X567555Y1329243D01*
X567594Y1329243D01*
X567594Y1329243D01*
D01*
D01*
D02*
G37*
G36*
X563941Y1326690D02*
X563577Y1326649D01*
Y1326536D01*
X563543Y1326536D01*
X563537Y1326523D01*
X563592Y1326391D01*
X563594Y1326392D01*
X563615Y1326342D01*
X563616Y1326343D01*
X563626Y1326318D01*
X563647Y1326309D01*
X563648Y1326309D01*
X563754Y1326266D01*
X563755Y1326274D01*
X563892Y1326247D01*
X563918Y1326252D01*
X563917Y1326229D01*
X563927Y1326225D01*
X564049Y1326276D01*
X564048Y1326278D01*
X564143Y1326317D01*
X564141Y1326319D01*
X564162Y1326328D01*
X564187Y1326388D01*
X564187Y1326388D01*
X564216Y1326460D01*
X564216Y1326461D01*
X564215Y1326460D01*
X564218Y1326468D01*
X564188Y1326540D01*
X564188Y1326540D01*
X564168Y1326591D01*
X564141Y1326601D01*
X564142Y1326603D01*
X564058Y1326638D01*
X564058Y1326641D01*
X563941Y1326690D01*
D02*
G37*
G36*
X553186Y1329768D02*
X553181Y1329767D01*
X553182Y1329766D01*
X553178Y1329768D01*
X553056Y1329717D01*
X553056Y1329717D01*
X552939Y1329669D01*
X552937Y1329664D01*
X552936Y1329664D01*
X552882Y1329534D01*
X552882Y1329535D01*
X552818Y1329381D01*
X553509Y1329380D01*
X553547Y1329380D01*
X553484Y1329535D01*
X553483Y1329534D01*
X553429Y1329664D01*
X553429Y1329664D01*
X553428Y1329668D01*
X553309Y1329717D01*
X553309Y1329717D01*
X553186Y1329768D01*
D02*
G37*
G36*
X566924Y1329752D02*
X566915Y1329749D01*
X566916Y1329748D01*
X566915Y1329748D01*
X566915Y1329749D01*
X566907Y1329752D01*
X566768Y1329694D01*
X566768Y1329694D01*
X566677Y1329657D01*
X566659Y1329612D01*
X566657Y1329614D01*
X566601Y1329478D01*
X566596Y1329479D01*
X566557Y1329385D01*
X566574Y1329385D01*
X566547Y1329250D01*
X566550Y1329239D01*
X566550D01*
X566548Y1329228D01*
X566574Y1329094D01*
X566557Y1329094D01*
X566596Y1329000D01*
X566601Y1329001D01*
X566656Y1328866D01*
X566659Y1328868D01*
X566677Y1328824D01*
X566768Y1328786D01*
X566768Y1328786D01*
X566907Y1328729D01*
X566915Y1328732D01*
X566915Y1328732D01*
X566916Y1328732D01*
X566915Y1328732D01*
X566924Y1328728D01*
X567064Y1328786D01*
X567064Y1328786D01*
X567152Y1328823D01*
X567171Y1328869D01*
X567175Y1328866D01*
X567231Y1329001D01*
X567227Y1329002D01*
X567245Y1329097D01*
X567260Y1329096D01*
X567287Y1329231D01*
X567285Y1329243D01*
X567282Y1329243D01*
X567285Y1329254D01*
X567258Y1329385D01*
X567245Y1329385D01*
X567227Y1329477D01*
X567231Y1329478D01*
X567175Y1329615D01*
X567171Y1329612D01*
X567152Y1329658D01*
X567064Y1329694D01*
X567064Y1329694D01*
X566924Y1329752D01*
D02*
G37*
G36*
X557619Y1326690D02*
X557254Y1326649D01*
Y1326536D01*
X557220Y1326536D01*
X557215Y1326523D01*
X557269Y1326391D01*
X557271Y1326392D01*
X557292Y1326342D01*
X557293Y1326343D01*
X557303Y1326318D01*
X557324Y1326309D01*
X557325Y1326309D01*
X557431Y1326266D01*
X557432Y1326274D01*
X557569Y1326247D01*
X557595Y1326252D01*
X557594Y1326229D01*
X557604Y1326225D01*
X557726Y1326276D01*
X557725Y1326278D01*
X557820Y1326317D01*
X557818Y1326319D01*
X557839Y1326328D01*
X557864Y1326388D01*
X557864Y1326388D01*
X557894Y1326460D01*
X557893Y1326461D01*
X557892Y1326460D01*
X557895Y1326468D01*
X557865Y1326540D01*
X557865Y1326540D01*
X557845Y1326591D01*
X557819Y1326601D01*
X557820Y1326603D01*
X557735Y1326638D01*
X557736Y1326641D01*
X557619Y1326690D01*
D02*
G37*
G36*
X556856Y1328629D02*
X556849Y1328619D01*
X556856Y1328601D01*
Y1328629D01*
D02*
G37*
G36*
X565678D02*
Y1328613D01*
D01*
D01*
X565688Y1328620D01*
X565678Y1328629D01*
D02*
G37*
G36*
X563882Y1329768D02*
X563877Y1329767D01*
X563878Y1329766D01*
X563874Y1329768D01*
X563752Y1329717D01*
X563752Y1329717D01*
X563635Y1329669D01*
X563633Y1329664D01*
X563632Y1329664D01*
X563579Y1329534D01*
X563578Y1329535D01*
X563515Y1329381D01*
X564206Y1329380D01*
X564244Y1329380D01*
X564180Y1329535D01*
X564179Y1329534D01*
X564126Y1329664D01*
X564125Y1329664D01*
X564124Y1329668D01*
X564005Y1329717D01*
X564005Y1329717D01*
X563882Y1329768D01*
D02*
G37*
G36*
X561231Y1327293D02*
X561226Y1327291D01*
X561226Y1327289D01*
X561226Y1327288D01*
X561226Y1327254D01*
X561226Y1327289D01*
X561221Y1327290D01*
X561127Y1327251D01*
X561127Y1327248D01*
X561051Y1327216D01*
X561051Y1327216D01*
X561004Y1327197D01*
X560963Y1327097D01*
X560961Y1327097D01*
X560897Y1326776D01*
X560898Y1326774D01*
X560898Y1326774D01*
X560897Y1326769D01*
X560961Y1326445D01*
X560963Y1326445D01*
X561004Y1326346D01*
X561051Y1326326D01*
X561051Y1326326D01*
X561127Y1326294D01*
X561127Y1326291D01*
X561221Y1326252D01*
X561226Y1326254D01*
X561226Y1326252D01*
X561231Y1326249D01*
X561327Y1326289D01*
X561327Y1326293D01*
X561404Y1326325D01*
X561403Y1326325D01*
X561454Y1326346D01*
X561492Y1326439D01*
X561494Y1326439D01*
X561558Y1326761D01*
X561556Y1326773D01*
X561558Y1326784D01*
X561495Y1327104D01*
X561492Y1327103D01*
X561454Y1327196D01*
X561403Y1327217D01*
X561404Y1327217D01*
X561327Y1327249D01*
X561327Y1327253D01*
X561231Y1327293D01*
D02*
G37*
G36*
X554884Y1327299D02*
X554880Y1327297D01*
X554880Y1327297D01*
X554876Y1327299D01*
X554754Y1327248D01*
X554754Y1327248D01*
X554637Y1327200D01*
X554635Y1327194D01*
X554634Y1327195D01*
X554581Y1327065D01*
X554580Y1327065D01*
X554517Y1326912D01*
X555208Y1326911D01*
X555246Y1326911D01*
X555182Y1327065D01*
X555181Y1327065D01*
X555128Y1327195D01*
X555127Y1327195D01*
X555126Y1327199D01*
X555007Y1327248D01*
X555007Y1327248D01*
X554884Y1327299D01*
D02*
G37*
G36*
X565678Y1327411D02*
Y1327382D01*
X565686Y1327392D01*
X565678Y1327411D01*
D02*
G37*
%LPD*%
G36*
X561556Y1326773D02*
X561556Y1326773D01*
X561556Y1326774D01*
X561556Y1326773D01*
D02*
G37*
G36*
X566588Y1329239D02*
X566550Y1329239D01*
X566550Y1329239D01*
X566588Y1329239D01*
D02*
G37*
D38*
X308937Y1537126D02*
Y1546000D01*
X702638Y1541063D02*
Y1546000D01*
X308937Y1545000D02*
X486592D01*
X521782D02*
X702638D01*
X308937D02*
X314937Y1543000D01*
X308937Y1545000D02*
X314937Y1547000D01*
X696638D02*
X702638Y1545000D01*
X696638Y1543000D02*
X702638Y1545000D01*
X293189Y1527701D02*
Y1529701D01*
X289252Y1135000D02*
X294189D01*
X293189Y1347845D02*
Y1528701D01*
Y1135000D02*
Y1312656D01*
X291189Y1522701D02*
X293189Y1528701D01*
X295189Y1522701D01*
X293189Y1135000D02*
X295189Y1141000D01*
X291189D02*
X293189Y1135000D01*
X409000Y1137000D02*
X670000D01*
X409000D02*
Y1167500D01*
X350000Y1135000D02*
X401000D01*
Y1137000D02*
Y1167500D01*
X409000D01*
X302500Y1135000D02*
X349700D01*
X308937Y1133563D02*
Y1167500D01*
X345700Y1139000D02*
X349700Y1135000D01*
X670300D02*
X674300Y1139000D01*
X345700D02*
Y1167500D01*
X308937D02*
X345700D01*
X674300Y1139000D02*
Y1167500D01*
X702500D01*
X308937D02*
Y1528701D01*
X702500D01*
Y1167500D02*
Y1528701D01*
X401000Y1135000D02*
Y1167500D01*
X409000Y1135000D02*
Y1167500D01*
X349700Y1135000D02*
X401000D01*
X409000D02*
X670300D01*
X401000Y1167500D02*
X409000D01*
D40*
X320187Y1301500D02*
X324687D01*
X320187Y1308500D02*
X324687D01*
X327687D02*
X332687D01*
X327687Y1301500D02*
X332687D01*
X320187D02*
Y1308500D01*
X332687Y1301500D02*
Y1308500D01*
X352437Y1241250D02*
Y1245750D01*
X345437Y1241250D02*
Y1245750D01*
Y1248750D02*
Y1253750D01*
X352437Y1248750D02*
Y1253750D01*
X345437Y1241250D02*
X352437D01*
X345437Y1253750D02*
X352437D01*
X330437D02*
X337437D01*
X330437Y1241250D02*
X337437D01*
Y1248750D02*
Y1253750D01*
X330437Y1248750D02*
Y1253750D01*
Y1241250D02*
Y1245750D01*
X337437Y1241250D02*
Y1245750D01*
X339937Y1361813D02*
Y1366313D01*
X346937Y1361813D02*
Y1366313D01*
Y1353813D02*
Y1358813D01*
X339937Y1353813D02*
Y1358813D01*
Y1366313D02*
X346937D01*
X339937Y1353813D02*
X346937D01*
X507937Y1514250D02*
Y1518750D01*
X514937Y1514250D02*
Y1518750D01*
Y1506250D02*
Y1511250D01*
X507937Y1506250D02*
Y1511250D01*
Y1518750D02*
X514937D01*
X507937Y1506250D02*
X514937D01*
X676500Y1216250D02*
X683500D01*
X676500Y1203750D02*
X683500D01*
Y1211250D02*
Y1216250D01*
X676500Y1211250D02*
Y1216250D01*
Y1203750D02*
Y1208250D01*
X683500Y1203750D02*
Y1208250D01*
X457687Y1491500D02*
Y1498500D01*
X470187Y1491500D02*
Y1498500D01*
X457687D02*
X462687D01*
X457687Y1491500D02*
X462687D01*
X465687D02*
X470187D01*
X465687Y1498500D02*
X470187D01*
X628750Y1351500D02*
X633250D01*
X628750Y1358500D02*
X633250D01*
X636250D02*
X641250D01*
X636250Y1351500D02*
X641250D01*
X628750D02*
Y1358500D01*
X641250Y1351500D02*
Y1358500D01*
X628750Y1381500D02*
X633250D01*
X628750Y1388500D02*
X633250D01*
X636250D02*
X641250D01*
X636250Y1381500D02*
X641250D01*
X628750D02*
Y1388500D01*
X641250Y1381500D02*
Y1388500D01*
X628750Y1411500D02*
X633250D01*
X628750Y1418500D02*
X633250D01*
X636250D02*
X641250D01*
X636250Y1411500D02*
X641250D01*
X628750D02*
Y1418500D01*
X641250Y1411500D02*
Y1418500D01*
X628750Y1431500D02*
X633250D01*
X628750Y1438500D02*
X633250D01*
X636250D02*
X641250D01*
X636250Y1431500D02*
X641250D01*
X628750D02*
Y1438500D01*
X641250Y1431500D02*
Y1438500D01*
X628750Y1421500D02*
X633250D01*
X628750Y1428500D02*
X633250D01*
X636250D02*
X641250D01*
X636250Y1421500D02*
X641250D01*
X628750D02*
Y1428500D01*
X641250Y1421500D02*
Y1428500D01*
X628750Y1401500D02*
X633250D01*
X628750Y1408500D02*
X633250D01*
X636250D02*
X641250D01*
X636250Y1401500D02*
X641250D01*
X628750D02*
Y1408500D01*
X641250Y1401500D02*
Y1408500D01*
X628750Y1391500D02*
X633250D01*
X628750Y1398500D02*
X633250D01*
X636250D02*
X641250D01*
X636250Y1391500D02*
X641250D01*
X628750D02*
Y1398500D01*
X641250Y1391500D02*
Y1398500D01*
X628750Y1371500D02*
X633250D01*
X628750Y1378500D02*
X633250D01*
X636250D02*
X641250D01*
X636250Y1371500D02*
X641250D01*
X628750D02*
Y1378500D01*
X641250Y1371500D02*
Y1378500D01*
X628750Y1361500D02*
X633250D01*
X628750Y1368500D02*
X633250D01*
X636250D02*
X641250D01*
X636250Y1361500D02*
X641250D01*
X628750D02*
Y1368500D01*
X641250Y1361500D02*
Y1368500D01*
X628750Y1331500D02*
X633250D01*
X628750Y1338500D02*
X633250D01*
X636250D02*
X641250D01*
X636250Y1331500D02*
X641250D01*
X628750D02*
Y1338500D01*
X641250Y1331500D02*
Y1338500D01*
X628750Y1341500D02*
X633250D01*
X628750Y1348500D02*
X633250D01*
X636250D02*
X641250D01*
X636250Y1341500D02*
X641250D01*
X628750D02*
Y1348500D01*
X641250Y1341500D02*
Y1348500D01*
X486750Y1448500D02*
X491250D01*
X486750Y1441500D02*
X491250D01*
X478750D02*
X483750D01*
X478750Y1448500D02*
X483750D01*
X491250Y1441500D02*
Y1448500D01*
X478750Y1441500D02*
Y1448500D01*
X553500Y1436250D02*
Y1440750D01*
X546500Y1436250D02*
Y1440750D01*
Y1443750D02*
Y1448750D01*
X553500Y1443750D02*
Y1448750D01*
X546500Y1436250D02*
X553500D01*
X546500Y1448750D02*
X553500D01*
X490187Y1482500D02*
X494687D01*
X490187Y1489500D02*
X494687D01*
X497687D02*
X502687D01*
X497687Y1482500D02*
X502687D01*
X490187D02*
Y1489500D01*
X502687Y1482500D02*
Y1489500D01*
X369000Y1436750D02*
Y1441250D01*
X376000Y1436750D02*
Y1441250D01*
Y1428750D02*
Y1433750D01*
X369000Y1428750D02*
Y1433750D01*
Y1441250D02*
X376000D01*
X369000Y1428750D02*
X376000D01*
X368000Y1456750D02*
Y1461250D01*
X375000Y1456750D02*
Y1461250D01*
Y1448750D02*
Y1453750D01*
X368000Y1448750D02*
Y1453750D01*
Y1461250D02*
X375000D01*
X368000Y1448750D02*
X375000D01*
X383000Y1360250D02*
Y1364750D01*
X376000Y1360250D02*
Y1364750D01*
Y1367750D02*
Y1372750D01*
X383000Y1367750D02*
Y1372750D01*
X376000Y1360250D02*
X383000D01*
X376000Y1372750D02*
X383000D01*
X384368Y1408500D02*
X388868D01*
X384368Y1401500D02*
X388868D01*
X376368D02*
X381368D01*
X376368Y1408500D02*
X381368D01*
X388868Y1401500D02*
Y1408500D01*
X376368Y1401500D02*
Y1408500D01*
X376687Y1389500D02*
X381187D01*
X376687Y1396500D02*
X381187D01*
X384187D02*
X389187D01*
X384187Y1389500D02*
X389187D01*
X376687D02*
Y1396500D01*
X389187Y1389500D02*
Y1396500D01*
X401500Y1456750D02*
Y1461250D01*
X408500Y1456750D02*
Y1461250D01*
Y1448750D02*
Y1453750D01*
X401500Y1448750D02*
Y1453750D01*
Y1461250D02*
X408500D01*
X401500Y1448750D02*
X408500D01*
X534000Y1397400D02*
Y1401900D01*
X541000Y1397400D02*
Y1401900D01*
Y1389400D02*
Y1394400D01*
X534000Y1389400D02*
Y1394400D01*
Y1401900D02*
X541000D01*
X534000Y1389400D02*
X541000D01*
X343750Y1433500D02*
X348250D01*
X343750Y1440500D02*
X348250D01*
X351250D02*
X356250D01*
X351250Y1433500D02*
X356250D01*
X343750D02*
Y1440500D01*
X356250Y1433500D02*
Y1440500D01*
X358500Y1473750D02*
Y1478250D01*
X351500Y1473750D02*
Y1478250D01*
Y1481250D02*
Y1486250D01*
X358500Y1481250D02*
Y1486250D01*
X351500Y1473750D02*
X358500D01*
X351500Y1486250D02*
X358500D01*
X346000Y1473750D02*
Y1478250D01*
X339000Y1473750D02*
Y1478250D01*
Y1481250D02*
Y1486250D01*
X346000Y1481250D02*
Y1486250D01*
X339000Y1473750D02*
X346000D01*
X339000Y1486250D02*
X346000D01*
X351500Y1509250D02*
Y1513750D01*
X358500Y1509250D02*
Y1513750D01*
Y1501250D02*
Y1506250D01*
X351500Y1501250D02*
Y1506250D01*
Y1513750D02*
X358500D01*
X351500Y1501250D02*
X358500D01*
X339000Y1509250D02*
Y1513750D01*
X346000Y1509250D02*
Y1513750D01*
Y1501250D02*
Y1506250D01*
X339000Y1501250D02*
Y1506250D01*
Y1513750D02*
X346000D01*
X339000Y1501250D02*
X346000D01*
X394000Y1501750D02*
Y1506250D01*
X401000Y1501750D02*
Y1506250D01*
Y1493750D02*
Y1498750D01*
X394000Y1493750D02*
Y1498750D01*
Y1506250D02*
X401000D01*
X394000Y1493750D02*
X401000D01*
X327982Y1433500D02*
X332482D01*
X327982Y1440500D02*
X332482D01*
X335482D02*
X340482D01*
X335482Y1433500D02*
X340482D01*
X327982D02*
Y1440500D01*
X340482Y1433500D02*
Y1440500D01*
X581000Y1374250D02*
Y1378750D01*
X574000Y1374250D02*
Y1378750D01*
Y1381750D02*
Y1386750D01*
X581000Y1381750D02*
Y1386750D01*
X574000Y1374250D02*
X581000D01*
X574000Y1386750D02*
X581000D01*
Y1358750D02*
Y1363250D01*
X574000Y1358750D02*
Y1363250D01*
Y1366250D02*
Y1371250D01*
X581000Y1366250D02*
Y1371250D01*
X574000Y1358750D02*
X581000D01*
X574000Y1371250D02*
X581000D01*
X319937Y1386250D02*
Y1390750D01*
X312937Y1386250D02*
Y1390750D01*
Y1393750D02*
Y1398750D01*
X319937Y1393750D02*
Y1398750D01*
X312937Y1386250D02*
X319937D01*
X312937Y1398750D02*
X319937D01*
D45*
X625000Y1340000D02*
Y1342999D01*
X623500D01*
X623001Y1342499D01*
Y1341500D01*
X623500Y1341000D01*
X625000D01*
X624000D02*
X623001Y1340000D01*
X620002Y1342999D02*
X622001D01*
Y1341500D01*
X621001Y1341999D01*
X620501D01*
X620002Y1341500D01*
Y1340500D01*
X620501Y1340000D01*
X621501D01*
X622001Y1340500D01*
X619002Y1340000D02*
X618002D01*
X618502D01*
Y1342999D01*
X619002Y1342499D01*
X614503Y1342999D02*
X615503Y1342499D01*
X616503Y1341500D01*
Y1340500D01*
X616003Y1340000D01*
X615003D01*
X614503Y1340500D01*
Y1341000D01*
X615003Y1341500D01*
X616503D01*
X625000Y1330000D02*
Y1332999D01*
X623500D01*
X623001Y1332499D01*
Y1331499D01*
X623500Y1331000D01*
X625000D01*
X624000D02*
X623001Y1330000D01*
X620002Y1332999D02*
X622001D01*
Y1331499D01*
X621001Y1331999D01*
X620501D01*
X620002Y1331499D01*
Y1330500D01*
X620501Y1330000D01*
X621501D01*
X622001Y1330500D01*
X619002Y1330000D02*
X618002D01*
X618502D01*
Y1332999D01*
X619002Y1332499D01*
X614503Y1332999D02*
X616503D01*
Y1331499D01*
X615503Y1331999D01*
X615003D01*
X614503Y1331499D01*
Y1330500D01*
X615003Y1330000D01*
X616003D01*
X616503Y1330500D01*
X625000Y1360000D02*
Y1362999D01*
X623500D01*
X623001Y1362499D01*
Y1361500D01*
X623500Y1361000D01*
X625000D01*
X624000D02*
X623001Y1360000D01*
X620002Y1362999D02*
X622001D01*
Y1361500D01*
X621001Y1361999D01*
X620501D01*
X620002Y1361500D01*
Y1360500D01*
X620501Y1360000D01*
X621501D01*
X622001Y1360500D01*
X619002Y1362499D02*
X618502Y1362999D01*
X617502D01*
X617002Y1362499D01*
Y1360500D01*
X617502Y1360000D01*
X618502D01*
X619002Y1360500D01*
Y1362499D01*
X616003Y1360500D02*
X615503Y1360000D01*
X614503D01*
X614004Y1360500D01*
Y1362499D01*
X614503Y1362999D01*
X615503D01*
X616003Y1362499D01*
Y1361999D01*
X615503Y1361500D01*
X614004D01*
X625000Y1370000D02*
Y1372999D01*
X623500D01*
X623001Y1372499D01*
Y1371500D01*
X623500Y1371000D01*
X625000D01*
X624000D02*
X623001Y1370000D01*
X620002Y1372999D02*
X622001D01*
Y1371500D01*
X621001Y1371999D01*
X620501D01*
X620002Y1371500D01*
Y1370500D01*
X620501Y1370000D01*
X621501D01*
X622001Y1370500D01*
X619002Y1372499D02*
X618502Y1372999D01*
X617502D01*
X617002Y1372499D01*
Y1370500D01*
X617502Y1370000D01*
X618502D01*
X619002Y1370500D01*
Y1372499D01*
X616003D02*
X615503Y1372999D01*
X614503D01*
X614004Y1372499D01*
Y1371999D01*
X614503Y1371500D01*
X614004Y1371000D01*
Y1370500D01*
X614503Y1370000D01*
X615503D01*
X616003Y1370500D01*
Y1371000D01*
X615503Y1371500D01*
X616003Y1371999D01*
Y1372499D01*
X615503Y1371500D02*
X614503D01*
X625000Y1390000D02*
Y1392999D01*
X623500D01*
X623001Y1392499D01*
Y1391500D01*
X623500Y1391000D01*
X625000D01*
X624000D02*
X623001Y1390000D01*
X620002Y1392999D02*
X622001D01*
Y1391500D01*
X621001Y1391999D01*
X620501D01*
X620002Y1391500D01*
Y1390500D01*
X620501Y1390000D01*
X621501D01*
X622001Y1390500D01*
X619002Y1392499D02*
X618502Y1392999D01*
X617502D01*
X617002Y1392499D01*
Y1390500D01*
X617502Y1390000D01*
X618502D01*
X619002Y1390500D01*
Y1392499D01*
X614004Y1392999D02*
X616003D01*
Y1391500D01*
X615003Y1391999D01*
X614503D01*
X614004Y1391500D01*
Y1390500D01*
X614503Y1390000D01*
X615503D01*
X616003Y1390500D01*
X625000Y1400000D02*
Y1402999D01*
X623500D01*
X623001Y1402499D01*
Y1401499D01*
X623500Y1401000D01*
X625000D01*
X624000D02*
X623001Y1400000D01*
X620002Y1402999D02*
X622001D01*
Y1401499D01*
X621001Y1401999D01*
X620501D01*
X620002Y1401499D01*
Y1400500D01*
X620501Y1400000D01*
X621501D01*
X622001Y1400500D01*
X619002Y1402499D02*
X618502Y1402999D01*
X617502D01*
X617002Y1402499D01*
Y1400500D01*
X617502Y1400000D01*
X618502D01*
X619002Y1400500D01*
Y1402499D01*
X614503Y1400000D02*
Y1402999D01*
X616003Y1401499D01*
X614004D01*
X625000Y1420000D02*
Y1422999D01*
X623500D01*
X623001Y1422499D01*
Y1421500D01*
X623500Y1421000D01*
X625000D01*
X624000D02*
X623001Y1420000D01*
X620002Y1422999D02*
X622001D01*
Y1421500D01*
X621001Y1421999D01*
X620501D01*
X620002Y1421500D01*
Y1420500D01*
X620501Y1420000D01*
X621501D01*
X622001Y1420500D01*
X619002Y1422499D02*
X618502Y1422999D01*
X617502D01*
X617002Y1422499D01*
Y1420500D01*
X617502Y1420000D01*
X618502D01*
X619002Y1420500D01*
Y1422499D01*
X616003Y1420000D02*
X615003D01*
X615503D01*
Y1422999D01*
X616003Y1422499D01*
X625000Y1430000D02*
Y1432999D01*
X623500D01*
X623001Y1432499D01*
Y1431499D01*
X623500Y1431000D01*
X625000D01*
X624000D02*
X623001Y1430000D01*
X620002Y1432999D02*
X622001D01*
Y1431499D01*
X621001Y1431999D01*
X620501D01*
X620002Y1431499D01*
Y1430500D01*
X620501Y1430000D01*
X621501D01*
X622001Y1430500D01*
X619002Y1432499D02*
X618502Y1432999D01*
X617502D01*
X617002Y1432499D01*
Y1430500D01*
X617502Y1430000D01*
X618502D01*
X619002Y1430500D01*
Y1432499D01*
X616003D02*
X615503Y1432999D01*
X614503D01*
X614004Y1432499D01*
Y1430500D01*
X614503Y1430000D01*
X615503D01*
X616003Y1430500D01*
Y1432499D01*
X346271Y1305832D02*
X346938Y1306499D01*
X348271D01*
X348937Y1305832D01*
Y1303166D01*
X348271Y1302500D01*
X346938D01*
X346271Y1303166D01*
X344938Y1302500D02*
X343605D01*
X344272D01*
Y1306499D01*
X344938Y1305832D01*
X341606D02*
X340939Y1306499D01*
X339607D01*
X338940Y1305832D01*
Y1303166D01*
X339607Y1302500D01*
X340939D01*
X341606Y1303166D01*
Y1305832D01*
X337607Y1302500D02*
X336274D01*
X336941D01*
Y1306499D01*
X337607Y1305832D01*
X348771Y1293754D02*
X349438Y1294421D01*
X350770D01*
X351437Y1293754D01*
Y1291089D01*
X350770Y1290422D01*
X349438D01*
X348771Y1291089D01*
X347438Y1290422D02*
X346105D01*
X346772D01*
Y1294421D01*
X347438Y1293754D01*
X344106D02*
X343440Y1294421D01*
X342107D01*
X341440Y1293754D01*
Y1291089D01*
X342107Y1290422D01*
X343440D01*
X344106Y1291089D01*
Y1293754D01*
X337441Y1290422D02*
X340107D01*
X337441Y1293088D01*
Y1293754D01*
X338108Y1294421D01*
X339441D01*
X340107Y1293754D01*
X557501Y1387499D02*
X558001Y1387999D01*
X559000D01*
X559500Y1387499D01*
Y1385500D01*
X559000Y1385000D01*
X558001D01*
X557501Y1385500D01*
X556501Y1385000D02*
X555501D01*
X556001D01*
Y1387999D01*
X556501Y1387499D01*
X554002D02*
X553502Y1387999D01*
X552502D01*
X552002Y1387499D01*
Y1385500D01*
X552502Y1385000D01*
X553502D01*
X554002Y1385500D01*
Y1387499D01*
X551003Y1385500D02*
X550503Y1385000D01*
X549503D01*
X549003Y1385500D01*
Y1387499D01*
X549503Y1387999D01*
X550503D01*
X551003Y1387499D01*
Y1386999D01*
X550503Y1386500D01*
X549003D01*
X595500Y1357000D02*
Y1359999D01*
X594000D01*
X593501Y1359499D01*
Y1358500D01*
X594000Y1358000D01*
X595500D01*
X594500D02*
X593501Y1357000D01*
X592501D02*
X591501D01*
X592001D01*
Y1359999D01*
X592501Y1359499D01*
X590002D02*
X589502Y1359999D01*
X588502D01*
X588002Y1359499D01*
Y1357500D01*
X588502Y1357000D01*
X589502D01*
X590002Y1357500D01*
Y1359499D01*
X585003Y1359999D02*
X587003D01*
Y1358500D01*
X586003Y1358999D01*
X585503D01*
X585003Y1358500D01*
Y1357500D01*
X585503Y1357000D01*
X586503D01*
X587003Y1357500D01*
X625000Y1410000D02*
Y1412999D01*
X623500D01*
X623001Y1412499D01*
Y1411500D01*
X623500Y1411000D01*
X625000D01*
X624000D02*
X623001Y1410000D01*
X620002Y1412999D02*
X622001D01*
Y1411500D01*
X621001Y1411999D01*
X620501D01*
X620002Y1411500D01*
Y1410500D01*
X620501Y1410000D01*
X621501D01*
X622001Y1410500D01*
X619002Y1412499D02*
X618502Y1412999D01*
X617502D01*
X617002Y1412499D01*
Y1410500D01*
X617502Y1410000D01*
X618502D01*
X619002Y1410500D01*
Y1412499D01*
X614004Y1410000D02*
X616003D01*
X614004Y1411999D01*
Y1412499D01*
X614503Y1412999D01*
X615503D01*
X616003Y1412499D01*
X625000Y1380000D02*
Y1382999D01*
X623500D01*
X623001Y1382499D01*
Y1381499D01*
X623500Y1381000D01*
X625000D01*
X624000D02*
X623001Y1380000D01*
X620002Y1382999D02*
X622001D01*
Y1381499D01*
X621001Y1381999D01*
X620501D01*
X620002Y1381499D01*
Y1380500D01*
X620501Y1380000D01*
X621501D01*
X622001Y1380500D01*
X619002Y1382499D02*
X618502Y1382999D01*
X617502D01*
X617002Y1382499D01*
Y1380500D01*
X617502Y1380000D01*
X618502D01*
X619002Y1380500D01*
Y1382499D01*
X614004Y1382999D02*
X615003Y1382499D01*
X616003Y1381499D01*
Y1380500D01*
X615503Y1380000D01*
X614503D01*
X614004Y1380500D01*
Y1381000D01*
X614503Y1381499D01*
X616003D01*
X625000Y1350000D02*
Y1352999D01*
X623500D01*
X623001Y1352499D01*
Y1351499D01*
X623500Y1351000D01*
X625000D01*
X624000D02*
X623001Y1350000D01*
X620002Y1352999D02*
X622001D01*
Y1351499D01*
X621001Y1351999D01*
X620501D01*
X620002Y1351499D01*
Y1350500D01*
X620501Y1350000D01*
X621501D01*
X622001Y1350500D01*
X619002Y1350000D02*
X618002D01*
X618502D01*
Y1352999D01*
X619002Y1352499D01*
X616503D02*
X616003Y1352999D01*
X615003D01*
X614503Y1352499D01*
Y1350500D01*
X615003Y1350000D01*
X616003D01*
X616503Y1350500D01*
Y1352499D01*
X635000Y1112498D02*
Y1105000D01*
X638749D01*
X639998Y1106250D01*
Y1107499D01*
X638749Y1108749D01*
X635000D01*
X638749D01*
X639998Y1109998D01*
Y1111248D01*
X638749Y1112498D01*
X635000D01*
X643747Y1105000D02*
X646246D01*
X647496Y1106250D01*
Y1108749D01*
X646246Y1109998D01*
X643747D01*
X642498Y1108749D01*
Y1106250D01*
X643747Y1105000D01*
X651245Y1111248D02*
Y1109998D01*
X649995D01*
X652494D01*
X651245D01*
Y1106250D01*
X652494Y1105000D01*
X657493Y1111248D02*
Y1109998D01*
X656243D01*
X658742D01*
X657493D01*
Y1106250D01*
X658742Y1105000D01*
X663741D02*
X666240D01*
X667489Y1106250D01*
Y1108749D01*
X666240Y1109998D01*
X663741D01*
X662491Y1108749D01*
Y1106250D01*
X663741Y1105000D01*
X669989D02*
Y1109998D01*
X671238D01*
X672488Y1108749D01*
Y1105000D01*
Y1108749D01*
X673737Y1109998D01*
X674987Y1108749D01*
Y1105000D01*
X688733Y1112498D02*
X686234D01*
X684984Y1111248D01*
Y1106250D01*
X686234Y1105000D01*
X688733D01*
X689982Y1106250D01*
Y1111248D01*
X688733Y1112498D01*
X692481Y1109998D02*
X694981Y1105000D01*
X697480Y1109998D01*
X703728Y1105000D02*
X701229D01*
X699979Y1106250D01*
Y1108749D01*
X701229Y1109998D01*
X703728D01*
X704977Y1108749D01*
Y1107499D01*
X699979D01*
X707477Y1109998D02*
Y1105000D01*
Y1107499D01*
X708726Y1108749D01*
X709976Y1109998D01*
X711225D01*
X714974Y1105000D02*
X717473D01*
X716224D01*
Y1112498D01*
X714974D01*
X722472Y1109998D02*
X724971D01*
X726221Y1108749D01*
Y1105000D01*
X722472D01*
X721222Y1106250D01*
X722472Y1107499D01*
X726221D01*
X728720Y1109998D02*
Y1106250D01*
X729969Y1105000D01*
X733718D01*
Y1103750D01*
X732469Y1102501D01*
X731219D01*
X733718Y1105000D02*
Y1109998D01*
X566437Y1219998D02*
X563105D01*
X564771D01*
Y1215000D01*
X558106Y1219165D02*
X558939Y1219998D01*
X560605D01*
X561439Y1219165D01*
Y1218332D01*
X560605Y1217499D01*
X558939D01*
X558106Y1216666D01*
Y1215833D01*
X558939Y1215000D01*
X560605D01*
X561439Y1215833D01*
X553108Y1215000D02*
X556440D01*
X553108Y1218332D01*
Y1219165D01*
X553941Y1219998D01*
X555607D01*
X556440Y1219165D01*
X551442D02*
X550609Y1219998D01*
X548943D01*
X548110Y1219165D01*
Y1215833D01*
X548943Y1215000D01*
X550609D01*
X551442Y1215833D01*
Y1219165D01*
X543111Y1219998D02*
X544777Y1219165D01*
X546443Y1217499D01*
Y1215833D01*
X545610Y1215000D01*
X543944D01*
X543111Y1215833D01*
Y1216666D01*
X543944Y1217499D01*
X546443D01*
X541445Y1219165D02*
X540612Y1219998D01*
X538946D01*
X538113Y1219165D01*
Y1218332D01*
X538946Y1217499D01*
X538113Y1216666D01*
Y1215833D01*
X538946Y1215000D01*
X540612D01*
X541445Y1215833D01*
Y1216666D01*
X540612Y1217499D01*
X541445Y1218332D01*
Y1219165D01*
X540612Y1217499D02*
X538946D01*
X531448Y1219998D02*
Y1216666D01*
X529782Y1215000D01*
X528116Y1216666D01*
Y1219998D01*
X526450Y1215000D02*
X524784D01*
X525617D01*
Y1218332D01*
X526450D01*
X518952Y1219998D02*
Y1215000D01*
X521452D01*
X522285Y1215833D01*
Y1217499D01*
X521452Y1218332D01*
X518952D01*
X514787Y1215000D02*
X516453D01*
X517286Y1215833D01*
Y1217499D01*
X516453Y1218332D01*
X514787D01*
X513954Y1217499D01*
Y1216666D01*
X517286D01*
X511455Y1215000D02*
X509789D01*
X508956Y1215833D01*
Y1217499D01*
X509789Y1218332D01*
X511455D01*
X512288Y1217499D01*
Y1215833D01*
X511455Y1215000D01*
X502291Y1219998D02*
Y1215000D01*
X499792D01*
X498959Y1215833D01*
Y1216666D01*
X499792Y1217499D01*
X502291D01*
X499792D01*
X498959Y1218332D01*
Y1219165D01*
X499792Y1219998D01*
X502291D01*
X496460Y1215000D02*
X494794D01*
X493960Y1215833D01*
Y1217499D01*
X494794Y1218332D01*
X496460D01*
X497293Y1217499D01*
Y1215833D01*
X496460Y1215000D01*
X491461Y1218332D02*
X489795D01*
X488962Y1217499D01*
Y1215000D01*
X491461D01*
X492294Y1215833D01*
X491461Y1216666D01*
X488962D01*
X487296Y1218332D02*
Y1215000D01*
Y1216666D01*
X486463Y1217499D01*
X485630Y1218332D01*
X484797D01*
X478965Y1219998D02*
Y1215000D01*
X481464D01*
X482298Y1215833D01*
Y1217499D01*
X481464Y1218332D01*
X478965D01*
X528937Y1209998D02*
Y1206666D01*
X527271Y1205000D01*
X525605Y1206666D01*
Y1209998D01*
X523939Y1209165D02*
X523105Y1209998D01*
X521439D01*
X520606Y1209165D01*
Y1208332D01*
X521439Y1207499D01*
X522272D01*
X521439D01*
X520606Y1206666D01*
Y1205833D01*
X521439Y1205000D01*
X523105D01*
X523939Y1205833D01*
X518940Y1205000D02*
Y1205833D01*
X518107D01*
Y1205000D01*
X518940D01*
X514775Y1209165D02*
X513942Y1209998D01*
X512276D01*
X511443Y1209165D01*
Y1205833D01*
X512276Y1205000D01*
X513942D01*
X514775Y1205833D01*
Y1209165D01*
X402500Y1160500D02*
X406499D01*
X402500Y1157834D01*
X406499D01*
X402500Y1155835D02*
Y1154502D01*
X403166Y1153835D01*
X404499D01*
X405166Y1154502D01*
Y1155835D01*
X404499Y1156501D01*
X403166D01*
X402500Y1155835D01*
X405832Y1151836D02*
X405166D01*
Y1152503D01*
Y1151170D01*
Y1151836D01*
X403166D01*
X402500Y1151170D01*
X405166Y1146504D02*
Y1148504D01*
X404499Y1149170D01*
X403166D01*
X402500Y1148504D01*
Y1146504D01*
X406499Y1145172D02*
X402500D01*
X404499D01*
X405166Y1144505D01*
Y1143172D01*
X404499Y1142506D01*
X402500D01*
D46*
X695000Y1207500D02*
Y1210499D01*
X693501D01*
X693001Y1209999D01*
Y1209000D01*
X693501Y1208500D01*
X695000D01*
X694000D02*
X693001Y1207500D01*
X692001D02*
X691001D01*
X691501D01*
Y1210499D01*
X692001Y1209999D01*
X689502Y1210499D02*
X687502D01*
Y1209999D01*
X689502Y1208000D01*
Y1207500D01*
X470137Y1501700D02*
Y1504699D01*
X468637D01*
X468138Y1504199D01*
Y1503199D01*
X468637Y1502700D01*
X470137D01*
X469137D02*
X468138Y1501700D01*
X467138Y1504199D02*
X466638Y1504699D01*
X465638D01*
X465139Y1504199D01*
Y1503699D01*
X465638Y1503199D01*
X466138D01*
X465638D01*
X465139Y1502700D01*
Y1502200D01*
X465638Y1501700D01*
X466638D01*
X467138Y1502200D01*
X464139Y1504199D02*
X463639Y1504699D01*
X462639D01*
X462140Y1504199D01*
Y1503699D01*
X462639Y1503199D01*
X462140Y1502700D01*
Y1502200D01*
X462639Y1501700D01*
X463639D01*
X464139Y1502200D01*
Y1502700D01*
X463639Y1503199D01*
X464139Y1503699D01*
Y1504199D01*
X463639Y1503199D02*
X462639D01*
X351500Y1262500D02*
X348501D01*
Y1261001D01*
X349001Y1260501D01*
X350001D01*
X350500Y1261001D01*
Y1262500D01*
Y1261500D02*
X351500Y1260501D01*
Y1259501D02*
Y1258501D01*
Y1259001D01*
X348501D01*
X349001Y1259501D01*
X351500Y1257002D02*
Y1256002D01*
Y1256502D01*
X348501D01*
X349001Y1257002D01*
X519438Y1512499D02*
X519937Y1512999D01*
X520937D01*
X521437Y1512499D01*
Y1510500D01*
X520937Y1510000D01*
X519937D01*
X519438Y1510500D01*
X518438Y1510000D02*
X517438D01*
X517938D01*
Y1512999D01*
X518438Y1512499D01*
X328937Y1250000D02*
X325938D01*
Y1248501D01*
X326438Y1248001D01*
X327437D01*
X327937Y1248501D01*
Y1250000D01*
Y1249000D02*
X328937Y1248001D01*
Y1247001D02*
Y1246001D01*
Y1246501D01*
X325938D01*
X326438Y1247001D01*
X325938Y1242502D02*
X326438Y1243502D01*
X327437Y1244502D01*
X328437D01*
X328937Y1244002D01*
Y1243002D01*
X328437Y1242502D01*
X327937D01*
X327437Y1243002D01*
Y1244502D01*
X519501Y1425499D02*
X520000Y1425999D01*
X521000D01*
X521500Y1425499D01*
Y1423500D01*
X521000Y1423000D01*
X520000D01*
X519501Y1423500D01*
X518501Y1423000D02*
X517501D01*
X518001D01*
Y1425999D01*
X518501Y1425499D01*
X514502Y1423000D02*
Y1425999D01*
X516002Y1424500D01*
X514002D01*
X513003Y1425499D02*
X512503Y1425999D01*
X511503D01*
X511003Y1425499D01*
Y1424999D01*
X511503Y1424500D01*
X511003Y1424000D01*
Y1423500D01*
X511503Y1423000D01*
X512503D01*
X513003Y1423500D01*
Y1424000D01*
X512503Y1424500D01*
X513003Y1424999D01*
Y1425499D01*
X512503Y1424500D02*
X511503D01*
X316438Y1363001D02*
X315938Y1363500D01*
Y1364500D01*
X316438Y1365000D01*
X318437D01*
X318937Y1364500D01*
Y1363500D01*
X318437Y1363001D01*
X318937Y1362001D02*
Y1361001D01*
Y1361501D01*
X315938D01*
X316438Y1362001D01*
Y1359502D02*
X315938Y1359002D01*
Y1358002D01*
X316438Y1357502D01*
X318437D01*
X318937Y1358002D01*
Y1359002D01*
X318437Y1359502D01*
X316438D01*
Y1356503D02*
X315938Y1356003D01*
Y1355003D01*
X316438Y1354503D01*
X316938D01*
X317437Y1355003D01*
Y1355503D01*
Y1355003D01*
X317937Y1354503D01*
X318437D01*
X318937Y1355003D01*
Y1356003D01*
X318437Y1356503D01*
X351438Y1363001D02*
X350938Y1363500D01*
Y1364500D01*
X351438Y1365000D01*
X353437D01*
X353937Y1364500D01*
Y1363500D01*
X353437Y1363001D01*
X353937Y1362001D02*
Y1361001D01*
Y1361501D01*
X350938D01*
X351438Y1362001D01*
Y1359502D02*
X350938Y1359002D01*
Y1358002D01*
X351438Y1357502D01*
X353437D01*
X353937Y1358002D01*
Y1359002D01*
X353437Y1359502D01*
X351438D01*
X353937Y1355003D02*
X350938D01*
X352437Y1356503D01*
Y1354503D01*
X371201Y1379299D02*
X371701Y1379799D01*
X372700D01*
X373200Y1379299D01*
Y1377300D01*
X372700Y1376800D01*
X371701D01*
X371201Y1377300D01*
X370201Y1376800D02*
X369201D01*
X369701D01*
Y1379799D01*
X370201Y1379299D01*
X367702D02*
X367202Y1379799D01*
X366202D01*
X365702Y1379299D01*
Y1377300D01*
X366202Y1376800D01*
X367202D01*
X367702Y1377300D01*
Y1379299D01*
X362703Y1379799D02*
X364703D01*
Y1378300D01*
X363703Y1378799D01*
X363203D01*
X362703Y1378300D01*
Y1377300D01*
X363203Y1376800D01*
X364203D01*
X364703Y1377300D01*
X386501Y1368501D02*
X386001Y1369000D01*
Y1370000D01*
X386501Y1370500D01*
X388500D01*
X389000Y1370000D01*
Y1369000D01*
X388500Y1368501D01*
X389000Y1367501D02*
Y1366501D01*
Y1367001D01*
X386001D01*
X386501Y1367501D01*
Y1365002D02*
X386001Y1364502D01*
Y1363502D01*
X386501Y1363002D01*
X388500D01*
X389000Y1363502D01*
Y1364502D01*
X388500Y1365002D01*
X386501D01*
X386001Y1360003D02*
X386501Y1361003D01*
X387500Y1362003D01*
X388500D01*
X389000Y1361503D01*
Y1360503D01*
X388500Y1360003D01*
X388000D01*
X387500Y1360503D01*
Y1362003D01*
X499501Y1457999D02*
X500000Y1458499D01*
X501000D01*
X501500Y1457999D01*
Y1456000D01*
X501000Y1455500D01*
X500000D01*
X499501Y1456000D01*
X498501Y1455500D02*
X497501D01*
X498001D01*
Y1458499D01*
X498501Y1457999D01*
X496002D02*
X495502Y1458499D01*
X494502D01*
X494002Y1457999D01*
Y1456000D01*
X494502Y1455500D01*
X495502D01*
X496002Y1456000D01*
Y1457999D01*
X493003Y1458499D02*
X491003D01*
Y1457999D01*
X493003Y1456000D01*
Y1455500D01*
X479501Y1465499D02*
X480000Y1465999D01*
X481000D01*
X481500Y1465499D01*
Y1463500D01*
X481000Y1463000D01*
X480000D01*
X479501Y1463500D01*
X478501Y1463000D02*
X477501D01*
X478001D01*
Y1465999D01*
X478501Y1465499D01*
X476002D02*
X475502Y1465999D01*
X474502D01*
X474002Y1465499D01*
Y1463500D01*
X474502Y1463000D01*
X475502D01*
X476002Y1463500D01*
Y1465499D01*
X473003D02*
X472503Y1465999D01*
X471503D01*
X471003Y1465499D01*
Y1464999D01*
X471503Y1464499D01*
X471003Y1464000D01*
Y1463500D01*
X471503Y1463000D01*
X472503D01*
X473003Y1463500D01*
Y1464000D01*
X472503Y1464499D01*
X473003Y1464999D01*
Y1465499D01*
X472503Y1464499D02*
X471503D01*
X539501Y1377499D02*
X540000Y1377999D01*
X541000D01*
X541500Y1377499D01*
Y1375500D01*
X541000Y1375000D01*
X540000D01*
X539501Y1375500D01*
X538501Y1375000D02*
X537501D01*
X538001D01*
Y1377999D01*
X538501Y1377499D01*
X536002Y1375000D02*
X535002D01*
X535502D01*
Y1377999D01*
X536002Y1377499D01*
X533503D02*
X533003Y1377999D01*
X532003D01*
X531503Y1377499D01*
Y1375500D01*
X532003Y1375000D01*
X533003D01*
X533503Y1375500D01*
Y1377499D01*
X582001Y1445499D02*
X582500Y1445999D01*
X583500D01*
X584000Y1445499D01*
Y1443500D01*
X583500Y1443000D01*
X582500D01*
X582001Y1443500D01*
X581001Y1443000D02*
X580001D01*
X580501D01*
Y1445999D01*
X581001Y1445499D01*
X578502Y1443000D02*
X577502D01*
X578002D01*
Y1445999D01*
X578502Y1445499D01*
X576003Y1443000D02*
X575003D01*
X575503D01*
Y1445999D01*
X576003Y1445499D01*
X564501Y1437499D02*
X565000Y1437999D01*
X566000D01*
X566500Y1437499D01*
Y1435500D01*
X566000Y1435000D01*
X565000D01*
X564501Y1435500D01*
X563501Y1435000D02*
X562501D01*
X563001D01*
Y1437999D01*
X563501Y1437499D01*
X561002Y1435000D02*
X560002D01*
X560502D01*
Y1437999D01*
X561002Y1437499D01*
X556503Y1435000D02*
X558503D01*
X556503Y1436999D01*
Y1437499D01*
X557003Y1437999D01*
X558003D01*
X558503Y1437499D01*
X350938Y1407999D02*
X351437Y1408499D01*
X352437D01*
X352937Y1407999D01*
Y1406000D01*
X352437Y1405500D01*
X351437D01*
X350938Y1406000D01*
X349938Y1405500D02*
X348938D01*
X349438D01*
Y1408499D01*
X349938Y1407999D01*
X347439Y1405500D02*
X346439D01*
X346939D01*
Y1408499D01*
X347439Y1407999D01*
X344939D02*
X344440Y1408499D01*
X343440D01*
X342940Y1407999D01*
Y1407499D01*
X343440Y1406999D01*
X343940D01*
X343440D01*
X342940Y1406500D01*
Y1406000D01*
X343440Y1405500D01*
X344440D01*
X344939Y1406000D01*
X354501Y1444999D02*
X355000Y1445499D01*
X356000D01*
X356500Y1444999D01*
Y1443000D01*
X356000Y1442500D01*
X355000D01*
X354501Y1443000D01*
X353501Y1442500D02*
X352501D01*
X353001D01*
Y1445499D01*
X353501Y1444999D01*
X351002Y1442500D02*
X350002D01*
X350502D01*
Y1445499D01*
X351002Y1444999D01*
X347003Y1442500D02*
Y1445499D01*
X348502Y1443999D01*
X346503D01*
X465501Y1462499D02*
X466000Y1462999D01*
X467000D01*
X467500Y1462499D01*
Y1460500D01*
X467000Y1460000D01*
X466000D01*
X465501Y1460500D01*
X464501Y1460000D02*
X463501D01*
X464001D01*
Y1462999D01*
X464501Y1462499D01*
X462002Y1460000D02*
X461002D01*
X461502D01*
Y1462999D01*
X462002Y1462499D01*
X457503Y1462999D02*
X459503D01*
Y1461500D01*
X458503Y1461999D01*
X458003D01*
X457503Y1461500D01*
Y1460500D01*
X458003Y1460000D01*
X459003D01*
X459503Y1460500D01*
X582001Y1429999D02*
X582501Y1430499D01*
X583500D01*
X584000Y1429999D01*
Y1428000D01*
X583500Y1427500D01*
X582501D01*
X582001Y1428000D01*
X581001Y1427500D02*
X580001D01*
X580501D01*
Y1430499D01*
X581001Y1429999D01*
X578502Y1427500D02*
X577502D01*
X578002D01*
Y1430499D01*
X578502Y1429999D01*
X574003Y1430499D02*
X575003Y1429999D01*
X576003Y1429000D01*
Y1428000D01*
X575503Y1427500D01*
X574503D01*
X574003Y1428000D01*
Y1428500D01*
X574503Y1429000D01*
X576003D01*
X439501Y1432999D02*
X440000Y1433499D01*
X441000D01*
X441500Y1432999D01*
Y1431000D01*
X441000Y1430500D01*
X440000D01*
X439501Y1431000D01*
X438501Y1430500D02*
X437501D01*
X438001D01*
Y1433499D01*
X438501Y1432999D01*
X436002Y1430500D02*
X435002D01*
X435502D01*
Y1433499D01*
X436002Y1432999D01*
X433502Y1433499D02*
X431503D01*
Y1432999D01*
X433502Y1431000D01*
Y1430500D01*
X490501Y1372499D02*
X491000Y1372999D01*
X492000D01*
X492500Y1372499D01*
Y1370500D01*
X492000Y1370000D01*
X491000D01*
X490501Y1370500D01*
X489501Y1370000D02*
X488501D01*
X489001D01*
Y1372999D01*
X489501Y1372499D01*
X487002Y1370000D02*
X486002D01*
X486502D01*
Y1372999D01*
X487002Y1372499D01*
X484503D02*
X484003Y1372999D01*
X483003D01*
X482503Y1372499D01*
Y1371999D01*
X483003Y1371500D01*
X482503Y1371000D01*
Y1370500D01*
X483003Y1370000D01*
X484003D01*
X484503Y1370500D01*
Y1371000D01*
X484003Y1371500D01*
X484503Y1371999D01*
Y1372499D01*
X484003Y1371500D02*
X483003D01*
X515501Y1372499D02*
X516000Y1372999D01*
X517000D01*
X517500Y1372499D01*
Y1370500D01*
X517000Y1370000D01*
X516000D01*
X515501Y1370500D01*
X514501Y1370000D02*
X513501D01*
X514001D01*
Y1372999D01*
X514501Y1372499D01*
X512002Y1370000D02*
X511002D01*
X511502D01*
Y1372999D01*
X512002Y1372499D01*
X509503Y1370500D02*
X509003Y1370000D01*
X508003D01*
X507503Y1370500D01*
Y1372499D01*
X508003Y1372999D01*
X509003D01*
X509503Y1372499D01*
Y1371999D01*
X509003Y1371500D01*
X507503D01*
X533501Y1468999D02*
X534000Y1469499D01*
X535000D01*
X535500Y1468999D01*
Y1467000D01*
X535000Y1466500D01*
X534000D01*
X533501Y1467000D01*
X532501Y1466500D02*
X531501D01*
X532001D01*
Y1469499D01*
X532501Y1468999D01*
X528002Y1466500D02*
X530002D01*
X528002Y1468499D01*
Y1468999D01*
X528502Y1469499D01*
X529502D01*
X530002Y1468999D01*
X527003Y1466500D02*
X526003D01*
X526503D01*
Y1469499D01*
X527003Y1468999D01*
X520501Y1487499D02*
X521000Y1487999D01*
X522000D01*
X522500Y1487499D01*
Y1485500D01*
X522000Y1485000D01*
X521000D01*
X520501Y1485500D01*
X519501Y1485000D02*
X518501D01*
X519001D01*
Y1487999D01*
X519501Y1487499D01*
X515002Y1485000D02*
X517002D01*
X515002Y1486999D01*
Y1487499D01*
X515502Y1487999D01*
X516502D01*
X517002Y1487499D01*
X512003Y1485000D02*
X514003D01*
X512003Y1486999D01*
Y1487499D01*
X512503Y1487999D01*
X513503D01*
X514003Y1487499D01*
X573240Y1417436D02*
X573740Y1417935D01*
X574739D01*
X575239Y1417436D01*
Y1415436D01*
X574739Y1414936D01*
X573740D01*
X573240Y1415436D01*
X572240Y1414936D02*
X571241D01*
X571740D01*
Y1417935D01*
X572240Y1417436D01*
X567742Y1414936D02*
X569741D01*
X567742Y1416936D01*
Y1417436D01*
X568242Y1417935D01*
X569241D01*
X569741Y1417436D01*
X566742D02*
X566242Y1417935D01*
X565242D01*
X564743Y1417436D01*
Y1416936D01*
X565242Y1416436D01*
X565742D01*
X565242D01*
X564743Y1415936D01*
Y1415436D01*
X565242Y1414936D01*
X566242D01*
X566742Y1415436D01*
X440501Y1424999D02*
X441000Y1425499D01*
X442000D01*
X442500Y1424999D01*
Y1423000D01*
X442000Y1422500D01*
X441000D01*
X440501Y1423000D01*
X439501Y1422500D02*
X438501D01*
X439001D01*
Y1425499D01*
X439501Y1424999D01*
X435002Y1422500D02*
X437002D01*
X435002Y1424499D01*
Y1424999D01*
X435502Y1425499D01*
X436502D01*
X437002Y1424999D01*
X432503Y1422500D02*
Y1425499D01*
X434003Y1424000D01*
X432003D01*
X508001Y1349999D02*
X508500Y1350499D01*
X509500D01*
X510000Y1349999D01*
Y1348000D01*
X509500Y1347500D01*
X508500D01*
X508001Y1348000D01*
X507001Y1347500D02*
X506001D01*
X506501D01*
Y1350499D01*
X507001Y1349999D01*
X502502Y1347500D02*
X504502D01*
X502502Y1349499D01*
Y1349999D01*
X503002Y1350499D01*
X504002D01*
X504502Y1349999D01*
X499503Y1350499D02*
X501503D01*
Y1349000D01*
X500503Y1349499D01*
X500003D01*
X499503Y1349000D01*
Y1348000D01*
X500003Y1347500D01*
X501003D01*
X501503Y1348000D01*
X535501Y1354499D02*
X536000Y1354999D01*
X537000D01*
X537500Y1354499D01*
Y1352500D01*
X537000Y1352000D01*
X536000D01*
X535501Y1352500D01*
X534501Y1352000D02*
X533501D01*
X534001D01*
Y1354999D01*
X534501Y1354499D01*
X530002Y1352000D02*
X532002D01*
X530002Y1353999D01*
Y1354499D01*
X530502Y1354999D01*
X531502D01*
X532002Y1354499D01*
X527003Y1354999D02*
X528003Y1354499D01*
X529003Y1353500D01*
Y1352500D01*
X528503Y1352000D01*
X527503D01*
X527003Y1352500D01*
Y1353000D01*
X527503Y1353500D01*
X529003D01*
X465501Y1484999D02*
X466000Y1485499D01*
X467000D01*
X467500Y1484999D01*
Y1483000D01*
X467000Y1482500D01*
X466000D01*
X465501Y1483000D01*
X464501Y1482500D02*
X463501D01*
X464001D01*
Y1485499D01*
X464501Y1484999D01*
X460002Y1482500D02*
X462002D01*
X460002Y1484499D01*
Y1484999D01*
X460502Y1485499D01*
X461502D01*
X462002Y1484999D01*
X459003Y1485499D02*
X457003D01*
Y1484999D01*
X459003Y1483000D01*
Y1482500D01*
X574501Y1405499D02*
X575000Y1405999D01*
X576000D01*
X576500Y1405499D01*
Y1403500D01*
X576000Y1403000D01*
X575000D01*
X574501Y1403500D01*
X573501Y1403000D02*
X572501D01*
X573001D01*
Y1405999D01*
X573501Y1405499D01*
X569002Y1403000D02*
X571002D01*
X569002Y1404999D01*
Y1405499D01*
X569502Y1405999D01*
X570502D01*
X571002Y1405499D01*
X568003D02*
X567503Y1405999D01*
X566503D01*
X566003Y1405499D01*
Y1404999D01*
X566503Y1404500D01*
X566003Y1404000D01*
Y1403500D01*
X566503Y1403000D01*
X567503D01*
X568003Y1403500D01*
Y1404000D01*
X567503Y1404500D01*
X568003Y1404999D01*
Y1405499D01*
X567503Y1404500D02*
X566503D01*
X442001Y1402999D02*
X442500Y1403499D01*
X443500D01*
X444000Y1402999D01*
Y1401000D01*
X443500Y1400500D01*
X442500D01*
X442001Y1401000D01*
X441001Y1400500D02*
X440001D01*
X440501D01*
Y1403499D01*
X441001Y1402999D01*
X436502Y1400500D02*
X438502D01*
X436502Y1402499D01*
Y1402999D01*
X437002Y1403499D01*
X438002D01*
X438502Y1402999D01*
X435503Y1401000D02*
X435003Y1400500D01*
X434003D01*
X433503Y1401000D01*
Y1402999D01*
X434003Y1403499D01*
X435003D01*
X435503Y1402999D01*
Y1402499D01*
X435003Y1401999D01*
X433503D01*
X558001Y1357499D02*
X558500Y1357999D01*
X559500D01*
X560000Y1357499D01*
Y1355500D01*
X559500Y1355000D01*
X558500D01*
X558001Y1355500D01*
X557001Y1355000D02*
X556001D01*
X556501D01*
Y1357999D01*
X557001Y1357499D01*
X554502D02*
X554002Y1357999D01*
X553002D01*
X552502Y1357499D01*
Y1356999D01*
X553002Y1356499D01*
X553502D01*
X553002D01*
X552502Y1356000D01*
Y1355500D01*
X553002Y1355000D01*
X554002D01*
X554502Y1355500D01*
X551503Y1357499D02*
X551003Y1357999D01*
X550003D01*
X549503Y1357499D01*
Y1355500D01*
X550003Y1355000D01*
X551003D01*
X551503Y1355500D01*
Y1357499D01*
X412501Y1439999D02*
X413000Y1440499D01*
X414000D01*
X414500Y1439999D01*
Y1438000D01*
X414000Y1437500D01*
X413000D01*
X412501Y1438000D01*
X411501Y1437500D02*
X410501D01*
X411001D01*
Y1440499D01*
X411501Y1439999D01*
X409002D02*
X408502Y1440499D01*
X407502D01*
X407002Y1439999D01*
Y1439499D01*
X407502Y1438999D01*
X408002D01*
X407502D01*
X407002Y1438500D01*
Y1438000D01*
X407502Y1437500D01*
X408502D01*
X409002Y1438000D01*
X406003Y1437500D02*
X405003D01*
X405503D01*
Y1440499D01*
X406003Y1439999D01*
X498001Y1432499D02*
X498500Y1432999D01*
X499500D01*
X500000Y1432499D01*
Y1430500D01*
X499500Y1430000D01*
X498500D01*
X498001Y1430500D01*
X497001Y1430000D02*
X496001D01*
X496501D01*
Y1432999D01*
X497001Y1432499D01*
X494502D02*
X494002Y1432999D01*
X493002D01*
X492502Y1432499D01*
Y1431999D01*
X493002Y1431499D01*
X493502D01*
X493002D01*
X492502Y1431000D01*
Y1430500D01*
X493002Y1430000D01*
X494002D01*
X494502Y1430500D01*
X491503Y1432499D02*
X491003Y1432999D01*
X490003D01*
X489503Y1432499D01*
Y1431999D01*
X490003Y1431499D01*
X490503D01*
X490003D01*
X489503Y1431000D01*
Y1430500D01*
X490003Y1430000D01*
X491003D01*
X491503Y1430500D01*
X523001Y1442499D02*
X523500Y1442999D01*
X524500D01*
X525000Y1442499D01*
Y1440500D01*
X524500Y1440000D01*
X523500D01*
X523001Y1440500D01*
X522001Y1440000D02*
X521001D01*
X521501D01*
Y1442999D01*
X522001Y1442499D01*
X519502D02*
X519002Y1442999D01*
X518002D01*
X517502Y1442499D01*
Y1441999D01*
X518002Y1441500D01*
X518502D01*
X518002D01*
X517502Y1441000D01*
Y1440500D01*
X518002Y1440000D01*
X519002D01*
X519502Y1440500D01*
X515003Y1440000D02*
Y1442999D01*
X516503Y1441500D01*
X514503D01*
X532001Y1415499D02*
X532500Y1415999D01*
X533500D01*
X534000Y1415499D01*
Y1413500D01*
X533500Y1413000D01*
X532500D01*
X532001Y1413500D01*
X531001Y1413000D02*
X530001D01*
X530501D01*
Y1415999D01*
X531001Y1415499D01*
X528502D02*
X528002Y1415999D01*
X527002D01*
X526502Y1415499D01*
Y1414999D01*
X527002Y1414499D01*
X527502D01*
X527002D01*
X526502Y1414000D01*
Y1413500D01*
X527002Y1413000D01*
X528002D01*
X528502Y1413500D01*
X523503Y1415999D02*
X525503D01*
Y1414499D01*
X524503Y1414999D01*
X524003D01*
X523503Y1414499D01*
Y1413500D01*
X524003Y1413000D01*
X525003D01*
X525503Y1413500D01*
X493001Y1399999D02*
X493500Y1400499D01*
X494500D01*
X495000Y1399999D01*
Y1398000D01*
X494500Y1397500D01*
X493500D01*
X493001Y1398000D01*
X492001Y1397500D02*
X491001D01*
X491501D01*
Y1400499D01*
X492001Y1399999D01*
X489502D02*
X489002Y1400499D01*
X488002D01*
X487502Y1399999D01*
Y1399499D01*
X488002Y1399000D01*
X488502D01*
X488002D01*
X487502Y1398500D01*
Y1398000D01*
X488002Y1397500D01*
X489002D01*
X489502Y1398000D01*
X484503Y1400499D02*
X485503Y1399999D01*
X486503Y1399000D01*
Y1398000D01*
X486003Y1397500D01*
X485003D01*
X484503Y1398000D01*
Y1398500D01*
X485003Y1399000D01*
X486503D01*
X513001Y1437499D02*
X513500Y1437999D01*
X514500D01*
X515000Y1437499D01*
Y1435500D01*
X514500Y1435000D01*
X513500D01*
X513001Y1435500D01*
X512001Y1435000D02*
X511001D01*
X511501D01*
Y1437999D01*
X512001Y1437499D01*
X509502D02*
X509002Y1437999D01*
X508002D01*
X507502Y1437499D01*
Y1436999D01*
X508002Y1436500D01*
X508502D01*
X508002D01*
X507502Y1436000D01*
Y1435500D01*
X508002Y1435000D01*
X509002D01*
X509502Y1435500D01*
X506503D02*
X506003Y1435000D01*
X505003D01*
X504503Y1435500D01*
Y1437499D01*
X505003Y1437999D01*
X506003D01*
X506503Y1437499D01*
Y1436999D01*
X506003Y1436500D01*
X504503D01*
X535501Y1421999D02*
X536000Y1422499D01*
X537000D01*
X537500Y1421999D01*
Y1420000D01*
X537000Y1419500D01*
X536000D01*
X535501Y1420000D01*
X534501Y1419500D02*
X533501D01*
X534001D01*
Y1422499D01*
X534501Y1421999D01*
X530502Y1419500D02*
Y1422499D01*
X532002Y1421000D01*
X530002D01*
X529003Y1421999D02*
X528503Y1422499D01*
X527503D01*
X527003Y1421999D01*
Y1420000D01*
X527503Y1419500D01*
X528503D01*
X529003Y1420000D01*
Y1421999D01*
X508001Y1399999D02*
X508500Y1400499D01*
X509500D01*
X510000Y1399999D01*
Y1398000D01*
X509500Y1397500D01*
X508500D01*
X508001Y1398000D01*
X507001Y1397500D02*
X506001D01*
X506501D01*
Y1400499D01*
X507001Y1399999D01*
X503002Y1397500D02*
Y1400499D01*
X504502Y1399000D01*
X502502D01*
X501503Y1397500D02*
X500503D01*
X501003D01*
Y1400499D01*
X501503Y1399999D01*
X487001Y1407999D02*
X487500Y1408499D01*
X488500D01*
X489000Y1407999D01*
Y1406000D01*
X488500Y1405500D01*
X487500D01*
X487001Y1406000D01*
X486001Y1405500D02*
X485001D01*
X485501D01*
Y1408499D01*
X486001Y1407999D01*
X482002Y1405500D02*
Y1408499D01*
X483502Y1406999D01*
X481502D01*
X478503Y1405500D02*
X480503D01*
X478503Y1407499D01*
Y1407999D01*
X479003Y1408499D01*
X480003D01*
X480503Y1407999D01*
X485501Y1424999D02*
X486000Y1425499D01*
X487000D01*
X487500Y1424999D01*
Y1423000D01*
X487000Y1422500D01*
X486000D01*
X485501Y1423000D01*
X484501Y1422500D02*
X483501D01*
X484001D01*
Y1425499D01*
X484501Y1424999D01*
X480502Y1422500D02*
Y1425499D01*
X482002Y1424000D01*
X480002D01*
X479003Y1424999D02*
X478503Y1425499D01*
X477503D01*
X477003Y1424999D01*
Y1424499D01*
X477503Y1424000D01*
X478003D01*
X477503D01*
X477003Y1423500D01*
Y1423000D01*
X477503Y1422500D01*
X478503D01*
X479003Y1423000D01*
X428001Y1404999D02*
X428500Y1405499D01*
X429500D01*
X430000Y1404999D01*
Y1403000D01*
X429500Y1402500D01*
X428500D01*
X428001Y1403000D01*
X427001Y1402500D02*
X426001D01*
X426501D01*
Y1405499D01*
X427001Y1404999D01*
X423002Y1402500D02*
Y1405499D01*
X424502Y1404000D01*
X422502D01*
X419503Y1405499D02*
X421503D01*
Y1404000D01*
X420503Y1404499D01*
X420003D01*
X419503Y1404000D01*
Y1403000D01*
X420003Y1402500D01*
X421003D01*
X421503Y1403000D01*
X501001Y1418999D02*
X501500Y1419499D01*
X502500D01*
X503000Y1418999D01*
Y1417000D01*
X502500Y1416500D01*
X501500D01*
X501001Y1417000D01*
X500001Y1416500D02*
X499001D01*
X499501D01*
Y1419499D01*
X500001Y1418999D01*
X496002Y1416500D02*
Y1419499D01*
X497502Y1417999D01*
X495502D01*
X492503Y1419499D02*
X493503Y1418999D01*
X494503Y1417999D01*
Y1417000D01*
X494003Y1416500D01*
X493003D01*
X492503Y1417000D01*
Y1417500D01*
X493003Y1417999D01*
X494503D01*
X523001Y1399999D02*
X523500Y1400499D01*
X524500D01*
X525000Y1399999D01*
Y1398000D01*
X524500Y1397500D01*
X523500D01*
X523001Y1398000D01*
X522001Y1397500D02*
X521001D01*
X521501D01*
Y1400499D01*
X522001Y1399999D01*
X518002Y1397500D02*
Y1400499D01*
X519502Y1399000D01*
X517502D01*
X516503Y1400499D02*
X514503D01*
Y1399999D01*
X516503Y1398000D01*
Y1397500D01*
X424501Y1472999D02*
X425000Y1473499D01*
X426000D01*
X426500Y1472999D01*
Y1471000D01*
X426000Y1470500D01*
X425000D01*
X424501Y1471000D01*
X423501Y1470500D02*
X422501D01*
X423001D01*
Y1473499D01*
X423501Y1472999D01*
X419002Y1473499D02*
X421002D01*
Y1471999D01*
X420002Y1472499D01*
X419502D01*
X419002Y1471999D01*
Y1471000D01*
X419502Y1470500D01*
X420502D01*
X421002Y1471000D01*
X418003Y1470500D02*
X417003D01*
X417503D01*
Y1473499D01*
X418003Y1472999D01*
X476500Y1445999D02*
Y1443000D01*
X474501D01*
X473501D02*
X472501D01*
X473001D01*
Y1445999D01*
X473501Y1445499D01*
X471002D02*
X470502Y1445999D01*
X469502D01*
X469002Y1445499D01*
Y1443500D01*
X469502Y1443000D01*
X470502D01*
X471002Y1443500D01*
Y1445499D01*
X468003Y1443000D02*
X467003D01*
X467503D01*
Y1445999D01*
X468003Y1445499D01*
X554000Y1398499D02*
Y1395500D01*
X552001D01*
X551001D02*
X550001D01*
X550501D01*
Y1398499D01*
X551001Y1397999D01*
X548502D02*
X548002Y1398499D01*
X547002D01*
X546502Y1397999D01*
Y1396000D01*
X547002Y1395500D01*
X548002D01*
X548502Y1396000D01*
Y1397999D01*
X543503Y1395500D02*
X545503D01*
X543503Y1397499D01*
Y1397999D01*
X544003Y1398499D01*
X545003D01*
X545503Y1397999D01*
X546500Y1453499D02*
Y1450500D01*
X544501D01*
X543501D02*
X542501D01*
X543001D01*
Y1453499D01*
X543501Y1452999D01*
X541002D02*
X540502Y1453499D01*
X539502D01*
X539002Y1452999D01*
Y1451000D01*
X539502Y1450500D01*
X540502D01*
X541002Y1451000D01*
Y1452999D01*
X538003D02*
X537503Y1453499D01*
X536503D01*
X536003Y1452999D01*
Y1452499D01*
X536503Y1451999D01*
X537003D01*
X536503D01*
X536003Y1451500D01*
Y1451000D01*
X536503Y1450500D01*
X537503D01*
X538003Y1451000D01*
X502737Y1492700D02*
Y1495699D01*
X501237D01*
X500738Y1495199D01*
Y1494199D01*
X501237Y1493700D01*
X502737D01*
X501737D02*
X500738Y1492700D01*
X499738D02*
X498738D01*
X499238D01*
Y1495699D01*
X499738Y1495199D01*
X497239D02*
X496739Y1495699D01*
X495739D01*
X495239Y1495199D01*
Y1493200D01*
X495739Y1492700D01*
X496739D01*
X497239Y1493200D01*
Y1495199D01*
X492240Y1495699D02*
X493240Y1495199D01*
X494240Y1494199D01*
Y1493200D01*
X493740Y1492700D01*
X492740D01*
X492240Y1493200D01*
Y1493700D01*
X492740Y1494199D01*
X494240D01*
X387150Y1413000D02*
Y1415999D01*
X385650D01*
X385150Y1415499D01*
Y1414499D01*
X385650Y1414000D01*
X387150D01*
X386150D02*
X385150Y1413000D01*
X384151D02*
X383151D01*
X383651D01*
Y1415999D01*
X384151Y1415499D01*
X381651Y1413000D02*
X380652D01*
X381152D01*
Y1415999D01*
X381651Y1415499D01*
X379152D02*
X378652Y1415999D01*
X377653D01*
X377153Y1415499D01*
Y1413500D01*
X377653Y1413000D01*
X378652D01*
X379152Y1413500D01*
Y1415499D01*
X385437Y1385500D02*
Y1388499D01*
X383937D01*
X383438Y1387999D01*
Y1387000D01*
X383937Y1386500D01*
X385437D01*
X384437D02*
X383438Y1385500D01*
X382438D02*
X381438D01*
X381938D01*
Y1388499D01*
X382438Y1387999D01*
X379939Y1385500D02*
X378939D01*
X379439D01*
Y1388499D01*
X379939Y1387999D01*
X377439Y1385500D02*
X376440D01*
X376940D01*
Y1388499D01*
X377439Y1387999D01*
X361500Y1488000D02*
Y1490999D01*
X360000D01*
X359501Y1490499D01*
Y1489499D01*
X360000Y1489000D01*
X361500D01*
X360500D02*
X359501Y1488000D01*
X358501D02*
X357501D01*
X358001D01*
Y1490999D01*
X358501Y1490499D01*
X356002Y1488000D02*
X355002D01*
X355502D01*
Y1490999D01*
X356002Y1490499D01*
X351503Y1488000D02*
X353502D01*
X351503Y1489999D01*
Y1490499D01*
X352003Y1490999D01*
X353003D01*
X353502Y1490499D01*
X346500Y1488000D02*
Y1490999D01*
X345000D01*
X344501Y1490499D01*
Y1489499D01*
X345000Y1489000D01*
X346500D01*
X345500D02*
X344501Y1488000D01*
X343501D02*
X342501D01*
X343001D01*
Y1490999D01*
X343501Y1490499D01*
X341002Y1488000D02*
X340002D01*
X340502D01*
Y1490999D01*
X341002Y1490499D01*
X338503D02*
X338003Y1490999D01*
X337003D01*
X336503Y1490499D01*
Y1489999D01*
X337003Y1489499D01*
X337503D01*
X337003D01*
X336503Y1489000D01*
Y1488500D01*
X337003Y1488000D01*
X338003D01*
X338503Y1488500D01*
X361500Y1515500D02*
Y1518499D01*
X360000D01*
X359501Y1517999D01*
Y1517000D01*
X360000Y1516500D01*
X361500D01*
X360500D02*
X359501Y1515500D01*
X358501D02*
X357501D01*
X358001D01*
Y1518499D01*
X358501Y1517999D01*
X356002Y1515500D02*
X355002D01*
X355502D01*
Y1518499D01*
X356002Y1517999D01*
X352003Y1515500D02*
Y1518499D01*
X353502Y1517000D01*
X351503D01*
X346500Y1515500D02*
Y1518499D01*
X345000D01*
X344501Y1517999D01*
Y1517000D01*
X345000Y1516500D01*
X346500D01*
X345500D02*
X344501Y1515500D01*
X343501D02*
X342501D01*
X343001D01*
Y1518499D01*
X343501Y1517999D01*
X341002Y1515500D02*
X340002D01*
X340502D01*
Y1518499D01*
X341002Y1517999D01*
X336503Y1518499D02*
X338503D01*
Y1517000D01*
X337503Y1517499D01*
X337003D01*
X336503Y1517000D01*
Y1516000D01*
X337003Y1515500D01*
X338003D01*
X338503Y1516000D01*
X339000Y1442500D02*
Y1445499D01*
X337500D01*
X337001Y1444999D01*
Y1443999D01*
X337500Y1443500D01*
X339000D01*
X338000D02*
X337001Y1442500D01*
X336001D02*
X335001D01*
X335501D01*
Y1445499D01*
X336001Y1444999D01*
X333502Y1442500D02*
X332502D01*
X333002D01*
Y1445499D01*
X333502Y1444999D01*
X329003Y1445499D02*
X330003Y1444999D01*
X331002Y1443999D01*
Y1443000D01*
X330503Y1442500D01*
X329503D01*
X329003Y1443000D01*
Y1443500D01*
X329503Y1443999D01*
X331002D01*
X402500Y1507500D02*
Y1510499D01*
X401000D01*
X400501Y1509999D01*
Y1509000D01*
X401000Y1508500D01*
X402500D01*
X401500D02*
X400501Y1507500D01*
X399501D02*
X398501D01*
X399001D01*
Y1510499D01*
X399501Y1509999D01*
X397002Y1507500D02*
X396002D01*
X396502D01*
Y1510499D01*
X397002Y1509999D01*
X394502Y1510499D02*
X392503D01*
Y1509999D01*
X394502Y1508000D01*
Y1507500D01*
X367500Y1440000D02*
X364501D01*
Y1438500D01*
X365001Y1438001D01*
X366000D01*
X366500Y1438500D01*
Y1440000D01*
Y1439000D02*
X367500Y1438001D01*
Y1437001D02*
Y1436001D01*
Y1436501D01*
X364501D01*
X365001Y1437001D01*
X367500Y1434502D02*
Y1433502D01*
Y1434002D01*
X364501D01*
X365001Y1434502D01*
X367000Y1432003D02*
X367500Y1431503D01*
Y1430503D01*
X367000Y1430003D01*
X365001D01*
X364501Y1430503D01*
Y1431503D01*
X365001Y1432003D01*
X365501D01*
X366000Y1431503D01*
Y1430003D01*
X365000Y1459000D02*
Y1461999D01*
X363500D01*
X363001Y1461499D01*
Y1460499D01*
X363500Y1460000D01*
X365000D01*
X364000D02*
X363001Y1459000D01*
X362001D02*
X361001D01*
X361501D01*
Y1461999D01*
X362001Y1461499D01*
X357502Y1459000D02*
X359502D01*
X357502Y1460999D01*
Y1461499D01*
X358002Y1461999D01*
X359002D01*
X359502Y1461499D01*
X356503D02*
X356003Y1461999D01*
X355003D01*
X354503Y1461499D01*
Y1459500D01*
X355003Y1459000D01*
X356003D01*
X356503Y1459500D01*
Y1461499D01*
X407500Y1465000D02*
Y1467999D01*
X406000D01*
X405501Y1467499D01*
Y1466500D01*
X406000Y1466000D01*
X407500D01*
X406500D02*
X405501Y1465000D01*
X404501D02*
X403501D01*
X404001D01*
Y1467999D01*
X404501Y1467499D01*
X400002Y1465000D02*
X402002D01*
X400002Y1466999D01*
Y1467499D01*
X400502Y1467999D01*
X401502D01*
X402002Y1467499D01*
X399003D02*
X398503Y1467999D01*
X397503D01*
X397003Y1467499D01*
Y1466999D01*
X397503Y1466500D01*
X398003D01*
X397503D01*
X397003Y1466000D01*
Y1465500D01*
X397503Y1465000D01*
X398503D01*
X399003Y1465500D01*
X574000Y1390000D02*
Y1392999D01*
X572501D01*
X572001Y1392499D01*
Y1391500D01*
X572501Y1391000D01*
X574000D01*
X573000D02*
X572001Y1390000D01*
X571001D02*
X570001D01*
X570501D01*
Y1392999D01*
X571001Y1392499D01*
X568502D02*
X568002Y1392999D01*
X567002D01*
X566502Y1392499D01*
Y1390500D01*
X567002Y1390000D01*
X568002D01*
X568502Y1390500D01*
Y1392499D01*
X563503Y1390000D02*
X565503D01*
X563503Y1391999D01*
Y1392499D01*
X564003Y1392999D01*
X565003D01*
X565503Y1392499D01*
X324000Y1402500D02*
Y1405499D01*
X322500D01*
X322001Y1404999D01*
Y1404000D01*
X322500Y1403500D01*
X324000D01*
X323000D02*
X322001Y1402500D01*
X321001D02*
X320001D01*
X320501D01*
Y1405499D01*
X321001Y1404999D01*
X318502D02*
X318002Y1405499D01*
X317002D01*
X316502Y1404999D01*
Y1403000D01*
X317002Y1402500D01*
X318002D01*
X318502Y1403000D01*
Y1404999D01*
X315503Y1403000D02*
X315003Y1402500D01*
X314003D01*
X313503Y1403000D01*
Y1404999D01*
X314003Y1405499D01*
X315003D01*
X315503Y1404999D01*
Y1404499D01*
X315003Y1404000D01*
X313503D01*
X488193Y1541401D02*
X490192D01*
X489192D01*
Y1547399D01*
X488193Y1546399D01*
X493191D02*
X494191Y1547399D01*
X496190D01*
X497190Y1546399D01*
Y1542401D01*
X496190Y1541401D01*
X494191D01*
X493191Y1542401D01*
Y1546399D01*
X499189D02*
X500189Y1547399D01*
X502188D01*
X503188Y1546399D01*
Y1542401D01*
X502188Y1541401D01*
X500189D01*
X499189Y1542401D01*
Y1546399D01*
X505187Y1541401D02*
Y1542401D01*
X506187D01*
Y1541401D01*
X505187D01*
X510185Y1546399D02*
X511185Y1547399D01*
X513184D01*
X514184Y1546399D01*
Y1542401D01*
X513184Y1541401D01*
X511185D01*
X510185Y1542401D01*
Y1546399D01*
X516184D02*
X517183Y1547399D01*
X519182D01*
X520182Y1546399D01*
Y1542401D01*
X519182Y1541401D01*
X517183D01*
X516184Y1542401D01*
Y1546399D01*
X296788Y1314256D02*
Y1316255D01*
Y1315255D01*
X290790D01*
X291790Y1314256D01*
Y1319254D02*
X290790Y1320254D01*
Y1322253D01*
X291790Y1323253D01*
X295788D01*
X296788Y1322253D01*
Y1320254D01*
X295788Y1319254D01*
X291790D01*
Y1325252D02*
X290790Y1326252D01*
Y1328251D01*
X291790Y1329251D01*
X295788D01*
X296788Y1328251D01*
Y1326252D01*
X295788Y1325252D01*
X291790D01*
X296788Y1331250D02*
X295788D01*
Y1332250D01*
X296788D01*
Y1331250D01*
X291790Y1336248D02*
X290790Y1337248D01*
Y1339247D01*
X291790Y1340247D01*
X295788D01*
X296788Y1339247D01*
Y1337248D01*
X295788Y1336248D01*
X291790D01*
Y1342247D02*
X290790Y1343246D01*
Y1345245D01*
X291790Y1346245D01*
X295788D01*
X296788Y1345245D01*
Y1343246D01*
X295788Y1342247D01*
X291790D01*
D71*
X333720Y1287913D02*
Y1291850D01*
X319153Y1287913D02*
X333720D01*
X319153D02*
Y1295787D01*
X333720D01*
Y1291850D02*
Y1295787D01*
X324500Y1352779D02*
X328437D01*
X324500D02*
Y1367346D01*
X332374D01*
Y1352779D02*
Y1367346D01*
X328437Y1352779D02*
X332374D01*
X498169Y1422638D02*
Y1427362D01*
Y1422638D02*
X500531D01*
X498169Y1427362D02*
X500531D01*
X504468Y1422638D02*
X506831D01*
X504468Y1427362D02*
X506831D01*
Y1422638D02*
Y1427362D01*
X482638Y1461831D02*
X487362D01*
X482638Y1459468D02*
Y1461831D01*
X487362Y1459468D02*
Y1461831D01*
X482638Y1453169D02*
Y1455532D01*
X487362Y1453169D02*
Y1455532D01*
X482638Y1453169D02*
X487362D01*
X475138Y1461831D02*
X479862D01*
X475138Y1459468D02*
Y1461831D01*
X479862Y1459468D02*
Y1461831D01*
X475138Y1453169D02*
Y1455532D01*
X479862Y1453169D02*
Y1455532D01*
X475138Y1453169D02*
X479862D01*
X545138Y1373169D02*
X549862D01*
Y1375531D01*
X545138Y1373169D02*
Y1375531D01*
X549862Y1379468D02*
Y1381831D01*
X545138Y1379468D02*
Y1381831D01*
X549862D01*
X567638Y1440669D02*
X572362D01*
Y1443031D01*
X567638Y1440669D02*
Y1443031D01*
X572362Y1446968D02*
Y1449331D01*
X567638Y1446968D02*
Y1449331D01*
X572362D01*
X557638Y1440669D02*
X562362D01*
Y1443031D01*
X557638Y1440669D02*
Y1443031D01*
X562362Y1446968D02*
Y1449331D01*
X557638Y1446968D02*
Y1449331D01*
X562362D01*
X458169Y1465138D02*
Y1469862D01*
Y1465138D02*
X460531D01*
X458169Y1469862D02*
X460531D01*
X464468Y1465138D02*
X466831D01*
X464468Y1469862D02*
X466831D01*
Y1465138D02*
Y1469862D01*
X571831Y1427638D02*
Y1432362D01*
X569468D02*
X571831D01*
X569468Y1427638D02*
X571831D01*
X563169Y1432362D02*
X565531D01*
X563169Y1427638D02*
X565531D01*
X563169D02*
Y1432362D01*
X487638Y1358169D02*
X492362D01*
Y1360531D01*
X487638Y1358169D02*
Y1360531D01*
X492362Y1364468D02*
Y1366831D01*
X487638Y1364468D02*
Y1366831D01*
X492362D01*
X512638Y1358169D02*
X517362D01*
Y1360531D01*
X512638Y1358169D02*
Y1360531D01*
X517362Y1364468D02*
Y1366831D01*
X512638Y1364468D02*
Y1366831D01*
X517362D01*
X510669Y1465138D02*
Y1469862D01*
Y1465138D02*
X513031D01*
X510669Y1469862D02*
X513031D01*
X516968Y1465138D02*
X519331D01*
X516968Y1469862D02*
X519331D01*
Y1465138D02*
Y1469862D01*
X510669Y1477638D02*
Y1482362D01*
Y1477638D02*
X513031D01*
X510669Y1482362D02*
X513031D01*
X516968Y1477638D02*
X519331D01*
X516968Y1482362D02*
X519331D01*
Y1477638D02*
Y1482362D01*
X574331Y1420138D02*
Y1424862D01*
X571969D02*
X574331D01*
X571969Y1420138D02*
X574331D01*
X565669Y1424862D02*
X568032D01*
X565669Y1420138D02*
X568032D01*
X565669D02*
Y1424862D01*
X502638Y1353169D02*
X507362D01*
Y1355531D01*
X502638Y1353169D02*
Y1355531D01*
X507362Y1359468D02*
Y1361831D01*
X502638Y1359468D02*
Y1361831D01*
X507362D01*
X530138Y1360669D02*
X534862D01*
Y1363031D01*
X530138Y1360669D02*
Y1363031D01*
X534862Y1366968D02*
Y1369331D01*
X530138Y1366968D02*
Y1369331D01*
X534862D01*
X458169Y1475138D02*
Y1479862D01*
Y1475138D02*
X460531D01*
X458169Y1479862D02*
X460531D01*
X464468Y1475138D02*
X466831D01*
X464468Y1479862D02*
X466831D01*
Y1475138D02*
Y1479862D01*
X574331Y1407638D02*
Y1412362D01*
X571969D02*
X574331D01*
X571969Y1407638D02*
X574331D01*
X565669Y1412362D02*
X568032D01*
X565669Y1407638D02*
X568032D01*
X565669D02*
Y1412362D01*
X550669Y1360138D02*
Y1364862D01*
Y1360138D02*
X553031D01*
X550669Y1364862D02*
X553031D01*
X556968Y1360138D02*
X559331D01*
X556968Y1364862D02*
X559331D01*
Y1360138D02*
Y1364862D01*
X499331Y1435138D02*
Y1439862D01*
X496969D02*
X499331D01*
X496969Y1435138D02*
X499331D01*
X490669Y1439862D02*
X493032D01*
X490669Y1435138D02*
X493032D01*
X490669D02*
Y1439862D01*
X521831Y1445138D02*
Y1449862D01*
X519468D02*
X521831D01*
X519468Y1445138D02*
X521831D01*
X513169Y1449862D02*
X515531D01*
X513169Y1445138D02*
X515531D01*
X513169D02*
Y1449862D01*
X523169Y1406138D02*
Y1410862D01*
Y1406138D02*
X525531D01*
X523169Y1410862D02*
X525531D01*
X529468Y1406138D02*
X531831D01*
X529468Y1410862D02*
X531831D01*
Y1406138D02*
Y1410862D01*
X485669Y1390138D02*
Y1394862D01*
Y1390138D02*
X488031D01*
X485669Y1394862D02*
X488031D01*
X491968Y1390138D02*
X494331D01*
X491968Y1394862D02*
X494331D01*
Y1390138D02*
Y1394862D01*
X502638Y1440669D02*
X507362D01*
Y1443031D01*
X502638Y1440669D02*
Y1443031D01*
X507362Y1446968D02*
Y1449331D01*
X502638Y1446968D02*
Y1449331D01*
X507362D01*
X529638Y1425169D02*
X534362D01*
Y1427531D01*
X529638Y1425169D02*
Y1427531D01*
X534362Y1431468D02*
Y1433831D01*
X529638Y1431468D02*
Y1433831D01*
X534362D01*
X505669Y1390138D02*
Y1394862D01*
Y1390138D02*
X508031D01*
X505669Y1394862D02*
X508031D01*
X511969Y1390138D02*
X514331D01*
X511969Y1394862D02*
X514331D01*
Y1390138D02*
Y1394862D01*
X486831Y1410138D02*
Y1414862D01*
X484469D02*
X486831D01*
X484469Y1410138D02*
X486831D01*
X478169Y1414862D02*
X480532D01*
X478169Y1410138D02*
X480532D01*
X478169D02*
Y1414862D01*
X480138Y1436831D02*
X484862D01*
X480138Y1434468D02*
Y1436831D01*
X484862Y1434468D02*
Y1436831D01*
X480138Y1428169D02*
Y1430532D01*
X484862Y1428169D02*
Y1430532D01*
X480138Y1428169D02*
X484862D01*
X505669Y1415138D02*
Y1419862D01*
Y1415138D02*
X508031D01*
X505669Y1419862D02*
X508031D01*
X511969Y1415138D02*
X514331D01*
X511969Y1419862D02*
X514331D01*
Y1415138D02*
Y1419862D01*
X520669Y1390138D02*
Y1394862D01*
Y1390138D02*
X523031D01*
X520669Y1394862D02*
X523031D01*
X526968Y1390138D02*
X529331D01*
X526968Y1394862D02*
X529331D01*
Y1390138D02*
Y1394862D01*
X369500Y1373783D02*
X373437D01*
Y1359216D02*
Y1373783D01*
X365563Y1359216D02*
X373437D01*
X365563D02*
Y1373783D01*
X369500D01*
X353720Y1396063D02*
Y1400000D01*
X339154Y1396063D02*
X353720D01*
X339154D02*
Y1403937D01*
X353720D01*
Y1400000D02*
Y1403937D01*
X425138Y1428169D02*
X429862D01*
Y1430531D01*
X425138Y1428169D02*
Y1430531D01*
X429862Y1434468D02*
Y1436831D01*
X425138Y1434468D02*
Y1436831D01*
X429862D01*
X433169Y1415138D02*
Y1419862D01*
Y1415138D02*
X435531D01*
X433169Y1419862D02*
X435531D01*
X439468Y1415138D02*
X441831D01*
X439468Y1419862D02*
X441831D01*
Y1415138D02*
Y1419862D01*
X433169Y1405138D02*
Y1409862D01*
Y1405138D02*
X435531D01*
X433169Y1409862D02*
X435531D01*
X439468Y1405138D02*
X441831D01*
X439468Y1409862D02*
X441831D01*
Y1405138D02*
Y1409862D01*
X405669Y1430138D02*
Y1434862D01*
Y1430138D02*
X408031D01*
X405669Y1434862D02*
X408031D01*
X411969Y1430138D02*
X414331D01*
X411969Y1434862D02*
X414331D01*
Y1430138D02*
Y1434862D01*
X422638Y1399331D02*
X427362D01*
X422638Y1396968D02*
Y1399331D01*
X427362Y1396968D02*
Y1399331D01*
X422638Y1390669D02*
Y1393032D01*
X427362Y1390669D02*
Y1393032D01*
X422638Y1390669D02*
X427362D01*
X414217Y1465500D02*
Y1469437D01*
X428783D01*
Y1461563D02*
Y1469437D01*
X414217Y1461563D02*
X428783D01*
X414217D02*
Y1465500D01*
X555138Y1381831D02*
X559862D01*
X555138Y1379468D02*
Y1381831D01*
X559862Y1379468D02*
Y1381831D01*
X555138Y1373169D02*
Y1375531D01*
X559862Y1373169D02*
Y1375531D01*
X555138Y1373169D02*
X559862D01*
D72*
X556267Y1327382D02*
G03*
X556094Y1327520I-368J-286D01*
G01*
D02*
G03*
X555864Y1327565I-220J-504D01*
G01*
D02*
G03*
X555697Y1327536I-0J-476D01*
G01*
D02*
G03*
X555540Y1327446I209J-550D01*
G01*
X555867Y1327234D02*
G03*
X555765Y1327177I146J-380D01*
G01*
X555971Y1327254D02*
G03*
X555867Y1327234I1J-297D01*
G01*
X556180Y1327176D02*
G03*
X555971Y1327254I-208J-243D01*
G01*
X556250Y1327076D02*
G03*
X556180Y1327176I-221J-79D01*
G01*
X556273Y1326929D02*
G03*
X556250Y1327076I-417J9D01*
G01*
X561325Y1327244D02*
G03*
X561226Y1327254I-95J-468D01*
G01*
X561403Y1327216D02*
G03*
X561325Y1327244I-130J-235D01*
G01*
X561491Y1327102D02*
G03*
X561403Y1327216I-178J-48D01*
G01*
X561535Y1326774D02*
G03*
X561491Y1327102I-1169J11D01*
G01*
X561491Y1326440D02*
G03*
X561535Y1326774I-1144J321D01*
G01*
X561403Y1326326D02*
G03*
X561491Y1326440I-90J161D01*
G01*
X561325Y1326298D02*
G03*
X561403Y1326326I-53J264D01*
G01*
X561226Y1326289D02*
G03*
X561325Y1326298I5J478D01*
G01*
X561128Y1326299D02*
G03*
X561226Y1326289I93J436D01*
G01*
X561052Y1326328D02*
G03*
X561128Y1326299I129J222D01*
G01*
X560965Y1326446D02*
G03*
X561052Y1326328I186J47D01*
G01*
X560920Y1326774D02*
G03*
X560965Y1326446I1207J-5D01*
G01*
Y1327096D02*
G03*
X560920Y1326774I1144J-321D01*
G01*
X561052Y1327214D02*
G03*
X560965Y1327096I99J-165D01*
G01*
X561128Y1327244D02*
G03*
X561052Y1327214I53J-251D01*
G01*
X561226Y1327254D02*
G03*
X561128Y1327244I-5J-446D01*
G01*
X564180Y1328955D02*
G03*
X564206Y1329123I-466J158D01*
G01*
X564102Y1328836D02*
G03*
X564180Y1328955I-203J217D01*
G01*
X563983Y1328764D02*
G03*
X564102Y1328836I-117J326D01*
G01*
X563836Y1328740D02*
G03*
X563983Y1328764I5J431D01*
G01*
X563655Y1328778D02*
G03*
X563836Y1328740I179J409D01*
G01*
X563495Y1328890D02*
G03*
X563655Y1328778I372J357D01*
G01*
X563270Y1328697D02*
G03*
X563392Y1328582I571J483D01*
G01*
X563392D02*
G03*
X563529Y1328505I363J487D01*
G01*
D02*
G03*
X563830Y1328447I299J750D01*
G01*
D02*
G03*
X564066Y1328486I-0J738D01*
G01*
Y1328486D02*
G03*
X564293Y1328602I-294J860D01*
G01*
Y1328602D02*
G03*
X564392Y1328699I-227J326D01*
G01*
X564392Y1328699D02*
G03*
X564462Y1328837I-455J318D01*
G01*
X564462Y1328837D02*
G03*
X564504Y1329016I-870J299D01*
G01*
X564504D02*
G03*
X564518Y1329235I-1561J210D01*
G01*
D02*
G03*
X564505Y1329444I-1569J8D01*
G01*
X564505D02*
G03*
X564466Y1329618I-961J-123D01*
G01*
X564466D02*
G03*
X564401Y1329757I-588J-189D01*
G01*
X564401D02*
G03*
X564311Y1329861I-381J-240D01*
G01*
D02*
G03*
X564099Y1329991I-512J-597D01*
G01*
D02*
G03*
X563878Y1330035I-222J-547D01*
G01*
D02*
G03*
X563638Y1329990I-5J-643D01*
G01*
D02*
G03*
X563431Y1329858I250J-618D01*
G01*
D02*
G03*
X563287Y1329650I384J-419D01*
G01*
D02*
G03*
X563239Y1329380I672J-258D01*
G01*
X567555Y1329243D02*
G03*
X567545Y1329461I-2114J14D01*
G01*
D02*
G03*
X567516Y1329615I-783J-69D01*
G01*
X567516D02*
G03*
X567387Y1329836I-569J-183D01*
G01*
Y1329836D02*
G03*
X567311Y1329905I-413J-381D01*
G01*
Y1329905D02*
G03*
X567210Y1329970I-543J-723D01*
G01*
X567210D02*
G03*
X567080Y1330019I-223J-403D01*
G01*
X567080D02*
G03*
X566915Y1330035I-157J-762D01*
G01*
D02*
G03*
X566752Y1330019I-7J-763D01*
G01*
D02*
G03*
X566622Y1329970I95J-456D01*
G01*
D02*
G03*
X566521Y1329905I447J-800D01*
G01*
D02*
G03*
X566444Y1329836I340J-458D01*
G01*
D02*
G03*
X566316Y1329615I438J-402D01*
G01*
D02*
G03*
X566287Y1329461I761J-223D01*
G01*
D02*
G03*
X566277Y1329243I2124J-203D01*
G01*
D02*
G03*
X566287Y1329021I2201J-15D01*
G01*
D02*
G03*
X566316Y1328866I792J68D01*
G01*
D02*
G03*
X566444Y1328645I566J180D01*
G01*
Y1328645D02*
G03*
X566521Y1328575I401J366D01*
G01*
Y1328575D02*
G03*
X566622Y1328510I509J683D01*
G01*
D02*
G03*
X566752Y1328463I224J416D01*
G01*
Y1328463D02*
G03*
X566915Y1328447I156J764D01*
G01*
Y1328447D02*
G03*
X567080Y1328463I8J795D01*
G01*
D02*
G03*
X567210Y1328510I-92J458D01*
G01*
Y1328510D02*
G03*
X567311Y1328575I-404J737D01*
G01*
Y1328575D02*
G03*
X567387Y1328645I-321J428D01*
G01*
D02*
G03*
X567516Y1328866I-441J404D01*
G01*
D02*
G03*
X567545Y1329021I-757J223D01*
G01*
D02*
G03*
X567555Y1329243I-2171J207D01*
G01*
X559345D02*
G03*
X559335Y1329461I-2114J14D01*
G01*
D02*
G03*
X559306Y1329615I-783J-69D01*
G01*
D02*
G03*
X559177Y1329836I-569J-183D01*
G01*
X559177D02*
G03*
X559101Y1329905I-413J-381D01*
G01*
X559101D02*
G03*
X559000Y1329970I-543J-723D01*
G01*
D02*
G03*
X558870Y1330019I-223J-403D01*
G01*
Y1330019D02*
G03*
X558705Y1330035I-157J-762D01*
G01*
Y1330035D02*
G03*
X558542Y1330019I-7J-763D01*
G01*
D02*
G03*
X558412Y1329970I95J-456D01*
G01*
D02*
G03*
X558311Y1329905I447J-801D01*
G01*
D02*
G03*
X558234Y1329836I340J-458D01*
G01*
Y1329836D02*
G03*
X558106Y1329615I438J-402D01*
G01*
X558106D02*
G03*
X558077Y1329461I761J-223D01*
G01*
D02*
G03*
X558067Y1329243I2124J-203D01*
G01*
D02*
G03*
X558077Y1329021I2201J-15D01*
G01*
D02*
G03*
X558106Y1328866I792J68D01*
G01*
X558106D02*
G03*
X558234Y1328645I566J180D01*
G01*
D02*
G03*
X558311Y1328575I401J366D01*
G01*
Y1328575D02*
G03*
X558412Y1328510I509J683D01*
G01*
D02*
G03*
X558542Y1328463I224J416D01*
G01*
D02*
G03*
X558705Y1328447I156J764D01*
G01*
D02*
G03*
X558870Y1328463I8J795D01*
G01*
D02*
G03*
X559000Y1328510I-92J458D01*
G01*
Y1328510D02*
G03*
X559101Y1328575I-404J737D01*
G01*
Y1328575D02*
G03*
X559177Y1328645I-321J428D01*
G01*
D02*
G03*
X559306Y1328866I-441J404D01*
G01*
D02*
G03*
X559335Y1329021I-757J223D01*
G01*
D02*
G03*
X559345Y1329243I-2171J207D01*
G01*
X563584Y1326127D02*
G03*
X563713Y1326011I222J118D01*
G01*
D02*
G03*
X563820Y1325982I175J434D01*
G01*
D02*
G03*
X563956Y1325972I129J854D01*
G01*
D02*
G03*
X564181Y1326009I-4J726D01*
G01*
D02*
G03*
X564344Y1326109I-137J405D01*
G01*
D02*
G03*
X564451Y1326260I-291J322D01*
G01*
Y1326260D02*
G03*
X564487Y1326446I-434J180D01*
G01*
D02*
G03*
X564456Y1326625I-499J5D01*
G01*
D02*
G03*
X564363Y1326772I-415J-159D01*
G01*
X564363Y1326772D02*
G03*
X564210Y1326871I-283J-270D01*
G01*
X564210Y1326871D02*
G03*
X563997Y1326906I-209J-604D01*
G01*
X563596Y1327161D02*
G03*
X563577Y1327071I177J-84D01*
G01*
X563654Y1327224D02*
G03*
X563596Y1327161I85J-136D01*
G01*
X563751Y1327261D02*
G03*
X563654Y1327224I49J-275D01*
G01*
X563887Y1327271D02*
G03*
X563751Y1327261I-20J-631D01*
G01*
X563985Y1327265D02*
G03*
X563887Y1327271I-95J-729D01*
G01*
X564066Y1327247D02*
G03*
X563985Y1327265I-135J-410D01*
G01*
X564172Y1327150D02*
G03*
X564066Y1327247I-194J-106D01*
G01*
X564411Y1327338D02*
G03*
X564197Y1327510I-432J-317D01*
G01*
D02*
G03*
X564060Y1327552I-243J-553D01*
G01*
Y1327552D02*
G03*
X563902Y1327564I-139J-793D01*
G01*
Y1327564D02*
G03*
X563647Y1327538I-22J-1037D01*
G01*
D02*
G03*
X563447Y1327454I142J-615D01*
G01*
X563447D02*
G03*
X563320Y1327294I212J-300D01*
G01*
X563320D02*
G03*
X563287Y1327184I479J-202D01*
G01*
D02*
G03*
X563275Y1327053I761J-136D01*
G01*
X563579Y1329534D02*
G03*
X563551Y1329380I478J-167D01*
G01*
X563649Y1329648D02*
G03*
X563579Y1329534I225J-218D01*
G01*
X563752Y1329717D02*
G03*
X563649Y1329648I116J-282D01*
G01*
X563878Y1329741D02*
G03*
X563752Y1329717I-4J-330D01*
G01*
X564005Y1329717D02*
G03*
X563878Y1329741I-123J-315D01*
G01*
X564109Y1329648D02*
G03*
X564005Y1329717I-218J-213D01*
G01*
X564179Y1329534D02*
G03*
X564109Y1329648I-290J-101D01*
G01*
X564206Y1329380D02*
G03*
X564179Y1329534I-496J-6D01*
G01*
X564057Y1326635D02*
G03*
X563941Y1326649I-125J-519D01*
G01*
X564139Y1326598D02*
G03*
X564057Y1326635I-138J-202D01*
G01*
X564188Y1326540D02*
G03*
X564139Y1326598I-133J-62D01*
G01*
X564203Y1326461D02*
G03*
X564188Y1326540I-178J7D01*
G01*
X564186Y1326388D02*
G03*
X564203Y1326461I-141J71D01*
G01*
X564135Y1326326D02*
G03*
X564186Y1326388I-126J156D01*
G01*
X564048Y1326280D02*
G03*
X564135Y1326326I-51J203D01*
G01*
X563918Y1326265D02*
G03*
X564048Y1326280I9J486D01*
G01*
X563755Y1326275D02*
G03*
X563918Y1326265I137J880D01*
G01*
X563649Y1326312D02*
G03*
X563755Y1326275I146J254D01*
G01*
X563617Y1326344D02*
G03*
X563649Y1326312I98J64D01*
G01*
X563595Y1326392D02*
G03*
X563617Y1326344I182J56D01*
G01*
X563577Y1326536D02*
G03*
X563595Y1326392I479J-13D01*
G01*
X553913Y1328715D02*
G03*
X554155Y1328523I644J562D01*
G01*
D02*
G03*
X554304Y1328466I289J539D01*
G01*
D02*
G03*
X554471Y1328447I164J701D01*
G01*
D02*
G03*
X554727Y1328493I3J721D01*
G01*
D02*
G03*
X554957Y1328630I-282J736D01*
G01*
D02*
G03*
X555052Y1328737I-327J387D01*
G01*
D02*
G03*
X555120Y1328874I-518J342D01*
G01*
D02*
G03*
X555161Y1329041I-836J292D01*
G01*
D02*
G03*
X555175Y1329239I-1334J191D01*
G01*
D02*
G03*
X555161Y1329437I-1350J7D01*
G01*
D02*
G03*
X555120Y1329605I-882J-125D01*
G01*
D02*
G03*
X555052Y1329743I-591J-206D01*
G01*
D02*
G03*
X554957Y1329850I-428J-283D01*
G01*
D02*
G03*
X554727Y1329988I-515J-595D01*
G01*
D02*
G03*
X554471Y1330035I-253J-669D01*
G01*
D02*
G03*
X554304Y1330016I-4J-714D01*
G01*
X554304D02*
G03*
X554155Y1329959I141J-592D01*
G01*
X554155D02*
G03*
X553913Y1329766I411J-763D01*
G01*
X554288Y1329682D02*
G03*
X554143Y1329560I216J-405D01*
G01*
X554459Y1329723D02*
G03*
X554288Y1329682I-3J-368D01*
G01*
X554635Y1329692D02*
G03*
X554459Y1329723I-167J-445D01*
G01*
X554762Y1329602D02*
G03*
X554635Y1329692I-240J-200D01*
G01*
X554837Y1329451D02*
G03*
X554762Y1329602I-387J-99D01*
G01*
X554863Y1329239D02*
G03*
X554837Y1329451I-792J13D01*
G01*
X554837Y1329029D02*
G03*
X554863Y1329239I-760J198D01*
G01*
X554762Y1328878D02*
G03*
X554837Y1329029I-308J249D01*
G01*
X554635Y1328788D02*
G03*
X554762Y1328878I-113J291D01*
G01*
X554459Y1328758D02*
G03*
X554635Y1328788I10J477D01*
G01*
X554287Y1328799D02*
G03*
X554459Y1328758I168J326D01*
G01*
X554143Y1328922D02*
G03*
X554287Y1328799I359J276D01*
G01*
X566592Y1329383D02*
G03*
X566588Y1329239I2041J-133D01*
G01*
X566605Y1329477D02*
G03*
X566592Y1329383I563J-125D01*
G01*
X566664Y1329609D02*
G03*
X566605Y1329477I338J-232D01*
G01*
X566768Y1329694D02*
G03*
X566664Y1329609I105J-233D01*
G01*
X566915Y1329723D02*
G03*
X566768Y1329694I-8J-353D01*
G01*
X567064D02*
G03*
X566915Y1329723I-140J-328D01*
G01*
X567166Y1329609D02*
G03*
X567064Y1329694I-204J-141D01*
G01*
X567227Y1329477D02*
G03*
X567166Y1329609I-356J-84D01*
G01*
X567239Y1329384D02*
G03*
X567227Y1329477I-622J-32D01*
G01*
X567242Y1329243D02*
G03*
X567239Y1329384I-2154J11D01*
G01*
X567239Y1329097D02*
G03*
X567242Y1329243I-2266J134D01*
G01*
X567227Y1329002D02*
G03*
X567239Y1329097I-626J126D01*
G01*
X567166Y1328872D02*
G03*
X567227Y1329002I-283J210D01*
G01*
X567064Y1328786D02*
G03*
X567166Y1328872I-102J226D01*
G01*
X566915Y1328758D02*
G03*
X567064Y1328786I9J356D01*
G01*
X566768D02*
G03*
X566915Y1328758I139J325D01*
G01*
X566664Y1328872D02*
G03*
X566768Y1328786I209J148D01*
G01*
X566605Y1329002D02*
G03*
X566664Y1328872I382J97D01*
G01*
X566592Y1329096D02*
G03*
X566605Y1329002I575J31D01*
G01*
X566588Y1329239D02*
G03*
X566592Y1329096I2031J-11D01*
G01*
X558382Y1329383D02*
G03*
X558378Y1329239I2041J-133D01*
G01*
X558395Y1329477D02*
G03*
X558382Y1329383I563J-125D01*
G01*
X558454Y1329609D02*
G03*
X558395Y1329477I338J-232D01*
G01*
X558558Y1329694D02*
G03*
X558454Y1329609I105J-233D01*
G01*
X558705Y1329723D02*
G03*
X558558Y1329694I-8J-353D01*
G01*
X558854Y1329694D02*
G03*
X558705Y1329723I-140J-328D01*
G01*
X558956Y1329609D02*
G03*
X558854Y1329694I-204J-141D01*
G01*
X559017Y1329477D02*
G03*
X558956Y1329609I-356J-84D01*
G01*
X559028Y1329384D02*
G03*
X559017Y1329477I-622J-32D01*
G01*
X559032Y1329243D02*
G03*
X559028Y1329384I-2154J11D01*
G01*
X559028Y1329097D02*
G03*
X559032Y1329243I-2266J134D01*
G01*
X559017Y1329002D02*
G03*
X559028Y1329097I-626J126D01*
G01*
X558956Y1328872D02*
G03*
X559017Y1329002I-283J210D01*
G01*
X558854Y1328786D02*
G03*
X558956Y1328872I-102J226D01*
G01*
X558705Y1328758D02*
G03*
X558854Y1328786I8J356D01*
G01*
X558558Y1328786D02*
G03*
X558705Y1328758I139J325D01*
G01*
X558454Y1328872D02*
G03*
X558558Y1328786I209J148D01*
G01*
X558395Y1329002D02*
G03*
X558454Y1328872I382J97D01*
G01*
X558382Y1329096D02*
G03*
X558395Y1329002I575J31D01*
G01*
X558378Y1329239D02*
G03*
X558382Y1329096I2031J-11D01*
G01*
X562649Y1329851D02*
G03*
X562475Y1329989I-368J-286D01*
G01*
D02*
G03*
X562245Y1330035I-220J-504D01*
G01*
D02*
G03*
X562067Y1330000I1J-481D01*
G01*
D02*
G03*
X561896Y1329897I244J-599D01*
G01*
X561896Y1329897D02*
G03*
X561770Y1329729I270J-334D01*
G01*
X561770D02*
G03*
X561738Y1329620I477J-198D01*
G01*
D02*
G03*
X561728Y1329497I683J-120D01*
G01*
X562062Y1329529D02*
G03*
X562040Y1329389I393J-133D01*
G01*
X562127Y1329634D02*
G03*
X562062Y1329529I201J-198D01*
G01*
X562226Y1329701D02*
G03*
X562127Y1329634I110J-270D01*
G01*
X562345Y1329723D02*
G03*
X562226Y1329701I-4J-316D01*
G01*
X562468Y1329701D02*
G03*
X562345Y1329723I-118J-306D01*
G01*
X562567Y1329634D02*
G03*
X562468Y1329701I-207J-203D01*
G01*
X562633Y1329529D02*
G03*
X562567Y1329634I-267J-93D01*
G01*
X562654Y1329389D02*
G03*
X562633Y1329529I-415J7D01*
G01*
X557261Y1326127D02*
G03*
X557390Y1326011I222J117D01*
G01*
Y1326011D02*
G03*
X557497Y1325982I175J434D01*
G01*
D02*
G03*
X557633Y1325972I129J854D01*
G01*
D02*
G03*
X557858Y1326009I-4J726D01*
G01*
D02*
G03*
X558021Y1326109I-137J405D01*
G01*
D02*
G03*
X558129Y1326260I-291J322D01*
G01*
D02*
G03*
X558164Y1326446I-434J180D01*
G01*
D02*
G03*
X558133Y1326625I-499J5D01*
G01*
Y1326625D02*
G03*
X558040Y1326772I-415J-159D01*
G01*
D02*
G03*
X557887Y1326871I-283J-270D01*
G01*
Y1326871D02*
G03*
X557675Y1326906I-209J-604D01*
G01*
X557273Y1327161D02*
G03*
X557254Y1327071I177J-84D01*
G01*
X557331Y1327224D02*
G03*
X557273Y1327161I85J-136D01*
G01*
X557428Y1327261D02*
G03*
X557331Y1327224I49J-275D01*
G01*
X557564Y1327271D02*
G03*
X557428Y1327261I-20J-631D01*
G01*
X557663Y1327265D02*
G03*
X557564Y1327271I-95J-729D01*
G01*
X557743Y1327247D02*
G03*
X557663Y1327265I-135J-410D01*
G01*
X557850Y1327150D02*
G03*
X557743Y1327247I-194J-106D01*
G01*
X558088Y1327338D02*
G03*
X557874Y1327510I-432J-317D01*
G01*
D02*
G03*
X557737Y1327552I-243J-553D01*
G01*
Y1327552D02*
G03*
X557579Y1327564I-139J-793D01*
G01*
Y1327564D02*
G03*
X557324Y1327538I-22J-1037D01*
G01*
Y1327538D02*
G03*
X557124Y1327454I142J-615D01*
G01*
X557124Y1327454D02*
G03*
X556997Y1327294I212J-300D01*
G01*
X556997D02*
G03*
X556964Y1327184I479J-202D01*
G01*
X556964D02*
G03*
X556952Y1327053I761J-136D01*
G01*
X555182Y1326486D02*
G03*
X555208Y1326654I-466J158D01*
G01*
X555104Y1326367D02*
G03*
X555182Y1326486I-203J217D01*
G01*
X554985Y1326295D02*
G03*
X555104Y1326367I-117J326D01*
G01*
X554838Y1326271D02*
G03*
X554985Y1326295I5J431D01*
G01*
X554657Y1326308D02*
G03*
X554838Y1326271I179J409D01*
G01*
X554497Y1326421D02*
G03*
X554657Y1326308I372J357D01*
G01*
X554272Y1326228D02*
G03*
X554394Y1326112I571J483D01*
G01*
D02*
G03*
X554531Y1326035I363J487D01*
G01*
D02*
G03*
X554833Y1325978I299J750D01*
G01*
D02*
G03*
X555068Y1326017I-0J738D01*
G01*
Y1326017D02*
G03*
X555296Y1326133I-294J860D01*
G01*
Y1326133D02*
G03*
X555394Y1326230I-227J326D01*
G01*
Y1326230D02*
G03*
X555464Y1326368I-455J318D01*
G01*
D02*
G03*
X555506Y1326547I-870J299D01*
G01*
X555506D02*
G03*
X555520Y1326766I-1561J210D01*
G01*
X555520D02*
G03*
X555507Y1326975I-1569J8D01*
G01*
D02*
G03*
X555468Y1327149I-961J-123D01*
G01*
D02*
G03*
X555403Y1327288I-588J-189D01*
G01*
Y1327288D02*
G03*
X555313Y1327392I-381J-240D01*
G01*
D02*
G03*
X555101Y1327522I-512J-597D01*
G01*
D02*
G03*
X554880Y1327565I-222J-547D01*
G01*
D02*
G03*
X554640Y1327521I-5J-643D01*
G01*
D02*
G03*
X554433Y1327388I250J-618D01*
G01*
D02*
G03*
X554289Y1327180I384J-419D01*
G01*
X554289D02*
G03*
X554242Y1326911I672J-258D01*
G01*
X562595Y1327382D02*
G03*
X562421Y1327520I-368J-286D01*
G01*
Y1327520D02*
G03*
X562191Y1327565I-220J-504D01*
G01*
Y1327565D02*
G03*
X562025Y1327536I-0J-476D01*
G01*
D02*
G03*
X561867Y1327446I209J-550D01*
G01*
X562195Y1327234D02*
G03*
X562092Y1327177I146J-380D01*
G01*
X562299Y1327254D02*
G03*
X562195Y1327234I1J-297D01*
G01*
X562507Y1327176D02*
G03*
X562299Y1327254I-208J-243D01*
G01*
X562577Y1327076D02*
G03*
X562507Y1327176I-221J-79D01*
G01*
X562601Y1326929D02*
G03*
X562577Y1327076I-417J9D01*
G01*
X554581Y1327065D02*
G03*
X554553Y1326911I478J-167D01*
G01*
X554651Y1327178D02*
G03*
X554581Y1327065I225J-218D01*
G01*
X554754Y1327248D02*
G03*
X554651Y1327178I116J-282D01*
G01*
X554880Y1327271D02*
G03*
X554754Y1327248I-4J-330D01*
G01*
X555007D02*
G03*
X554880Y1327271I-123J-315D01*
G01*
X555111Y1327178D02*
G03*
X555007Y1327248I-218J-213D01*
G01*
X555181Y1327065D02*
G03*
X555111Y1327178I-290J-101D01*
G01*
X555208Y1326911D02*
G03*
X555181Y1327065I-496J-6D01*
G01*
X557734Y1326635D02*
G03*
X557618Y1326649I-125J-519D01*
G01*
X557817Y1326598D02*
G03*
X557734Y1326635I-138J-202D01*
G01*
X557865Y1326540D02*
G03*
X557817Y1326598I-133J-62D01*
G01*
X557880Y1326461D02*
G03*
X557865Y1326540I-178J8D01*
G01*
X557863Y1326388D02*
G03*
X557880Y1326461I-141J71D01*
G01*
X557812Y1326326D02*
G03*
X557863Y1326388I-126J156D01*
G01*
X557725Y1326280D02*
G03*
X557812Y1326326I-51J203D01*
G01*
X557595Y1326265D02*
G03*
X557725Y1326280I9J486D01*
G01*
X557432Y1326275D02*
G03*
X557595Y1326265I137J880D01*
G01*
X557326Y1326312D02*
G03*
X557432Y1326275I146J254D01*
G01*
X557295Y1326344D02*
G03*
X557326Y1326312I98J64D01*
G01*
X557272Y1326392D02*
G03*
X557295Y1326344I182J56D01*
G01*
X557254Y1326536D02*
G03*
X557272Y1326392I479J-13D01*
G01*
X557449Y1328951D02*
G03*
X557471Y1329091I-397J134D01*
G01*
X557383Y1328845D02*
G03*
X557449Y1328951I-198J196D01*
G01*
X557284Y1328780D02*
G03*
X557383Y1328845I-107J269D01*
G01*
X557162Y1328758D02*
G03*
X557284Y1328780I4J331D01*
G01*
X557042D02*
G03*
X557162Y1328758I116J297D01*
G01*
X556944Y1328845D02*
G03*
X557042Y1328780I208J205D01*
G01*
X556878Y1328951D02*
G03*
X556944Y1328845I263J91D01*
G01*
X556856Y1329091D02*
G03*
X556878Y1328951I419J-7D01*
G01*
X556863Y1328629D02*
G03*
X557035Y1328493I367J286D01*
G01*
Y1328493D02*
G03*
X557263Y1328447I218J498D01*
G01*
Y1328447D02*
G03*
X557443Y1328481I-0J494D01*
G01*
X557443D02*
G03*
X557615Y1328584I-238J594D01*
G01*
X557615Y1328584D02*
G03*
X557741Y1328753I-268J331D01*
G01*
X557741D02*
G03*
X557772Y1328861I-479J198D01*
G01*
D02*
G03*
X557783Y1328985I-690J121D01*
G01*
X555872Y1329851D02*
G03*
X555698Y1329989I-368J-286D01*
G01*
Y1329989D02*
G03*
X555468Y1330035I-220J-504D01*
G01*
Y1330035D02*
G03*
X555302Y1330005I-0J-476D01*
G01*
Y1330005D02*
G03*
X555144Y1329915I209J-550D01*
G01*
X555472Y1329703D02*
G03*
X555369Y1329646I146J-380D01*
G01*
X555576Y1329723D02*
G03*
X555472Y1329703I1J-297D01*
G01*
X555784Y1329646D02*
G03*
X555576Y1329723I-208J-243D01*
G01*
X555855Y1329545D02*
G03*
X555784Y1329646I-221J-79D01*
G01*
X555878Y1329398D02*
G03*
X555855Y1329545I-417J9D01*
G01*
X560920Y1326157D02*
G03*
X561102Y1326023I411J366D01*
G01*
D02*
G03*
X561321Y1325978I213J485D01*
G01*
Y1325978D02*
G03*
X561455Y1325992I4J603D01*
G01*
Y1325992D02*
G03*
X561568Y1326034I-95J431D01*
G01*
D02*
G03*
X561737Y1326178I-236J447D01*
G01*
Y1326178D02*
G03*
X561825Y1326373I-349J276D01*
G01*
D02*
G03*
X561842Y1326530I-1177J204D01*
G01*
D02*
G03*
X561847Y1326774I-4498J225D01*
G01*
D02*
G03*
X561842Y1327014I-4392J19D01*
G01*
D02*
G03*
X561825Y1327169I-1164J-48D01*
G01*
D02*
G03*
X561737Y1327364I-447J-85D01*
G01*
D02*
G03*
X561568Y1327508I-420J-320D01*
G01*
D02*
G03*
X561455Y1327551I-209J-381D01*
G01*
D02*
G03*
X561321Y1327565I-129J-574D01*
G01*
Y1327565D02*
G03*
X561104Y1327515I-6J-460D01*
G01*
D02*
G03*
X560920Y1327382I389J-734D01*
G01*
X565273Y1328767D02*
G03*
X565372Y1328758I94J465D01*
G01*
X565196Y1328796D02*
G03*
X565273Y1328767I130J234D01*
G01*
X565108Y1328909D02*
G03*
X565196Y1328796I179J48D01*
G01*
X565064Y1329239D02*
G03*
X565108Y1328909I1174J-11D01*
G01*
X565108Y1329571D02*
G03*
X565064Y1329239I1141J-320D01*
G01*
X565196Y1329685D02*
G03*
X565108Y1329571I92J-162D01*
G01*
X565273Y1329713D02*
G03*
X565196Y1329685I53J-261D01*
G01*
X565372Y1329723D02*
G03*
X565273Y1329713I-5J-471D01*
G01*
X565471Y1329713D02*
G03*
X565372Y1329723I-94J-444D01*
G01*
X565548Y1329683D02*
G03*
X565471Y1329713I-130J-224D01*
G01*
X565635Y1329566D02*
G03*
X565548Y1329683I-185J-46D01*
G01*
X565678Y1329239D02*
G03*
X565635Y1329566I-1220J4D01*
G01*
Y1328914D02*
G03*
X565678Y1329239I-1166J321D01*
G01*
X565548Y1328797D02*
G03*
X565635Y1328914I-97J163D01*
G01*
X565471Y1328768D02*
G03*
X565548Y1328797I-53J254D01*
G01*
X565372Y1328758D02*
G03*
X565471Y1328768I5J455D01*
G01*
X553483Y1328955D02*
G03*
X553509Y1329123I-466J158D01*
G01*
X553405Y1328836D02*
G03*
X553483Y1328955I-203J217D01*
G01*
X553287Y1328764D02*
G03*
X553405Y1328836I-117J326D01*
G01*
X553140Y1328740D02*
G03*
X553287Y1328764I5J431D01*
G01*
X552958Y1328778D02*
G03*
X553140Y1328740I179J409D01*
G01*
X552799Y1328890D02*
G03*
X552958Y1328778I372J357D01*
G01*
X552573Y1328697D02*
G03*
X552696Y1328582I571J483D01*
G01*
D02*
G03*
X552833Y1328505I363J487D01*
G01*
D02*
G03*
X553134Y1328447I299J750D01*
G01*
D02*
G03*
X553369Y1328486I-0J738D01*
G01*
D02*
G03*
X553597Y1328602I-294J860D01*
G01*
D02*
G03*
X553695Y1328699I-227J326D01*
G01*
Y1328699D02*
G03*
X553765Y1328837I-455J318D01*
G01*
D02*
G03*
X553807Y1329016I-870J299D01*
G01*
X553807D02*
G03*
X553821Y1329235I-1561J210D01*
G01*
X553821D02*
G03*
X553808Y1329444I-1569J8D01*
G01*
D02*
G03*
X553770Y1329618I-961J-123D01*
G01*
D02*
G03*
X553705Y1329757I-588J-189D01*
G01*
Y1329757D02*
G03*
X553615Y1329861I-381J-240D01*
G01*
D02*
G03*
X553403Y1329991I-512J-597D01*
G01*
D02*
G03*
X553182Y1330035I-222J-547D01*
G01*
D02*
G03*
X552942Y1329990I-5J-643D01*
G01*
D02*
G03*
X552735Y1329858I250J-618D01*
G01*
D02*
G03*
X552591Y1329650I384J-419D01*
G01*
D02*
G03*
X552543Y1329380I672J-258D01*
G01*
X560422Y1328790D02*
G03*
X560646Y1328939I-266J641D01*
G01*
X560157Y1328740D02*
G03*
X560422Y1328790I6J695D01*
G01*
X560036Y1328753D02*
G03*
X560157Y1328740I116J532D01*
G01*
X559937Y1328790D02*
G03*
X560036Y1328753I174J306D01*
G01*
X559872Y1328853D02*
G03*
X559937Y1328790I148J90D01*
G01*
X559851Y1328939D02*
G03*
X559872Y1328853I169J-4D01*
G01*
X559862Y1329000D02*
G03*
X559851Y1328939I134J-58D01*
G01*
X559898Y1329045D02*
G03*
X559862Y1329000I75J-95D01*
G01*
X559957Y1329076D02*
G03*
X559898Y1329045I54J-178D01*
G01*
X560041Y1329091D02*
G03*
X559957Y1329076I28J-375D01*
G01*
X560315Y1329117D02*
G03*
X560492Y1329156I-39J596D01*
G01*
Y1329156D02*
G03*
X560635Y1329244I-177J450D01*
G01*
D02*
G03*
X560730Y1329378I-235J267D01*
G01*
Y1329378D02*
G03*
X560762Y1329556I-438J170D01*
G01*
D02*
G03*
X560721Y1329764I-488J10D01*
G01*
D02*
G03*
X560596Y1329913I-348J-162D01*
G01*
D02*
G03*
X560410Y1330004I-351J-483D01*
G01*
D02*
G03*
X560184Y1330035I-218J-770D01*
G01*
D02*
G03*
X559995Y1330020I-7J-1162D01*
G01*
D02*
G03*
X559836Y1329977I122J-769D01*
G01*
Y1329977D02*
G03*
X559576Y1329824I341J-875D01*
G01*
X559960Y1329700D02*
G03*
X559769Y1329596I398J-962D01*
G01*
X560184Y1329741D02*
G03*
X559960Y1329700I-10J-585D01*
G01*
X560311Y1329727D02*
G03*
X560184Y1329741I-117J-505D01*
G01*
X560392Y1329688D02*
G03*
X560311Y1329727I-121J-144D01*
G01*
X560450Y1329553D02*
G03*
X560392Y1329688I-173J4D01*
G01*
X560439Y1329504D02*
G03*
X560450Y1329553I-105J49D01*
G01*
X560407Y1329459D02*
G03*
X560439Y1329504I-110J113D01*
G01*
X560345Y1329424D02*
G03*
X560407Y1329459I-41J147D01*
G01*
X560245Y1329407D02*
G03*
X560345Y1329424I-24J432D01*
G01*
X559988Y1329389D02*
G03*
X559876Y1329374I49J-764D01*
G01*
Y1329374D02*
G03*
X559781Y1329344I109J-512D01*
G01*
Y1329344D02*
G03*
X559643Y1329240I132J-321D01*
G01*
D02*
G03*
X559565Y1329095I370J-293D01*
G01*
D02*
G03*
X559539Y1328924I515J-166D01*
G01*
D02*
G03*
X559585Y1328722I426J-8D01*
G01*
D02*
G03*
X559725Y1328571I362J197D01*
G01*
D02*
G03*
X559933Y1328478I390J591D01*
G01*
Y1328478D02*
G03*
X560181Y1328447I240J913D01*
G01*
D02*
G03*
X560545Y1328516I6J963D01*
G01*
D02*
G03*
X560864Y1328724I-395J955D01*
G01*
X552883Y1329534D02*
G03*
X552854Y1329380I478J-167D01*
G01*
X552953Y1329648D02*
G03*
X552883Y1329534I225J-218D01*
G01*
X553056Y1329717D02*
G03*
X552953Y1329648I116J-282D01*
G01*
X553182Y1329741D02*
G03*
X553056Y1329717I-4J-330D01*
G01*
X553309D02*
G03*
X553182Y1329741I-123J-315D01*
G01*
X553412Y1329648D02*
G03*
X553309Y1329717I-218J-213D01*
G01*
X553483Y1329534D02*
G03*
X553412Y1329648I-290J-101D01*
G01*
X553509Y1329380D02*
G03*
X553483Y1329534I-496J-6D01*
G01*
X565678Y1329854D02*
G03*
X565497Y1329990I-411J-361D01*
G01*
X565497D02*
G03*
X565277Y1330035I-214J-482D01*
G01*
D02*
G03*
X565145Y1330020I-4J-579D01*
G01*
D02*
G03*
X565032Y1329977I97J-422D01*
G01*
D02*
G03*
X564862Y1329833I265J-486D01*
G01*
D02*
G03*
X564775Y1329638I375J-285D01*
G01*
D02*
G03*
X564757Y1329483I1116J-202D01*
G01*
D02*
G03*
X564752Y1329239I4338J-224D01*
G01*
D02*
G03*
X564757Y1328997I4300J-19D01*
G01*
D02*
G03*
X564775Y1328842I1143J48D01*
G01*
D02*
G03*
X564862Y1328648I452J87D01*
G01*
D02*
G03*
X565032Y1328503I419J323D01*
G01*
D02*
G03*
X565145Y1328461I208J387D01*
G01*
Y1328461D02*
G03*
X565277Y1328447I128J579D01*
G01*
X565277Y1328447D02*
G03*
X565495Y1328496I8J473D01*
G01*
Y1328496D02*
G03*
X565678Y1328629I-351J676D01*
G01*
X565673Y1327382D02*
G03*
X565499Y1327520I-368J-286D01*
G01*
Y1327520D02*
G03*
X565269Y1327565I-220J-504D01*
G01*
Y1327565D02*
G03*
X565091Y1327531I1J-481D01*
G01*
Y1327531D02*
G03*
X564920Y1327428I244J-599D01*
G01*
Y1327428D02*
G03*
X564794Y1327259I270J-334D01*
G01*
X564794D02*
G03*
X564762Y1327151I477J-198D01*
G01*
X564762D02*
G03*
X564752Y1327028I683J-120D01*
G01*
X565086Y1327060D02*
G03*
X565064Y1326920I393J-133D01*
G01*
X565151Y1327165D02*
G03*
X565086Y1327060I201J-198D01*
G01*
X565249Y1327231D02*
G03*
X565151Y1327165I110J-270D01*
G01*
X565369Y1327254D02*
G03*
X565249Y1327231I-4J-316D01*
G01*
X565492D02*
G03*
X565369Y1327254I-118J-306D01*
G01*
X565591Y1327165D02*
G03*
X565492Y1327231I-207J-203D01*
G01*
X565657Y1327060D02*
G03*
X565591Y1327165I-267J-93D01*
G01*
X565678Y1326920D02*
G03*
X565657Y1327060I-415J7D01*
G01*
X560747Y1334437D02*
G03*
X559375Y1334437I-686J1491D01*
G01*
X560747D02*
G03*
X560709Y1334340I31J-68D01*
G01*
X561693Y1331931D02*
G03*
X561791Y1331890I69J28D01*
G01*
X562397Y1332104D02*
G03*
X562326Y1332111I-42J-62D01*
G01*
X563572Y1331309D02*
G03*
X563667Y1331318I42J62D01*
G01*
X564671Y1332322D02*
G03*
X564680Y1332417I-53J53D01*
G01*
X563878Y1333663D02*
G03*
X563885Y1333592I69J-29D01*
G01*
X564417Y1334875D02*
G03*
X564361Y1334830I14J-74D01*
G01*
X565810Y1335144D02*
G03*
X565871Y1335218I-14J74D01*
G01*
Y1336638D02*
G03*
X565810Y1336712I-75J0D01*
G01*
X564361Y1337025D02*
G03*
X564417Y1336980I69J29D01*
G01*
X563885Y1338263D02*
G03*
X563878Y1338192I62J-42D01*
G01*
X564680Y1339439D02*
G03*
X564671Y1339534I-62J42D01*
G01*
X563667Y1340538D02*
G03*
X563572Y1340547I-53J-53D01*
G01*
X562326Y1339745D02*
G03*
X562397Y1339752I29J69D01*
G01*
X561114Y1340283D02*
G03*
X561159Y1340228I74J14D01*
G01*
X560845Y1341677D02*
G03*
X560771Y1341737I-74J-14D01*
G01*
X559351D02*
G03*
X559277Y1341677I0J-75D01*
G01*
X558964Y1340228D02*
G03*
X559009Y1340283I-29J69D01*
G01*
X557726Y1339752D02*
G03*
X557796Y1339745I42J62D01*
G01*
X556550Y1340547D02*
G03*
X556455Y1340538I-42J-62D01*
G01*
X555451Y1339534D02*
G03*
X555442Y1339439I53J-53D01*
G01*
X556244Y1338192D02*
G03*
X556237Y1338263I-69J29D01*
G01*
X555706Y1336980D02*
G03*
X555761Y1337025I-14J74D01*
G01*
X554313Y1336712D02*
G03*
X554252Y1336638I14J-74D01*
G01*
Y1335218D02*
G03*
X554313Y1335144I75J0D01*
G01*
X555761Y1334830D02*
G03*
X555706Y1334875I-69J-29D01*
G01*
X556237Y1333592D02*
G03*
X556244Y1333663I-62J42D01*
G01*
X555442Y1332417D02*
G03*
X555451Y1332322I62J-42D01*
G01*
X556455Y1331318D02*
G03*
X556550Y1331309I53J53D01*
G01*
X557796Y1332111D02*
G03*
X557726Y1332104I-29J-69D01*
G01*
X558331Y1331890D02*
G03*
X558429Y1331931I29J69D01*
G01*
X559413Y1334340D02*
G03*
X559375Y1334437I-69J28D01*
G01*
X556585Y1325996D02*
Y1327547D01*
X556273D02*
X556585D01*
X556273Y1327382D02*
Y1327547D01*
X556267Y1327382D02*
X556273D01*
X555540Y1327446D02*
X555765Y1327177D01*
X556273Y1325996D02*
Y1326929D01*
Y1325996D02*
X556585D01*
X558995D02*
X559319Y1327081D01*
X559325D01*
X559650Y1325996D01*
X559925D01*
X560421Y1327547D01*
X560091D02*
X560421D01*
X559793Y1326461D02*
X560091Y1327547D01*
X559787Y1326461D02*
X559793D01*
X559436Y1327547D02*
X559787Y1326461D01*
X559208Y1327547D02*
X559436D01*
X558858Y1326461D02*
X559208Y1327547D01*
X558851Y1326461D02*
X558858D01*
X558554Y1327547D02*
X558851Y1326461D01*
X558224Y1327547D02*
X558554D01*
X558224D02*
X558720Y1325996D01*
X558995D01*
X563239Y1329123D02*
X564206D01*
X563270Y1328697D02*
X563495Y1328890D01*
X563239Y1329123D02*
Y1329380D01*
X563577Y1325990D02*
Y1326127D01*
X563584D01*
X563577Y1326906D02*
X563997D01*
X563577D02*
Y1327071D01*
X564172Y1327150D02*
X564411Y1327338D01*
X563275Y1325990D02*
Y1327053D01*
Y1325990D02*
X563577D01*
X563551Y1329380D02*
X564206D01*
X563577Y1326536D02*
Y1326649D01*
X563941D01*
X553913Y1328715D02*
X554143Y1328922D01*
X553913Y1329766D02*
X554143Y1329560D01*
X562967Y1328465D02*
Y1330017D01*
X562655D02*
X562967D01*
X562655Y1329851D02*
Y1330017D01*
X562649Y1329851D02*
X562655D01*
X561728Y1328465D02*
Y1329497D01*
Y1328465D02*
X562040D01*
Y1329389D01*
X562655Y1328465D02*
Y1329389D01*
Y1328465D02*
X562967D01*
X557254Y1325990D02*
Y1326127D01*
X557261D01*
X557254Y1326906D02*
X557675D01*
X557254D02*
Y1327071D01*
X557850Y1327150D02*
X558088Y1327338D01*
X556952Y1325990D02*
Y1327053D01*
Y1325990D02*
X557254D01*
X554242Y1326654D02*
X555208D01*
X554272Y1326228D02*
X554497Y1326421D01*
X554242Y1326654D02*
Y1326911D01*
X562913Y1325996D02*
Y1327547D01*
X562601D02*
X562913D01*
X562601Y1327382D02*
Y1327547D01*
X562595Y1327382D02*
X562601D01*
X561867Y1327446D02*
X562092Y1327177D01*
X562601Y1325996D02*
Y1326929D01*
Y1325996D02*
X562913D01*
X554553Y1326911D02*
X555208D01*
X557254Y1326536D02*
Y1326649D01*
X557618D01*
X557783Y1328985D02*
Y1330017D01*
X557471D02*
X557783D01*
X557471Y1329091D02*
Y1330017D01*
X556856Y1329091D02*
Y1330017D01*
X556544D02*
X556856D01*
X556544Y1328465D02*
Y1330017D01*
Y1328465D02*
X556856D01*
Y1328629D01*
X556863D01*
X556190Y1328465D02*
Y1330017D01*
X555878D02*
X556190D01*
X555878Y1329851D02*
Y1330017D01*
X555872Y1329851D02*
X555878D01*
X555144Y1329915D02*
X555369Y1329646D01*
X555878Y1328465D02*
Y1329398D01*
Y1328465D02*
X556190D01*
X560920Y1325996D02*
Y1326157D01*
Y1327382D02*
Y1328174D01*
X560608D02*
X560920D01*
X560608Y1325996D02*
Y1328174D01*
Y1325996D02*
X560920D01*
X552543Y1329123D02*
X553509D01*
X552573Y1328697D02*
X552799Y1328890D01*
X552543Y1329123D02*
Y1329380D01*
X560646Y1328939D02*
X560864Y1328724D01*
X560041Y1329091D02*
X560315Y1329117D01*
X559576Y1329824D02*
X559769Y1329596D01*
X559988Y1329389D02*
X560245Y1329407D01*
X552854Y1329380D02*
X553509D01*
X565990Y1325996D02*
Y1330017D01*
X565678D02*
X565990D01*
X565678Y1329854D02*
Y1330017D01*
X565678Y1327382D02*
X565678Y1328629D01*
X565673Y1327382D02*
X565678D01*
X564752Y1325996D02*
Y1327028D01*
Y1325996D02*
X565064D01*
Y1326920D01*
X565678Y1325996D02*
Y1326920D01*
Y1325996D02*
X565990D01*
X560709Y1334340D02*
X561693Y1331931D01*
X561791Y1331890D02*
X562326Y1332111D01*
X562397Y1332104D02*
X563572Y1331309D01*
X563667Y1331318D02*
X564671Y1332322D01*
X563885Y1333592D02*
X564680Y1332417D01*
X563878Y1333663D02*
X564361Y1334830D01*
X564417Y1334875D02*
X565810Y1335144D01*
X565871Y1335218D02*
Y1336638D01*
X564417Y1336980D02*
X565810Y1336712D01*
X563878Y1338192D02*
X564361Y1337025D01*
X563885Y1338263D02*
X564680Y1339439D01*
X563667Y1340538D02*
X564671Y1339534D01*
X562397Y1339752D02*
X563572Y1340547D01*
X561159Y1340228D02*
X562326Y1339745D01*
X560845Y1341677D02*
X561114Y1340283D01*
X559351Y1341737D02*
X560771D01*
X559009Y1340283D02*
X559277Y1341677D01*
X557796Y1339745D02*
X558964Y1340228D01*
X556550Y1340547D02*
X557726Y1339752D01*
X555451Y1339534D02*
X556455Y1340538D01*
X555442Y1339439D02*
X556237Y1338263D01*
X555761Y1337025D02*
X556244Y1338192D01*
X554313Y1336712D02*
X555706Y1336980D01*
X554252Y1335218D02*
Y1336638D01*
X554313Y1335144D02*
X555706Y1334875D01*
X555761Y1334830D02*
X556244Y1333663D01*
X555442Y1332417D02*
X556237Y1333592D01*
X555451Y1332322D02*
X556455Y1331318D01*
X556550Y1331309D02*
X557726Y1332104D01*
X557796Y1332111D02*
X558331Y1331890D01*
X558429Y1331931D02*
X559413Y1334340D01*
M02*
