G04*
G04 #@! TF.GenerationSoftware,Altium Limited,CircuitStudio,1.5.2 (30)*
G04*
G04 Layer_Physical_Order=2*
G04 Layer_Color=16750950*
%FSLAX25Y25*%
%MOIN*%
G70*
G01*
G75*
%ADD38C,0.01000*%
%ADD45C,0.00800*%
%ADD46C,0.00600*%
%ADD55C,0.04000*%
G04:AMPARAMS|DCode=56|XSize=100mil|YSize=100mil|CornerRadius=0mil|HoleSize=0mil|Usage=FLASHONLY|Rotation=0.000|XOffset=0mil|YOffset=0mil|HoleType=Round|Shape=Relief|Width=10mil|Gap=10mil|Entries=4|*
%AMTHD56*
7,0,0,0.10000,0.08000,0.01000,45*
%
%ADD56THD56*%
%ADD57C,0.08000*%
%ADD58O,0.07937X0.15811*%
%AMTHOVALD59*
21,1,0.07874,0.09937,0,0,270.0*
1,1,0.09937,0.00000,0.03937*
1,1,0.09937,0.00000,-0.03937*
21,0,0.07874,0.07937,0,0,270.0*
1,0,0.07937,0.00000,0.03937*
1,0,0.07937,0.00000,-0.03937*
4,0,4,-0.00354,0.03583,-0.03867,0.07097,-0.03160,0.07804,0.00354,0.04291,-0.00354,0.03583,0.0*
4,0,4,-0.00354,-0.04291,0.03160,-0.07804,0.03867,-0.07097,0.00354,-0.03583,-0.00354,-0.04291,0.0*
4,0,4,-0.00354,0.04291,0.03160,0.07804,0.03867,0.07097,0.00354,0.03583,-0.00354,0.04291,0.0*
4,0,4,-0.00354,-0.03583,-0.03867,-0.07097,-0.03160,-0.07804,0.00354,-0.04291,-0.00354,-0.03583,0.0*
%
%ADD59THOVALD59*%

%ADD60C,0.07800*%
G04:AMPARAMS|DCode=61|XSize=98mil|YSize=98mil|CornerRadius=0mil|HoleSize=0mil|Usage=FLASHONLY|Rotation=0.000|XOffset=0mil|YOffset=0mil|HoleType=Round|Shape=Relief|Width=10mil|Gap=10mil|Entries=4|*
%AMTHD61*
7,0,0,0.09800,0.07800,0.01000,45*
%
%ADD61THD61*%
G04:AMPARAMS|DCode=62|XSize=178.333mil|YSize=178.333mil|CornerRadius=0mil|HoleSize=0mil|Usage=FLASHONLY|Rotation=0.000|XOffset=0mil|YOffset=0mil|HoleType=Round|Shape=Relief|Width=10mil|Gap=10mil|Entries=4|*
%AMTHD62*
7,0,0,0.17833,0.15833,0.01000,45*
%
%ADD62THD62*%
%ADD63C,0.05200*%
%ADD64C,0.06000*%
G04:AMPARAMS|DCode=65|XSize=80mil|YSize=80mil|CornerRadius=0mil|HoleSize=0mil|Usage=FLASHONLY|Rotation=0.000|XOffset=0mil|YOffset=0mil|HoleType=Round|Shape=Relief|Width=10mil|Gap=10mil|Entries=4|*
%AMTHD65*
7,0,0,0.08000,0.06000,0.01000,45*
%
%ADD65THD65*%
G04:AMPARAMS|DCode=66|XSize=72mil|YSize=72mil|CornerRadius=0mil|HoleSize=0mil|Usage=FLASHONLY|Rotation=0.000|XOffset=0mil|YOffset=0mil|HoleType=Round|Shape=Relief|Width=10mil|Gap=10mil|Entries=4|*
%AMTHD66*
7,0,0,0.07200,0.05200,0.01000,45*
%
%ADD66THD66*%
D38*
X308937Y1537126D02*
Y1546000D01*
X702638Y1541063D02*
Y1546000D01*
X308937Y1545000D02*
X486592D01*
X521782D02*
X702638D01*
X308937D02*
X314937Y1543000D01*
X308937Y1545000D02*
X314937Y1547000D01*
X696638D02*
X702638Y1545000D01*
X696638Y1543000D02*
X702638Y1545000D01*
X293189Y1527701D02*
Y1529701D01*
X289252Y1135000D02*
X294189D01*
X293189Y1347845D02*
Y1528701D01*
Y1135000D02*
Y1312656D01*
X291189Y1522701D02*
X293189Y1528701D01*
X295189Y1522701D01*
X293189Y1135000D02*
X295189Y1141000D01*
X291189D02*
X293189Y1135000D01*
X409000Y1137000D02*
X670000D01*
X409000D02*
Y1167500D01*
X350000Y1135000D02*
X401000D01*
Y1137000D02*
Y1167500D01*
X409000D01*
X302500Y1135000D02*
X349700D01*
X308937Y1133563D02*
Y1167500D01*
X345700Y1139000D02*
X349700Y1135000D01*
X670300D02*
X674300Y1139000D01*
X345700D02*
Y1167500D01*
X308937D02*
X345700D01*
X674300Y1139000D02*
Y1167500D01*
X702500D01*
X308937D02*
Y1528701D01*
X702500D01*
Y1167500D02*
Y1528701D01*
X401000Y1135000D02*
Y1167500D01*
X409000Y1135000D02*
Y1167500D01*
X349700Y1135000D02*
X401000D01*
X409000D02*
X670300D01*
X401000Y1167500D02*
X409000D01*
D45*
X639998Y1111248D02*
X638749Y1112498D01*
X636250D01*
X635000Y1111248D01*
Y1106250D01*
X636250Y1105000D01*
X638749D01*
X639998Y1106250D01*
Y1108749D01*
X637499D01*
X642498Y1105000D02*
Y1112498D01*
X647496Y1105000D01*
Y1112498D01*
X649995D02*
Y1105000D01*
X653744D01*
X654993Y1106250D01*
Y1111248D01*
X653744Y1112498D01*
X649995D01*
X402500Y1160500D02*
X406499D01*
X402500Y1157834D01*
X406499D01*
X402500Y1155835D02*
Y1154502D01*
X403166Y1153835D01*
X404499D01*
X405166Y1154502D01*
Y1155835D01*
X404499Y1156501D01*
X403166D01*
X402500Y1155835D01*
X405832Y1151836D02*
X405166D01*
Y1152503D01*
Y1151170D01*
Y1151836D01*
X403166D01*
X402500Y1151170D01*
X405166Y1146504D02*
Y1148504D01*
X404499Y1149170D01*
X403166D01*
X402500Y1148504D01*
Y1146504D01*
X406499Y1145172D02*
X402500D01*
X404499D01*
X405166Y1144505D01*
Y1143172D01*
X404499Y1142506D01*
X402500D01*
D46*
X488193Y1541401D02*
X490192D01*
X489192D01*
Y1547399D01*
X488193Y1546399D01*
X493191D02*
X494191Y1547399D01*
X496190D01*
X497190Y1546399D01*
Y1542401D01*
X496190Y1541401D01*
X494191D01*
X493191Y1542401D01*
Y1546399D01*
X499189D02*
X500189Y1547399D01*
X502188D01*
X503188Y1546399D01*
Y1542401D01*
X502188Y1541401D01*
X500189D01*
X499189Y1542401D01*
Y1546399D01*
X505187Y1541401D02*
Y1542401D01*
X506187D01*
Y1541401D01*
X505187D01*
X510185Y1546399D02*
X511185Y1547399D01*
X513184D01*
X514184Y1546399D01*
Y1542401D01*
X513184Y1541401D01*
X511185D01*
X510185Y1542401D01*
Y1546399D01*
X516184D02*
X517183Y1547399D01*
X519182D01*
X520182Y1546399D01*
Y1542401D01*
X519182Y1541401D01*
X517183D01*
X516184Y1542401D01*
Y1546399D01*
X296788Y1314256D02*
Y1316255D01*
Y1315255D01*
X290790D01*
X291790Y1314256D01*
Y1319254D02*
X290790Y1320254D01*
Y1322253D01*
X291790Y1323253D01*
X295788D01*
X296788Y1322253D01*
Y1320254D01*
X295788Y1319254D01*
X291790D01*
Y1325252D02*
X290790Y1326252D01*
Y1328251D01*
X291790Y1329251D01*
X295788D01*
X296788Y1328251D01*
Y1326252D01*
X295788Y1325252D01*
X291790D01*
X296788Y1331250D02*
X295788D01*
Y1332250D01*
X296788D01*
Y1331250D01*
X291790Y1336248D02*
X290790Y1337248D01*
Y1339247D01*
X291790Y1340247D01*
X295788D01*
X296788Y1339247D01*
Y1337248D01*
X295788Y1336248D01*
X291790D01*
Y1342247D02*
X290790Y1343246D01*
Y1345245D01*
X291790Y1346245D01*
X295788D01*
X296788Y1345245D01*
Y1343246D01*
X295788Y1342247D01*
X291790D01*
D55*
X349700Y1135000D02*
X401000D01*
Y1167500D01*
X409000D01*
Y1135000D02*
Y1167500D01*
Y1135000D02*
X670300D01*
X674300Y1139000D01*
Y1167500D01*
X702500D01*
Y1528701D01*
X308937D02*
X702500D01*
X308937Y1167500D02*
Y1528701D01*
Y1167500D02*
X345700D01*
Y1139000D02*
Y1167500D01*
Y1139000D02*
X349700Y1135000D01*
D56*
X331437Y1475000D02*
D03*
X321437D02*
D03*
X331437Y1515000D02*
D03*
X321437D02*
D03*
X650000Y1366500D02*
D03*
X660000Y1407000D02*
D03*
Y1398000D02*
D03*
Y1389000D02*
D03*
Y1371000D02*
D03*
X665000Y1187500D02*
D03*
Y1177500D02*
D03*
X425000D02*
D03*
X415000D02*
D03*
X355000Y1187500D02*
D03*
Y1177500D02*
D03*
D57*
X331437Y1485000D02*
D03*
X321437D02*
D03*
X331437Y1495000D02*
D03*
X321437D02*
D03*
X331437Y1505000D02*
D03*
X321437D02*
D03*
X326437Y1187500D02*
D03*
Y1177500D02*
D03*
X319000Y1240000D02*
D03*
Y1250000D02*
D03*
X650000Y1375500D02*
D03*
Y1402500D02*
D03*
Y1393500D02*
D03*
Y1384500D02*
D03*
X660000Y1380000D02*
D03*
X670000Y1402500D02*
D03*
Y1393500D02*
D03*
Y1384500D02*
D03*
Y1375500D02*
D03*
Y1366500D02*
D03*
X655000Y1187500D02*
D03*
Y1177500D02*
D03*
X645000Y1187500D02*
D03*
Y1177500D02*
D03*
X635000Y1187500D02*
D03*
Y1177500D02*
D03*
X625000Y1187500D02*
D03*
Y1177500D02*
D03*
X615000Y1187500D02*
D03*
Y1177500D02*
D03*
X605000Y1187500D02*
D03*
Y1177500D02*
D03*
X595000Y1187500D02*
D03*
Y1177500D02*
D03*
X585000Y1187500D02*
D03*
Y1177500D02*
D03*
X575000Y1187500D02*
D03*
Y1177500D02*
D03*
X565000Y1187500D02*
D03*
Y1177500D02*
D03*
X555000Y1187500D02*
D03*
Y1177500D02*
D03*
X545000Y1187500D02*
D03*
Y1177500D02*
D03*
X535000Y1187500D02*
D03*
Y1177500D02*
D03*
X525000Y1187500D02*
D03*
Y1177500D02*
D03*
X515000Y1187500D02*
D03*
Y1177500D02*
D03*
X505000Y1187500D02*
D03*
Y1177500D02*
D03*
X495000Y1187500D02*
D03*
Y1177500D02*
D03*
X485000Y1187500D02*
D03*
Y1177500D02*
D03*
X475000Y1187500D02*
D03*
Y1177500D02*
D03*
X465000Y1187500D02*
D03*
Y1177500D02*
D03*
X455000Y1187500D02*
D03*
Y1177500D02*
D03*
X445000Y1187500D02*
D03*
Y1177500D02*
D03*
X435000Y1187500D02*
D03*
Y1177500D02*
D03*
X425000Y1187500D02*
D03*
X415000D02*
D03*
X405000D02*
D03*
Y1177500D02*
D03*
X395000Y1187500D02*
D03*
Y1177500D02*
D03*
X385000Y1187500D02*
D03*
Y1177500D02*
D03*
X375000Y1187500D02*
D03*
Y1177500D02*
D03*
X365000Y1187500D02*
D03*
Y1177500D02*
D03*
D58*
X361437Y1215000D02*
D03*
D59*
X337815D02*
D03*
D60*
X410000Y1362500D02*
D03*
X412500Y1505000D02*
D03*
D61*
X611437Y1232500D02*
D03*
X410000Y1352500D02*
D03*
X412500Y1495000D02*
D03*
D62*
X660000Y1434667D02*
D03*
Y1336333D02*
D03*
D63*
X361000Y1500500D02*
D03*
X368937Y1475000D02*
D03*
X341437Y1492500D02*
D03*
X504542Y1451260D02*
D03*
X540500Y1431500D02*
D03*
X541500Y1408500D02*
D03*
X511614Y1385886D02*
D03*
X493500Y1387750D02*
D03*
X473343Y1412658D02*
D03*
X473374Y1430374D02*
D03*
X430000Y1392500D02*
D03*
X517500Y1417500D02*
D03*
X526968Y1396968D02*
D03*
X512000Y1450000D02*
D03*
X495000D02*
D03*
X502500Y1430000D02*
D03*
X453937Y1495000D02*
D03*
X473937D02*
D03*
X454937Y1510000D02*
D03*
X502937Y1516000D02*
D03*
Y1521000D02*
D03*
X487437Y1488500D02*
D03*
Y1484000D02*
D03*
X490437Y1479500D02*
D03*
X500437Y1491000D02*
D03*
X398937Y1470000D02*
D03*
X383937D02*
D03*
X326437Y1447500D02*
D03*
X318937D02*
D03*
X363000Y1435000D02*
D03*
X615000Y1524882D02*
D03*
X610000D02*
D03*
X605000D02*
D03*
X675000Y1454000D02*
D03*
X620000D02*
D03*
X615000D02*
D03*
X610000D02*
D03*
X605000D02*
D03*
X600000D02*
D03*
X407500Y1315000D02*
D03*
X402500D02*
D03*
X397500D02*
D03*
X392500D02*
D03*
X400000Y1327500D02*
D03*
X391500Y1324000D02*
D03*
X377500Y1315000D02*
D03*
X372500D02*
D03*
Y1425000D02*
D03*
X326500Y1427000D02*
D03*
X318500D02*
D03*
X434500Y1369000D02*
D03*
X444500D02*
D03*
X322500Y1437000D02*
D03*
X365500Y1453000D02*
D03*
X371500Y1465000D02*
D03*
X445000Y1375500D02*
D03*
X434500D02*
D03*
X393937Y1393000D02*
D03*
X625000Y1435000D02*
D03*
Y1425000D02*
D03*
Y1415000D02*
D03*
Y1405000D02*
D03*
Y1395000D02*
D03*
Y1385000D02*
D03*
Y1375000D02*
D03*
Y1365000D02*
D03*
Y1355000D02*
D03*
Y1345000D02*
D03*
Y1335000D02*
D03*
X469500Y1474500D02*
D03*
X496000Y1472000D02*
D03*
X348937Y1505000D02*
D03*
Y1495000D02*
D03*
X537598Y1385098D02*
D03*
X481850Y1450000D02*
D03*
X417500Y1432500D02*
D03*
X557500Y1367500D02*
D03*
X343091Y1395031D02*
D03*
X362933Y1412496D02*
D03*
X475500Y1402000D02*
D03*
X342500Y1437000D02*
D03*
X426181Y1415000D02*
D03*
X402500Y1502500D02*
D03*
X427500Y1440000D02*
D03*
X439468Y1412500D02*
D03*
X577500Y1421500D02*
D03*
X464468Y1472500D02*
D03*
X348500Y1510681D02*
D03*
Y1476819D02*
D03*
X563500Y1370500D02*
D03*
X577000Y1395500D02*
D03*
X583031Y1389468D02*
D03*
X453000Y1431000D02*
D03*
X518000Y1473000D02*
D03*
X452500Y1412500D02*
D03*
X562500Y1414000D02*
D03*
X559500Y1429500D02*
D03*
X562000Y1421500D02*
D03*
X540000Y1452500D02*
D03*
X390410Y1497000D02*
D03*
X430000Y1462500D02*
D03*
X339937Y1407500D02*
D03*
X371937Y1397500D02*
D03*
Y1402500D02*
D03*
X385437Y1400000D02*
D03*
X323437Y1397500D02*
D03*
Y1390000D02*
D03*
X407500Y1415000D02*
D03*
X456500Y1369500D02*
D03*
X591500Y1376500D02*
D03*
X577500Y1355000D02*
D03*
X435000Y1447500D02*
D03*
X437500Y1457500D02*
D03*
X400000Y1457618D02*
D03*
X404468Y1447500D02*
D03*
D64*
X317087Y1291850D02*
D03*
X316437Y1305000D02*
D03*
X318937Y1210000D02*
D03*
Y1217500D02*
D03*
Y1225000D02*
D03*
X675000Y1222500D02*
D03*
X690000Y1217500D02*
D03*
X328937Y1370000D02*
D03*
X343937D02*
D03*
X561437Y1512500D02*
D03*
X412937Y1223563D02*
D03*
X380000Y1355000D02*
D03*
X370000D02*
D03*
X360000D02*
D03*
X695000Y1321000D02*
D03*
X440000Y1290150D02*
D03*
X687437Y1475437D02*
D03*
X667500Y1310000D02*
D03*
X467500Y1242500D02*
D03*
X425000Y1297500D02*
D03*
X472500Y1247500D02*
D03*
X477500Y1242500D02*
D03*
X680000Y1297750D02*
D03*
X587500Y1287500D02*
D03*
X687500Y1300250D02*
D03*
X517500Y1300000D02*
D03*
X602500D02*
D03*
X457500Y1242500D02*
D03*
X462500Y1247500D02*
D03*
X499500Y1365000D02*
D03*
X336437Y1370000D02*
D03*
X321437D02*
D03*
X524000Y1366500D02*
D03*
X361500Y1485500D02*
D03*
X567516Y1461000D02*
D03*
X415000Y1247500D02*
D03*
X430000Y1252500D02*
D03*
X500000Y1247500D02*
D03*
X585000D02*
D03*
X670000Y1247750D02*
D03*
X517500Y1255000D02*
D03*
X602500Y1254201D02*
D03*
X687500Y1255250D02*
D03*
X610000Y1222500D02*
D03*
X487500Y1242500D02*
D03*
X537500Y1247500D02*
D03*
X542500D02*
D03*
X547500D02*
D03*
X552500D02*
D03*
X557500D02*
D03*
X562500D02*
D03*
X567500D02*
D03*
X572500D02*
D03*
X657500Y1247750D02*
D03*
X652500D02*
D03*
X647500D02*
D03*
X642500D02*
D03*
X637500D02*
D03*
X632500D02*
D03*
X627500D02*
D03*
X622500D02*
D03*
X334114Y1257677D02*
D03*
X356437Y1242500D02*
D03*
X492500Y1237500D02*
D03*
X482500D02*
D03*
X662500Y1202500D02*
D03*
X497500Y1230000D02*
D03*
X465000Y1220000D02*
D03*
D65*
X670020Y1210020D02*
D03*
X532437Y1512500D02*
D03*
X447500Y1247500D02*
D03*
X687437Y1505437D02*
D03*
X438937Y1223563D02*
D03*
X551516Y1461000D02*
D03*
X440000Y1279350D02*
D03*
X605000Y1310000D02*
D03*
X620000Y1287750D02*
D03*
X517500Y1277500D02*
D03*
X437500Y1242250D02*
D03*
X602500Y1277500D02*
D03*
X362500Y1250000D02*
D03*
X365000Y1287500D02*
D03*
X438299Y1310000D02*
D03*
X581000Y1222500D02*
D03*
X523299Y1242250D02*
D03*
X524850Y1310000D02*
D03*
X447500Y1270000D02*
D03*
X450000Y1287500D02*
D03*
X532500Y1270000D02*
D03*
X535000Y1287500D02*
D03*
X695000Y1310000D02*
D03*
X687500Y1277500D02*
D03*
X617500Y1270250D02*
D03*
X693299Y1242500D02*
D03*
X607799Y1242250D02*
D03*
X437500Y1268299D02*
D03*
X373740Y1333620D02*
D03*
Y1327740D02*
D03*
X341437Y1242500D02*
D03*
X323937Y1260000D02*
D03*
X316437Y1315000D02*
D03*
X324055Y1315118D02*
D03*
D66*
X405000Y1495000D02*
D03*
X411437Y1457500D02*
D03*
X503937Y1507500D02*
D03*
X454937Y1505000D02*
D03*
X383000Y1431000D02*
D03*
X600000Y1524882D02*
D03*
X625000Y1454000D02*
D03*
X435374Y1510504D02*
D03*
X552500Y1367500D02*
D03*
X412000Y1465000D02*
D03*
X497500Y1407500D02*
D03*
X522500Y1430000D02*
D03*
X480000Y1392500D02*
D03*
X512500Y1407500D02*
D03*
X530000Y1447500D02*
D03*
X577500Y1414000D02*
D03*
X402500Y1432500D02*
D03*
X350315Y1405000D02*
D03*
X331437Y1387500D02*
D03*
X430000Y1397500D02*
D03*
X502500Y1417500D02*
D03*
X490000Y1412500D02*
D03*
X502500Y1437500D02*
D03*
X524500Y1404500D02*
D03*
X502500Y1392500D02*
D03*
X435531Y1412500D02*
D03*
X460531Y1472500D02*
D03*
X469500Y1369000D02*
D03*
X507000Y1472500D02*
D03*
X492500Y1422500D02*
D03*
X527500Y1437500D02*
D03*
X510000Y1430000D02*
D03*
X486024Y1386476D02*
D03*
X500000Y1387500D02*
D03*
X532500Y1357500D02*
D03*
X552500Y1375531D02*
D03*
X343000Y1430996D02*
D03*
X517000Y1453000D02*
D03*
X507677Y1453677D02*
D03*
X491500Y1452500D02*
D03*
X521000Y1453000D02*
D03*
X559500Y1454500D02*
D03*
X539500Y1444500D02*
D03*
Y1426500D02*
D03*
X525500Y1386500D02*
D03*
X473500Y1444500D02*
D03*
Y1438500D02*
D03*
X457500Y1458500D02*
D03*
M02*
