G04*
G04 #@! TF.GenerationSoftware,Altium Limited,CircuitStudio,1.5.2 (30)*
G04*
G04 Layer_Color=128*
%FSLAX25Y25*%
%MOIN*%
G70*
G01*
G75*
%ADD38C,0.01000*%
%ADD45C,0.00800*%
%ADD46C,0.00600*%
%ADD117C,0.00500*%
D38*
X308937Y1537126D02*
Y1546000D01*
X702638Y1541063D02*
Y1546000D01*
X308937Y1545000D02*
X486592D01*
X521782D02*
X702638D01*
X308937D02*
X314937Y1543000D01*
X308937Y1545000D02*
X314937Y1547000D01*
X696638D02*
X702638Y1545000D01*
X696638Y1543000D02*
X702638Y1545000D01*
X293189Y1527701D02*
Y1529701D01*
X289252Y1135000D02*
X294189D01*
X293189Y1347845D02*
Y1528701D01*
Y1135000D02*
Y1312656D01*
X291189Y1522701D02*
X293189Y1528701D01*
X295189Y1522701D01*
X293189Y1135000D02*
X295189Y1141000D01*
X291189D02*
X293189Y1135000D01*
X409000Y1137000D02*
X670000D01*
X409000D02*
Y1167500D01*
X350000Y1135000D02*
X401000D01*
Y1137000D02*
Y1167500D01*
X409000D01*
X302500Y1135000D02*
X349700D01*
X308937Y1133563D02*
Y1167500D01*
X345700Y1139000D02*
X349700Y1135000D01*
X670300D02*
X674300Y1139000D01*
X345700D02*
Y1167500D01*
X308937D02*
X345700D01*
X674300Y1139000D02*
Y1167500D01*
X702500D01*
X308937D02*
Y1528701D01*
X702500D01*
Y1167500D02*
Y1528701D01*
X401000Y1135000D02*
Y1167500D01*
X409000Y1135000D02*
Y1167500D01*
X349700Y1135000D02*
X401000D01*
X409000D02*
X670300D01*
X401000Y1167500D02*
X409000D01*
D45*
X402500Y1160500D02*
X406499D01*
X402500Y1157834D01*
X406499D01*
X402500Y1155835D02*
Y1154502D01*
X403166Y1153835D01*
X404499D01*
X405166Y1154502D01*
Y1155835D01*
X404499Y1156501D01*
X403166D01*
X402500Y1155835D01*
X405832Y1151836D02*
X405166D01*
Y1152503D01*
Y1151170D01*
Y1151836D01*
X403166D01*
X402500Y1151170D01*
X405166Y1146504D02*
Y1148504D01*
X404499Y1149170D01*
X403166D01*
X402500Y1148504D01*
Y1146504D01*
X406499Y1145172D02*
X402500D01*
X404499D01*
X405166Y1144505D01*
Y1143172D01*
X404499Y1142506D01*
X402500D01*
X635000Y1112498D02*
Y1105000D01*
X638749D01*
X639998Y1106250D01*
Y1111248D01*
X638749Y1112498D01*
X635000D01*
X642498Y1109998D02*
Y1105000D01*
Y1107499D01*
X643747Y1108749D01*
X644997Y1109998D01*
X646246D01*
X649995Y1105000D02*
X652494D01*
X651245D01*
Y1109998D01*
X649995D01*
X656243Y1105000D02*
X658742D01*
X657493D01*
Y1112498D01*
X656243D01*
X662491Y1105000D02*
X664990D01*
X663741D01*
Y1112498D01*
X662491D01*
X681235Y1111248D02*
X679986Y1112498D01*
X677486D01*
X676237Y1111248D01*
Y1106250D01*
X677486Y1105000D01*
X679986D01*
X681235Y1106250D01*
Y1108749D01*
X678736D01*
X683734Y1109998D02*
Y1106250D01*
X684984Y1105000D01*
X688733D01*
Y1109998D01*
X691232Y1105000D02*
X693731D01*
X692481D01*
Y1109998D01*
X691232D01*
X702478Y1112498D02*
Y1105000D01*
X698729D01*
X697480Y1106250D01*
Y1108749D01*
X698729Y1109998D01*
X702478D01*
X708726Y1105000D02*
X706227D01*
X704977Y1106250D01*
Y1108749D01*
X706227Y1109998D01*
X708726D01*
X709976Y1108749D01*
Y1107499D01*
X704977D01*
D46*
X488193Y1541401D02*
X490192D01*
X489192D01*
Y1547399D01*
X488193Y1546399D01*
X493191D02*
X494191Y1547399D01*
X496190D01*
X497190Y1546399D01*
Y1542401D01*
X496190Y1541401D01*
X494191D01*
X493191Y1542401D01*
Y1546399D01*
X499189D02*
X500189Y1547399D01*
X502188D01*
X503188Y1546399D01*
Y1542401D01*
X502188Y1541401D01*
X500189D01*
X499189Y1542401D01*
Y1546399D01*
X505187Y1541401D02*
Y1542401D01*
X506187D01*
Y1541401D01*
X505187D01*
X510185Y1546399D02*
X511185Y1547399D01*
X513184D01*
X514184Y1546399D01*
Y1542401D01*
X513184Y1541401D01*
X511185D01*
X510185Y1542401D01*
Y1546399D01*
X516184D02*
X517183Y1547399D01*
X519182D01*
X520182Y1546399D01*
Y1542401D01*
X519182Y1541401D01*
X517183D01*
X516184Y1542401D01*
Y1546399D01*
X296788Y1314256D02*
Y1316255D01*
Y1315255D01*
X290790D01*
X291790Y1314256D01*
Y1319254D02*
X290790Y1320254D01*
Y1322253D01*
X291790Y1323253D01*
X295788D01*
X296788Y1322253D01*
Y1320254D01*
X295788Y1319254D01*
X291790D01*
Y1325252D02*
X290790Y1326252D01*
Y1328251D01*
X291790Y1329251D01*
X295788D01*
X296788Y1328251D01*
Y1326252D01*
X295788Y1325252D01*
X291790D01*
X296788Y1331250D02*
X295788D01*
Y1332250D01*
X296788D01*
Y1331250D01*
X291790Y1336248D02*
X290790Y1337248D01*
Y1339247D01*
X291790Y1340247D01*
X295788D01*
X296788Y1339247D01*
Y1337248D01*
X295788Y1336248D01*
X291790D01*
Y1342247D02*
X290790Y1343246D01*
Y1345245D01*
X291790Y1346245D01*
X295788D01*
X296788Y1345245D01*
Y1343246D01*
X295788Y1342247D01*
X291790D01*
D117*
X329437Y1475000D02*
X333437D01*
X331437Y1473000D02*
Y1477000D01*
X319437Y1475000D02*
X323437D01*
X321437Y1473000D02*
Y1477000D01*
X329437Y1485000D02*
X333437D01*
X331437Y1483000D02*
Y1487000D01*
X319437Y1485000D02*
X323437D01*
X321437Y1483000D02*
Y1487000D01*
X329437Y1495000D02*
X333437D01*
X331437Y1493000D02*
Y1497000D01*
X319437Y1495000D02*
X323437D01*
X321437Y1493000D02*
Y1497000D01*
X329437Y1505000D02*
X333437D01*
X331437Y1503000D02*
Y1507000D01*
X319437Y1505000D02*
X323437D01*
X321437Y1503000D02*
Y1507000D01*
X329437Y1515000D02*
X333437D01*
X331437Y1513000D02*
Y1517000D01*
X319437Y1515000D02*
X323437D01*
X321437Y1513000D02*
Y1517000D01*
X359469Y1215000D02*
X363405D01*
X361437Y1213031D02*
Y1216969D01*
X335846Y1215000D02*
X339783D01*
X337815Y1213031D02*
Y1216969D01*
X324437Y1187500D02*
X328437D01*
X326437Y1185500D02*
Y1189500D01*
X324437Y1177500D02*
X328437D01*
X326437Y1175500D02*
Y1179500D01*
X408100Y1362500D02*
X411900D01*
X410000Y1360600D02*
Y1364400D01*
X609537Y1232500D02*
X613337D01*
X611437Y1230600D02*
Y1234400D01*
X317000Y1240000D02*
X321000D01*
X319000Y1238000D02*
Y1242000D01*
X317000Y1250000D02*
X321000D01*
X319000Y1248000D02*
Y1252000D01*
X648000Y1375500D02*
X652000D01*
X650000Y1373500D02*
Y1377500D01*
X648000Y1402500D02*
X652000D01*
X650000Y1400500D02*
Y1404500D01*
X648000Y1393500D02*
X652000D01*
X650000Y1391500D02*
Y1395500D01*
X648000Y1384500D02*
X652000D01*
X650000Y1382500D02*
Y1386500D01*
X648000Y1366500D02*
X652000D01*
X650000Y1364500D02*
Y1368500D01*
X658000Y1407000D02*
X662000D01*
X660000Y1405000D02*
Y1409000D01*
X658000Y1398000D02*
X662000D01*
X660000Y1396000D02*
Y1400000D01*
X658000Y1389000D02*
X662000D01*
X660000Y1387000D02*
Y1391000D01*
X658000Y1380000D02*
X662000D01*
X660000Y1378000D02*
Y1382000D01*
X658000Y1371000D02*
X662000D01*
X660000Y1369000D02*
Y1373000D01*
X668000Y1402500D02*
X672000D01*
X670000Y1400500D02*
Y1404500D01*
X668000Y1393500D02*
X672000D01*
X670000Y1391500D02*
Y1395500D01*
X668000Y1384500D02*
X672000D01*
X670000Y1382500D02*
Y1386500D01*
X668000Y1375500D02*
X672000D01*
X670000Y1373500D02*
Y1377500D01*
X668000Y1366500D02*
X672000D01*
X670000Y1364500D02*
Y1368500D01*
X654083Y1434667D02*
X665917D01*
X660000Y1428750D02*
Y1440583D01*
X654083Y1336333D02*
X665917D01*
X660000Y1330417D02*
Y1342250D01*
X408100Y1352500D02*
X411900D01*
X410000Y1350600D02*
Y1354400D01*
X410600Y1495000D02*
X414400D01*
X412500Y1493100D02*
Y1496900D01*
X410600Y1505000D02*
X414400D01*
X412500Y1503100D02*
Y1506900D01*
X663000Y1187500D02*
X667000D01*
X665000Y1185500D02*
Y1189500D01*
X663000Y1177500D02*
X667000D01*
X665000Y1175500D02*
Y1179500D01*
X653000Y1187500D02*
X657000D01*
X655000Y1185500D02*
Y1189500D01*
X653000Y1177500D02*
X657000D01*
X655000Y1175500D02*
Y1179500D01*
X643000Y1187500D02*
X647000D01*
X645000Y1185500D02*
Y1189500D01*
X643000Y1177500D02*
X647000D01*
X645000Y1175500D02*
Y1179500D01*
X633000Y1187500D02*
X637000D01*
X635000Y1185500D02*
Y1189500D01*
X633000Y1177500D02*
X637000D01*
X635000Y1175500D02*
Y1179500D01*
X623000Y1187500D02*
X627000D01*
X625000Y1185500D02*
Y1189500D01*
X623000Y1177500D02*
X627000D01*
X625000Y1175500D02*
Y1179500D01*
X613000Y1187500D02*
X617000D01*
X615000Y1185500D02*
Y1189500D01*
X613000Y1177500D02*
X617000D01*
X615000Y1175500D02*
Y1179500D01*
X603000Y1187500D02*
X607000D01*
X605000Y1185500D02*
Y1189500D01*
X603000Y1177500D02*
X607000D01*
X605000Y1175500D02*
Y1179500D01*
X593000Y1187500D02*
X597000D01*
X595000Y1185500D02*
Y1189500D01*
X593000Y1177500D02*
X597000D01*
X595000Y1175500D02*
Y1179500D01*
X583000Y1187500D02*
X587000D01*
X585000Y1185500D02*
Y1189500D01*
X583000Y1177500D02*
X587000D01*
X585000Y1175500D02*
Y1179500D01*
X573000Y1187500D02*
X577000D01*
X575000Y1185500D02*
Y1189500D01*
X573000Y1177500D02*
X577000D01*
X575000Y1175500D02*
Y1179500D01*
X563000Y1187500D02*
X567000D01*
X565000Y1185500D02*
Y1189500D01*
X563000Y1177500D02*
X567000D01*
X565000Y1175500D02*
Y1179500D01*
X553000Y1187500D02*
X557000D01*
X555000Y1185500D02*
Y1189500D01*
X553000Y1177500D02*
X557000D01*
X555000Y1175500D02*
Y1179500D01*
X543000Y1187500D02*
X547000D01*
X545000Y1185500D02*
Y1189500D01*
X543000Y1177500D02*
X547000D01*
X545000Y1175500D02*
Y1179500D01*
X533000Y1187500D02*
X537000D01*
X535000Y1185500D02*
Y1189500D01*
X533000Y1177500D02*
X537000D01*
X535000Y1175500D02*
Y1179500D01*
X523000Y1187500D02*
X527000D01*
X525000Y1185500D02*
Y1189500D01*
X523000Y1177500D02*
X527000D01*
X525000Y1175500D02*
Y1179500D01*
X513000Y1187500D02*
X517000D01*
X515000Y1185500D02*
Y1189500D01*
X513000Y1177500D02*
X517000D01*
X515000Y1175500D02*
Y1179500D01*
X503000Y1187500D02*
X507000D01*
X505000Y1185500D02*
Y1189500D01*
X503000Y1177500D02*
X507000D01*
X505000Y1175500D02*
Y1179500D01*
X493000Y1187500D02*
X497000D01*
X495000Y1185500D02*
Y1189500D01*
X493000Y1177500D02*
X497000D01*
X495000Y1175500D02*
Y1179500D01*
X483000Y1187500D02*
X487000D01*
X485000Y1185500D02*
Y1189500D01*
X483000Y1177500D02*
X487000D01*
X485000Y1175500D02*
Y1179500D01*
X473000Y1187500D02*
X477000D01*
X475000Y1185500D02*
Y1189500D01*
X473000Y1177500D02*
X477000D01*
X475000Y1175500D02*
Y1179500D01*
X463000Y1187500D02*
X467000D01*
X465000Y1185500D02*
Y1189500D01*
X463000Y1177500D02*
X467000D01*
X465000Y1175500D02*
Y1179500D01*
X453000Y1187500D02*
X457000D01*
X455000Y1185500D02*
Y1189500D01*
X453000Y1177500D02*
X457000D01*
X455000Y1175500D02*
Y1179500D01*
X443000Y1187500D02*
X447000D01*
X445000Y1185500D02*
Y1189500D01*
X443000Y1177500D02*
X447000D01*
X445000Y1175500D02*
Y1179500D01*
X433000Y1187500D02*
X437000D01*
X435000Y1185500D02*
Y1189500D01*
X433000Y1177500D02*
X437000D01*
X435000Y1175500D02*
Y1179500D01*
X423000Y1187500D02*
X427000D01*
X425000Y1185500D02*
Y1189500D01*
X423000Y1177500D02*
X427000D01*
X425000Y1175500D02*
Y1179500D01*
X413000Y1187500D02*
X417000D01*
X415000Y1185500D02*
Y1189500D01*
X413000Y1177500D02*
X417000D01*
X415000Y1175500D02*
Y1179500D01*
X403000Y1187500D02*
X407000D01*
X405000Y1185500D02*
Y1189500D01*
X403000Y1177500D02*
X407000D01*
X405000Y1175500D02*
Y1179500D01*
X393000Y1187500D02*
X397000D01*
X395000Y1185500D02*
Y1189500D01*
X393000Y1177500D02*
X397000D01*
X395000Y1175500D02*
Y1179500D01*
X383000Y1187500D02*
X387000D01*
X385000Y1185500D02*
Y1189500D01*
X383000Y1177500D02*
X387000D01*
X385000Y1175500D02*
Y1179500D01*
X373000Y1187500D02*
X377000D01*
X375000Y1185500D02*
Y1189500D01*
X373000Y1177500D02*
X377000D01*
X375000Y1175500D02*
Y1179500D01*
X363000Y1187500D02*
X367000D01*
X365000Y1185500D02*
Y1189500D01*
X363000Y1177500D02*
X367000D01*
X365000Y1175500D02*
Y1179500D01*
X353000Y1187500D02*
X357000D01*
X355000Y1185500D02*
Y1189500D01*
X353000Y1177500D02*
X357000D01*
X355000Y1175500D02*
Y1179500D01*
X360400Y1500500D02*
X361600D01*
X361000Y1499900D02*
Y1501100D01*
X368337Y1475000D02*
X369537D01*
X368937Y1474400D02*
Y1475600D01*
X340837Y1492500D02*
X342037D01*
X341437Y1491900D02*
Y1493100D01*
X316087Y1291850D02*
X318087D01*
X317087Y1290850D02*
Y1292850D01*
X315437Y1305000D02*
X317437D01*
X316437Y1304000D02*
Y1306000D01*
X317937Y1210000D02*
X319937D01*
X318937Y1209000D02*
Y1211000D01*
X317937Y1217500D02*
X319937D01*
X318937Y1216500D02*
Y1218500D01*
X317937Y1225000D02*
X319937D01*
X318937Y1224000D02*
Y1226000D01*
X674000Y1222500D02*
X676000D01*
X675000Y1221500D02*
Y1223500D01*
X669020Y1210020D02*
X671020D01*
X670020Y1209020D02*
Y1211020D01*
X689000Y1217500D02*
X691000D01*
X690000Y1216500D02*
Y1218500D01*
X327937Y1370000D02*
X329937D01*
X328937Y1369000D02*
Y1371000D01*
X342937Y1370000D02*
X344937D01*
X343937Y1369000D02*
Y1371000D01*
X404400Y1495000D02*
X405600D01*
X405000Y1494400D02*
Y1495600D01*
X531437Y1512500D02*
X533437D01*
X532437Y1511500D02*
Y1513500D01*
X560437Y1512500D02*
X562437D01*
X561437Y1511500D02*
Y1513500D01*
X411937Y1223563D02*
X413937D01*
X412937Y1222563D02*
Y1224563D01*
X379000Y1355000D02*
X381000D01*
X380000Y1354000D02*
Y1356000D01*
X369000Y1355000D02*
X371000D01*
X370000Y1354000D02*
Y1356000D01*
X359000Y1355000D02*
X361000D01*
X360000Y1354000D02*
Y1356000D01*
X503942Y1451260D02*
X505142D01*
X504542Y1450660D02*
Y1451860D01*
X539900Y1431500D02*
X541100D01*
X540500Y1430900D02*
Y1432100D01*
X540900Y1408500D02*
X542100D01*
X541500Y1407900D02*
Y1409100D01*
X511014Y1385886D02*
X512214D01*
X511614Y1385286D02*
Y1386486D01*
X492900Y1387750D02*
X494100D01*
X493500Y1387150D02*
Y1388350D01*
X472743Y1412658D02*
X473943D01*
X473343Y1412057D02*
Y1413258D01*
X472774Y1430374D02*
X473974D01*
X473374Y1429774D02*
Y1430974D01*
X429400Y1392500D02*
X430600D01*
X430000Y1391900D02*
Y1393100D01*
X516900Y1417500D02*
X518100D01*
X517500Y1416900D02*
Y1418100D01*
X526369Y1396968D02*
X527568D01*
X526968Y1396368D02*
Y1397568D01*
X511400Y1450000D02*
X512600D01*
X512000Y1449400D02*
Y1450600D01*
X494400Y1450000D02*
X495600D01*
X495000Y1449400D02*
Y1450600D01*
X501900Y1430000D02*
X503100D01*
X502500Y1429400D02*
Y1430600D01*
X410837Y1457500D02*
X412037D01*
X411437Y1456900D02*
Y1458100D01*
X503337Y1507500D02*
X504537D01*
X503937Y1506900D02*
Y1508100D01*
X453337Y1495000D02*
X454537D01*
X453937Y1494400D02*
Y1495600D01*
X473337Y1495000D02*
X474537D01*
X473937Y1494400D02*
Y1495600D01*
X454337Y1510000D02*
X455537D01*
X454937Y1509400D02*
Y1510600D01*
X502337Y1516000D02*
X503537D01*
X502937Y1515400D02*
Y1516600D01*
X454337Y1505000D02*
X455537D01*
X454937Y1504400D02*
Y1505600D01*
X502337Y1521000D02*
X503537D01*
X502937Y1520400D02*
Y1521600D01*
X486837Y1488500D02*
X488037D01*
X487437Y1487900D02*
Y1489100D01*
X486837Y1484000D02*
X488037D01*
X487437Y1483400D02*
Y1484600D01*
X489837Y1479500D02*
X491037D01*
X490437Y1478900D02*
Y1480100D01*
X499837Y1491000D02*
X501037D01*
X500437Y1490400D02*
Y1491600D01*
X398337Y1470000D02*
X399537D01*
X398937Y1469400D02*
Y1470600D01*
X383337Y1470000D02*
X384537D01*
X383937Y1469400D02*
Y1470600D01*
X325837Y1447500D02*
X327037D01*
X326437Y1446900D02*
Y1448100D01*
X318337Y1447500D02*
X319537D01*
X318937Y1446900D02*
Y1448100D01*
X446500Y1247500D02*
X448500D01*
X447500Y1246500D02*
Y1248500D01*
X694000Y1321000D02*
X696000D01*
X695000Y1320000D02*
Y1322000D01*
X382400Y1431000D02*
X383600D01*
X383000Y1430400D02*
Y1431600D01*
X362400Y1435000D02*
X363600D01*
X363000Y1434400D02*
Y1435600D01*
X614400Y1524882D02*
X615600D01*
X615000Y1524282D02*
Y1525482D01*
X609400Y1524882D02*
X610600D01*
X610000Y1524282D02*
Y1525482D01*
X604400Y1524882D02*
X605600D01*
X605000Y1524282D02*
Y1525482D01*
X599400Y1524882D02*
X600600D01*
X600000Y1524282D02*
Y1525482D01*
X674400Y1454000D02*
X675600D01*
X675000Y1453400D02*
Y1454600D01*
X624400Y1454000D02*
X625600D01*
X625000Y1453400D02*
Y1454600D01*
X619400Y1454000D02*
X620600D01*
X620000Y1453400D02*
Y1454600D01*
X614400Y1454000D02*
X615600D01*
X615000Y1453400D02*
Y1454600D01*
X609400Y1454000D02*
X610600D01*
X610000Y1453400D02*
Y1454600D01*
X604400Y1454000D02*
X605600D01*
X605000Y1453400D02*
Y1454600D01*
X599400Y1454000D02*
X600600D01*
X600000Y1453400D02*
Y1454600D01*
X406900Y1315000D02*
X408100D01*
X407500Y1314400D02*
Y1315600D01*
X401900Y1315000D02*
X403100D01*
X402500Y1314400D02*
Y1315600D01*
X396900Y1315000D02*
X398100D01*
X397500Y1314400D02*
Y1315600D01*
X391900Y1315000D02*
X393100D01*
X392500Y1314400D02*
Y1315600D01*
X399400Y1327500D02*
X400600D01*
X400000Y1326900D02*
Y1328100D01*
X390900Y1324000D02*
X392100D01*
X391500Y1323400D02*
Y1324600D01*
X376900Y1315000D02*
X378100D01*
X377500Y1314400D02*
Y1315600D01*
X371900Y1315000D02*
X373100D01*
X372500Y1314400D02*
Y1315600D01*
X371900Y1425000D02*
X373100D01*
X372500Y1424400D02*
Y1425600D01*
X325900Y1427000D02*
X327100D01*
X326500Y1426400D02*
Y1427600D01*
X317900Y1427000D02*
X319100D01*
X318500Y1426400D02*
Y1427600D01*
X433900Y1369000D02*
X435100D01*
X434500Y1368400D02*
Y1369600D01*
X443900Y1369000D02*
X445100D01*
X444500Y1368400D02*
Y1369600D01*
X321900Y1437000D02*
X323100D01*
X322500Y1436400D02*
Y1437600D01*
X364900Y1453000D02*
X366100D01*
X365500Y1452400D02*
Y1453600D01*
X370900Y1465000D02*
X372100D01*
X371500Y1464400D02*
Y1465600D01*
X444400Y1375500D02*
X445600D01*
X445000Y1374900D02*
Y1376100D01*
X433900Y1375500D02*
X435100D01*
X434500Y1374900D02*
Y1376100D01*
X393337Y1393000D02*
X394537D01*
X393937Y1392400D02*
Y1393600D01*
X624400Y1435000D02*
X625600D01*
X625000Y1434400D02*
Y1435600D01*
X624400Y1425000D02*
X625600D01*
X625000Y1424400D02*
Y1425600D01*
X624400Y1415000D02*
X625600D01*
X625000Y1414400D02*
Y1415600D01*
X624400Y1405000D02*
X625600D01*
X625000Y1404400D02*
Y1405600D01*
X624400Y1395000D02*
X625600D01*
X625000Y1394400D02*
Y1395600D01*
X624400Y1385000D02*
X625600D01*
X625000Y1384400D02*
Y1385600D01*
X624400Y1375000D02*
X625600D01*
X625000Y1374400D02*
Y1375600D01*
X624400Y1365000D02*
X625600D01*
X625000Y1364400D02*
Y1365600D01*
X624400Y1355000D02*
X625600D01*
X625000Y1354400D02*
Y1355600D01*
X624400Y1345000D02*
X625600D01*
X625000Y1344400D02*
Y1345600D01*
X624400Y1335000D02*
X625600D01*
X625000Y1334400D02*
Y1335600D01*
X468900Y1474500D02*
X470100D01*
X469500Y1473900D02*
Y1475100D01*
X439000Y1290150D02*
X441000D01*
X440000Y1289150D02*
Y1291150D01*
X686437Y1505437D02*
X688437D01*
X687437Y1504437D02*
Y1506437D01*
X686437Y1475437D02*
X688437D01*
X687437Y1474437D02*
Y1476437D01*
X666500Y1310000D02*
X668500D01*
X667500Y1309000D02*
Y1311000D01*
X466500Y1242500D02*
X468500D01*
X467500Y1241500D02*
Y1243500D01*
X424000Y1297500D02*
X426000D01*
X425000Y1296500D02*
Y1298500D01*
X471500Y1247500D02*
X473500D01*
X472500Y1246500D02*
Y1248500D01*
X476500Y1242500D02*
X478500D01*
X477500Y1241500D02*
Y1243500D01*
X679000Y1297750D02*
X681000D01*
X680000Y1296750D02*
Y1298750D01*
X586500Y1287500D02*
X588500D01*
X587500Y1286500D02*
Y1288500D01*
X686500Y1300250D02*
X688500D01*
X687500Y1299250D02*
Y1301250D01*
X516500Y1300000D02*
X518500D01*
X517500Y1299000D02*
Y1301000D01*
X601500Y1300000D02*
X603500D01*
X602500Y1299000D02*
Y1301000D01*
X456500Y1242500D02*
X458500D01*
X457500Y1241500D02*
Y1243500D01*
X461500Y1247500D02*
X463500D01*
X462500Y1246500D02*
Y1248500D01*
X437937Y1223563D02*
X439937D01*
X438937Y1222563D02*
Y1224563D01*
X495400Y1472000D02*
X496600D01*
X496000Y1471400D02*
Y1472600D01*
X348337Y1505000D02*
X349537D01*
X348937Y1504400D02*
Y1505600D01*
X348337Y1495000D02*
X349537D01*
X348937Y1494400D02*
Y1495600D01*
X498500Y1365000D02*
X500500D01*
X499500Y1364000D02*
Y1366000D01*
X536998Y1385098D02*
X538198D01*
X537598Y1384499D02*
Y1385699D01*
X481250Y1450000D02*
X482450D01*
X481850Y1449400D02*
Y1450600D01*
X416900Y1432500D02*
X418100D01*
X417500Y1431900D02*
Y1433100D01*
X556900Y1367500D02*
X558100D01*
X557500Y1366900D02*
Y1368100D01*
X342491Y1395031D02*
X343690D01*
X343091Y1394431D02*
Y1395631D01*
X362333Y1412496D02*
X363533D01*
X362933Y1411896D02*
Y1413096D01*
X474900Y1402000D02*
X476100D01*
X475500Y1401400D02*
Y1402600D01*
X341900Y1437000D02*
X343100D01*
X342500Y1436400D02*
Y1437600D01*
X425581Y1415000D02*
X426781D01*
X426181Y1414400D02*
Y1415600D01*
X401900Y1502500D02*
X403100D01*
X402500Y1501900D02*
Y1503100D01*
X426900Y1440000D02*
X428100D01*
X427500Y1439400D02*
Y1440600D01*
X438869Y1412500D02*
X440068D01*
X439468Y1411900D02*
Y1413100D01*
X576900Y1421500D02*
X578100D01*
X577500Y1420900D02*
Y1422100D01*
X463869Y1472500D02*
X465068D01*
X464468Y1471900D02*
Y1473100D01*
X347900Y1510681D02*
X349100D01*
X348500Y1510081D02*
Y1511281D01*
X347900Y1476819D02*
X349100D01*
X348500Y1476219D02*
Y1477419D01*
X562900Y1370500D02*
X564100D01*
X563500Y1369900D02*
Y1371100D01*
X576400Y1395500D02*
X577600D01*
X577000Y1394900D02*
Y1396100D01*
X582431Y1389468D02*
X583631D01*
X583031Y1388869D02*
Y1390069D01*
X452400Y1431000D02*
X453600D01*
X453000Y1430400D02*
Y1431600D01*
X517400Y1473000D02*
X518600D01*
X518000Y1472400D02*
Y1473600D01*
X451900Y1412500D02*
X453100D01*
X452500Y1411900D02*
Y1413100D01*
X561900Y1414000D02*
X563100D01*
X562500Y1413400D02*
Y1414600D01*
X558900Y1429500D02*
X560100D01*
X559500Y1428900D02*
Y1430100D01*
X561400Y1421500D02*
X562600D01*
X562000Y1420900D02*
Y1422100D01*
X335437Y1370000D02*
X337437D01*
X336437Y1369000D02*
Y1371000D01*
X320437Y1370000D02*
X322437D01*
X321437Y1369000D02*
Y1371000D01*
X539400Y1452500D02*
X540600D01*
X540000Y1451900D02*
Y1453100D01*
X523000Y1366500D02*
X525000D01*
X524000Y1365500D02*
Y1367500D01*
X389810Y1497000D02*
X391010D01*
X390410Y1496400D02*
Y1497600D01*
X429400Y1462500D02*
X430600D01*
X430000Y1461900D02*
Y1463100D01*
X339337Y1407500D02*
X340537D01*
X339937Y1406900D02*
Y1408100D01*
X371337Y1397500D02*
X372537D01*
X371937Y1396900D02*
Y1398100D01*
X371337Y1402500D02*
X372537D01*
X371937Y1401900D02*
Y1403100D01*
X384837Y1400000D02*
X386037D01*
X385437Y1399400D02*
Y1400600D01*
X322837Y1397500D02*
X324037D01*
X323437Y1396900D02*
Y1398100D01*
X322837Y1390000D02*
X324037D01*
X323437Y1389400D02*
Y1390600D01*
X360500Y1485500D02*
X362500D01*
X361500Y1484500D02*
Y1486500D01*
X406900Y1415000D02*
X408100D01*
X407500Y1414400D02*
Y1415600D01*
X455900Y1369500D02*
X457100D01*
X456500Y1368900D02*
Y1370100D01*
X590900Y1376500D02*
X592100D01*
X591500Y1375900D02*
Y1377100D01*
X576900Y1355000D02*
X578100D01*
X577500Y1354400D02*
Y1355600D01*
X434774Y1510504D02*
X435974D01*
X435374Y1509904D02*
Y1511104D01*
X550516Y1461000D02*
X552516D01*
X551516Y1460000D02*
Y1462000D01*
X566516Y1461000D02*
X568516D01*
X567516Y1460000D02*
Y1462000D01*
X414000Y1247500D02*
X416000D01*
X415000Y1246500D02*
Y1248500D01*
X429000Y1252500D02*
X431000D01*
X430000Y1251500D02*
Y1253500D01*
X499000Y1247500D02*
X501000D01*
X500000Y1246500D02*
Y1248500D01*
X584000Y1247500D02*
X586000D01*
X585000Y1246500D02*
Y1248500D01*
X669000Y1247750D02*
X671000D01*
X670000Y1246750D02*
Y1248750D01*
X516500Y1255000D02*
X518500D01*
X517500Y1254000D02*
Y1256000D01*
X601500Y1254201D02*
X603500D01*
X602500Y1253201D02*
Y1255201D01*
X686500Y1255250D02*
X688500D01*
X687500Y1254250D02*
Y1256250D01*
X609000Y1222500D02*
X611000D01*
X610000Y1221500D02*
Y1223500D01*
X486500Y1242500D02*
X488500D01*
X487500Y1241500D02*
Y1243500D01*
X536500Y1247500D02*
X538500D01*
X537500Y1246500D02*
Y1248500D01*
X541500Y1247500D02*
X543500D01*
X542500Y1246500D02*
Y1248500D01*
X546500Y1247500D02*
X548500D01*
X547500Y1246500D02*
Y1248500D01*
X551500Y1247500D02*
X553500D01*
X552500Y1246500D02*
Y1248500D01*
X556500Y1247500D02*
X558500D01*
X557500Y1246500D02*
Y1248500D01*
X561500Y1247500D02*
X563500D01*
X562500Y1246500D02*
Y1248500D01*
X566500Y1247500D02*
X568500D01*
X567500Y1246500D02*
Y1248500D01*
X571500Y1247500D02*
X573500D01*
X572500Y1246500D02*
Y1248500D01*
X656500Y1247750D02*
X658500D01*
X657500Y1246750D02*
Y1248750D01*
X651500Y1247750D02*
X653500D01*
X652500Y1246750D02*
Y1248750D01*
X646500Y1247750D02*
X648500D01*
X647500Y1246750D02*
Y1248750D01*
X641500Y1247750D02*
X643500D01*
X642500Y1246750D02*
Y1248750D01*
X636500Y1247750D02*
X638500D01*
X637500Y1246750D02*
Y1248750D01*
X631500Y1247750D02*
X633500D01*
X632500Y1246750D02*
Y1248750D01*
X626500Y1247750D02*
X628500D01*
X627500Y1246750D02*
Y1248750D01*
X621500Y1247750D02*
X623500D01*
X622500Y1246750D02*
Y1248750D01*
X434400Y1447500D02*
X435600D01*
X435000Y1446900D02*
Y1448100D01*
X436900Y1457500D02*
X438100D01*
X437500Y1456900D02*
Y1458100D01*
X399400Y1457618D02*
X400600D01*
X400000Y1457018D02*
Y1458218D01*
X403868Y1447500D02*
X405068D01*
X404468Y1446900D02*
Y1448100D01*
X333114Y1257677D02*
X335114D01*
X334114Y1256677D02*
Y1258677D01*
X355437Y1242500D02*
X357437D01*
X356437Y1241500D02*
Y1243500D01*
X551900Y1367500D02*
X553100D01*
X552500Y1366900D02*
Y1368100D01*
X411400Y1465000D02*
X412600D01*
X412000Y1464400D02*
Y1465600D01*
X439000Y1279350D02*
X441000D01*
X440000Y1278350D02*
Y1280350D01*
X604000Y1310000D02*
X606000D01*
X605000Y1309000D02*
Y1311000D01*
X619000Y1287750D02*
X621000D01*
X620000Y1286750D02*
Y1288750D01*
X516500Y1277500D02*
X518500D01*
X517500Y1276500D02*
Y1278500D01*
X436500Y1242250D02*
X438500D01*
X437500Y1241250D02*
Y1243250D01*
X601500Y1277500D02*
X603500D01*
X602500Y1276500D02*
Y1278500D01*
X361500Y1250000D02*
X363500D01*
X362500Y1249000D02*
Y1251000D01*
X364000Y1287500D02*
X366000D01*
X365000Y1286500D02*
Y1288500D01*
X437299Y1310000D02*
X439299D01*
X438299Y1309000D02*
Y1311000D01*
X580000Y1222500D02*
X582000D01*
X581000Y1221500D02*
Y1223500D01*
X522299Y1242250D02*
X524299D01*
X523299Y1241250D02*
Y1243250D01*
X523850Y1310000D02*
X525850D01*
X524850Y1309000D02*
Y1311000D01*
X446500Y1270000D02*
X448500D01*
X447500Y1269000D02*
Y1271000D01*
X449000Y1287500D02*
X451000D01*
X450000Y1286500D02*
Y1288500D01*
X531500Y1270000D02*
X533500D01*
X532500Y1269000D02*
Y1271000D01*
X534000Y1287500D02*
X536000D01*
X535000Y1286500D02*
Y1288500D01*
X694000Y1310000D02*
X696000D01*
X695000Y1309000D02*
Y1311000D01*
X686500Y1277500D02*
X688500D01*
X687500Y1276500D02*
Y1278500D01*
X616500Y1270250D02*
X618500D01*
X617500Y1269250D02*
Y1271250D01*
X692299Y1242500D02*
X694299D01*
X693299Y1241500D02*
Y1243500D01*
X606799Y1242250D02*
X608799D01*
X607799Y1241250D02*
Y1243250D01*
X436500Y1268299D02*
X438500D01*
X437500Y1267299D02*
Y1269299D01*
X496900Y1407500D02*
X498100D01*
X497500Y1406900D02*
Y1408100D01*
X521900Y1430000D02*
X523100D01*
X522500Y1429400D02*
Y1430600D01*
X479400Y1392500D02*
X480600D01*
X480000Y1391900D02*
Y1393100D01*
X511900Y1407500D02*
X513100D01*
X512500Y1406900D02*
Y1408100D01*
X529400Y1447500D02*
X530600D01*
X530000Y1446900D02*
Y1448100D01*
X576900Y1414000D02*
X578100D01*
X577500Y1413400D02*
Y1414600D01*
X401900Y1432500D02*
X403100D01*
X402500Y1431900D02*
Y1433100D01*
X349715Y1405000D02*
X350915D01*
X350315Y1404400D02*
Y1405600D01*
X330837Y1387500D02*
X332037D01*
X331437Y1386900D02*
Y1388100D01*
X429400Y1397500D02*
X430600D01*
X430000Y1396900D02*
Y1398100D01*
X501900Y1417500D02*
X503100D01*
X502500Y1416900D02*
Y1418100D01*
X489400Y1412500D02*
X490600D01*
X490000Y1411900D02*
Y1413100D01*
X501900Y1437500D02*
X503100D01*
X502500Y1436900D02*
Y1438100D01*
X523900Y1404500D02*
X525100D01*
X524500Y1403900D02*
Y1405100D01*
X501900Y1392500D02*
X503100D01*
X502500Y1391900D02*
Y1393100D01*
X434931Y1412500D02*
X436131D01*
X435531Y1411900D02*
Y1413100D01*
X459931Y1472500D02*
X461131D01*
X460531Y1471900D02*
Y1473100D01*
X468900Y1369000D02*
X470100D01*
X469500Y1368400D02*
Y1369600D01*
X506400Y1472500D02*
X507600D01*
X507000Y1471900D02*
Y1473100D01*
X491900Y1422500D02*
X493100D01*
X492500Y1421900D02*
Y1423100D01*
X526900Y1437500D02*
X528100D01*
X527500Y1436900D02*
Y1438100D01*
X509400Y1430000D02*
X510600D01*
X510000Y1429400D02*
Y1430600D01*
X372740Y1333620D02*
X374740D01*
X373740Y1332620D02*
Y1334620D01*
X372740Y1327740D02*
X374740D01*
X373740Y1326740D02*
Y1328740D01*
X485424Y1386476D02*
X486624D01*
X486024Y1385876D02*
Y1387076D01*
X499400Y1387500D02*
X500600D01*
X500000Y1386900D02*
Y1388100D01*
X531900Y1357500D02*
X533100D01*
X532500Y1356900D02*
Y1358100D01*
X551900Y1375531D02*
X553100D01*
X552500Y1374931D02*
Y1376131D01*
X342400Y1430996D02*
X343600D01*
X343000Y1430396D02*
Y1431596D01*
X516400Y1453000D02*
X517600D01*
X517000Y1452400D02*
Y1453600D01*
X507077Y1453677D02*
X508277D01*
X507677Y1453077D02*
Y1454277D01*
X490900Y1452500D02*
X492100D01*
X491500Y1451900D02*
Y1453100D01*
X520400Y1453000D02*
X521600D01*
X521000Y1452400D02*
Y1453600D01*
X558900Y1454500D02*
X560100D01*
X559500Y1453900D02*
Y1455100D01*
X538900Y1444500D02*
X540100D01*
X539500Y1443900D02*
Y1445100D01*
X538900Y1426500D02*
X540100D01*
X539500Y1425900D02*
Y1427100D01*
X524900Y1386500D02*
X526100D01*
X525500Y1385900D02*
Y1387100D01*
X472900Y1444500D02*
X474100D01*
X473500Y1443900D02*
Y1445100D01*
X472900Y1438500D02*
X474100D01*
X473500Y1437900D02*
Y1439100D01*
X456900Y1458500D02*
X458100D01*
X457500Y1457900D02*
Y1459100D01*
X340437Y1242500D02*
X342437D01*
X341437Y1241500D02*
Y1243500D01*
X322937Y1260000D02*
X324937D01*
X323937Y1259000D02*
Y1261000D01*
X315437Y1315000D02*
X317437D01*
X316437Y1314000D02*
Y1316000D01*
X323055Y1315118D02*
X325055D01*
X324055Y1314118D02*
Y1316118D01*
X491500Y1237500D02*
X493500D01*
X492500Y1236500D02*
Y1238500D01*
X481500Y1237500D02*
X483500D01*
X482500Y1236500D02*
Y1238500D01*
X661500Y1202500D02*
X663500D01*
X662500Y1201500D02*
Y1203500D01*
X496500Y1230000D02*
X498500D01*
X497500Y1229000D02*
Y1231000D01*
X464000Y1220000D02*
X466000D01*
X465000Y1219000D02*
Y1221000D01*
M02*
