M48
;Layer_Color=6321
;FILE_FORMAT=2:5
INCH,LZ
;TYPE=PLATED
T1F00S00C0.01200
T2F00S00C0.02000
T3F00S00C0.03800
T5F00S00C0.04000
T6F00S00C0.11833
%
T01
X03725Y1315
X03775
X03925
X03975
X04025
X04075
X04Y13275
X03915Y1324
X0393937Y1393
X0385437Y14
X0371937Y14025
Y13975
X0350315Y1405
X0343091Y1395031
X0331437Y13875
X0323437Y139
Y13975
X043
Y13925
X04345Y13755
Y1369
X04445
X0445Y13755
X04565Y1368319
X0465Y13815
X04695Y1369
X0486024Y1386476
X04935Y138775
X05Y13875
X05025Y13925
X0511614Y1385886
X05255Y13865
X0526968Y1396968
X05245Y14045
X0537598Y1385098
X05525Y1375531
Y13675
X05575
X05635Y13705
X0586437Y137
X0584469Y136185
X05915Y13765
X0583031Y1389468
X0577Y13955
X05325Y13575
X048Y13925
X04755Y1402
X0625Y1405
Y1395
Y1385
Y1375
Y1365
Y1355
Y1345
Y1335
Y1415
Y1425
Y1435
X05775Y14215
Y1414
X05625
X0562Y14215
X05595Y14295
X05405Y14315
X05395Y14265
Y14445
X054Y14525
X053Y14475
X05275Y14375
X05225Y143
X05175Y14175
X05025
Y143
Y14375
X0504542Y145126
X0507677Y1453677
X0512Y145
X0517Y1453
X0521
X0518Y1473
X0507Y14725
X0496Y1472
X0490437Y14795
X0487437Y1484
Y14885
X0493937Y1495
X0491437Y14975
X0488937Y15
X0486437Y15025
X0483937Y1505
X0481437Y15075
X0500437Y1491
X0495Y145
X04915Y14525
X048185Y145
X04735Y14445
Y14385
X0473374Y1430374
X0473343Y1412658
X04925Y14225
X04975Y14075
X05125
X05415Y14085
X05595Y14545
X04695Y14745
X0464468Y14725
X0460531
X04575Y14585
X04375Y14575
X0436437Y14675
X043Y14625
X0435Y14475
X04275Y144
X04175Y14325
X04025
X0404468Y14475
X04Y1457618
X0411437Y14575
X0412Y1465
X0398937Y147
X0378937Y1475
X0363937
X0348937
Y14925
X0363937
X0378937
X0391437Y149
Y15075
X040291Y1497
X04175Y1495
X0415Y15025
X0447874Y1510504
X0435437Y1481
X0453Y1431
X04525Y14125
X0439468
X0435531
X0426181Y1415
X04075
X0383Y1431
X03725Y1425
X0363Y1435
X03655Y1453
X0361437Y1455
X03715Y1465
X03425Y1437
X0343Y1430996
X03265Y1427
X03185
X03225Y1437
X0318937Y14475
X0326437
X0333937Y14925
X0339937Y14075
X0362933Y1412496
T02
X06625Y12025
X067002Y121002
X0675Y12225
X069Y12175
X0693299Y12425
X0665
X067Y124775
X06575Y124775
X06525
X06475
X06425
X06375
X06325
X06275
X06225
X0607799Y124225
X061Y12225
X0581Y12225
X058Y124225
X0585Y12475
X05725Y12475
X05675
X05625
X05575
X05525
X05475
X05425
X05375
X0523299Y124225
X0495
X04925Y12375
X04825
X04875Y12425
X04775Y12425
X04725Y12475
X05
X04975Y123
X0465Y122
X04675Y12425
X04625Y12475
X04575Y12425
X04475Y12475
X04375Y124225
X0438937Y1223563
X0412937
X041Y124225
X0415Y12475
X0356437Y12425
X0341437
X0318937Y1225
Y12175
Y121
X0323937Y126
X0334114Y1257677
X03625Y125
X0365Y12875
X037374Y132774
Y133362
X037Y1355
X036
X038
X0343937Y137
X0336437
X0328937
X0321437
X0324055Y1315118
X0316437Y1315
X0316437Y1305
X0317087Y129185
X0425Y12975
X044Y129015
Y127935
X04375Y1268299
X04475Y127
X045Y12875
X0438299Y131
X0415
X043Y12525
X05175Y1255
X05175Y12775
X05325Y127
X0535Y12875
X05175Y13
X052485Y131
X05
X04995Y1365
X0524Y13665
X05825Y13065
X05875Y12875
X06025Y12775
X06175Y127025
X062Y128775
X06025Y13
X0605Y131
X06025Y1254201
X06875Y125525
X06875Y12775
Y130025
X068Y129775
X06675Y131
X0695
X0695Y1321
X0689937Y1457937
Y1487937
X0567516Y1461
X0551516
X0516437Y15175
X0487437Y15175
T03
X0533937Y12375
X0611437Y12325
X041Y13525
Y13625
X0425Y1495
Y1505
T05
X0625Y11775
Y11875
X0635
Y11775
X0645
Y11875
X0655
Y11775
X0665
Y11875
X0615
X0605
X0595
X0585
X0575
X0565
X0555
X0545
X0535
X0525
X0515
X0505
X0495
X0485
X0475
Y11775
X0485
X0495
X0505
X0515
X0525
X0535
X0545
X0555
X0565
X0575
X0585
X0595
X0605
X0615
X0465
X0455
X0445
X0435
X0425
X0415
X0405
X0395
X0385
X0375
X0365
X0355
Y11875
X0365
X0375
X0385
X0395
X0405
X0415
X0425
X0435
X0445
X0455
X0465
X0326437
Y11775
X0319Y124
Y125
X065Y13665
Y13755
Y13845
Y13935
Y14025
X066Y1398
Y1389
Y138
Y1371
X067Y13665
Y13755
Y13845
Y13935
Y14025
X066Y1407
X0663937Y15125
X0673937
X0683937
Y15225
X0673937
X0663937
X0653937
Y15125
X0643937
Y15225
X0633937
Y15125
X0623937
Y15225
X0613937
Y15125
X0603937
Y15225
X0593937
Y15125
X0583937
Y15225
X0573937
Y15125
X0563937
Y15225
X0553937
Y15125
X0543937
Y15225
X0533937
Y15125
X0368937Y1515
Y1505
X0358937
Y1515
X0348937
Y1505
X0338937
Y1515
X0328937
Y1505
T06
X066Y1336333
Y1434667
M30
