G04*
G04 #@! TF.GenerationSoftware,Altium Limited,CircuitStudio,1.5.2 (30)*
G04*
G04 Layer_Color=26367*
%FSLAX25Y25*%
%MOIN*%
G70*
G01*
G75*
%ADD28C,0.01000*%
%ADD35C,0.00800*%
%ADD36C,0.00600*%
%ADD71R,0.06706X0.03162*%
%ADD72R,0.25622X0.25622*%
%ADD73R,0.08299X0.13811*%
%ADD74O,0.11627X0.01981*%
%ADD75R,0.11627X0.01981*%
%ADD76R,0.01981X0.11627*%
%ADD77R,0.03556X0.04737*%
%ADD78R,0.10642X0.03162*%
%ADD79O,0.10642X0.03162*%
%ADD80R,0.05543X0.07512*%
%ADD81R,0.06528X0.04953*%
%ADD82R,0.05150X0.05150*%
%ADD83O,0.03200X0.12737*%
%ADD84O,0.02572X0.08674*%
%ADD85R,0.02572X0.08674*%
%ADD86R,0.04400X0.04400*%
%ADD87R,0.04400X0.05800*%
%ADD88R,0.08500X0.32000*%
%ADD89C,0.08200*%
%ADD90C,0.07300*%
%ADD91R,0.07300X0.07300*%
%ADD92C,0.20467*%
%ADD93C,0.07000*%
%ADD94P,0.07577X8X292.5*%
%ADD95O,0.12611X0.24422*%
%ADD96R,0.07300X0.07300*%
%ADD97C,0.03600*%
%ADD98C,0.04800*%
D28*
X293189Y1527701D02*
Y1529701D01*
X289252Y1135000D02*
X294189D01*
X293189Y1347845D02*
Y1528701D01*
Y1135000D02*
Y1312656D01*
X291189Y1522701D02*
X293189Y1528701D01*
X295189Y1522701D01*
X293189Y1135000D02*
X295189Y1141000D01*
X291189D02*
X293189Y1135000D01*
X308937Y1537126D02*
Y1546000D01*
X702638Y1541063D02*
Y1546000D01*
X308937Y1545000D02*
X486592D01*
X521782D02*
X702638D01*
X308937D02*
X314937Y1543000D01*
X308937Y1545000D02*
X314937Y1547000D01*
X696638D02*
X702638Y1545000D01*
X696638Y1543000D02*
X702638Y1545000D01*
X401000Y1167500D02*
X409000D01*
Y1135000D02*
X670300D01*
X349700D02*
X401000D01*
X409000D02*
Y1167500D01*
X401000Y1135000D02*
Y1167500D01*
X702500D02*
Y1528701D01*
X308937D02*
X702500D01*
X308937Y1167500D02*
Y1528701D01*
X674300Y1167500D02*
X702500D01*
X674300Y1139000D02*
Y1167500D01*
X308937D02*
X345700D01*
Y1139000D02*
Y1167500D01*
X670300Y1135000D02*
X674300Y1139000D01*
X345700D02*
X349700Y1135000D01*
X308937Y1133563D02*
Y1167500D01*
X302500Y1135000D02*
X349700D01*
X401000Y1167500D02*
X409000D01*
X401000Y1137000D02*
Y1167500D01*
X350000Y1135000D02*
X401000D01*
X409000Y1137000D02*
Y1167500D01*
Y1137000D02*
X670000D01*
D35*
X402500Y1160500D02*
X406499D01*
X402500Y1157834D01*
X406499D01*
X402500Y1155835D02*
Y1154502D01*
X403166Y1153835D01*
X404499D01*
X405166Y1154502D01*
Y1155835D01*
X404499Y1156501D01*
X403166D01*
X402500Y1155835D01*
X405832Y1151836D02*
X405166D01*
Y1152503D01*
Y1151170D01*
Y1151836D01*
X403166D01*
X402500Y1151170D01*
X405166Y1146504D02*
Y1148504D01*
X404499Y1149170D01*
X403166D01*
X402500Y1148504D01*
Y1146504D01*
X406499Y1145172D02*
X402500D01*
X404499D01*
X405166Y1144505D01*
Y1143172D01*
X404499Y1142506D01*
X402500D01*
D36*
X296788Y1314256D02*
Y1316255D01*
Y1315255D01*
X290790D01*
X291790Y1314256D01*
Y1319254D02*
X290790Y1320254D01*
Y1322253D01*
X291790Y1323253D01*
X295788D01*
X296788Y1322253D01*
Y1320254D01*
X295788Y1319254D01*
X291790D01*
Y1325252D02*
X290790Y1326252D01*
Y1328251D01*
X291790Y1329251D01*
X295788D01*
X296788Y1328251D01*
Y1326252D01*
X295788Y1325252D01*
X291790D01*
X296788Y1331250D02*
X295788D01*
Y1332250D01*
X296788D01*
Y1331250D01*
X291790Y1336248D02*
X290790Y1337248D01*
Y1339247D01*
X291790Y1340247D01*
X295788D01*
X296788Y1339247D01*
Y1337248D01*
X295788Y1336248D01*
X291790D01*
Y1342247D02*
X290790Y1343246D01*
Y1345245D01*
X291790Y1346245D01*
X295788D01*
X296788Y1345245D01*
Y1343246D01*
X295788Y1342247D01*
X291790D01*
X488193Y1541401D02*
X490192D01*
X489192D01*
Y1547399D01*
X488193Y1546399D01*
X493191D02*
X494191Y1547399D01*
X496190D01*
X497190Y1546399D01*
Y1542401D01*
X496190Y1541401D01*
X494191D01*
X493191Y1542401D01*
Y1546399D01*
X499189D02*
X500189Y1547399D01*
X502188D01*
X503188Y1546399D01*
Y1542401D01*
X502188Y1541401D01*
X500189D01*
X499189Y1542401D01*
Y1546399D01*
X505187Y1541401D02*
Y1542401D01*
X506187D01*
Y1541401D01*
X505187D01*
X510185Y1546399D02*
X511185Y1547399D01*
X513184D01*
X514184Y1546399D01*
Y1542401D01*
X513184Y1541401D01*
X511185D01*
X510185Y1542401D01*
Y1546399D01*
X516184D02*
X517183Y1547399D01*
X519182D01*
X520182Y1546399D01*
Y1542401D01*
X519182Y1541401D01*
X517183D01*
X516184Y1542401D01*
Y1546399D01*
D71*
X427343Y1450020D02*
D03*
Y1457500D02*
D03*
X417500Y1450020D02*
D03*
Y1453760D02*
D03*
Y1457500D02*
D03*
D72*
X333110Y1353366D02*
D03*
D73*
X324055Y1327775D02*
D03*
X342165D02*
D03*
D74*
X463386Y1453996D02*
D03*
D75*
Y1452027D02*
D03*
Y1450059D02*
D03*
Y1448090D02*
D03*
Y1446122D02*
D03*
Y1444153D02*
D03*
Y1442185D02*
D03*
Y1440217D02*
D03*
Y1438248D02*
D03*
Y1436279D02*
D03*
Y1434311D02*
D03*
Y1432342D02*
D03*
Y1430374D02*
D03*
Y1428405D02*
D03*
Y1426437D02*
D03*
Y1424468D02*
D03*
Y1422500D02*
D03*
Y1420531D02*
D03*
Y1418563D02*
D03*
Y1416594D02*
D03*
Y1414626D02*
D03*
Y1412658D02*
D03*
Y1410689D02*
D03*
Y1408720D02*
D03*
Y1406752D02*
D03*
Y1404784D02*
D03*
Y1402815D02*
D03*
Y1400846D02*
D03*
Y1398878D02*
D03*
Y1396909D02*
D03*
Y1394941D02*
D03*
Y1392972D02*
D03*
Y1391004D02*
D03*
Y1389035D02*
D03*
Y1387067D02*
D03*
Y1385098D02*
D03*
X550000D02*
D03*
Y1387067D02*
D03*
Y1389035D02*
D03*
Y1391004D02*
D03*
Y1392972D02*
D03*
Y1394941D02*
D03*
Y1396909D02*
D03*
Y1398878D02*
D03*
Y1400846D02*
D03*
Y1402815D02*
D03*
Y1404784D02*
D03*
Y1406752D02*
D03*
Y1408720D02*
D03*
Y1410689D02*
D03*
Y1412658D02*
D03*
Y1414626D02*
D03*
Y1416594D02*
D03*
Y1418563D02*
D03*
Y1420531D02*
D03*
Y1422500D02*
D03*
Y1424468D02*
D03*
Y1426437D02*
D03*
Y1428405D02*
D03*
Y1430374D02*
D03*
Y1432342D02*
D03*
Y1434311D02*
D03*
Y1436279D02*
D03*
Y1438248D02*
D03*
Y1440217D02*
D03*
Y1442185D02*
D03*
Y1444153D02*
D03*
Y1446122D02*
D03*
Y1448090D02*
D03*
Y1450059D02*
D03*
Y1452027D02*
D03*
Y1453996D02*
D03*
D76*
X472244Y1376240D02*
D03*
X474213D02*
D03*
X476181D02*
D03*
X478150D02*
D03*
X480118D02*
D03*
X482087D02*
D03*
X484055D02*
D03*
X486024D02*
D03*
X487992D02*
D03*
X489961D02*
D03*
X491929D02*
D03*
X493898D02*
D03*
X495866D02*
D03*
X497835D02*
D03*
X499803D02*
D03*
X501772D02*
D03*
X503740D02*
D03*
X505709D02*
D03*
X507677D02*
D03*
X509646D02*
D03*
X511614D02*
D03*
X513583D02*
D03*
X515551D02*
D03*
X517520D02*
D03*
X519488D02*
D03*
X521457D02*
D03*
X523425D02*
D03*
X525394D02*
D03*
X527362D02*
D03*
X529331D02*
D03*
X531299D02*
D03*
X533268D02*
D03*
X535236D02*
D03*
X537205D02*
D03*
X539173D02*
D03*
X541142D02*
D03*
Y1462854D02*
D03*
X539173D02*
D03*
X537205D02*
D03*
X535236D02*
D03*
X533268D02*
D03*
X531299D02*
D03*
X529331D02*
D03*
X527362D02*
D03*
X525394D02*
D03*
X523425D02*
D03*
X521457D02*
D03*
X519488D02*
D03*
X517520D02*
D03*
X515551D02*
D03*
X513583D02*
D03*
X511614D02*
D03*
X509646D02*
D03*
X507677D02*
D03*
X505709D02*
D03*
X503740D02*
D03*
X501772D02*
D03*
X499803D02*
D03*
X497835D02*
D03*
X495866D02*
D03*
X493898D02*
D03*
X491929D02*
D03*
X489961D02*
D03*
X487992D02*
D03*
X486024D02*
D03*
X484055D02*
D03*
X482087D02*
D03*
X480118D02*
D03*
X478150D02*
D03*
X476181D02*
D03*
X474213D02*
D03*
X472244D02*
D03*
D77*
X377480Y1348949D02*
D03*
X370000D02*
D03*
X377480Y1339500D02*
D03*
X373740D02*
D03*
X370000D02*
D03*
D78*
X331437Y1407500D02*
D03*
D79*
Y1402500D02*
D03*
Y1397500D02*
D03*
Y1392500D02*
D03*
X362933Y1407500D02*
D03*
Y1402500D02*
D03*
Y1397500D02*
D03*
Y1392500D02*
D03*
D80*
X440000Y1504500D02*
D03*
X456142D02*
D03*
X350374Y1437000D02*
D03*
X334232D02*
D03*
D81*
X441673Y1510504D02*
D03*
X454075D02*
D03*
Y1498496D02*
D03*
X441673D02*
D03*
X348701Y1430996D02*
D03*
X336299D02*
D03*
Y1443004D02*
D03*
X348701D02*
D03*
D82*
X371500Y1451000D02*
D03*
Y1456905D02*
D03*
X410000Y1497500D02*
D03*
Y1503405D02*
D03*
D83*
X452500Y1259500D02*
D03*
X462500D02*
D03*
X467500D02*
D03*
X472500D02*
D03*
X457500D02*
D03*
X482500D02*
D03*
X477500D02*
D03*
X487500D02*
D03*
X502500D02*
D03*
X497500D02*
D03*
X492500D02*
D03*
X457500Y1297500D02*
D03*
X462500D02*
D03*
X467500D02*
D03*
X472500D02*
D03*
X477500D02*
D03*
X482500D02*
D03*
X487500D02*
D03*
X492500D02*
D03*
X497500D02*
D03*
X447500Y1259500D02*
D03*
Y1297500D02*
D03*
X452500D02*
D03*
X502500D02*
D03*
X587500D02*
D03*
X537500D02*
D03*
X532500D02*
D03*
Y1259500D02*
D03*
X582500Y1297500D02*
D03*
X577500D02*
D03*
X572500D02*
D03*
X567500D02*
D03*
X562500D02*
D03*
X557500D02*
D03*
X552500D02*
D03*
X547500D02*
D03*
X542500D02*
D03*
X577500Y1259500D02*
D03*
X582500D02*
D03*
X587500D02*
D03*
X572500D02*
D03*
X562500D02*
D03*
X567500D02*
D03*
X542500D02*
D03*
X557500D02*
D03*
X552500D02*
D03*
X547500D02*
D03*
X537500D02*
D03*
X672500Y1297750D02*
D03*
X622500D02*
D03*
X617500D02*
D03*
Y1259750D02*
D03*
X667500Y1297750D02*
D03*
X662500D02*
D03*
X657500D02*
D03*
X652500D02*
D03*
X647500D02*
D03*
X642500D02*
D03*
X637500D02*
D03*
X632500D02*
D03*
X627500D02*
D03*
X662500Y1259750D02*
D03*
X667500D02*
D03*
X672500D02*
D03*
X657500D02*
D03*
X647500D02*
D03*
X652500D02*
D03*
X627500D02*
D03*
X642500D02*
D03*
X637500D02*
D03*
X632500D02*
D03*
X622500D02*
D03*
X417500Y1297500D02*
D03*
X367500D02*
D03*
X362500D02*
D03*
Y1259500D02*
D03*
X412500Y1297500D02*
D03*
X407500D02*
D03*
X402500D02*
D03*
X397500D02*
D03*
X392500D02*
D03*
X387500D02*
D03*
X382500D02*
D03*
X377500D02*
D03*
X372500D02*
D03*
X407500Y1259500D02*
D03*
X412500D02*
D03*
X417500D02*
D03*
X402500D02*
D03*
X392500D02*
D03*
X397500D02*
D03*
X372500D02*
D03*
X387500D02*
D03*
X382500D02*
D03*
X377500D02*
D03*
X367500D02*
D03*
D84*
X334114Y1286791D02*
D03*
X331555D02*
D03*
X328996D02*
D03*
X326437D02*
D03*
X334114Y1267500D02*
D03*
X331555D02*
D03*
X328996D02*
D03*
D85*
X326437D02*
D03*
D86*
X376500Y1433000D02*
D03*
X369000D02*
D03*
D87*
X372800Y1441000D02*
D03*
D88*
X395000Y1152500D02*
D03*
X665000D02*
D03*
X655000D02*
D03*
X645000D02*
D03*
X635000D02*
D03*
X355000D02*
D03*
X365000D02*
D03*
X375000D02*
D03*
X385000D02*
D03*
X415000D02*
D03*
X425000D02*
D03*
X435000D02*
D03*
X445000D02*
D03*
X455000D02*
D03*
X465000D02*
D03*
X475000D02*
D03*
X485000D02*
D03*
X495000D02*
D03*
X505000D02*
D03*
X515000D02*
D03*
X525000D02*
D03*
X535000D02*
D03*
X545000D02*
D03*
X555000D02*
D03*
X565000D02*
D03*
X575000D02*
D03*
X585000D02*
D03*
X595000D02*
D03*
X605000D02*
D03*
X615000D02*
D03*
X625000D02*
D03*
D89*
X533937Y1237500D02*
D03*
X425000Y1505000D02*
D03*
Y1495000D02*
D03*
X410000Y1352500D02*
D03*
X611437Y1232500D02*
D03*
X410000Y1362500D02*
D03*
D90*
X683937Y1522500D02*
D03*
Y1512500D02*
D03*
X673937Y1522500D02*
D03*
Y1512500D02*
D03*
X663937Y1522500D02*
D03*
Y1512500D02*
D03*
X653937Y1522500D02*
D03*
Y1512500D02*
D03*
X643937Y1522500D02*
D03*
Y1512500D02*
D03*
X633937Y1522500D02*
D03*
Y1512500D02*
D03*
X623937Y1522500D02*
D03*
Y1512500D02*
D03*
X613937Y1522500D02*
D03*
Y1512500D02*
D03*
X603937Y1522500D02*
D03*
Y1512500D02*
D03*
X593937Y1522500D02*
D03*
Y1512500D02*
D03*
X583937Y1522500D02*
D03*
Y1512500D02*
D03*
X573937Y1522500D02*
D03*
Y1512500D02*
D03*
X563937Y1522500D02*
D03*
Y1512500D02*
D03*
X553937Y1522500D02*
D03*
Y1512500D02*
D03*
X543937Y1522500D02*
D03*
Y1512500D02*
D03*
X533937Y1522500D02*
D03*
X355000Y1187500D02*
D03*
X365000Y1177500D02*
D03*
Y1187500D02*
D03*
X375000Y1177500D02*
D03*
Y1187500D02*
D03*
X385000Y1177500D02*
D03*
Y1187500D02*
D03*
X395000Y1177500D02*
D03*
Y1187500D02*
D03*
X405000Y1177500D02*
D03*
Y1187500D02*
D03*
X415000Y1177500D02*
D03*
Y1187500D02*
D03*
X425000Y1177500D02*
D03*
Y1187500D02*
D03*
X435000Y1177500D02*
D03*
Y1187500D02*
D03*
X445000Y1177500D02*
D03*
Y1187500D02*
D03*
X455000Y1177500D02*
D03*
Y1187500D02*
D03*
X465000Y1177500D02*
D03*
Y1187500D02*
D03*
X475000Y1177500D02*
D03*
Y1187500D02*
D03*
X485000Y1177500D02*
D03*
Y1187500D02*
D03*
X495000Y1177500D02*
D03*
Y1187500D02*
D03*
X505000Y1177500D02*
D03*
Y1187500D02*
D03*
X515000D02*
D03*
X525000Y1177500D02*
D03*
Y1187500D02*
D03*
X535000Y1177500D02*
D03*
Y1187500D02*
D03*
X545000Y1177500D02*
D03*
Y1187500D02*
D03*
X555000Y1177500D02*
D03*
Y1187500D02*
D03*
X565000Y1177500D02*
D03*
Y1187500D02*
D03*
X575000Y1177500D02*
D03*
Y1187500D02*
D03*
X585000Y1177500D02*
D03*
Y1187500D02*
D03*
X595000Y1177500D02*
D03*
Y1187500D02*
D03*
X605000Y1177500D02*
D03*
Y1187500D02*
D03*
X615000Y1177500D02*
D03*
Y1187500D02*
D03*
X625000Y1177500D02*
D03*
Y1187500D02*
D03*
X635000Y1177500D02*
D03*
Y1187500D02*
D03*
X645000Y1177500D02*
D03*
Y1187500D02*
D03*
X655000Y1177500D02*
D03*
Y1187500D02*
D03*
X665000Y1177500D02*
D03*
Y1187500D02*
D03*
X319000Y1240000D02*
D03*
X326437Y1177500D02*
D03*
Y1187500D02*
D03*
X368937Y1505000D02*
D03*
X358937Y1515000D02*
D03*
Y1505000D02*
D03*
X348937Y1515000D02*
D03*
Y1505000D02*
D03*
X338937Y1515000D02*
D03*
Y1505000D02*
D03*
X328937Y1515000D02*
D03*
Y1505000D02*
D03*
D91*
X533937Y1512500D02*
D03*
X355000Y1177500D02*
D03*
X515000D02*
D03*
X319000Y1250000D02*
D03*
D92*
X660000Y1336333D02*
D03*
Y1434667D02*
D03*
D93*
X670000Y1366500D02*
D03*
Y1375500D02*
D03*
Y1384500D02*
D03*
Y1393500D02*
D03*
Y1402500D02*
D03*
X660000Y1371000D02*
D03*
Y1380000D02*
D03*
Y1389000D02*
D03*
Y1398000D02*
D03*
Y1407000D02*
D03*
X650000Y1366500D02*
D03*
Y1384500D02*
D03*
Y1393500D02*
D03*
Y1375500D02*
D03*
D94*
Y1402500D02*
D03*
D95*
X337815Y1215000D02*
D03*
X361437D02*
D03*
D96*
X368937Y1515000D02*
D03*
D97*
X584469Y1361850D02*
D03*
X456500Y1368319D02*
D03*
X465000Y1381500D02*
D03*
X586437Y1370000D02*
D03*
X493937Y1495000D02*
D03*
X491437Y1497500D02*
D03*
X488937Y1500000D02*
D03*
X486437Y1502500D02*
D03*
X483937Y1505000D02*
D03*
X481437Y1507500D02*
D03*
X457500Y1458500D02*
D03*
X473500Y1438500D02*
D03*
Y1444500D02*
D03*
X525500Y1386500D02*
D03*
X539500Y1426500D02*
D03*
Y1444500D02*
D03*
X559500Y1454500D02*
D03*
X521000Y1453000D02*
D03*
X491500Y1452500D02*
D03*
X507677Y1453677D02*
D03*
X517000Y1453000D02*
D03*
X343000Y1430996D02*
D03*
X552500Y1375531D02*
D03*
X532500Y1357500D02*
D03*
X500000Y1387500D02*
D03*
X486024Y1386476D02*
D03*
X527500Y1437500D02*
D03*
X492500Y1422500D02*
D03*
X507000Y1472500D02*
D03*
X469500Y1369000D02*
D03*
X460531Y1472500D02*
D03*
X435531Y1412500D02*
D03*
X502500Y1392500D02*
D03*
X524500Y1404500D02*
D03*
X502500Y1437500D02*
D03*
Y1417500D02*
D03*
X430000Y1397500D02*
D03*
X331437Y1387500D02*
D03*
X350315Y1405000D02*
D03*
X402500Y1432500D02*
D03*
X577500Y1414000D02*
D03*
X530000Y1447500D02*
D03*
X512500Y1407500D02*
D03*
X480000Y1392500D02*
D03*
X522500Y1430000D02*
D03*
X497500Y1407500D02*
D03*
X412000Y1465000D02*
D03*
X552500Y1367500D02*
D03*
X404468Y1447500D02*
D03*
X400000Y1457618D02*
D03*
X437500Y1457500D02*
D03*
X435000Y1447500D02*
D03*
X447874Y1510504D02*
D03*
X591500Y1376500D02*
D03*
X407500Y1415000D02*
D03*
X323437Y1390000D02*
D03*
Y1397500D02*
D03*
X385437Y1400000D02*
D03*
X371937Y1402500D02*
D03*
Y1397500D02*
D03*
X339937Y1407500D02*
D03*
X430000Y1462500D02*
D03*
X402910Y1497000D02*
D03*
X540000Y1452500D02*
D03*
X562000Y1421500D02*
D03*
X559500Y1429500D02*
D03*
X562500Y1414000D02*
D03*
X452500Y1412500D02*
D03*
X518000Y1473000D02*
D03*
X453000Y1431000D02*
D03*
X583031Y1389468D02*
D03*
X577000Y1395500D02*
D03*
X563500Y1370500D02*
D03*
X464468Y1472500D02*
D03*
X577500Y1421500D02*
D03*
X439468Y1412500D02*
D03*
X427500Y1440000D02*
D03*
X415000Y1502500D02*
D03*
X426181Y1415000D02*
D03*
X342500Y1437000D02*
D03*
X475500Y1402000D02*
D03*
X362933Y1412496D02*
D03*
X343091Y1395031D02*
D03*
X557500Y1367500D02*
D03*
X417500Y1432500D02*
D03*
X481850Y1450000D02*
D03*
X537598Y1385098D02*
D03*
X496000Y1472000D02*
D03*
X469500Y1474500D02*
D03*
X625000Y1335000D02*
D03*
Y1345000D02*
D03*
Y1355000D02*
D03*
Y1365000D02*
D03*
Y1375000D02*
D03*
Y1385000D02*
D03*
Y1395000D02*
D03*
Y1405000D02*
D03*
Y1415000D02*
D03*
Y1425000D02*
D03*
Y1435000D02*
D03*
X393937Y1393000D02*
D03*
X434500Y1375500D02*
D03*
X445000D02*
D03*
X371500Y1465000D02*
D03*
X365500Y1453000D02*
D03*
X322500Y1437000D02*
D03*
X444500Y1369000D02*
D03*
X434500D02*
D03*
X318500Y1427000D02*
D03*
X326500D02*
D03*
X372500Y1425000D02*
D03*
Y1315000D02*
D03*
X377500D02*
D03*
X391500Y1324000D02*
D03*
X400000Y1327500D02*
D03*
X392500Y1315000D02*
D03*
X397500D02*
D03*
X402500D02*
D03*
X407500D02*
D03*
X363000Y1435000D02*
D03*
X383000Y1431000D02*
D03*
X318937Y1447500D02*
D03*
X326437D02*
D03*
X398937Y1470000D02*
D03*
X500437Y1491000D02*
D03*
X490437Y1479500D02*
D03*
X487437Y1484000D02*
D03*
Y1488500D02*
D03*
X435437Y1481000D02*
D03*
X436437Y1467500D02*
D03*
X411437Y1457500D02*
D03*
X502500Y1430000D02*
D03*
X495000Y1450000D02*
D03*
X512000D02*
D03*
X526968Y1396968D02*
D03*
X517500Y1417500D02*
D03*
X430000Y1392500D02*
D03*
X473374Y1430374D02*
D03*
X473343Y1412658D02*
D03*
X493500Y1387750D02*
D03*
X511614Y1385886D02*
D03*
X541500Y1408500D02*
D03*
X540500Y1431500D02*
D03*
X504542Y1451260D02*
D03*
X417500Y1495000D02*
D03*
X348937Y1475000D02*
D03*
X363937D02*
D03*
X378937D02*
D03*
X391437Y1490000D02*
D03*
X363937Y1492500D02*
D03*
X348937D02*
D03*
X378937D02*
D03*
X391437Y1507500D02*
D03*
X333937Y1492500D02*
D03*
X361437Y1455000D02*
D03*
D98*
X415000Y1310000D02*
D03*
X430000Y1252500D02*
D03*
X437500Y1268299D02*
D03*
X410000Y1242250D02*
D03*
X580000D02*
D03*
X495000D02*
D03*
X500000Y1310000D02*
D03*
X582500Y1306500D02*
D03*
X665000Y1242500D02*
D03*
X465000Y1220000D02*
D03*
X497500Y1230000D02*
D03*
X662500Y1202500D02*
D03*
X482500Y1237500D02*
D03*
X492500D02*
D03*
X324055Y1315118D02*
D03*
X316437Y1315000D02*
D03*
X323937Y1260000D02*
D03*
X341437Y1242500D02*
D03*
X373740Y1327740D02*
D03*
Y1333620D02*
D03*
X607799Y1242250D02*
D03*
X693299Y1242500D02*
D03*
X617500Y1270250D02*
D03*
X687500Y1277500D02*
D03*
X695000Y1310000D02*
D03*
X535000Y1287500D02*
D03*
X532500Y1270000D02*
D03*
X450000Y1287500D02*
D03*
X447500Y1270000D02*
D03*
X524850Y1310000D02*
D03*
X523299Y1242250D02*
D03*
X581000Y1222500D02*
D03*
X438299Y1310000D02*
D03*
X365000Y1287500D02*
D03*
X362500Y1250000D02*
D03*
X602500Y1277500D02*
D03*
X437500Y1242250D02*
D03*
X517500Y1277500D02*
D03*
X620000Y1287750D02*
D03*
X605000Y1310000D02*
D03*
X440000Y1279350D02*
D03*
X356437Y1242500D02*
D03*
X334114Y1257677D02*
D03*
X622500Y1247750D02*
D03*
X627500D02*
D03*
X632500D02*
D03*
X637500D02*
D03*
X642500D02*
D03*
X647500D02*
D03*
X652500D02*
D03*
X657500D02*
D03*
X572500Y1247500D02*
D03*
X567500D02*
D03*
X562500D02*
D03*
X557500D02*
D03*
X552500D02*
D03*
X547500D02*
D03*
X542500D02*
D03*
X537500D02*
D03*
X487500Y1242500D02*
D03*
X610000Y1222500D02*
D03*
X687500Y1255250D02*
D03*
X602500Y1254201D02*
D03*
X517500Y1255000D02*
D03*
X670000Y1247750D02*
D03*
X585000Y1247500D02*
D03*
X500000D02*
D03*
X415000D02*
D03*
X567516Y1461000D02*
D03*
X551516D02*
D03*
X524000Y1366500D02*
D03*
X321437Y1370000D02*
D03*
X336437D02*
D03*
X499500Y1365000D02*
D03*
X438937Y1223563D02*
D03*
X462500Y1247500D02*
D03*
X457500Y1242500D02*
D03*
X602500Y1300000D02*
D03*
X517500D02*
D03*
X687500Y1300250D02*
D03*
X587500Y1287500D02*
D03*
X680000Y1297750D02*
D03*
X477500Y1242500D02*
D03*
X472500Y1247500D02*
D03*
X425000Y1297500D02*
D03*
X467500Y1242500D02*
D03*
X667500Y1310000D02*
D03*
X689937Y1457937D02*
D03*
Y1487937D02*
D03*
X440000Y1290150D02*
D03*
X695000Y1321000D02*
D03*
X447500Y1247500D02*
D03*
X360000Y1355000D02*
D03*
X370000D02*
D03*
X380000D02*
D03*
X412937Y1223563D02*
D03*
X516437Y1517500D02*
D03*
X487437Y1517500D02*
D03*
X343937Y1370000D02*
D03*
X328937D02*
D03*
X690000Y1217500D02*
D03*
X670020Y1210020D02*
D03*
X675000Y1222500D02*
D03*
X318937Y1225000D02*
D03*
Y1217500D02*
D03*
Y1210000D02*
D03*
X316437Y1305000D02*
D03*
X317087Y1291850D02*
D03*
M02*
