G04*
G04 #@! TF.GenerationSoftware,Altium Limited,CircuitStudio,1.5.2 (30)*
G04*
G04 Layer_Color=16770453*
%FSLAX25Y25*%
%MOIN*%
G70*
G01*
G75*
%ADD27R,0.06500X0.30000*%
%ADD28C,0.01000*%
%ADD35C,0.00800*%
%ADD36C,0.00600*%
%ADD59R,0.03937X0.03740*%
%ADD60R,0.03740X0.03937*%
%ADD61R,0.02362X0.02362*%
%ADD62R,0.02362X0.02362*%
%ADD63R,0.06000X0.05000*%
%ADD64R,0.05000X0.06000*%
%ADD65R,0.03937X0.03937*%
%ADD66R,0.03937X0.03937*%
D27*
X395000Y1152500D02*
D03*
X665000D02*
D03*
X655000D02*
D03*
X645000D02*
D03*
X635000D02*
D03*
X355000D02*
D03*
X365000D02*
D03*
X375000D02*
D03*
X385000D02*
D03*
X415000D02*
D03*
X425000D02*
D03*
X435000D02*
D03*
X445000D02*
D03*
X455000D02*
D03*
X465000D02*
D03*
X475000D02*
D03*
X485000D02*
D03*
X495000D02*
D03*
X505000D02*
D03*
X515000D02*
D03*
X525000D02*
D03*
X535000D02*
D03*
X545000D02*
D03*
X555000D02*
D03*
X565000D02*
D03*
X575000D02*
D03*
X585000D02*
D03*
X595000D02*
D03*
X605000D02*
D03*
X615000D02*
D03*
X625000D02*
D03*
D28*
X293189Y1527701D02*
Y1529701D01*
X289252Y1135000D02*
X294189D01*
X293189Y1347845D02*
Y1528701D01*
Y1135000D02*
Y1312656D01*
X291189Y1522701D02*
X293189Y1528701D01*
X295189Y1522701D01*
X293189Y1135000D02*
X295189Y1141000D01*
X291189D02*
X293189Y1135000D01*
X308937Y1537126D02*
Y1546000D01*
X702638Y1541063D02*
Y1546000D01*
X308937Y1545000D02*
X486592D01*
X521782D02*
X702638D01*
X308937D02*
X314937Y1543000D01*
X308937Y1545000D02*
X314937Y1547000D01*
X696638D02*
X702638Y1545000D01*
X696638Y1543000D02*
X702638Y1545000D01*
X401000Y1167500D02*
X409000D01*
Y1135000D02*
X670300D01*
X349700D02*
X401000D01*
X409000D02*
Y1167500D01*
X401000Y1135000D02*
Y1167500D01*
X702500D02*
Y1528701D01*
X308937D02*
X702500D01*
X308937Y1167500D02*
Y1528701D01*
X674300Y1167500D02*
X702500D01*
X674300Y1139000D02*
Y1167500D01*
X308937D02*
X345700D01*
Y1139000D02*
Y1167500D01*
X670300Y1135000D02*
X674300Y1139000D01*
X345700D02*
X349700Y1135000D01*
X308937Y1133563D02*
Y1167500D01*
X302500Y1135000D02*
X349700D01*
X401000Y1167500D02*
X409000D01*
X401000Y1137000D02*
Y1167500D01*
X350000Y1135000D02*
X401000D01*
X409000Y1137000D02*
Y1167500D01*
Y1137000D02*
X670000D01*
D35*
X402500Y1160500D02*
X406499D01*
X402500Y1157834D01*
X406499D01*
X402500Y1155835D02*
Y1154502D01*
X403166Y1153835D01*
X404499D01*
X405166Y1154502D01*
Y1155835D01*
X404499Y1156501D01*
X403166D01*
X402500Y1155835D01*
X405832Y1151836D02*
X405166D01*
Y1152503D01*
Y1151170D01*
Y1151836D01*
X403166D01*
X402500Y1151170D01*
X405166Y1146504D02*
Y1148504D01*
X404499Y1149170D01*
X403166D01*
X402500Y1148504D01*
Y1146504D01*
X406499Y1145172D02*
X402500D01*
X404499D01*
X405166Y1144505D01*
Y1143172D01*
X404499Y1142506D01*
X402500D01*
D36*
X296788Y1314256D02*
Y1316255D01*
Y1315255D01*
X290790D01*
X291790Y1314256D01*
Y1319254D02*
X290790Y1320254D01*
Y1322253D01*
X291790Y1323253D01*
X295788D01*
X296788Y1322253D01*
Y1320254D01*
X295788Y1319254D01*
X291790D01*
Y1325252D02*
X290790Y1326252D01*
Y1328251D01*
X291790Y1329251D01*
X295788D01*
X296788Y1328251D01*
Y1326252D01*
X295788Y1325252D01*
X291790D01*
X296788Y1331250D02*
X295788D01*
Y1332250D01*
X296788D01*
Y1331250D01*
X291790Y1336248D02*
X290790Y1337248D01*
Y1339247D01*
X291790Y1340247D01*
X295788D01*
X296788Y1339247D01*
Y1337248D01*
X295788Y1336248D01*
X291790D01*
Y1342247D02*
X290790Y1343246D01*
Y1345245D01*
X291790Y1346245D01*
X295788D01*
X296788Y1345245D01*
Y1343246D01*
X295788Y1342247D01*
X291790D01*
X488193Y1541401D02*
X490192D01*
X489192D01*
Y1547399D01*
X488193Y1546399D01*
X493191D02*
X494191Y1547399D01*
X496190D01*
X497190Y1546399D01*
Y1542401D01*
X496190Y1541401D01*
X494191D01*
X493191Y1542401D01*
Y1546399D01*
X499189D02*
X500189Y1547399D01*
X502188D01*
X503188Y1546399D01*
Y1542401D01*
X502188Y1541401D01*
X500189D01*
X499189Y1542401D01*
Y1546399D01*
X505187Y1541401D02*
Y1542401D01*
X506187D01*
Y1541401D01*
X505187D01*
X510185Y1546399D02*
X511185Y1547399D01*
X513184D01*
X514184Y1546399D01*
Y1542401D01*
X513184Y1541401D01*
X511185D01*
X510185Y1542401D01*
Y1546399D01*
X516184D02*
X517183Y1547399D01*
X519182D01*
X520182Y1546399D01*
Y1542401D01*
X519182Y1541401D01*
X517183D01*
X516184Y1542401D01*
Y1546399D01*
D59*
X432500Y1281850D02*
D03*
Y1288150D02*
D03*
X430000Y1266299D02*
D03*
Y1260000D02*
D03*
X462500Y1375650D02*
D03*
Y1369350D02*
D03*
X591437Y1361850D02*
D03*
Y1368150D02*
D03*
X591500Y1383350D02*
D03*
Y1389650D02*
D03*
X333937Y1481850D02*
D03*
Y1488150D02*
D03*
X517500Y1292500D02*
D03*
Y1286201D02*
D03*
X517500Y1268799D02*
D03*
Y1262500D02*
D03*
X602500Y1292500D02*
D03*
Y1286201D02*
D03*
X602500Y1268000D02*
D03*
Y1261701D02*
D03*
X687500Y1292750D02*
D03*
Y1286451D02*
D03*
X687500Y1269049D02*
D03*
Y1262750D02*
D03*
X316437Y1389350D02*
D03*
Y1395650D02*
D03*
X577500Y1361850D02*
D03*
Y1368150D02*
D03*
Y1377350D02*
D03*
Y1383650D02*
D03*
X410000Y1503150D02*
D03*
Y1496850D02*
D03*
X391437Y1503150D02*
D03*
Y1496850D02*
D03*
X378937Y1488150D02*
D03*
Y1481850D02*
D03*
X363937Y1488150D02*
D03*
Y1481850D02*
D03*
X348937Y1488150D02*
D03*
Y1481850D02*
D03*
X537500Y1398799D02*
D03*
Y1392500D02*
D03*
X405000Y1458150D02*
D03*
Y1451850D02*
D03*
X379500Y1363350D02*
D03*
Y1369650D02*
D03*
X371500Y1458150D02*
D03*
Y1451850D02*
D03*
X372500Y1438150D02*
D03*
Y1431850D02*
D03*
X550000Y1439350D02*
D03*
Y1445650D02*
D03*
X443937Y1475650D02*
D03*
Y1469350D02*
D03*
X343437Y1363213D02*
D03*
Y1356913D02*
D03*
X333937Y1250650D02*
D03*
Y1244350D02*
D03*
X348937D02*
D03*
Y1250650D02*
D03*
D60*
X430799Y1310000D02*
D03*
X424500D02*
D03*
X420649Y1415000D02*
D03*
X414350D02*
D03*
X424500Y1242250D02*
D03*
X430799D02*
D03*
X600799D02*
D03*
X594500D02*
D03*
X515799D02*
D03*
X509500D02*
D03*
X518150Y1310000D02*
D03*
X511850D02*
D03*
X591850D02*
D03*
X598150D02*
D03*
X685799Y1242500D02*
D03*
X679500D02*
D03*
X687500Y1310000D02*
D03*
X681201D02*
D03*
X331083Y1437000D02*
D03*
X337382D02*
D03*
X346850D02*
D03*
X353150D02*
D03*
X379787Y1393000D02*
D03*
X386087D02*
D03*
X385768Y1405000D02*
D03*
X379468D02*
D03*
X493287Y1486000D02*
D03*
X499587D02*
D03*
X488150Y1445000D02*
D03*
X481850D02*
D03*
X631850Y1345000D02*
D03*
X638150D02*
D03*
X631850Y1335000D02*
D03*
X638150D02*
D03*
X631850Y1365000D02*
D03*
X638150D02*
D03*
X631850Y1375000D02*
D03*
X638150D02*
D03*
X631850Y1395000D02*
D03*
X638150D02*
D03*
X631850Y1405000D02*
D03*
X638150D02*
D03*
X631850Y1425000D02*
D03*
X638150D02*
D03*
X631850Y1435000D02*
D03*
X638150D02*
D03*
X631850Y1415000D02*
D03*
X638150D02*
D03*
X631850Y1385000D02*
D03*
X638150D02*
D03*
X631850Y1355000D02*
D03*
X638150D02*
D03*
X323287Y1305000D02*
D03*
X329587D02*
D03*
D61*
X557500Y1375531D02*
D03*
Y1379468D02*
D03*
X425000Y1393032D02*
D03*
Y1396968D02*
D03*
X427500Y1434468D02*
D03*
Y1430531D02*
D03*
X482500Y1430532D02*
D03*
Y1434468D02*
D03*
X532000Y1431468D02*
D03*
Y1427531D02*
D03*
X505000Y1446968D02*
D03*
Y1443031D02*
D03*
X532500Y1366968D02*
D03*
Y1363031D02*
D03*
X505000Y1359468D02*
D03*
Y1355531D02*
D03*
X515000Y1364468D02*
D03*
Y1360531D02*
D03*
X490000Y1364468D02*
D03*
Y1360531D02*
D03*
X560000Y1446968D02*
D03*
Y1443031D02*
D03*
X570000Y1446968D02*
D03*
Y1443031D02*
D03*
X547500Y1379468D02*
D03*
Y1375531D02*
D03*
X477500Y1455532D02*
D03*
Y1459468D02*
D03*
X485000Y1455532D02*
D03*
Y1459468D02*
D03*
D62*
X557547Y1461000D02*
D03*
X561484D02*
D03*
X411969Y1432500D02*
D03*
X408031D02*
D03*
X439468Y1407500D02*
D03*
X435531D02*
D03*
X439468Y1417500D02*
D03*
X435531D02*
D03*
X526968Y1392500D02*
D03*
X523031D02*
D03*
X511969Y1417500D02*
D03*
X508031D02*
D03*
X480532Y1412500D02*
D03*
X484469D02*
D03*
X511969Y1392500D02*
D03*
X508031D02*
D03*
X491968D02*
D03*
X488031D02*
D03*
X529468Y1408500D02*
D03*
X525531D02*
D03*
X515531Y1447500D02*
D03*
X519468D02*
D03*
X493032Y1437500D02*
D03*
X496969D02*
D03*
X556968Y1362500D02*
D03*
X553031D02*
D03*
X568032Y1410000D02*
D03*
X571969D02*
D03*
X464468Y1477500D02*
D03*
X460531D02*
D03*
X568032Y1422500D02*
D03*
X571969D02*
D03*
X516968Y1480000D02*
D03*
X513031D02*
D03*
X516968Y1467500D02*
D03*
X513031D02*
D03*
X565531Y1430000D02*
D03*
X569468D02*
D03*
X464468Y1467500D02*
D03*
X460531D02*
D03*
X504468Y1425000D02*
D03*
X500531D02*
D03*
D63*
X421437Y1223563D02*
D03*
X430437D02*
D03*
X600000Y1222500D02*
D03*
X591000D02*
D03*
X505437Y1517500D02*
D03*
X496437D02*
D03*
D64*
X689937Y1467937D02*
D03*
Y1476937D02*
D03*
D65*
X424846Y1465500D02*
D03*
X418153D02*
D03*
X343091Y1400000D02*
D03*
X349783D02*
D03*
X323091Y1291850D02*
D03*
X329783D02*
D03*
D66*
X369500Y1363153D02*
D03*
Y1369846D02*
D03*
X328437Y1363409D02*
D03*
Y1356717D02*
D03*
M02*
