M48
;Layer_Color=6321
;FILE_FORMAT=2:5
INCH,LZ
;TYPE=PLATED
T1F00S00C0.01200
T2F00S00C0.02000
T3F00S00C0.03800
T5F00S00C0.04000
T6F00S00C0.11833
%
T01
X03725Y1315
X03775
X03925
X03975
X04025
X04075
X04Y13275
X03915Y1324
X0393937Y1393
X0385437Y14
X0371937Y13975
Y14025
X0350315Y1405
X0343091Y1395031
X0331437Y13875
X0323437Y139
Y13975
X043
Y13925
X04345Y13755
Y1369
X04445
X0445Y13755
X04565Y13695
X04695Y1369
X048Y13925
X0486024Y1386476
X04935Y138775
X05Y13875
X05025Y13925
X0511614Y1385886
X05255Y13865
X0526968Y1396968
X05245Y14045
X0537598Y1385098
X05525Y1375531
Y13675
X05575
X05635Y13705
X05775Y1355
X05915Y13765
X0583031Y1389468
X0577Y13955
X05325Y13575
X04755Y1402
X0625Y1405
Y1395
Y1385
Y1375
Y1365
Y1355
Y1345
Y1335
Y1415
Y1425
Y1435
Y1454
X0675
X062
X0615
X061
X0605
X06
X05595Y14545
X054Y14525
X05395Y14445
X053Y14475
X05275Y14375
X05225Y143
X051
X05025
Y14375
X0504542Y145126
X0507677Y1453677
X0512Y145
X0517Y1453
X0521
X0518Y1473
X0507Y14725
X0496Y1472
X0490437Y14795
X0487437Y1484
Y14885
X0500437Y1491
X0503937Y15075
X0502937Y1516
Y1521
X0473937Y1495
X04695Y14745
X04735Y14445
Y14385
X0473374Y1430374
X0473343Y1412658
X049Y14125
X04975Y14075
X05125
X05175Y14175
X05025
X04925Y14225
X0495Y145
X04915Y14525
X048185Y145
X05405Y14315
X05395Y14265
X05415Y14085
X05625Y1414
X0562Y14215
X05595Y14295
X05775Y14215
Y1414
X06Y1524882
X0605
X061
X0615
X0454937Y151
Y1505
X0453937Y1495
X0460531Y14725
X0464468
X04575Y14585
X04375Y14575
X043Y14625
X0435Y14475
X04275Y144
X04175Y14325
X04025
X0404468Y14475
X04Y1457618
X0411437Y14575
X0412Y1465
X0398937Y147
X0383937
X03715Y1465
X0368937Y1475
X03485Y1476819
X0348937Y1495
X0341437Y14925
X0348937Y1505
X03485Y1510681
X0361Y15005
X039041Y1497
X0405Y1495
X04025Y15025
X0435374Y1510504
X0453Y1431
X04525Y14125
X0439468
X0435531
X0426181Y1415
X04075
X0383Y1431
X03725Y1425
X0363Y1435
X03655Y1453
X03425Y1437
X0343Y1430996
X03265Y1427
X03185
X03225Y1437
X0318937Y14475
X0326437
X0339937Y14075
X0362933Y1412496
T02
X06625Y12025
X067002Y121002
X0675Y12225
X069Y12175
X0693299Y12425
X067Y124775
X06575Y124775
X06525
X06475
X06425
X06375
X06325
X06275
X06225
X0607799Y124225
X061Y12225
X0581Y12225
X0585Y12475
X05725Y12475
X05675
X05625
X05575
X05525
X05475
X05425
X05375
X0523299Y124225
X05Y12475
X04875Y12425
X04775Y12425
X04725Y12475
X04825Y12375
X04925
X04975Y123
X04675Y12425
X04575
X04625Y12475
X04475
X04375Y124225
X0438937Y1223563
X0412937
X0415Y12475
X0356437Y12425
X0341437
X0318937Y1225
Y12175
Y121
X0465Y122
X043Y12525
X04375Y1268299
X04475Y127
X044Y127935
Y129015
X045Y12875
X0438299Y131
X0425Y12975
X0365Y12875
X03625Y125
X0334114Y1257677
X0323937Y126
X0317087Y129185
X0316437Y1305
X0316437Y1315
X0324055Y1315118
X0321437Y137
X0328937
X0336437
X0343937
X036Y1355
X037
X038
X037374Y133362
Y132774
X04995Y1365
X0524Y13665
X052485Y131
X05175Y13
Y12775
X05325Y127
X0535Y12875
X05175Y1255
X06025Y1254201
X06025Y12775
X06175Y127025
X062Y128775
X06025Y13
X0605Y131
X05875Y12875
X06675Y131
X068Y129775
X06875Y130025
X0695Y131
X0695Y1321
X06875Y12775
X06875Y125525
X0687437Y1475437
Y1505437
X0561437Y15125
X0532437Y15125
X0551516Y1461
X0567516
X03615Y14855
T03
X0611437Y12325
X041Y13525
Y13625
X04125Y1495
Y1505
T05
X0625Y11775
X0635
X0645
X0655
X0665
Y11875
X0655
X0645
X0635
X0625
X0615
Y11775
X0605
Y11875
X0595
Y11775
X0585
Y11875
X0575
Y11775
X0565
Y11875
X0555
Y11775
X0545
Y11875
X0535
Y11775
X0525
Y11875
X0515
Y11775
X0505
Y11875
X0495
Y11775
X0485
Y11875
X0475
Y11775
X0465
Y11875
X0455
Y11775
X0445
Y11875
X0435
Y11775
X0425
Y11875
X0415
Y11775
X0405
Y11875
X0395
Y11775
X0385
Y11875
X0375
Y11775
X0365
Y11875
X0355
Y11775
X0326437
Y11875
X0319Y124
Y125
X065Y13665
Y13755
Y13845
Y13935
Y14025
X066Y1398
Y1389
Y138
Y1371
X067Y13755
Y13845
Y13935
Y14025
Y13665
X066Y1407
X0331437Y1475
X0321437
Y1485
X0331437
Y1495
X0321437
Y1505
X0331437
Y1515
X0321437
T06
X066Y1336333
Y1434667
M30
